%TF.GenerationSoftware,KiCad,Pcbnew,(6.0.10)*%
%TF.CreationDate,2023-01-27T04:18:18-05:00*%
%TF.ProjectId,vehicle-can-collector,76656869-636c-4652-9d63-616e2d636f6c,rev?*%
%TF.SameCoordinates,Original*%
%TF.FileFunction,Paste,Bot*%
%TF.FilePolarity,Positive*%
%FSLAX46Y46*%
G04 Gerber Fmt 4.6, Leading zero omitted, Abs format (unit mm)*
G04 Created by KiCad (PCBNEW (6.0.10)) date 2023-01-27 04:18:18*
%MOMM*%
%LPD*%
G01*
G04 APERTURE LIST*
G04 Aperture macros list*
%AMRoundRect*
0 Rectangle with rounded corners*
0 $1 Rounding radius*
0 $2 $3 $4 $5 $6 $7 $8 $9 X,Y pos of 4 corners*
0 Add a 4 corners polygon primitive as box body*
4,1,4,$2,$3,$4,$5,$6,$7,$8,$9,$2,$3,0*
0 Add four circle primitives for the rounded corners*
1,1,$1+$1,$2,$3*
1,1,$1+$1,$4,$5*
1,1,$1+$1,$6,$7*
1,1,$1+$1,$8,$9*
0 Add four rect primitives between the rounded corners*
20,1,$1+$1,$2,$3,$4,$5,0*
20,1,$1+$1,$4,$5,$6,$7,0*
20,1,$1+$1,$6,$7,$8,$9,0*
20,1,$1+$1,$8,$9,$2,$3,0*%
G04 Aperture macros list end*
%ADD10RoundRect,0.250000X0.450000X-0.350000X0.450000X0.350000X-0.450000X0.350000X-0.450000X-0.350000X0*%
%ADD11RoundRect,0.250000X-0.337500X-0.475000X0.337500X-0.475000X0.337500X0.475000X-0.337500X0.475000X0*%
%ADD12RoundRect,0.250000X-0.475000X0.337500X-0.475000X-0.337500X0.475000X-0.337500X0.475000X0.337500X0*%
%ADD13RoundRect,0.250000X1.075000X-0.400000X1.075000X0.400000X-1.075000X0.400000X-1.075000X-0.400000X0*%
%ADD14R,0.797560X0.899160*%
%ADD15RoundRect,0.250000X0.275000X0.350000X-0.275000X0.350000X-0.275000X-0.350000X0.275000X-0.350000X0*%
%ADD16RoundRect,0.249999X-0.450001X-1.425001X0.450001X-1.425001X0.450001X1.425001X-0.450001X1.425001X0*%
%ADD17RoundRect,0.250000X0.475000X-0.337500X0.475000X0.337500X-0.475000X0.337500X-0.475000X-0.337500X0*%
%ADD18RoundRect,0.250000X-0.350000X-0.450000X0.350000X-0.450000X0.350000X0.450000X-0.350000X0.450000X0*%
%ADD19RoundRect,0.250000X0.337500X0.475000X-0.337500X0.475000X-0.337500X-0.475000X0.337500X-0.475000X0*%
%ADD20R,0.914400X0.558800*%
%ADD21RoundRect,0.250000X0.350000X0.450000X-0.350000X0.450000X-0.350000X-0.450000X0.350000X-0.450000X0*%
%ADD22RoundRect,0.150000X0.587500X0.150000X-0.587500X0.150000X-0.587500X-0.150000X0.587500X-0.150000X0*%
G04 APERTURE END LIST*
D10*
%TO.C,R303*%
X154305000Y-55880000D03*
X154305000Y-53880000D03*
%TD*%
D11*
%TO.C,C1011*%
X145880000Y-69850000D03*
X147955000Y-69850000D03*
%TD*%
D12*
%TO.C,C1002*%
X125730000Y-53572500D03*
X125730000Y-55647500D03*
%TD*%
D13*
%TO.C,R902*%
X88900000Y-95530000D03*
X88900000Y-92430000D03*
%TD*%
D14*
%TO.C,D403*%
X81909920Y-68580000D03*
X80010000Y-68580000D03*
X80959960Y-66481960D03*
%TD*%
D15*
%TO.C,L501*%
X146700000Y-58420000D03*
X144400000Y-58420000D03*
%TD*%
D16*
%TO.C,R721*%
X85340000Y-62230000D03*
X91440000Y-62230000D03*
%TD*%
D11*
%TO.C,C602*%
X94847500Y-114935000D03*
X96922500Y-114935000D03*
%TD*%
D10*
%TO.C,R1101*%
X130175000Y-86725000D03*
X130175000Y-84725000D03*
%TD*%
D11*
%TO.C,C201*%
X130810000Y-66675000D03*
X132885000Y-66675000D03*
%TD*%
D12*
%TO.C,C1006*%
X143510000Y-64367500D03*
X143510000Y-66442500D03*
%TD*%
D10*
%TO.C,R1104*%
X140970000Y-86725000D03*
X140970000Y-84725000D03*
%TD*%
D17*
%TO.C,C1012*%
X155575000Y-61997500D03*
X155575000Y-59922500D03*
%TD*%
D12*
%TO.C,C708*%
X85090000Y-56980000D03*
X85090000Y-59055000D03*
%TD*%
D10*
%TO.C,R1102*%
X133350000Y-86725000D03*
X133350000Y-84725000D03*
%TD*%
D11*
%TO.C,C1001*%
X132312500Y-53340000D03*
X134387500Y-53340000D03*
%TD*%
D18*
%TO.C,R906*%
X81915000Y-108585000D03*
X83915000Y-108585000D03*
%TD*%
D19*
%TO.C,C1007*%
X152570000Y-69850000D03*
X150495000Y-69850000D03*
%TD*%
D17*
%TO.C,C514*%
X139715000Y-60727500D03*
X139715000Y-58652500D03*
%TD*%
D12*
%TO.C,C510*%
X122555000Y-96117500D03*
X122555000Y-98192500D03*
%TD*%
D20*
%TO.C,D402*%
X82473800Y-71439999D03*
X82473800Y-73340001D03*
X80086200Y-72390000D03*
%TD*%
D18*
%TO.C,R909*%
X84725000Y-111760000D03*
X86725000Y-111760000D03*
%TD*%
D12*
%TO.C,C801*%
X93980000Y-129137500D03*
X93980000Y-131212500D03*
%TD*%
D21*
%TO.C,R904*%
X79105000Y-111125000D03*
X77105000Y-111125000D03*
%TD*%
D19*
%TO.C,C1010*%
X150897500Y-57785000D03*
X148822500Y-57785000D03*
%TD*%
D17*
%TO.C,C1014*%
X152400000Y-63267500D03*
X152400000Y-61192500D03*
%TD*%
D12*
%TO.C,C513*%
X142255000Y-58652500D03*
X142255000Y-60727500D03*
%TD*%
D13*
%TO.C,R903*%
X80645000Y-98985000D03*
X80645000Y-95885000D03*
%TD*%
D12*
%TO.C,C1008*%
X156210000Y-64600000D03*
X156210000Y-66675000D03*
%TD*%
D21*
%TO.C,R908*%
X83820000Y-105410000D03*
X81820000Y-105410000D03*
%TD*%
D10*
%TO.C,R1103*%
X144780000Y-86455000D03*
X144780000Y-84455000D03*
%TD*%
D14*
%TO.C,D404*%
X82229960Y-88628220D03*
X80330040Y-88628220D03*
X81280000Y-86530180D03*
%TD*%
D10*
%TO.C,R1105*%
X137160000Y-86725000D03*
X137160000Y-84725000D03*
%TD*%
D12*
%TO.C,C1003*%
X125730000Y-59922500D03*
X125730000Y-61997500D03*
%TD*%
D14*
%TO.C,D405*%
X82229960Y-77833220D03*
X80330040Y-77833220D03*
X81280000Y-75735180D03*
%TD*%
D18*
%TO.C,R905*%
X80645000Y-111760000D03*
X82645000Y-111760000D03*
%TD*%
D22*
%TO.C,Q901*%
X78407500Y-106365000D03*
X78407500Y-108265000D03*
X76532500Y-107315000D03*
%TD*%
D17*
%TO.C,C1013*%
X149860000Y-63035000D03*
X149860000Y-60960000D03*
%TD*%
D12*
%TO.C,C1009*%
X146685000Y-54842500D03*
X146685000Y-56917500D03*
%TD*%
D11*
%TO.C,C1005*%
X144377500Y-61595000D03*
X146452500Y-61595000D03*
%TD*%
D20*
%TO.C,D401*%
X82473800Y-91124999D03*
X82473800Y-93025001D03*
X80086200Y-92075000D03*
%TD*%
D11*
%TO.C,C1004*%
X129137500Y-64135000D03*
X131212500Y-64135000D03*
%TD*%
M02*
