M48
; DRILL file {KiCad 6.0.2+dfsg-1} date Fri 27 Jan 2023 10:33:00 AM EST
; FORMAT={-:-/ absolute / inch / decimal}
; #@! TF.CreationDate,2023-01-27T10:33:00-05:00
; #@! TF.GenerationSoftware,Kicad,Pcbnew,6.0.2+dfsg-1
; #@! TF.FileFunction,Plated,1,4,PTH
FMAT,2
INCH
; #@! TA.AperFunction,Plated,PTH,ViaDrill
T1C0.0157
; #@! TA.AperFunction,Plated,PTH,ComponentDrill
T2C0.0256
; #@! TA.AperFunction,Plated,PTH,ComponentDrill
T3C0.0275
; #@! TA.AperFunction,Plated,PTH,ComponentDrill
T4C0.0276
; #@! TA.AperFunction,Plated,PTH,ComponentDrill
T5C0.0295
; #@! TA.AperFunction,Plated,PTH,ComponentDrill
T6C0.0315
; #@! TA.AperFunction,Plated,PTH,ComponentDrill
T7C0.0433
; #@! TA.AperFunction,Plated,PTH,ComponentDrill
T8C0.0866
%
G90
G05
T1
X2.875Y-4.675
X2.95Y-3.975
X2.95Y-4.825
X2.975Y-4.3
X3.0Y-4.075
X3.05Y-4.475
X3.06Y-4.125
X3.075Y-4.525
X3.1Y-4.12
X3.115Y-4.315
X3.15Y-2.175
X3.15Y-2.5
X3.1733Y-4.0753
X3.175Y-2.425
X3.175Y-4.1535
X3.175Y-4.6
X3.1965Y-4.2
X3.2Y-4.4535
X3.2673Y-4.1923
X3.275Y-3.9
X3.275Y-4.1
X3.275Y-4.35
X3.28Y-4.045
X3.3Y-2.15
X3.3Y-2.35
X3.325Y-1.9
X3.325Y-4.225
X3.325Y-4.4535
X3.325Y-5.3
X3.35Y-2.15
X3.35Y-2.55
X3.35Y-4.675
X3.35Y-4.3488
X3.375Y-5.025
X3.425Y-1.9
X3.425Y-2.325
X3.425Y-2.5
X3.425Y-3.925
X3.45Y-2.45
X3.475Y-3.825
X3.475Y-4.85
X3.5Y-1.75
X3.5Y-2.725
X3.5Y-2.975
X3.525Y-4.425
X3.55Y-1.875
X3.55Y-1.95
X3.575Y-2.125
X3.575Y-3.4465
X3.575Y-4.375
X3.6Y-3.325
X3.6Y-3.85
X3.6Y-4.15
X3.6Y-4.925
X3.625Y-1.825
X3.625Y-3.775
X3.625Y-4.475
X3.6278Y-3.8778
X3.6356Y-3.0356
X3.65Y-2.35
X3.675Y-2.45
X3.7Y-1.925
X3.7Y-2.075
X3.7Y-2.935
X3.7425Y-3.5075
X3.75Y-3.8
X3.75Y-3.925
X3.775Y-1.775
X3.775Y-2.175
X3.775Y-2.45
X3.775Y-3.125
X3.775Y-5.35
X3.7866Y-4.5884
X3.8Y-5.175
X3.8104Y-1.9535
X3.825Y-3.275
X3.825Y-3.8
X3.85Y-2.75
X3.85Y-3.375
X3.85Y-4.85
X3.875Y-1.825
X3.875Y-3.6
X3.875Y-4.525
X3.9Y-5.025
X3.9233Y-2.0176
X3.925Y-1.9587
X3.925Y-3.025
X3.925Y-3.175
X3.925Y-3.6
X3.925Y-3.65
X3.95Y-2.1715
X3.9741Y-2.0454
X3.975Y-2.1105
X3.975Y-2.525
X3.975Y-3.8
X3.975Y-4.275
X4.0Y-1.95
X4.0Y-2.0
X4.0Y-2.075
X4.0Y-2.575
X4.0Y-3.875
X4.0Y-4.365
X4.0Y-5.275
X4.0Y-5.375
X4.011Y-2.139
X4.025Y-1.75
X4.025Y-1.875
X4.025Y-3.175
X4.05Y-1.9535
X4.05Y-3.875
X4.05Y-4.5
X4.075Y-3.65
X4.1Y-2.7
X4.1Y-4.875
X4.1123Y-5.0623
X4.125Y-1.825
X4.125Y-1.875
X4.125Y-3.225
X4.125Y-3.925
X4.125Y-4.95
X4.125Y-5.2
X4.1294Y-2.1303
X4.1472Y-2.0778
X4.15Y-3.075
X4.15Y-3.525
X4.15Y-3.8
X4.15Y-5.125
X4.175Y-2.05
X4.175Y-3.2035
X4.175Y-4.425
X4.2Y-3.0
X4.2Y-3.15
X4.225Y-2.875
X4.225Y-2.95
X4.225Y-3.6
X4.25Y-2.825
X4.25Y-3.35
X4.2881Y-5.2119
X4.3Y-1.925
X4.3Y-2.55
X4.3Y-3.1
X4.3Y-3.475
X4.3Y-3.725
X4.3Y-5.05
X4.325Y-4.625
X4.325Y-4.725
X4.325Y-4.925
X4.35Y-2.225
X4.35Y-2.925
X4.35Y-3.275
X4.35Y-3.6
X4.3537Y-5.3037
X4.375Y-3.725
X4.375Y-4.075
X4.375Y-4.175
X4.3785Y-3.225
X4.4035Y-3.125
X4.425Y-3.8
X4.425Y-4.625
X4.475Y-3.075
X4.475Y-3.625
X4.475Y-4.075
X4.475Y-4.425
X4.5Y-3.875
X4.525Y-2.05
X4.525Y-3.775
X4.525Y-3.925
X4.525Y-4.425
X4.575Y-1.6215
X4.575Y-2.35
X4.575Y-2.475
X4.575Y-4.825
X4.6Y-2.4
X4.6Y-2.4394
X4.6Y-5.025
X4.6Y-5.475
X4.6225Y-5.125
X4.625Y-1.6215
X4.625Y-1.85
X4.625Y-2.525
X4.625Y-3.0
X4.6327Y-2.2577
X4.65Y-3.325
X4.65Y-4.75
X4.65Y-5.275
X4.6535Y-2.575
X4.675Y-1.825
X4.675Y-2.25
X4.675Y-4.05
X4.675Y-4.1465
X4.7Y-3.025
X4.7Y-4.8
X4.7035Y-2.675
X4.7106Y-2.625
X4.725Y-2.125
X4.75Y-2.625
X4.75Y-3.0
X4.775Y-2.225
X4.775Y-2.4
X4.775Y-2.4465
X4.775Y-2.525
X4.775Y-3.725
X4.775Y-4.625
X4.775Y-4.975
X4.8Y-1.675
X4.8Y-2.675
X4.8Y-4.775
X4.8141Y-2.2207
X4.8239Y-2.3683
X4.825Y-3.075
X4.825Y-3.725
X4.8278Y-2.7028
X4.85Y-2.0535
X4.85Y-2.4254
X4.85Y-2.475
X4.85Y-4.325
X4.8734Y-2.7266
X4.875Y-1.65
X4.875Y-1.7
X4.875Y-1.85
X4.875Y-2.9
X4.875Y-4.175
X4.875Y-5.125
X4.8785Y-2.15
X4.8868Y-2.4394
X4.9Y-3.225
X4.9034Y-1.8779
X4.9215Y-2.4965
X4.925Y-2.575
X4.925Y-3.925
X4.925Y-4.425
X4.95Y-1.9
X4.95Y-2.525
X4.95Y-2.825
X4.9525Y-3.5575
X4.9525Y-3.8625
X4.9618Y-2.7343
X4.9686Y-2.7814
X4.9983Y-2.525
X5.0Y-2.1435
X5.0Y-4.975
X5.0028Y-2.6028
X5.0066Y-2.4268
X5.025Y-2.4684
X5.025Y-3.525
X5.025Y-4.775
X5.0306Y-2.6307
X5.0384Y-3.0366
X5.05Y-3.225
X5.05Y-3.975
X5.0539Y-2.667
X5.0619Y-4.1619
X5.0625Y-4.0875
X5.0715Y-3.0
X5.075Y-2.4
X5.075Y-3.275
X5.075Y-4.325
X5.0756Y-1.9287
X5.0924Y-2.675
X5.093Y-2.7231
X5.0965Y-2.3606
X5.0965Y-2.825
X5.1Y-1.725
X5.1Y-2.3035
X5.1Y-3.5
X5.1035Y-2.15
X5.1052Y-1.9546
X5.125Y-2.0
X5.125Y-2.225
X5.1292Y-2.1798
X5.132Y-2.4698
X5.1386Y-2.2921
X5.1495Y-2.6852
X5.1498Y-2.577
X5.15Y-2.725
X5.15Y-4.275
X5.1715Y-2.225
X5.1715Y-2.2644
X5.1735Y-2.4691
X5.175Y-1.675
X5.175Y-2.0
X5.175Y-3.475
X5.1965Y-2.35
X5.2Y-3.1
X5.2Y-3.15
X5.2Y-3.9
X5.2Y-4.425
X5.225Y-2.0
X5.225Y-3.475
X5.225Y-3.5465
X5.225Y-4.975
X5.2298Y-3.1798
X5.25Y-2.95
X5.2535Y-2.35
X5.2535Y-2.7
X5.2686Y-3.0814
X5.2726Y-2.407
X5.275Y-2.0
X5.275Y-2.15
X5.275Y-2.825
X5.275Y-3.525
X5.275Y-4.0
X5.275Y-4.075
X5.2766Y-2.4696
X5.2881Y-2.3688
X5.3035Y-3.275
X5.307Y-2.593
X5.325Y-2.3
X5.325Y-3.2
X5.325Y-4.675
X5.3452Y-2.6208
X5.35Y-2.125
X5.35Y-2.4762
X5.35Y-3.075
X5.35Y-3.925
X5.35Y-4.125
X5.351Y-2.774
X5.375Y-2.6465
X5.375Y-2.875
X5.375Y-2.925
X5.375Y-2.975
X5.375Y-3.25
X5.375Y-3.475
X5.375Y-4.275
X5.3777Y-2.8029
X5.4Y-3.075
X5.425Y-2.525
X5.45Y-2.3
X5.45Y-3.3
X5.475Y-3.575
X5.475Y-4.05
X5.475Y-4.6
X5.475Y-4.8
X5.5Y-2.45
X5.525Y-2.625
X5.525Y-3.0
X5.525Y-3.475
X5.55Y-1.6
X5.55Y-1.8
X5.55Y-3.15
X5.55Y-3.225
X5.55Y-3.275
X5.55Y-3.7
X5.55Y-4.525
X5.575Y-2.625
X5.5867Y-2.234
X5.5965Y-2.7535
X5.6Y-2.45
X5.6Y-3.15
X5.6Y-3.3
X5.625Y-2.225
X5.625Y-2.675
X5.65Y-3.075
X5.65Y-3.125
X5.65Y-4.35
X5.675Y-2.725
X5.675Y-2.825
X5.675Y-3.4644
X5.7Y-2.2
X5.7Y-3.25
X5.7Y-3.975
X5.7229Y-2.15
X5.725Y-3.725
X5.725Y-4.1
X5.7263Y-2.3741
X5.75Y-2.6
X5.75Y-2.8
X5.75Y-3.275
X5.775Y-2.525
X5.7756Y-2.375
X5.8Y-2.475
X5.8Y-3.15
X5.823Y-2.002
X5.825Y-2.1
X5.825Y-2.35
X5.825Y-2.825
X5.85Y-2.2
X5.8508Y-2.6258
X5.899Y-2.3295
X5.9Y-2.625
X5.925Y-2.825
X5.9492Y-2.6258
X5.95Y-2.35
X5.9715Y-1.8535
X5.975Y-2.2212
X6.0Y-2.125
X6.0Y-2.35
X6.05Y-2.35
X6.05Y-2.625
X6.0694Y-2.4754
X6.0758Y-2.975
X6.1Y-2.275
X6.15Y-2.2
X6.175Y-2.0
X6.1972Y-2.3778
X6.2Y-2.3
X6.2Y-2.675
X6.2008Y-3.075
X6.2008Y-3.15
X6.225Y-2.35
X6.225Y-2.5
X6.225Y-2.625
X6.2528Y-2.4722
X6.3877Y-2.7377
X6.425Y-2.1
X6.425Y-2.225
X6.425Y-2.35
X6.425Y-2.45
X6.475Y-2.2
X6.525Y-2.8
X6.575Y-2.475
X6.575Y-2.525
T3
X5.5862Y-1.8864
X5.5862Y-1.9454
X5.5862Y-2.0045
X5.5862Y-2.0635
T5
X4.2713Y-1.85
X4.35Y-1.85
X4.4287Y-1.85
X4.5075Y-1.85
T6
X3.7496Y-2.325
X3.8496Y-2.325
X3.9496Y-2.325
X4.0496Y-2.325
X4.1496Y-2.325
X4.2496Y-2.325
X4.3496Y-2.325
X4.4496Y-2.325
T7
X5.797Y-1.7114
X5.797Y-1.8886
X6.053Y-1.7114
X6.053Y-1.8886
T8
X3.025Y-2.6976
X3.025Y-2.8531
X3.025Y-3.0086
X3.025Y-3.1641
X3.025Y-3.3195
X3.025Y-3.475
X3.025Y-3.6305
X3.025Y-3.7861
X3.3557Y-2.6976
X3.3557Y-2.8531
X3.3557Y-3.0086
X3.3557Y-3.1641
X3.3557Y-3.3195
X3.3557Y-3.475
X3.3557Y-3.6305
X3.3557Y-3.7861
T2
G00X6.3175Y-1.7709
M15
G01X6.3175Y-1.7866
M16
G05
G00X6.5081Y-1.7709
M15
G01X6.5081Y-1.7866
M16
G05
T4
G00X6.3053Y-1.6508
M15
G01X6.3053Y-1.6705
M16
G05
G00X6.5203Y-1.6508
M15
G01X6.5203Y-1.6705
M16
G05
T0
M30
