%TF.GenerationSoftware,KiCad,Pcbnew,6.0.2+dfsg-1*%
%TF.CreationDate,2023-01-27T10:33:08-05:00*%
%TF.ProjectId,vehicle-can-collector,76656869-636c-4652-9d63-616e2d636f6c,rev?*%
%TF.SameCoordinates,Original*%
%TF.FileFunction,Copper,L1,Top*%
%TF.FilePolarity,Positive*%
%FSLAX46Y46*%
G04 Gerber Fmt 4.6, Leading zero omitted, Abs format (unit mm)*
G04 Created by KiCad (PCBNEW 6.0.2+dfsg-1) date 2023-01-27 10:33:08*
%MOMM*%
%LPD*%
G01*
G04 APERTURE LIST*
G04 Aperture macros list*
%AMRoundRect*
0 Rectangle with rounded corners*
0 $1 Rounding radius*
0 $2 $3 $4 $5 $6 $7 $8 $9 X,Y pos of 4 corners*
0 Add a 4 corners polygon primitive as box body*
4,1,4,$2,$3,$4,$5,$6,$7,$8,$9,$2,$3,0*
0 Add four circle primitives for the rounded corners*
1,1,$1+$1,$2,$3*
1,1,$1+$1,$4,$5*
1,1,$1+$1,$6,$7*
1,1,$1+$1,$8,$9*
0 Add four rect primitives between the rounded corners*
20,1,$1+$1,$2,$3,$4,$5,0*
20,1,$1+$1,$4,$5,$6,$7,0*
20,1,$1+$1,$6,$7,$8,$9,0*
20,1,$1+$1,$8,$9,$2,$3,0*%
%AMFreePoly0*
4,1,9,3.862500,-0.866500,0.737500,-0.866500,0.737500,-0.450000,-0.737500,-0.450000,-0.737500,0.450000,0.737500,0.450000,0.737500,0.866500,3.862500,0.866500,3.862500,-0.866500,3.862500,-0.866500,$1*%
G04 Aperture macros list end*
%TA.AperFunction,SMDPad,CuDef*%
%ADD10R,1.473200X0.279400*%
%TD*%
%TA.AperFunction,SMDPad,CuDef*%
%ADD11R,0.279400X1.473200*%
%TD*%
%TA.AperFunction,SMDPad,CuDef*%
%ADD12RoundRect,0.250000X0.475000X-0.337500X0.475000X0.337500X-0.475000X0.337500X-0.475000X-0.337500X0*%
%TD*%
%TA.AperFunction,SMDPad,CuDef*%
%ADD13RoundRect,0.250000X0.450000X-0.325000X0.450000X0.325000X-0.450000X0.325000X-0.450000X-0.325000X0*%
%TD*%
%TA.AperFunction,SMDPad,CuDef*%
%ADD14RoundRect,0.150000X-0.150000X0.587500X-0.150000X-0.587500X0.150000X-0.587500X0.150000X0.587500X0*%
%TD*%
%TA.AperFunction,SMDPad,CuDef*%
%ADD15RoundRect,0.250000X-0.450000X0.350000X-0.450000X-0.350000X0.450000X-0.350000X0.450000X0.350000X0*%
%TD*%
%TA.AperFunction,SMDPad,CuDef*%
%ADD16RoundRect,0.250000X0.450000X-0.350000X0.450000X0.350000X-0.450000X0.350000X-0.450000X-0.350000X0*%
%TD*%
%TA.AperFunction,SMDPad,CuDef*%
%ADD17R,0.700000X0.450000*%
%TD*%
%TA.AperFunction,SMDPad,CuDef*%
%ADD18RoundRect,0.250000X-0.350000X-0.450000X0.350000X-0.450000X0.350000X0.450000X-0.350000X0.450000X0*%
%TD*%
%TA.AperFunction,SMDPad,CuDef*%
%ADD19RoundRect,0.160000X0.160000X-0.222500X0.160000X0.222500X-0.160000X0.222500X-0.160000X-0.222500X0*%
%TD*%
%TA.AperFunction,SMDPad,CuDef*%
%ADD20RoundRect,0.250000X-0.337500X-0.475000X0.337500X-0.475000X0.337500X0.475000X-0.337500X0.475000X0*%
%TD*%
%TA.AperFunction,SMDPad,CuDef*%
%ADD21R,0.508000X1.270000*%
%TD*%
%TA.AperFunction,SMDPad,CuDef*%
%ADD22R,0.508000X1.981200*%
%TD*%
%TA.AperFunction,SMDPad,CuDef*%
%ADD23RoundRect,0.250000X0.350000X0.450000X-0.350000X0.450000X-0.350000X-0.450000X0.350000X-0.450000X0*%
%TD*%
%TA.AperFunction,SMDPad,CuDef*%
%ADD24RoundRect,0.150000X0.150000X-0.587500X0.150000X0.587500X-0.150000X0.587500X-0.150000X-0.587500X0*%
%TD*%
%TA.AperFunction,SMDPad,CuDef*%
%ADD25R,0.650000X0.350000*%
%TD*%
%TA.AperFunction,SMDPad,CuDef*%
%ADD26R,1.550000X2.400000*%
%TD*%
%TA.AperFunction,SMDPad,CuDef*%
%ADD27RoundRect,0.250000X-0.275000X-0.350000X0.275000X-0.350000X0.275000X0.350000X-0.275000X0.350000X0*%
%TD*%
%TA.AperFunction,SMDPad,CuDef*%
%ADD28R,0.300000X0.800000*%
%TD*%
%TA.AperFunction,SMDPad,CuDef*%
%ADD29RoundRect,0.100000X-0.100000X0.637500X-0.100000X-0.637500X0.100000X-0.637500X0.100000X0.637500X0*%
%TD*%
%TA.AperFunction,SMDPad,CuDef*%
%ADD30RoundRect,0.150000X0.587500X0.150000X-0.587500X0.150000X-0.587500X-0.150000X0.587500X-0.150000X0*%
%TD*%
%TA.AperFunction,SMDPad,CuDef*%
%ADD31RoundRect,0.250000X-0.475000X0.337500X-0.475000X-0.337500X0.475000X-0.337500X0.475000X0.337500X0*%
%TD*%
%TA.AperFunction,SMDPad,CuDef*%
%ADD32RoundRect,0.100000X0.637500X0.100000X-0.637500X0.100000X-0.637500X-0.100000X0.637500X-0.100000X0*%
%TD*%
%TA.AperFunction,SMDPad,CuDef*%
%ADD33R,0.900000X1.200000*%
%TD*%
%TA.AperFunction,ComponentPad*%
%ADD34RoundRect,0.250000X0.350000X0.625000X-0.350000X0.625000X-0.350000X-0.625000X0.350000X-0.625000X0*%
%TD*%
%TA.AperFunction,ComponentPad*%
%ADD35O,1.200000X1.750000*%
%TD*%
%TA.AperFunction,SMDPad,CuDef*%
%ADD36RoundRect,0.250000X-0.325000X-0.450000X0.325000X-0.450000X0.325000X0.450000X-0.325000X0.450000X0*%
%TD*%
%TA.AperFunction,SMDPad,CuDef*%
%ADD37R,2.500000X1.800000*%
%TD*%
%TA.AperFunction,SMDPad,CuDef*%
%ADD38RoundRect,0.150000X-0.587500X-0.150000X0.587500X-0.150000X0.587500X0.150000X-0.587500X0.150000X0*%
%TD*%
%TA.AperFunction,SMDPad,CuDef*%
%ADD39R,0.450000X0.700000*%
%TD*%
%TA.AperFunction,SMDPad,CuDef*%
%ADD40RoundRect,0.100000X-0.637500X-0.100000X0.637500X-0.100000X0.637500X0.100000X-0.637500X0.100000X0*%
%TD*%
%TA.AperFunction,SMDPad,CuDef*%
%ADD41R,1.800000X2.500000*%
%TD*%
%TA.AperFunction,SMDPad,CuDef*%
%ADD42RoundRect,0.075000X-0.075000X0.700000X-0.075000X-0.700000X0.075000X-0.700000X0.075000X0.700000X0*%
%TD*%
%TA.AperFunction,SMDPad,CuDef*%
%ADD43RoundRect,0.075000X-0.700000X0.075000X-0.700000X-0.075000X0.700000X-0.075000X0.700000X0.075000X0*%
%TD*%
%TA.AperFunction,SMDPad,CuDef*%
%ADD44RoundRect,0.250000X0.337500X0.475000X-0.337500X0.475000X-0.337500X-0.475000X0.337500X-0.475000X0*%
%TD*%
%TA.AperFunction,SMDPad,CuDef*%
%ADD45R,0.400000X1.650000*%
%TD*%
%TA.AperFunction,SMDPad,CuDef*%
%ADD46R,2.000000X1.500000*%
%TD*%
%TA.AperFunction,ComponentPad*%
%ADD47O,1.350000X1.700000*%
%TD*%
%TA.AperFunction,ComponentPad*%
%ADD48O,1.100000X1.500000*%
%TD*%
%TA.AperFunction,SMDPad,CuDef*%
%ADD49R,1.350000X2.000000*%
%TD*%
%TA.AperFunction,SMDPad,CuDef*%
%ADD50R,1.825000X0.700000*%
%TD*%
%TA.AperFunction,SMDPad,CuDef*%
%ADD51R,1.430000X2.500000*%
%TD*%
%TA.AperFunction,ComponentPad*%
%ADD52C,3.215640*%
%TD*%
%TA.AperFunction,ComponentPad*%
%ADD53C,2.000000*%
%TD*%
%TA.AperFunction,SMDPad,CuDef*%
%ADD54RoundRect,0.250000X-1.025000X0.875000X-1.025000X-0.875000X1.025000X-0.875000X1.025000X0.875000X0*%
%TD*%
%TA.AperFunction,SMDPad,CuDef*%
%ADD55R,1.200000X0.900000*%
%TD*%
%TA.AperFunction,SMDPad,CuDef*%
%ADD56R,1.320800X0.558800*%
%TD*%
%TA.AperFunction,SMDPad,CuDef*%
%ADD57R,1.100000X0.850000*%
%TD*%
%TA.AperFunction,SMDPad,CuDef*%
%ADD58R,1.100000X0.750000*%
%TD*%
%TA.AperFunction,SMDPad,CuDef*%
%ADD59R,1.000000X1.200000*%
%TD*%
%TA.AperFunction,SMDPad,CuDef*%
%ADD60R,1.350000X1.550000*%
%TD*%
%TA.AperFunction,SMDPad,CuDef*%
%ADD61R,1.350000X1.900000*%
%TD*%
%TA.AperFunction,SMDPad,CuDef*%
%ADD62R,1.800000X1.170000*%
%TD*%
%TA.AperFunction,SMDPad,CuDef*%
%ADD63R,1.000000X2.200000*%
%TD*%
%TA.AperFunction,SMDPad,CuDef*%
%ADD64R,3.400000X1.800000*%
%TD*%
%TA.AperFunction,SMDPad,CuDef*%
%ADD65R,0.787400X2.667000*%
%TD*%
%TA.AperFunction,SMDPad,CuDef*%
%ADD66R,10.414000X10.414000*%
%TD*%
%TA.AperFunction,ComponentPad*%
%ADD67C,1.206500*%
%TD*%
%TA.AperFunction,ComponentPad*%
%ADD68R,1.600000X1.600000*%
%TD*%
%TA.AperFunction,ComponentPad*%
%ADD69O,1.600000X1.600000*%
%TD*%
%TA.AperFunction,SMDPad,CuDef*%
%ADD70R,1.800000X2.000000*%
%TD*%
%TA.AperFunction,SMDPad,CuDef*%
%ADD71R,0.900000X1.300000*%
%TD*%
%TA.AperFunction,SMDPad,CuDef*%
%ADD72FreePoly0,270.000000*%
%TD*%
%TA.AperFunction,ViaPad*%
%ADD73C,0.800000*%
%TD*%
%TA.AperFunction,Conductor*%
%ADD74C,0.250000*%
%TD*%
%TA.AperFunction,Conductor*%
%ADD75C,0.200000*%
%TD*%
G04 APERTURE END LIST*
D10*
%TO.P,U201,1,PA00*%
%TO.N,~{ISO_TX}*%
X137058400Y-62170000D03*
%TO.P,U201,2,PA01*%
%TO.N,~{ISO_RX}*%
X137058400Y-61670001D03*
%TO.P,U201,3,PA02*%
%TO.N,unconnected-(U201-Pad3)*%
X137058400Y-61170000D03*
%TO.P,U201,4,PA03*%
%TO.N,unconnected-(U201-Pad4)*%
X137058400Y-60670001D03*
%TO.P,U201,5,PB04*%
%TO.N,SW_CAN_MODE0*%
X137058400Y-60169999D03*
%TO.P,U201,6,PB05*%
%TO.N,SW_CAN_MODE1*%
X137058400Y-59670000D03*
%TO.P,U201,7,GNDANA*%
%TO.N,GND*%
X137058400Y-59170001D03*
%TO.P,U201,8,VDDANA*%
%TO.N,+3.3VA*%
X137058400Y-58670000D03*
%TO.P,U201,9,PB06*%
%TO.N,unconnected-(U201-Pad9)*%
X137058400Y-58170000D03*
%TO.P,U201,10,PB07*%
%TO.N,unconnected-(U201-Pad10)*%
X137058400Y-57669999D03*
%TO.P,U201,11,PB08*%
%TO.N,unconnected-(U201-Pad11)*%
X137058400Y-57170000D03*
%TO.P,U201,12,PB09*%
%TO.N,unconnected-(U201-Pad12)*%
X137058400Y-56670001D03*
%TO.P,U201,13,PA04*%
%TO.N,~{OUTPUT_TX}*%
X137058400Y-56169999D03*
%TO.P,U201,14,PA05*%
%TO.N,~{OUTPUT_RX}*%
X137058400Y-55670000D03*
%TO.P,U201,15,PA06*%
%TO.N,~{OUTPUT_RTS}*%
X137058400Y-55169999D03*
%TO.P,U201,16,PA07*%
%TO.N,~{OUTPUT_CTS}*%
X137058400Y-54670000D03*
D11*
%TO.P,U201,17,PA08*%
%TO.N,~{LINBUS_TX}*%
X135195000Y-52806600D03*
%TO.P,U201,18,PA09*%
%TO.N,BAT_LEVEL*%
X134695001Y-52806600D03*
%TO.P,U201,19,PA10*%
%TO.N,~{LINBUS_RX}*%
X134195000Y-52806600D03*
%TO.P,U201,20,PA11*%
%TO.N,~{SDCARD_DETECT}*%
X133695001Y-52806600D03*
%TO.P,U201,21,VDDIO*%
%TO.N,+3V3*%
X133194999Y-52806600D03*
%TO.P,U201,22,GND*%
%TO.N,GND*%
X132695000Y-52806600D03*
%TO.P,U201,23,PB10*%
%TO.N,unconnected-(U201-Pad23)*%
X132195001Y-52806600D03*
%TO.P,U201,24,PB11*%
%TO.N,~{PWR_CTRL}*%
X131695000Y-52806600D03*
%TO.P,U201,25,PB12*%
%TO.N,~{HS_CAN_EN}*%
X131195000Y-52806600D03*
%TO.P,U201,26,PB13*%
%TO.N,~{MS_CAN_EN}*%
X130694999Y-52806600D03*
%TO.P,U201,27,PB14*%
%TO.N,MS_CAN_TX*%
X130195000Y-52806600D03*
%TO.P,U201,28,PB15*%
%TO.N,MS_CAN_RX*%
X129695001Y-52806600D03*
%TO.P,U201,29,PA12*%
%TO.N,SW_CAN_MOSI*%
X129194999Y-52806600D03*
%TO.P,U201,30,PA13-*%
%TO.N,SW_CAN_SCK*%
X128695000Y-52806600D03*
%TO.P,U201,31,PA14*%
%TO.N,CLK_CPU*%
X128194999Y-52806600D03*
%TO.P,U201,32,PA15*%
%TO.N,unconnected-(U201-Pad32)*%
X127695000Y-52806600D03*
D10*
%TO.P,U201,33,GND*%
%TO.N,GND*%
X125831600Y-54670000D03*
%TO.P,U201,34,VDDIO*%
%TO.N,+3V3*%
X125831600Y-55169999D03*
%TO.P,U201,35,PA16*%
%TO.N,unconnected-(U201-Pad35)*%
X125831600Y-55670000D03*
%TO.P,U201,36,PA17*%
%TO.N,SW_CAN_LOAD*%
X125831600Y-56169999D03*
%TO.P,U201,37,PA18*%
%TO.N,SW_CAN_CS*%
X125831600Y-56670001D03*
%TO.P,U201,38,PA19*%
%TO.N,SW_CAN_MISO*%
X125831600Y-57170000D03*
%TO.P,U201,39,PB16*%
%TO.N,SDA*%
X125831600Y-57669999D03*
%TO.P,U201,40,PB17*%
%TO.N,SCL*%
X125831600Y-58170000D03*
%TO.P,U201,41,PA20*%
%TO.N,~{SW_CAN_INT}*%
X125831600Y-58670000D03*
%TO.P,U201,42,PA21*%
%TO.N,ISO_K*%
X125831600Y-59170001D03*
%TO.P,U201,43,PA22*%
%TO.N,SDCARD_MOSI*%
X125831600Y-59670000D03*
%TO.P,U201,44,PA23*%
%TO.N,SDCARD_SCK*%
X125831600Y-60169999D03*
%TO.P,U201,45,PA24*%
%TO.N,~{SDCARD_CS}*%
X125831600Y-60670001D03*
%TO.P,U201,46,PA25*%
%TO.N,SDCARD_MISO*%
X125831600Y-61170000D03*
%TO.P,U201,47,GND*%
%TO.N,GND*%
X125831600Y-61670001D03*
%TO.P,U201,48,VDDIO*%
%TO.N,+3V3*%
X125831600Y-62170000D03*
D11*
%TO.P,U201,49,PB22*%
%TO.N,HS_CAN_TX*%
X127695000Y-64033400D03*
%TO.P,U201,50,PB23*%
%TO.N,HS_CAN_RX*%
X128194999Y-64033400D03*
%TO.P,U201,51,PA27*%
%TO.N,SAE_PWM*%
X128695000Y-64033400D03*
%TO.P,U201,52,RESETN*%
%TO.N,~{RESET}*%
X129194999Y-64033400D03*
%TO.P,U201,53,PA28*%
%TO.N,J1850_RX*%
X129695001Y-64033400D03*
%TO.P,U201,54,GND*%
%TO.N,GND*%
X130195000Y-64033400D03*
%TO.P,U201,55,VDDCORE*%
%TO.N,Net-(C201-Pad1)*%
X130694999Y-64033400D03*
%TO.P,U201,56,VDDIN*%
%TO.N,+3V3*%
X131195000Y-64033400D03*
%TO.P,U201,57,PA30*%
%TO.N,SWCLK*%
X131695000Y-64033400D03*
%TO.P,U201,58,PA31*%
%TO.N,SWDIO*%
X132195001Y-64033400D03*
%TO.P,U201,59,PB30*%
%TO.N,J1850_TX+*%
X132695000Y-64033400D03*
%TO.P,U201,60,PB31*%
%TO.N,J1850_TX-*%
X133194999Y-64033400D03*
%TO.P,U201,61,PB00*%
%TO.N,SAE_LEVEL*%
X133695001Y-64033400D03*
%TO.P,U201,62,PB01*%
%TO.N,~{LED_STATUS}*%
X134195000Y-64033400D03*
%TO.P,U201,63,PB02*%
%TO.N,~{LED_HOST_ACT}*%
X134695001Y-64033400D03*
%TO.P,U201,64,PB03*%
%TO.N,~{LED_OBD_ACT}*%
X135195000Y-64033400D03*
%TD*%
D12*
%TO.P,C503,1*%
%TO.N,GND*%
X81915000Y-103040000D03*
%TO.P,C503,2*%
%TO.N,Net-(C503-Pad2)*%
X81915000Y-100965000D03*
%TD*%
D13*
%TO.P,D1102,1,K*%
%TO.N,Net-(D1102-Pad1)*%
X133350000Y-86750000D03*
%TO.P,D1102,2,A*%
%TO.N,+3V3*%
X133350000Y-84700000D03*
%TD*%
D14*
%TO.P,Q508,1,G*%
%TO.N,SAE_PWM*%
X136840000Y-120347500D03*
%TO.P,Q508,2,S*%
%TO.N,GND*%
X134940000Y-120347500D03*
%TO.P,Q508,3,D*%
%TO.N,Net-(Q508-Pad3)*%
X135890000Y-122222500D03*
%TD*%
D15*
%TO.P,R604,1*%
%TO.N,SAE_LEVEL*%
X105410000Y-116110000D03*
%TO.P,R604,2*%
%TO.N,GND*%
X105410000Y-118110000D03*
%TD*%
D16*
%TO.P,R508,1*%
%TO.N,+3V3_SW*%
X130175000Y-103235000D03*
%TO.P,R508,2*%
%TO.N,GND*%
X130175000Y-101235000D03*
%TD*%
D17*
%TO.P,D803,1,A*%
%TO.N,GND*%
X86900000Y-127620000D03*
%TO.P,D803,2,NC*%
%TO.N,unconnected-(D803-Pad2)*%
X86900000Y-128920000D03*
%TO.P,D803,3,K*%
%TO.N,Net-(D803-Pad3)*%
X88900000Y-128270000D03*
%TD*%
D18*
%TO.P,R801,1*%
%TO.N,J1850_RX*%
X105680000Y-128270000D03*
%TO.P,R801,2*%
%TO.N,GND*%
X107680000Y-128270000D03*
%TD*%
D19*
%TO.P,D601,1,K*%
%TO.N,BAT_LEVEL*%
X92075000Y-112332500D03*
%TO.P,D601,2,A*%
%TO.N,GND*%
X92075000Y-111187500D03*
%TD*%
D20*
%TO.P,C702,1*%
%TO.N,GND*%
X105642500Y-69215000D03*
%TO.P,C702,2*%
%TO.N,+5V_SW*%
X107717500Y-69215000D03*
%TD*%
D16*
%TO.P,R713,1*%
%TO.N,+3V3*%
X98425000Y-96250000D03*
%TO.P,R713,2*%
%TO.N,~{HS_CAN_EN}*%
X98425000Y-94250000D03*
%TD*%
D21*
%TO.P,U203,1,\u002ARESET*%
%TO.N,~{RESET}*%
X149544999Y-53289200D03*
%TO.P,U203,2,GND*%
%TO.N,GND*%
X150495000Y-53289200D03*
%TO.P,U203,3,\u002AMR*%
%TO.N,Net-(R201-Pad2)*%
X151445001Y-53289200D03*
%TO.P,U203,4,WDI*%
%TO.N,unconnected-(U203-Pad4)*%
X151445001Y-50850800D03*
%TO.P,U203,5,VCC*%
%TO.N,+3V3*%
X149544999Y-50850800D03*
%TD*%
D22*
%TO.P,U705,1,TXD*%
%TO.N,SW_CAN_TX*%
X86360000Y-56591200D03*
%TO.P,U705,2,MODE0*%
%TO.N,SW_CAN_MODE0*%
X85090000Y-56591200D03*
%TO.P,U705,3,MODE1*%
%TO.N,SW_CAN_MODE1*%
X83820000Y-56591200D03*
%TO.P,U705,4,RXD*%
%TO.N,SW_CAN_RX*%
X82550000Y-56591200D03*
%TO.P,U705,5,VBAT*%
%TO.N,+12V_SW*%
X82550000Y-61518800D03*
%TO.P,U705,6,LOAD*%
%TO.N,Net-(R720-Pad2)*%
X83820000Y-61518800D03*
%TO.P,U705,7,CANH*%
%TO.N,SW_CAN*%
X85090000Y-61518800D03*
%TO.P,U705,8,GND*%
%TO.N,GND*%
X86360000Y-61518800D03*
%TD*%
D15*
%TO.P,R501,1*%
%TO.N,Net-(D501-Pad1)*%
X94615000Y-102505000D03*
%TO.P,R501,2*%
%TO.N,Net-(D503-Pad1)*%
X94615000Y-104505000D03*
%TD*%
D16*
%TO.P,R806,1*%
%TO.N,+3V3*%
X97155000Y-127635000D03*
%TO.P,R806,2*%
%TO.N,VPW_RX*%
X97155000Y-125635000D03*
%TD*%
D23*
%TO.P,R702,1*%
%TO.N,+5V*%
X103870000Y-89535000D03*
%TO.P,R702,2*%
%TO.N,HS_CAN_TX_5V*%
X101870000Y-89535000D03*
%TD*%
D24*
%TO.P,Q705,1,G*%
%TO.N,+3V3*%
X94935000Y-94282500D03*
%TO.P,Q705,2,S*%
%TO.N,~{HS_CAN_EN}*%
X96835000Y-94282500D03*
%TO.P,Q705,3,D*%
%TO.N,~{HS_CAN_EN_5V}*%
X95885000Y-92407500D03*
%TD*%
D25*
%TO.P,U702,1,TXD*%
%TO.N,MS_CAN_TX_5V*%
X99340000Y-72730000D03*
%TO.P,U702,2,VSS*%
%TO.N,GND*%
X99340000Y-72080000D03*
%TO.P,U702,3,VDD*%
%TO.N,+5V_SW*%
X99340000Y-71430000D03*
%TO.P,U702,4,RXD*%
%TO.N,MS_CAN_RX_5V*%
X99340000Y-70780000D03*
%TO.P,U702,5,NC*%
%TO.N,unconnected-(U702-Pad5)*%
X96240000Y-70780000D03*
%TO.P,U702,6,CANL*%
%TO.N,MS_CAN_LO*%
X96240000Y-71430000D03*
%TO.P,U702,7,CANH*%
%TO.N,MS_CAN_HI*%
X96240000Y-72080000D03*
%TO.P,U702,8,S*%
%TO.N,~{MS_CAN_EN_5V}*%
X96240000Y-72730000D03*
D26*
%TO.P,U702,9,VSS*%
%TO.N,GND*%
X97790000Y-71755000D03*
%TD*%
D16*
%TO.P,R514,1*%
%TO.N,V_J1850*%
X130175000Y-119745000D03*
%TO.P,R514,2*%
%TO.N,Net-(R514-Pad2)*%
X130175000Y-117745000D03*
%TD*%
D14*
%TO.P,Q506,1,G*%
%TO.N,~{PWR_CTRL}*%
X122235000Y-106377500D03*
%TO.P,Q506,2,S*%
%TO.N,GND*%
X120335000Y-106377500D03*
%TO.P,Q506,3,D*%
%TO.N,Net-(Q503-Pad1)*%
X121285000Y-108252500D03*
%TD*%
D23*
%TO.P,R707,1*%
%TO.N,MS_CAN_HI*%
X94345000Y-73025000D03*
%TO.P,R707,2*%
%TO.N,Net-(C705-Pad2)*%
X92345000Y-73025000D03*
%TD*%
%TO.P,R802,1*%
%TO.N,J1850_BUS+*%
X110585000Y-136525000D03*
%TO.P,R802,2*%
%TO.N,Net-(D802-Pad2)*%
X108585000Y-136525000D03*
%TD*%
D27*
%TO.P,L301,1,1*%
%TO.N,VPLL*%
X159385000Y-56515000D03*
%TO.P,L301,2,2*%
%TO.N,+3V3*%
X161685000Y-56515000D03*
%TD*%
D28*
%TO.P,RN1101,1,R1.1*%
%TO.N,LED_MODE_HS_CAN*%
X154805000Y-81650000D03*
%TO.P,RN1101,2,R2.1*%
%TO.N,LED_MODE_MS_CAN*%
X154305000Y-81650000D03*
%TO.P,RN1101,3,R3.1*%
%TO.N,LED_MODE_SW_CAN*%
X153805000Y-81650000D03*
%TO.P,RN1101,4,R4.1*%
%TO.N,LED_MODE_SAE_PWM*%
X153305000Y-81650000D03*
%TO.P,RN1101,5,R5.1*%
%TO.N,LED_MODE_SAE_VPW*%
X152805000Y-81650000D03*
%TO.P,RN1101,6,R6.1*%
%TO.N,LED_MODE_ISO_K_LINE*%
X152305000Y-81650000D03*
%TO.P,RN1101,7,R7.1*%
%TO.N,LED_MODE_ISO_K_LINE_KW2000*%
X151805000Y-81650000D03*
%TO.P,RN1101,8,R8.1*%
%TO.N,LED_MODE_ISO_L_LINE*%
X151305000Y-81650000D03*
%TO.P,RN1101,9,R8.2*%
%TO.N,Net-(D1110-Pad2)*%
X151305000Y-83450000D03*
%TO.P,RN1101,10,R7.2*%
%TO.N,Net-(D1109-Pad2)*%
X151805000Y-83450000D03*
%TO.P,RN1101,11,R6.2*%
%TO.N,Net-(D1108-Pad2)*%
X152305000Y-83450000D03*
%TO.P,RN1101,12,R5.2*%
%TO.N,Net-(D1107-Pad2)*%
X152805000Y-83450000D03*
%TO.P,RN1101,13,R4.2*%
%TO.N,Net-(D1106-Pad2)*%
X153305000Y-83450000D03*
%TO.P,RN1101,14,R3.2*%
%TO.N,Net-(D1105-Pad2)*%
X153805000Y-83450000D03*
%TO.P,RN1101,15,R2.2*%
%TO.N,Net-(D1104-Pad2)*%
X154305000Y-83450000D03*
%TO.P,RN1101,16,R1.2*%
%TO.N,Net-(D1103-Pad2)*%
X154805000Y-83450000D03*
%TD*%
D16*
%TO.P,R308,1*%
%TO.N,Net-(R308-Pad1)*%
X169545000Y-63595000D03*
%TO.P,R308,2*%
%TO.N,Net-(R306-Pad2)*%
X169545000Y-61595000D03*
%TD*%
D29*
%TO.P,U302,1,CS*%
%TO.N,Net-(R307-Pad2)*%
X165440000Y-63812500D03*
%TO.P,U302,2,SCLK*%
%TO.N,Net-(R304-Pad2)*%
X164790000Y-63812500D03*
%TO.P,U302,3,DI*%
%TO.N,Net-(R306-Pad2)*%
X164140000Y-63812500D03*
%TO.P,U302,4,DO*%
%TO.N,Net-(R308-Pad1)*%
X163490000Y-63812500D03*
%TO.P,U302,5,GND*%
%TO.N,GND*%
X163490000Y-69537500D03*
%TO.P,U302,6,NC*%
%TO.N,unconnected-(U302-Pad6)*%
X164140000Y-69537500D03*
%TO.P,U302,7,NC*%
%TO.N,unconnected-(U302-Pad7)*%
X164790000Y-69537500D03*
%TO.P,U302,8,VCC*%
%TO.N,+3V3*%
X165440000Y-69537500D03*
%TD*%
D30*
%TO.P,Q803,1,G*%
%TO.N,Net-(Q803-Pad1)*%
X122222500Y-133665000D03*
%TO.P,Q803,2,S*%
%TO.N,V_J1850*%
X122222500Y-131765000D03*
%TO.P,Q803,3,D*%
%TO.N,Net-(D801-Pad2)*%
X120347500Y-132715000D03*
%TD*%
D15*
%TO.P,R202,1*%
%TO.N,+3V3*%
X146050000Y-51070000D03*
%TO.P,R202,2*%
%TO.N,~{RESET}*%
X146050000Y-53070000D03*
%TD*%
D31*
%TO.P,C507,1*%
%TO.N,GND*%
X116205000Y-96117500D03*
%TO.P,C507,2*%
%TO.N,+12V*%
X116205000Y-98192500D03*
%TD*%
D32*
%TO.P,U1101,1,A0*%
%TO.N,+3V3*%
X155917500Y-79745000D03*
%TO.P,U1101,2,A1*%
%TO.N,GND*%
X155917500Y-79095000D03*
%TO.P,U1101,3,A2*%
X155917500Y-78445000D03*
%TO.P,U1101,4,P0*%
%TO.N,LED_MODE_HS_CAN*%
X155917500Y-77795000D03*
%TO.P,U1101,5,P1*%
%TO.N,LED_MODE_MS_CAN*%
X155917500Y-77145000D03*
%TO.P,U1101,6,P2*%
%TO.N,LED_MODE_SW_CAN*%
X155917500Y-76495000D03*
%TO.P,U1101,7,P3*%
%TO.N,LED_MODE_SAE_PWM*%
X155917500Y-75845000D03*
%TO.P,U1101,8,GND*%
%TO.N,GND*%
X155917500Y-75195000D03*
%TO.P,U1101,9,P4*%
%TO.N,LED_MODE_SAE_VPW*%
X150192500Y-75195000D03*
%TO.P,U1101,10,P5*%
%TO.N,LED_MODE_ISO_K_LINE*%
X150192500Y-75845000D03*
%TO.P,U1101,11,P6*%
%TO.N,LED_MODE_ISO_K_LINE_KW2000*%
X150192500Y-76495000D03*
%TO.P,U1101,12,P7*%
%TO.N,LED_MODE_ISO_L_LINE*%
X150192500Y-77145000D03*
%TO.P,U1101,13,~{INT}*%
%TO.N,unconnected-(U1101-Pad13)*%
X150192500Y-77795000D03*
%TO.P,U1101,14,SCL*%
%TO.N,SCL*%
X150192500Y-78445000D03*
%TO.P,U1101,15,SDA*%
%TO.N,SDA*%
X150192500Y-79095000D03*
%TO.P,U1101,16,VDD*%
%TO.N,+3V3*%
X150192500Y-79745000D03*
%TD*%
D33*
%TO.P,D502,1,K*%
%TO.N,Net-(D501-Pad1)*%
X106555000Y-98425000D03*
%TO.P,D502,2,A*%
%TO.N,Net-(C504-Pad2)*%
X109855000Y-98425000D03*
%TD*%
D18*
%TO.P,R504,1*%
%TO.N,+3V3*%
X120555000Y-102870000D03*
%TO.P,R504,2*%
%TO.N,~{PWR_CTRL}*%
X122555000Y-102870000D03*
%TD*%
D34*
%TO.P,J303,1,1*%
%TO.N,GND*%
X114490000Y-46990000D03*
D35*
%TO.P,J303,2,2*%
%TO.N,+3V3*%
X112490000Y-46990000D03*
%TO.P,J303,3,3*%
%TO.N,SDA*%
X110490000Y-46990000D03*
%TO.P,J303,4,4*%
%TO.N,SCL*%
X108490000Y-46990000D03*
%TD*%
D36*
%TO.P,D1106,1,K*%
%TO.N,GND*%
X147565000Y-100965000D03*
%TO.P,D1106,2,A*%
%TO.N,Net-(D1106-Pad2)*%
X149615000Y-100965000D03*
%TD*%
D30*
%TO.P,Q802,1,G*%
%TO.N,SAE_PWM*%
X103172500Y-131760000D03*
%TO.P,Q802,2,S*%
%TO.N,J1850_RX*%
X103172500Y-129860000D03*
%TO.P,Q802,3,D*%
%TO.N,PWM_RX*%
X101297500Y-130810000D03*
%TD*%
D37*
%TO.P,D505,1,K*%
%TO.N,+5V*%
X137890000Y-96520000D03*
%TO.P,D505,2,A*%
%TO.N,Net-(C505-Pad1)*%
X133890000Y-96520000D03*
%TD*%
D24*
%TO.P,Q507,1,G*%
%TO.N,~{PWR_CTRL}*%
X114935000Y-103505000D03*
%TO.P,Q507,2,S*%
%TO.N,+12V*%
X116835000Y-103505000D03*
%TO.P,Q507,3,D*%
%TO.N,+12V_ISO*%
X115885000Y-101630000D03*
%TD*%
D15*
%TO.P,R507,1*%
%TO.N,+5V_SW*%
X130175000Y-110125000D03*
%TO.P,R507,2*%
%TO.N,GND*%
X130175000Y-112125000D03*
%TD*%
D31*
%TO.P,C601,1*%
%TO.N,BAT_LEVEL*%
X92075000Y-115167500D03*
%TO.P,C601,2*%
%TO.N,GND*%
X92075000Y-117242500D03*
%TD*%
D16*
%TO.P,R307,1*%
%TO.N,+3V3*%
X160020000Y-65405000D03*
%TO.P,R307,2*%
%TO.N,Net-(R307-Pad2)*%
X160020000Y-63405000D03*
%TD*%
D31*
%TO.P,C506,1*%
%TO.N,+5V*%
X137795000Y-99927500D03*
%TO.P,C506,2*%
%TO.N,GND*%
X137795000Y-102002500D03*
%TD*%
D23*
%TO.P,R709,1*%
%TO.N,+3V3*%
X103235000Y-82550000D03*
%TO.P,R709,2*%
%TO.N,HS_CAN_RX*%
X101235000Y-82550000D03*
%TD*%
D18*
%TO.P,R719,1*%
%TO.N,+3V3*%
X80280000Y-53340000D03*
%TO.P,R719,2*%
%TO.N,SW_CAN_RX*%
X82280000Y-53340000D03*
%TD*%
D24*
%TO.P,Q505,1,G*%
%TO.N,Net-(Q503-Pad1)*%
X125415000Y-105712500D03*
%TO.P,Q505,2,S*%
%TO.N,+3V3*%
X127315000Y-105712500D03*
%TO.P,Q505,3,D*%
%TO.N,+3V3_SW*%
X126365000Y-103837500D03*
%TD*%
D30*
%TO.P,Q801,1,G*%
%TO.N,SAE_VPW*%
X102840000Y-126680000D03*
%TO.P,Q801,2,S*%
%TO.N,J1850_RX*%
X102840000Y-124780000D03*
%TO.P,Q801,3,D*%
%TO.N,VPW_RX*%
X100965000Y-125730000D03*
%TD*%
D38*
%TO.P,Q804,1,G*%
%TO.N,J1850_TX+*%
X118140000Y-135575000D03*
%TO.P,Q804,2,S*%
%TO.N,GND*%
X118140000Y-137475000D03*
%TO.P,Q804,3,D*%
%TO.N,Net-(Q803-Pad1)*%
X120015000Y-136525000D03*
%TD*%
D39*
%TO.P,D901,1,A*%
%TO.N,GND*%
X86345000Y-110220000D03*
%TO.P,D901,2,NC*%
%TO.N,unconnected-(D901-Pad2)*%
X87645000Y-110220000D03*
%TO.P,D901,3,K*%
%TO.N,Net-(D901-Pad3)*%
X86995000Y-108220000D03*
%TD*%
D31*
%TO.P,C502,1*%
%TO.N,+12V*%
X113665000Y-108817500D03*
%TO.P,C502,2*%
%TO.N,GND*%
X113665000Y-110892500D03*
%TD*%
D16*
%TO.P,R512,1*%
%TO.N,+12V*%
X121285000Y-99155000D03*
%TO.P,R512,2*%
%TO.N,Net-(R512-Pad2)*%
X121285000Y-97155000D03*
%TD*%
D14*
%TO.P,Q501,1,G*%
%TO.N,Net-(C504-Pad2)*%
X109535000Y-102567500D03*
%TO.P,Q501,2,S*%
%TO.N,Net-(D501-Pad1)*%
X107635000Y-102567500D03*
%TO.P,Q501,3,D*%
%TO.N,+12V*%
X108585000Y-104442500D03*
%TD*%
%TO.P,Q707,1,G*%
%TO.N,SW_CAN_LOAD*%
X90485000Y-60990000D03*
%TO.P,Q707,2,S*%
%TO.N,GND*%
X88585000Y-60990000D03*
%TO.P,Q707,3,D*%
%TO.N,Net-(Q707-Pad3)*%
X89535000Y-62865000D03*
%TD*%
D23*
%TO.P,R201,1*%
%TO.N,+3V3*%
X155305000Y-52070000D03*
%TO.P,R201,2*%
%TO.N,Net-(R201-Pad2)*%
X153305000Y-52070000D03*
%TD*%
D36*
%TO.P,D1108,1,K*%
%TO.N,GND*%
X147565000Y-94615000D03*
%TO.P,D1108,2,A*%
%TO.N,Net-(D1108-Pad2)*%
X149615000Y-94615000D03*
%TD*%
D40*
%TO.P,U601,1*%
%TO.N,BAT_LEVEL*%
X94927500Y-114595000D03*
%TO.P,U601,2,-*%
X94927500Y-115245000D03*
%TO.P,U601,3,+*%
%TO.N,GND*%
X94927500Y-115895000D03*
%TO.P,U601,4,V-*%
X94927500Y-116545000D03*
%TO.P,U601,5,+*%
X100652500Y-116545000D03*
%TO.P,U601,6,-*%
%TO.N,SAE_LEVEL*%
X100652500Y-115895000D03*
%TO.P,U601,7*%
X100652500Y-115245000D03*
%TO.P,U601,8,V+*%
%TO.N,+3V3*%
X100652500Y-114595000D03*
%TD*%
D15*
%TO.P,R506,1*%
%TO.N,+12V_SW*%
X113665000Y-113935000D03*
%TO.P,R506,2*%
%TO.N,GND*%
X113665000Y-115935000D03*
%TD*%
D23*
%TO.P,R505,1*%
%TO.N,Net-(Q502-Pad2)*%
X104505000Y-108585000D03*
%TO.P,R505,2*%
%TO.N,GND*%
X102505000Y-108585000D03*
%TD*%
D20*
%TO.P,C901,1*%
%TO.N,GND*%
X82147500Y-116840000D03*
%TO.P,C901,2*%
%TO.N,+3V3*%
X84222500Y-116840000D03*
%TD*%
D12*
%TO.P,C508,1*%
%TO.N,GND*%
X121285000Y-115972500D03*
%TO.P,C508,2*%
%TO.N,+12V_SW*%
X121285000Y-113897500D03*
%TD*%
D15*
%TO.P,R813,1*%
%TO.N,PWM_RX*%
X98425000Y-131080000D03*
%TO.P,R813,2*%
%TO.N,+3V3*%
X98425000Y-133080000D03*
%TD*%
%TO.P,R513,1*%
%TO.N,Net-(R512-Pad2)*%
X123825000Y-97155000D03*
%TO.P,R513,2*%
%TO.N,GND*%
X123825000Y-99155000D03*
%TD*%
D24*
%TO.P,Q806,1,G*%
%TO.N,SAE_VPW*%
X111445000Y-130477500D03*
%TO.P,Q806,2,S*%
%TO.N,J1850_BUS-*%
X113345000Y-130477500D03*
%TO.P,Q806,3,D*%
%TO.N,Net-(Q806-Pad3)*%
X112395000Y-128602500D03*
%TD*%
D41*
%TO.P,D504,1,K*%
%TO.N,+5V*%
X141605000Y-97060000D03*
%TO.P,D504,2,A*%
%TO.N,VBUS*%
X141605000Y-101060000D03*
%TD*%
D23*
%TO.P,R701,1*%
%TO.N,+3V3*%
X106410000Y-94615000D03*
%TO.P,R701,2*%
%TO.N,HS_CAN_TX*%
X104410000Y-94615000D03*
%TD*%
D16*
%TO.P,R811,1*%
%TO.N,J1850_BUS-*%
X115570000Y-130540000D03*
%TO.P,R811,2*%
%TO.N,GND*%
X115570000Y-128540000D03*
%TD*%
%TO.P,R714,1*%
%TO.N,+5V*%
X92710000Y-94345000D03*
%TO.P,R714,2*%
%TO.N,~{HS_CAN_EN_5V}*%
X92710000Y-92345000D03*
%TD*%
D12*
%TO.P,C505,1*%
%TO.N,Net-(C505-Pad1)*%
X130810000Y-96922500D03*
%TO.P,C505,2*%
%TO.N,Net-(C505-Pad2)*%
X130810000Y-94847500D03*
%TD*%
D27*
%TO.P,L302,1,1*%
%TO.N,VPHY*%
X159385000Y-59690000D03*
%TO.P,L302,2,2*%
%TO.N,+3V3*%
X161685000Y-59690000D03*
%TD*%
D14*
%TO.P,Q703,1,G*%
%TO.N,+3V3*%
X103185000Y-84787500D03*
%TO.P,Q703,2,S*%
%TO.N,HS_CAN_RX*%
X101285000Y-84787500D03*
%TO.P,Q703,3,D*%
%TO.N,HS_CAN_RX_5V*%
X102235000Y-86662500D03*
%TD*%
D16*
%TO.P,R703,1*%
%TO.N,+3V3*%
X105410000Y-75025000D03*
%TO.P,R703,2*%
%TO.N,MS_CAN_TX*%
X105410000Y-73025000D03*
%TD*%
D18*
%TO.P,R807,1*%
%TO.N,+5V_SW*%
X90440000Y-123190000D03*
%TO.P,R807,2*%
%TO.N,Net-(R807-Pad2)*%
X92440000Y-123190000D03*
%TD*%
D23*
%TO.P,R716,1*%
%TO.N,+5V*%
X99790000Y-78740000D03*
%TO.P,R716,2*%
%TO.N,~{MS_CAN_EN_5V}*%
X97790000Y-78740000D03*
%TD*%
D14*
%TO.P,Q503,1,G*%
%TO.N,Net-(Q503-Pad1)*%
X118425000Y-111457500D03*
%TO.P,Q503,2,S*%
%TO.N,+12V*%
X116525000Y-111457500D03*
%TO.P,Q503,3,D*%
%TO.N,+12V_SW*%
X117475000Y-113332500D03*
%TD*%
D36*
%TO.P,D1104,1,K*%
%TO.N,GND*%
X147565000Y-107315000D03*
%TO.P,D1104,2,A*%
%TO.N,Net-(D1104-Pad2)*%
X149615000Y-107315000D03*
%TD*%
D23*
%TO.P,R704,1*%
%TO.N,+5V*%
X103870000Y-77470000D03*
%TO.P,R704,2*%
%TO.N,MS_CAN_TX_5V*%
X101870000Y-77470000D03*
%TD*%
%TO.P,R722,1*%
%TO.N,SW_CAN_LOAD*%
X90535000Y-58420000D03*
%TO.P,R722,2*%
%TO.N,GND*%
X88535000Y-58420000D03*
%TD*%
D18*
%TO.P,R503,1*%
%TO.N,+12V*%
X116205000Y-108585000D03*
%TO.P,R503,2*%
%TO.N,Net-(Q503-Pad1)*%
X118205000Y-108585000D03*
%TD*%
D15*
%TO.P,R803,1*%
%TO.N,V_J1850*%
X124460000Y-131715000D03*
%TO.P,R803,2*%
%TO.N,Net-(Q803-Pad1)*%
X124460000Y-133715000D03*
%TD*%
D13*
%TO.P,D1101,1,K*%
%TO.N,Net-(D1101-Pad1)*%
X130175000Y-86750000D03*
%TO.P,D1101,2,A*%
%TO.N,+3V3*%
X130175000Y-84700000D03*
%TD*%
D29*
%TO.P,U801,1*%
%TO.N,VPW_RX*%
X94955000Y-125407500D03*
%TO.P,U801,2,-*%
%TO.N,Net-(R807-Pad2)*%
X94305000Y-125407500D03*
%TO.P,U801,3,+*%
%TO.N,Net-(D803-Pad3)*%
X93655000Y-125407500D03*
%TO.P,U801,4,V-*%
%TO.N,GND*%
X93005000Y-125407500D03*
%TO.P,U801,5,+*%
%TO.N,Net-(D805-Pad1)*%
X93005000Y-131132500D03*
%TO.P,U801,6,-*%
%TO.N,Net-(D805-Pad2)*%
X93655000Y-131132500D03*
%TO.P,U801,7*%
%TO.N,PWM_RX*%
X94305000Y-131132500D03*
%TO.P,U801,8,V+*%
%TO.N,+3V3*%
X94955000Y-131132500D03*
%TD*%
D15*
%TO.P,R515,1*%
%TO.N,Net-(R514-Pad2)*%
X132715000Y-118015000D03*
%TO.P,R515,2*%
%TO.N,Net-(Q508-Pad3)*%
X132715000Y-120015000D03*
%TD*%
D13*
%TO.P,D1113,1,K*%
%TO.N,Net-(D1113-Pad1)*%
X140970000Y-86750000D03*
%TO.P,D1113,2,A*%
%TO.N,+3V3*%
X140970000Y-84700000D03*
%TD*%
D20*
%TO.P,C301,1*%
%TO.N,+1V8*%
X159617500Y-67945000D03*
%TO.P,C301,2*%
%TO.N,GND*%
X161692500Y-67945000D03*
%TD*%
D18*
%TO.P,R510,1*%
%TO.N,Net-(C505-Pad1)*%
X128540000Y-99060000D03*
%TO.P,R510,2*%
%TO.N,GND*%
X130540000Y-99060000D03*
%TD*%
D42*
%TO.P,U301,1,GND*%
%TO.N,GND*%
X153610000Y-57825000D03*
%TO.P,U301,2,OSCI*%
%TO.N,CLK_USB*%
X153110000Y-57825000D03*
%TO.P,U301,3,OSCO*%
%TO.N,unconnected-(U301-Pad3)*%
X152610000Y-57825000D03*
%TO.P,U301,4,VPHY*%
%TO.N,VPHY*%
X152110000Y-57825000D03*
%TO.P,U301,5,GND*%
%TO.N,GND*%
X151610000Y-57825000D03*
%TO.P,U301,6,REF*%
%TO.N,Net-(R303-Pad1)*%
X151110000Y-57825000D03*
%TO.P,U301,7,DM*%
%TO.N,Net-(J302-Pad2)*%
X150610000Y-57825000D03*
%TO.P,U301,8,DP*%
%TO.N,Net-(J302-Pad3)*%
X150110000Y-57825000D03*
%TO.P,U301,9,VPLL*%
%TO.N,VPLL*%
X149610000Y-57825000D03*
%TO.P,U301,10,AGND*%
%TO.N,GND*%
X149110000Y-57825000D03*
%TO.P,U301,11,GND*%
X148610000Y-57825000D03*
%TO.P,U301,12,VCORE*%
%TO.N,+1V8*%
X148110000Y-57825000D03*
%TO.P,U301,13,TEST*%
%TO.N,GND*%
X147610000Y-57825000D03*
%TO.P,U301,14,~{RESET}*%
%TO.N,Net-(R302-Pad2)*%
X147110000Y-57825000D03*
%TO.P,U301,15,GND*%
%TO.N,GND*%
X146610000Y-57825000D03*
%TO.P,U301,16,ADBUS0*%
%TO.N,~{OUTPUT_RX}*%
X146110000Y-57825000D03*
D43*
%TO.P,U301,17,ADBUS1*%
%TO.N,~{OUTPUT_TX}*%
X144185000Y-59750000D03*
%TO.P,U301,18,ADBUS2*%
%TO.N,~{OUTPUT_CTS}*%
X144185000Y-60250000D03*
%TO.P,U301,19,ADBUS3*%
%TO.N,~{OUTPUT_RTS}*%
X144185000Y-60750000D03*
%TO.P,U301,20,VCCIO*%
%TO.N,+3V3*%
X144185000Y-61250000D03*
%TO.P,U301,21,ADBUS4*%
%TO.N,unconnected-(U301-Pad21)*%
X144185000Y-61750000D03*
%TO.P,U301,22,ADBUS5*%
%TO.N,unconnected-(U301-Pad22)*%
X144185000Y-62250000D03*
%TO.P,U301,23,ADBUS6*%
%TO.N,unconnected-(U301-Pad23)*%
X144185000Y-62750000D03*
%TO.P,U301,24,ADBUS7*%
%TO.N,unconnected-(U301-Pad24)*%
X144185000Y-63250000D03*
%TO.P,U301,25,GND*%
%TO.N,GND*%
X144185000Y-63750000D03*
%TO.P,U301,26,ACBUS0*%
%TO.N,unconnected-(U301-Pad26)*%
X144185000Y-64250000D03*
%TO.P,U301,27,ACBUS1*%
%TO.N,unconnected-(U301-Pad27)*%
X144185000Y-64750000D03*
%TO.P,U301,28,ACBUS2*%
%TO.N,unconnected-(U301-Pad28)*%
X144185000Y-65250000D03*
%TO.P,U301,29,ACBUS3*%
%TO.N,~{LED_UART_RX}*%
X144185000Y-65750000D03*
%TO.P,U301,30,ACBUS4*%
%TO.N,~{LED_UART_TX}*%
X144185000Y-66250000D03*
%TO.P,U301,31,VCCIO*%
%TO.N,+3V3*%
X144185000Y-66750000D03*
%TO.P,U301,32,ACBUS5*%
%TO.N,unconnected-(U301-Pad32)*%
X144185000Y-67250000D03*
D42*
%TO.P,U301,33,ACBUS6*%
%TO.N,unconnected-(U301-Pad33)*%
X146110000Y-69175000D03*
%TO.P,U301,34,ACBUS7*%
%TO.N,unconnected-(U301-Pad34)*%
X146610000Y-69175000D03*
%TO.P,U301,35,GND*%
%TO.N,GND*%
X147110000Y-69175000D03*
%TO.P,U301,36,~{SUSPEND}*%
%TO.N,unconnected-(U301-Pad36)*%
X147610000Y-69175000D03*
%TO.P,U301,37,VCORE*%
%TO.N,+1V8*%
X148110000Y-69175000D03*
%TO.P,U301,38,BDBUS0*%
%TO.N,SWCLK*%
X148610000Y-69175000D03*
%TO.P,U301,39,BDBUS1*%
%TO.N,SWDIO*%
X149110000Y-69175000D03*
%TO.P,U301,40,BDBUS2*%
%TO.N,Net-(R305-Pad2)*%
X149610000Y-69175000D03*
%TO.P,U301,41,BDBUS3*%
%TO.N,unconnected-(U301-Pad41)*%
X150110000Y-69175000D03*
%TO.P,U301,42,VCCIO*%
%TO.N,+3V3*%
X150610000Y-69175000D03*
%TO.P,U301,43,BDBUS4*%
%TO.N,~{RESET}*%
X151110000Y-69175000D03*
%TO.P,U301,44,BDBUS5*%
%TO.N,unconnected-(U301-Pad44)*%
X151610000Y-69175000D03*
%TO.P,U301,45,BDBUS6*%
%TO.N,unconnected-(U301-Pad45)*%
X152110000Y-69175000D03*
%TO.P,U301,46,BDBUS7*%
%TO.N,unconnected-(U301-Pad46)*%
X152610000Y-69175000D03*
%TO.P,U301,47,GND*%
%TO.N,GND*%
X153110000Y-69175000D03*
%TO.P,U301,48,BCBUS0*%
%TO.N,unconnected-(U301-Pad48)*%
X153610000Y-69175000D03*
D43*
%TO.P,U301,49,VREGOUT*%
%TO.N,+1V8*%
X155535000Y-67250000D03*
%TO.P,U301,50,VREGIN*%
%TO.N,+3V3*%
X155535000Y-66750000D03*
%TO.P,U301,51,GND*%
%TO.N,GND*%
X155535000Y-66250000D03*
%TO.P,U301,52,BCBUS1*%
%TO.N,unconnected-(U301-Pad52)*%
X155535000Y-65750000D03*
%TO.P,U301,53,BCBUS2*%
%TO.N,unconnected-(U301-Pad53)*%
X155535000Y-65250000D03*
%TO.P,U301,54,BCBUS3*%
%TO.N,unconnected-(U301-Pad54)*%
X155535000Y-64750000D03*
%TO.P,U301,55,BCBUS4*%
%TO.N,unconnected-(U301-Pad55)*%
X155535000Y-64250000D03*
%TO.P,U301,56,VCCIO*%
%TO.N,+3V3*%
X155535000Y-63750000D03*
%TO.P,U301,57,BCBUS5*%
%TO.N,unconnected-(U301-Pad57)*%
X155535000Y-63250000D03*
%TO.P,U301,58,BCBUS6*%
%TO.N,unconnected-(U301-Pad58)*%
X155535000Y-62750000D03*
%TO.P,U301,59,BCBUS7*%
%TO.N,unconnected-(U301-Pad59)*%
X155535000Y-62250000D03*
%TO.P,U301,60,~{PWREN}*%
%TO.N,unconnected-(U301-Pad60)*%
X155535000Y-61750000D03*
%TO.P,U301,61,EEDATA*%
%TO.N,Net-(R306-Pad2)*%
X155535000Y-61250000D03*
%TO.P,U301,62,EECLK*%
%TO.N,Net-(R304-Pad2)*%
X155535000Y-60750000D03*
%TO.P,U301,63,EECS*%
%TO.N,Net-(R307-Pad2)*%
X155535000Y-60250000D03*
%TO.P,U301,64,VCORE*%
%TO.N,+1V8*%
X155535000Y-59750000D03*
%TD*%
D15*
%TO.P,R509,1*%
%TO.N,Net-(C505-Pad2)*%
X128270000Y-94885000D03*
%TO.P,R509,2*%
%TO.N,Net-(C505-Pad1)*%
X128270000Y-96885000D03*
%TD*%
D17*
%TO.P,D805,1*%
%TO.N,Net-(D805-Pad1)*%
X92345000Y-134605000D03*
%TO.P,D805,2*%
%TO.N,Net-(D805-Pad2)*%
X92345000Y-135905000D03*
%TO.P,D805,3*%
%TO.N,GND*%
X94345000Y-135255000D03*
%TD*%
D30*
%TO.P,Q702,1,G*%
%TO.N,+3V3*%
X103172500Y-75245000D03*
%TO.P,Q702,2,S*%
%TO.N,MS_CAN_TX*%
X103172500Y-73345000D03*
%TO.P,Q702,3,D*%
%TO.N,MS_CAN_TX_5V*%
X101297500Y-74295000D03*
%TD*%
D15*
%TO.P,R805,1*%
%TO.N,J1850_TX+*%
X115570000Y-135525000D03*
%TO.P,R805,2*%
%TO.N,GND*%
X115570000Y-137525000D03*
%TD*%
D44*
%TO.P,C509,1*%
%TO.N,V_J1850*%
X125730000Y-121285000D03*
%TO.P,C509,2*%
%TO.N,GND*%
X123655000Y-121285000D03*
%TD*%
D24*
%TO.P,Q904,1,B*%
%TO.N,Net-(Q904-Pad1)*%
X74615000Y-113332500D03*
%TO.P,Q904,2,E*%
%TO.N,GND*%
X76515000Y-113332500D03*
%TO.P,Q904,3,C*%
%TO.N,ISO_LINE*%
X75565000Y-111457500D03*
%TD*%
D18*
%TO.P,R809,1*%
%TO.N,Net-(R807-Pad2)*%
X94520000Y-123190000D03*
%TO.P,R809,2*%
%TO.N,GND*%
X96520000Y-123190000D03*
%TD*%
D44*
%TO.P,C706,1*%
%TO.N,Net-(C706-Pad1)*%
X92477500Y-69215000D03*
%TO.P,C706,2*%
%TO.N,GND*%
X90402500Y-69215000D03*
%TD*%
D45*
%TO.P,J302,1,VBUS*%
%TO.N,VBUS*%
X164185000Y-45060000D03*
%TO.P,J302,2,D-*%
%TO.N,Net-(J302-Pad2)*%
X163535000Y-45060000D03*
%TO.P,J302,3,D+*%
%TO.N,Net-(J302-Pad3)*%
X162885000Y-45060000D03*
%TO.P,J302,4,ID*%
%TO.N,unconnected-(J302-Pad4)*%
X162235000Y-45060000D03*
%TO.P,J302,5,GND*%
%TO.N,GND*%
X161585000Y-45060000D03*
D46*
%TO.P,J302,6,Shield*%
X165735000Y-45160000D03*
D47*
X160155000Y-42180000D03*
D48*
X165305000Y-45180000D03*
D49*
X160135000Y-43110000D03*
D50*
X159885000Y-43860000D03*
D49*
X165615000Y-43110000D03*
D48*
X160465000Y-45180000D03*
D51*
X161925000Y-41910000D03*
D46*
X159985000Y-45180000D03*
D51*
X163845000Y-41910000D03*
D50*
X165835000Y-43860000D03*
D47*
X165615000Y-42180000D03*
%TD*%
D16*
%TO.P,R601,1*%
%TO.N,VBAT*%
X86995000Y-117205000D03*
%TO.P,R601,2*%
%TO.N,BAT_LEVEL*%
X86995000Y-115205000D03*
%TD*%
D36*
%TO.P,D1105,1,K*%
%TO.N,GND*%
X147565000Y-104140000D03*
%TO.P,D1105,2,A*%
%TO.N,Net-(D1105-Pad2)*%
X149615000Y-104140000D03*
%TD*%
D14*
%TO.P,Q704,1,G*%
%TO.N,+3V3*%
X99695000Y-66675000D03*
%TO.P,Q704,2,S*%
%TO.N,MS_CAN_RX*%
X97795000Y-66675000D03*
%TO.P,Q704,3,D*%
%TO.N,MS_CAN_RX_5V*%
X98745000Y-68550000D03*
%TD*%
D31*
%TO.P,C603,1*%
%TO.N,SAE_LEVEL*%
X102870000Y-115802500D03*
%TO.P,C603,2*%
%TO.N,GND*%
X102870000Y-117877500D03*
%TD*%
D14*
%TO.P,Q807,1,G*%
%TO.N,J1850_TX-*%
X117155000Y-124157500D03*
%TO.P,Q807,2,S*%
%TO.N,GND*%
X115255000Y-124157500D03*
%TO.P,Q807,3,D*%
%TO.N,Net-(Q806-Pad3)*%
X116205000Y-126032500D03*
%TD*%
D23*
%TO.P,F501,1*%
%TO.N,Net-(C503-Pad2)*%
X78835000Y-100965000D03*
%TO.P,F501,2*%
%TO.N,VBAT*%
X76835000Y-100965000D03*
%TD*%
D16*
%TO.P,R603,1*%
%TO.N,J1850_BUS+*%
X107950000Y-119745000D03*
%TO.P,R603,2*%
%TO.N,SAE_LEVEL*%
X107950000Y-117745000D03*
%TD*%
D31*
%TO.P,C511,1*%
%TO.N,+5V*%
X142875000Y-106680000D03*
%TO.P,C511,2*%
%TO.N,GND*%
X142875000Y-108755000D03*
%TD*%
D15*
%TO.P,R712,1*%
%TO.N,+5V*%
X101600000Y-66580000D03*
%TO.P,R712,2*%
%TO.N,MS_CAN_RX_5V*%
X101600000Y-68580000D03*
%TD*%
D38*
%TO.P,Q504,1,G*%
%TO.N,Net-(Q503-Pad1)*%
X125427500Y-108905000D03*
%TO.P,Q504,2,S*%
%TO.N,+5V*%
X125427500Y-110805000D03*
%TO.P,Q504,3,D*%
%TO.N,+5V_SW*%
X127302500Y-109855000D03*
%TD*%
D12*
%TO.P,C705,1*%
%TO.N,GND*%
X90170000Y-75332500D03*
%TO.P,C705,2*%
%TO.N,Net-(C705-Pad2)*%
X90170000Y-73257500D03*
%TD*%
D23*
%TO.P,R720,1*%
%TO.N,SW_CAN*%
X83550000Y-64135000D03*
%TO.P,R720,2*%
%TO.N,Net-(R720-Pad2)*%
X81550000Y-64135000D03*
%TD*%
D52*
%TO.P,J401,1,1*%
%TO.N,SW_CAN*%
X85234780Y-68519040D03*
%TO.P,J401,2,J1850BUS+*%
%TO.N,J1850_BUS+*%
X85234780Y-72468740D03*
%TO.P,J401,3,3*%
%TO.N,MS_CAN_HI*%
X85234780Y-76418440D03*
%TO.P,J401,4,CHASGND*%
%TO.N,GND*%
X85234780Y-80368140D03*
%TO.P,J401,5,SIGGND*%
X85234780Y-84315300D03*
%TO.P,J401,6,CANHIGH*%
%TO.N,HS_CAN_HI*%
X85234780Y-88265000D03*
%TO.P,J401,7,ISOK-LINE*%
%TO.N,K_LINE*%
X85234780Y-92214700D03*
%TO.P,J401,8,8*%
%TO.N,unconnected-(J401-Pad8)*%
X85234780Y-96166940D03*
%TO.P,J401,9,9*%
%TO.N,unconnected-(J401-Pad9)*%
X76835000Y-68519040D03*
%TO.P,J401,10,J1850BUS*%
%TO.N,J1850_BUS-*%
X76835000Y-72468740D03*
%TO.P,J401,11,11*%
%TO.N,MS_CAN_LO*%
X76835000Y-76418440D03*
%TO.P,J401,12,12*%
%TO.N,unconnected-(J401-Pad12)*%
X76835000Y-80368140D03*
%TO.P,J401,13,13*%
%TO.N,unconnected-(J401-Pad13)*%
X76835000Y-84315300D03*
%TO.P,J401,14,CANLOW*%
%TO.N,HS_CAN_LO*%
X76835000Y-88265000D03*
%TO.P,J401,15,ISOL-LINE*%
%TO.N,L_LINE*%
X76835000Y-92214700D03*
%TO.P,J401,16,BATTPOWER*%
%TO.N,VBAT*%
X76835000Y-96166940D03*
%TD*%
D15*
%TO.P,R516,1*%
%TO.N,+3V3*%
X139065000Y-118110000D03*
%TO.P,R516,2*%
%TO.N,SAE_PWM*%
X139065000Y-120110000D03*
%TD*%
D36*
%TO.P,D1109,1,K*%
%TO.N,GND*%
X147565000Y-91440000D03*
%TO.P,D1109,2,A*%
%TO.N,Net-(D1109-Pad2)*%
X149615000Y-91440000D03*
%TD*%
D15*
%TO.P,R306,1*%
%TO.N,+3V3*%
X167005000Y-59055000D03*
%TO.P,R306,2*%
%TO.N,Net-(R306-Pad2)*%
X167005000Y-61055000D03*
%TD*%
D16*
%TO.P,R717,1*%
%TO.N,SW_CAN_MODE0*%
X86995000Y-46085000D03*
%TO.P,R717,2*%
%TO.N,+3V3*%
X86995000Y-44085000D03*
%TD*%
D12*
%TO.P,C701,1*%
%TO.N,GND*%
X107315000Y-89937500D03*
%TO.P,C701,2*%
%TO.N,+5V_SW*%
X107315000Y-87862500D03*
%TD*%
D29*
%TO.P,U901,1*%
%TO.N,~{ISO_RX}*%
X84160000Y-108897500D03*
%TO.P,U901,2,-*%
%TO.N,Net-(D901-Pad3)*%
X83510000Y-108897500D03*
%TO.P,U901,3,+*%
%TO.N,Net-(R905-Pad2)*%
X82860000Y-108897500D03*
%TO.P,U901,4,V-*%
%TO.N,GND*%
X82210000Y-108897500D03*
%TO.P,U901,5,+*%
X82210000Y-114622500D03*
%TO.P,U901,6,-*%
X82860000Y-114622500D03*
%TO.P,U901,7*%
%TO.N,unconnected-(U901-Pad7)*%
X83510000Y-114622500D03*
%TO.P,U901,8,V+*%
%TO.N,+3V3*%
X84160000Y-114622500D03*
%TD*%
D23*
%TO.P,R711,1*%
%TO.N,+3V3*%
X99695000Y-64135000D03*
%TO.P,R711,2*%
%TO.N,MS_CAN_RX*%
X97695000Y-64135000D03*
%TD*%
D33*
%TO.P,D804,1,K*%
%TO.N,Net-(D804-Pad1)*%
X122555000Y-128270000D03*
%TO.P,D804,2,A*%
%TO.N,+5V_SW*%
X125855000Y-128270000D03*
%TD*%
D25*
%TO.P,U701,1,TXD*%
%TO.N,HS_CAN_TX_5V*%
X99340000Y-89240000D03*
%TO.P,U701,2,VSS*%
%TO.N,GND*%
X99340000Y-88590000D03*
%TO.P,U701,3,VDD*%
%TO.N,+5V_SW*%
X99340000Y-87940000D03*
%TO.P,U701,4,RXD*%
%TO.N,HS_CAN_RX_5V*%
X99340000Y-87290000D03*
%TO.P,U701,5,NC*%
%TO.N,unconnected-(U701-Pad5)*%
X96240000Y-87290000D03*
%TO.P,U701,6,CANL*%
%TO.N,HS_CAN_LO*%
X96240000Y-87940000D03*
%TO.P,U701,7,CANH*%
%TO.N,HS_CAN_HI*%
X96240000Y-88590000D03*
%TO.P,U701,8,S*%
%TO.N,~{HS_CAN_EN_5V}*%
X96240000Y-89240000D03*
D26*
%TO.P,U701,9,VSS*%
%TO.N,GND*%
X97790000Y-88265000D03*
%TD*%
D23*
%TO.P,R705,1*%
%TO.N,HS_CAN_HI*%
X93440000Y-89535000D03*
%TO.P,R705,2*%
%TO.N,Net-(C703-Pad2)*%
X91440000Y-89535000D03*
%TD*%
D24*
%TO.P,Q805,1,G*%
%TO.N,SAE_PWM*%
X105730000Y-132382500D03*
%TO.P,Q805,2,S*%
%TO.N,GND*%
X107630000Y-132382500D03*
%TO.P,Q805,3,D*%
%TO.N,SAE_VPW*%
X106680000Y-130507500D03*
%TD*%
D16*
%TO.P,R706,1*%
%TO.N,HS_CAN_LO*%
X93980000Y-87360000D03*
%TO.P,R706,2*%
%TO.N,Net-(C704-Pad1)*%
X93980000Y-85360000D03*
%TD*%
D53*
%TO.P,SW201,1,1*%
%TO.N,GND*%
X147245000Y-43470000D03*
X153745000Y-43470000D03*
%TO.P,SW201,2,2*%
%TO.N,Net-(R201-Pad2)*%
X147245000Y-47970000D03*
X153745000Y-47970000D03*
%TD*%
D33*
%TO.P,D503,1,K*%
%TO.N,Net-(D503-Pad1)*%
X94615000Y-107315000D03*
%TO.P,D503,2,A*%
%TO.N,GND*%
X91315000Y-107315000D03*
%TD*%
D15*
%TO.P,R602,1*%
%TO.N,BAT_LEVEL*%
X89535000Y-115205000D03*
%TO.P,R602,2*%
%TO.N,GND*%
X89535000Y-117205000D03*
%TD*%
%TO.P,R812,1*%
%TO.N,J1850_TX-*%
X119380000Y-124095000D03*
%TO.P,R812,2*%
%TO.N,GND*%
X119380000Y-126095000D03*
%TD*%
D13*
%TO.P,D1111,1,K*%
%TO.N,Net-(D1111-Pad1)*%
X137160000Y-86750000D03*
%TO.P,D1111,2,A*%
%TO.N,+3V3*%
X137160000Y-84700000D03*
%TD*%
D18*
%TO.P,R815,1*%
%TO.N,J1850_BUS-*%
X86630000Y-137160000D03*
%TO.P,R815,2*%
%TO.N,Net-(D805-Pad2)*%
X88630000Y-137160000D03*
%TD*%
D31*
%TO.P,C512,1*%
%TO.N,+3V3*%
X132715000Y-106680000D03*
%TO.P,C512,2*%
%TO.N,GND*%
X132715000Y-108755000D03*
%TD*%
D18*
%TO.P,R907,1*%
%TO.N,Net-(Q904-Pad1)*%
X74565000Y-115570000D03*
%TO.P,R907,2*%
%TO.N,~{ISO_TX}*%
X76565000Y-115570000D03*
%TD*%
D19*
%TO.P,D602,1,K*%
%TO.N,SAE_LEVEL*%
X102870000Y-112967500D03*
%TO.P,D602,2,A*%
%TO.N,GND*%
X102870000Y-111822500D03*
%TD*%
D15*
%TO.P,R718,1*%
%TO.N,+3V3*%
X84455000Y-44085000D03*
%TO.P,R718,2*%
%TO.N,SW_CAN_MODE1*%
X84455000Y-46085000D03*
%TD*%
D54*
%TO.P,C501,1*%
%TO.N,+12V*%
X109855000Y-108585000D03*
%TO.P,C501,2*%
%TO.N,GND*%
X109855000Y-114985000D03*
%TD*%
D55*
%TO.P,D801,1,K*%
%TO.N,J1850_BUS+*%
X113030000Y-136905000D03*
%TO.P,D801,2,A*%
%TO.N,Net-(D801-Pad2)*%
X113030000Y-133605000D03*
%TD*%
D16*
%TO.P,R708,1*%
%TO.N,MS_CAN_LO*%
X94615000Y-71120000D03*
%TO.P,R708,2*%
%TO.N,Net-(C706-Pad1)*%
X94615000Y-69120000D03*
%TD*%
D56*
%TO.P,U202,1,CLK1*%
%TO.N,CLK_CPU*%
X128098550Y-44447501D03*
%TO.P,U202,2,GND*%
%TO.N,GND*%
X128098550Y-43497500D03*
%TO.P,U202,3,FIN*%
%TO.N,Net-(U202-Pad3)*%
X128098550Y-42547499D03*
%TO.P,U202,4,CLK0*%
%TO.N,CLK_USB*%
X125507750Y-42547499D03*
%TO.P,U202,5,VDD*%
%TO.N,+3V3*%
X125507750Y-43497500D03*
%TO.P,U202,6,CLK2*%
%TO.N,CLK_CAN*%
X125507750Y-44447501D03*
%TD*%
D40*
%TO.P,U704,1,A0*%
%TO.N,GND*%
X103182500Y-50430000D03*
%TO.P,U704,2,A1*%
X103182500Y-51080000D03*
%TO.P,U704,3,A2*%
X103182500Y-51730000D03*
%TO.P,U704,4,P0*%
%TO.N,~{SW_CAN_STATUS_INT}*%
X103182500Y-52380000D03*
%TO.P,U704,5,P1*%
%TO.N,~{SW_CAN_RX0BF}*%
X103182500Y-53030000D03*
%TO.P,U704,6,P2*%
%TO.N,~{SW_CAN_RX1BF}*%
X103182500Y-53680000D03*
%TO.P,U704,7,P3*%
%TO.N,~{SW_CAN_TX0RTS}*%
X103182500Y-54330000D03*
%TO.P,U704,8,GND*%
%TO.N,GND*%
X103182500Y-54980000D03*
%TO.P,U704,9,P4*%
%TO.N,~{SW_CAN_TX1RTS}*%
X108907500Y-54980000D03*
%TO.P,U704,10,P5*%
%TO.N,~{SW_CAN_TX2RTS}*%
X108907500Y-54330000D03*
%TO.P,U704,11,P6*%
%TO.N,~{SW_CAN_RESET}*%
X108907500Y-53680000D03*
%TO.P,U704,12,P7*%
%TO.N,SW_CAN_SOF*%
X108907500Y-53030000D03*
%TO.P,U704,13,~{INT}*%
%TO.N,~{SW_CAN_INT}*%
X108907500Y-52380000D03*
%TO.P,U704,14,SCL*%
%TO.N,SCL*%
X108907500Y-51730000D03*
%TO.P,U704,15,SDA*%
%TO.N,SDA*%
X108907500Y-51080000D03*
%TO.P,U704,16,VDD*%
%TO.N,+3V3*%
X108907500Y-50430000D03*
%TD*%
D23*
%TO.P,R814,1*%
%TO.N,Net-(D805-Pad1)*%
X88630000Y-133985000D03*
%TO.P,R814,2*%
%TO.N,J1850_BUS+*%
X86630000Y-133985000D03*
%TD*%
D38*
%TO.P,Q706,1,G*%
%TO.N,+3V3*%
X93677500Y-77155000D03*
%TO.P,Q706,2,S*%
%TO.N,~{MS_CAN_EN}*%
X93677500Y-79055000D03*
%TO.P,Q706,3,D*%
%TO.N,~{MS_CAN_EN_5V}*%
X95552500Y-78105000D03*
%TD*%
D57*
%TO.P,J301,1,DAT2*%
%TO.N,unconnected-(J301-Pad1)*%
X138800000Y-73095000D03*
%TO.P,J301,2,DAT3/CD*%
%TO.N,~{SDCARD_CS}*%
X138800000Y-74195000D03*
%TO.P,J301,3,CMD*%
%TO.N,SDCARD_MOSI*%
X138800000Y-75295000D03*
%TO.P,J301,4,VDD*%
%TO.N,+3V3*%
X138800000Y-76395000D03*
%TO.P,J301,5,CLK*%
%TO.N,SDCARD_SCK*%
X138800000Y-77495000D03*
%TO.P,J301,6,VSS*%
%TO.N,GND*%
X138800000Y-78595000D03*
%TO.P,J301,7,DAT0*%
%TO.N,SDCARD_MISO*%
X138800000Y-79695000D03*
D58*
%TO.P,J301,8,DAT1*%
%TO.N,unconnected-(J301-Pad8)*%
X138800000Y-80745000D03*
D59*
%TO.P,J301,9,DET_B*%
%TO.N,GND*%
X132650000Y-70460000D03*
%TO.P,J301,10,DET_A*%
%TO.N,~{SDCARD_DETECT}*%
X128950000Y-70460000D03*
D60*
%TO.P,J301,11,SHIELD*%
%TO.N,GND*%
X138675000Y-70635000D03*
D61*
X127975000Y-79930000D03*
X127975000Y-73960000D03*
D62*
X138450000Y-81955000D03*
%TD*%
D15*
%TO.P,R710,1*%
%TO.N,+5V*%
X99060000Y-83455000D03*
%TO.P,R710,2*%
%TO.N,HS_CAN_RX_5V*%
X99060000Y-85455000D03*
%TD*%
D23*
%TO.P,R502,1*%
%TO.N,Net-(Q502-Pad1)*%
X99425000Y-104775000D03*
%TO.P,R502,2*%
%TO.N,Net-(D503-Pad1)*%
X97425000Y-104775000D03*
%TD*%
D63*
%TO.P,U503,1,EN*%
%TO.N,+5V*%
X140045000Y-106805000D03*
%TO.P,U503,2,NC*%
%TO.N,unconnected-(U503-Pad2)*%
X138545000Y-106805000D03*
%TO.P,U503,3,OUT*%
%TO.N,+3V3*%
X137045000Y-106805000D03*
%TO.P,U503,4,IN*%
%TO.N,+5V*%
X135545000Y-106805000D03*
D64*
%TO.P,U503,5,GND*%
%TO.N,GND*%
X137795000Y-113105000D03*
%TD*%
D65*
%TO.P,U501,1,VIN*%
%TO.N,+12V*%
X117475000Y-92544900D03*
%TO.P,U501,2,RON*%
%TO.N,Net-(R511-Pad1)*%
X118745000Y-92544900D03*
%TO.P,U501,3,EN*%
%TO.N,Net-(R512-Pad2)*%
X120015000Y-92544900D03*
%TO.P,U501,4,GND*%
%TO.N,GND*%
X121285000Y-92544900D03*
%TO.P,U501,5,SS*%
%TO.N,Net-(C510-Pad1)*%
X122555000Y-92544900D03*
%TO.P,U501,6,FB*%
%TO.N,Net-(C505-Pad1)*%
X123825000Y-92544900D03*
%TO.P,U501,7,VOUT*%
%TO.N,Net-(C505-Pad2)*%
X125095000Y-92544900D03*
D66*
%TO.P,U501,8,8*%
%TO.N,GND*%
X121285000Y-84302600D03*
%TD*%
D23*
%TO.P,R302,1*%
%TO.N,+3V3*%
X161655000Y-53340000D03*
%TO.P,R302,2*%
%TO.N,Net-(R302-Pad2)*%
X159655000Y-53340000D03*
%TD*%
D15*
%TO.P,R304,1*%
%TO.N,+3V3*%
X164465000Y-59055000D03*
%TO.P,R304,2*%
%TO.N,Net-(R304-Pad2)*%
X164465000Y-61055000D03*
%TD*%
D24*
%TO.P,Q502,1,B*%
%TO.N,Net-(Q502-Pad1)*%
X102555000Y-104442500D03*
%TO.P,Q502,2,E*%
%TO.N,Net-(Q502-Pad2)*%
X104455000Y-104442500D03*
%TO.P,Q502,3,C*%
%TO.N,Net-(D501-Pad1)*%
X103505000Y-102567500D03*
%TD*%
D31*
%TO.P,C707,1*%
%TO.N,GND*%
X100330000Y-44682500D03*
%TO.P,C707,2*%
%TO.N,+3V3_SW*%
X100330000Y-46757500D03*
%TD*%
%TO.P,C504,1*%
%TO.N,GND*%
X112395000Y-98657500D03*
%TO.P,C504,2*%
%TO.N,Net-(C504-Pad2)*%
X112395000Y-100732500D03*
%TD*%
D44*
%TO.P,C704,1*%
%TO.N,Net-(C704-Pad1)*%
X93747500Y-83185000D03*
%TO.P,C704,2*%
%TO.N,GND*%
X91672500Y-83185000D03*
%TD*%
D24*
%TO.P,Q701,1,G*%
%TO.N,+3V3*%
X100650000Y-94585000D03*
%TO.P,Q701,2,S*%
%TO.N,HS_CAN_TX*%
X102550000Y-94585000D03*
%TO.P,Q701,3,D*%
%TO.N,HS_CAN_TX_5V*%
X101600000Y-92710000D03*
%TD*%
D15*
%TO.P,R511,1*%
%TO.N,Net-(R511-Pad1)*%
X118745000Y-96155000D03*
%TO.P,R511,2*%
%TO.N,+12V*%
X118745000Y-98155000D03*
%TD*%
D18*
%TO.P,R305,1*%
%TO.N,SWDIO*%
X144050000Y-73025000D03*
%TO.P,R305,2*%
%TO.N,Net-(R305-Pad2)*%
X146050000Y-73025000D03*
%TD*%
D67*
%TO.P,J304,1,1*%
%TO.N,GND*%
X141889480Y-47914560D03*
%TO.P,J304,2,2*%
%TO.N,+3V3*%
X141889480Y-49413160D03*
%TO.P,J304,3,3*%
%TO.N,~{LINBUS_RX}*%
X141889480Y-50914300D03*
%TO.P,J304,4,4*%
%TO.N,~{LINBUS_TX}*%
X141889480Y-52412900D03*
%TD*%
D40*
%TO.P,U703,1,TXCAN*%
%TO.N,SW_CAN_TX*%
X92387500Y-47875000D03*
%TO.P,U703,2,RXCAN*%
%TO.N,SW_CAN_RX*%
X92387500Y-48525000D03*
%TO.P,U703,3,CLKOUT/SOF*%
%TO.N,SW_CAN_SOF*%
X92387500Y-49175000D03*
%TO.P,U703,4,~{TX0RTS}*%
%TO.N,~{SW_CAN_TX0RTS}*%
X92387500Y-49825000D03*
%TO.P,U703,5,~{TX1RTS}*%
%TO.N,~{SW_CAN_TX1RTS}*%
X92387500Y-50475000D03*
%TO.P,U703,6,NC*%
%TO.N,unconnected-(U703-Pad6)*%
X92387500Y-51125000D03*
%TO.P,U703,7,~{TX2RTS}*%
%TO.N,~{SW_CAN_TX2RTS}*%
X92387500Y-51775000D03*
%TO.P,U703,8,OSC2*%
%TO.N,unconnected-(U703-Pad8)*%
X92387500Y-52425000D03*
%TO.P,U703,9,OSC1*%
%TO.N,CLK_CAN*%
X92387500Y-53075000D03*
%TO.P,U703,10,VSS*%
%TO.N,GND*%
X92387500Y-53725000D03*
%TO.P,U703,11,~{RX1BF}*%
%TO.N,~{SW_CAN_RX1BF}*%
X98112500Y-53725000D03*
%TO.P,U703,12,~{RX0BF}*%
%TO.N,~{SW_CAN_RX0BF}*%
X98112500Y-53075000D03*
%TO.P,U703,13,~{INT}*%
%TO.N,~{SW_CAN_STATUS_INT}*%
X98112500Y-52425000D03*
%TO.P,U703,14,SCK*%
%TO.N,SW_CAN_SCK*%
X98112500Y-51775000D03*
%TO.P,U703,15,NC*%
%TO.N,unconnected-(U703-Pad15)*%
X98112500Y-51125000D03*
%TO.P,U703,16,SI*%
%TO.N,SW_CAN_MOSI*%
X98112500Y-50475000D03*
%TO.P,U703,17,SO*%
%TO.N,SW_CAN_MISO*%
X98112500Y-49825000D03*
%TO.P,U703,18,~{CS}*%
%TO.N,SW_CAN_CS*%
X98112500Y-49175000D03*
%TO.P,U703,19,~{RESET}*%
%TO.N,~{SW_CAN_RESET}*%
X98112500Y-48525000D03*
%TO.P,U703,20,VDD*%
%TO.N,+3V3_SW*%
X98112500Y-47875000D03*
%TD*%
D14*
%TO.P,Q903,1,G*%
%TO.N,ISO_L*%
X75880000Y-105107500D03*
%TO.P,Q903,2,S*%
%TO.N,L_LINE*%
X73980000Y-105107500D03*
%TO.P,Q903,3,D*%
%TO.N,ISO_LINE*%
X74930000Y-106982500D03*
%TD*%
D68*
%TO.P,RN701,1,common*%
%TO.N,+3V3*%
X95240000Y-59055000D03*
D69*
%TO.P,RN701,2,R1*%
%TO.N,~{SW_CAN_STATUS_INT}*%
X97780000Y-59055000D03*
%TO.P,RN701,3,R2*%
%TO.N,~{SW_CAN_RX0BF}*%
X100320000Y-59055000D03*
%TO.P,RN701,4,R3*%
%TO.N,~{SW_CAN_RX1BF}*%
X102860000Y-59055000D03*
%TO.P,RN701,5,R4*%
%TO.N,~{SW_CAN_TX0RTS}*%
X105400000Y-59055000D03*
%TO.P,RN701,6,R5*%
%TO.N,~{SW_CAN_TX1RTS}*%
X107940000Y-59055000D03*
%TO.P,RN701,7,R6*%
%TO.N,~{SW_CAN_TX2RTS}*%
X110480000Y-59055000D03*
%TO.P,RN701,8,R7*%
%TO.N,~{SW_CAN_RESET}*%
X113020000Y-59055000D03*
%TD*%
D23*
%TO.P,R901,1*%
%TO.N,+3V3*%
X79470000Y-102870000D03*
%TO.P,R901,2*%
%TO.N,ISO_L*%
X77470000Y-102870000D03*
%TD*%
D36*
%TO.P,D1103,1,K*%
%TO.N,GND*%
X147565000Y-111125000D03*
%TO.P,D1103,2,A*%
%TO.N,Net-(D1103-Pad2)*%
X149615000Y-111125000D03*
%TD*%
D37*
%TO.P,D501,1,K*%
%TO.N,Net-(D501-Pad1)*%
X90995000Y-102235000D03*
%TO.P,D501,2,A*%
%TO.N,Net-(C503-Pad2)*%
X86995000Y-102235000D03*
%TD*%
D36*
%TO.P,D1110,1,K*%
%TO.N,GND*%
X147565000Y-88265000D03*
%TO.P,D1110,2,A*%
%TO.N,Net-(D1110-Pad2)*%
X149615000Y-88265000D03*
%TD*%
D31*
%TO.P,C703,1*%
%TO.N,GND*%
X88900000Y-87630000D03*
%TO.P,C703,2*%
%TO.N,Net-(C703-Pad2)*%
X88900000Y-89705000D03*
%TD*%
D18*
%TO.P,R301,1*%
%TO.N,+3V3*%
X125000000Y-67945000D03*
%TO.P,R301,2*%
%TO.N,~{SDCARD_DETECT}*%
X127000000Y-67945000D03*
%TD*%
D13*
%TO.P,D1112,1,K*%
%TO.N,Net-(D1112-Pad1)*%
X144780000Y-86480000D03*
%TO.P,D1112,2,A*%
%TO.N,+3V3*%
X144780000Y-84430000D03*
%TD*%
D14*
%TO.P,Q902,1,G*%
%TO.N,ISO_K*%
X79690000Y-106377500D03*
%TO.P,Q902,2,S*%
%TO.N,K_LINE*%
X77790000Y-106377500D03*
%TO.P,Q902,3,D*%
%TO.N,ISO_LINE*%
X78740000Y-108252500D03*
%TD*%
D23*
%TO.P,R804,1*%
%TO.N,+3V3*%
X108045000Y-125095000D03*
%TO.P,R804,2*%
%TO.N,SAE_VPW*%
X106045000Y-125095000D03*
%TD*%
D70*
%TO.P,X201,1,EN*%
%TO.N,+3V3*%
X138430000Y-41815000D03*
%TO.P,X201,2,GND*%
%TO.N,GND*%
X133350000Y-41815000D03*
%TO.P,X201,3,OUT*%
%TO.N,Net-(U202-Pad3)*%
X133350000Y-45815000D03*
%TO.P,X201,4,Vdd*%
%TO.N,+3V3*%
X138430000Y-45815000D03*
%TD*%
D15*
%TO.P,R715,1*%
%TO.N,+3V3*%
X90805000Y-77105000D03*
%TO.P,R715,2*%
%TO.N,~{MS_CAN_EN}*%
X90805000Y-79105000D03*
%TD*%
D23*
%TO.P,R808,1*%
%TO.N,Net-(D803-Pad3)*%
X88630000Y-130810000D03*
%TO.P,R808,2*%
%TO.N,J1850_BUS+*%
X86630000Y-130810000D03*
%TD*%
%TO.P,R810,1*%
%TO.N,Net-(D804-Pad1)*%
X120650000Y-128270000D03*
%TO.P,R810,2*%
%TO.N,Net-(Q806-Pad3)*%
X118650000Y-128270000D03*
%TD*%
D33*
%TO.P,D802,1,K*%
%TO.N,GND*%
X103380000Y-136525000D03*
%TO.P,D802,2,A*%
%TO.N,Net-(D802-Pad2)*%
X106680000Y-136525000D03*
%TD*%
D36*
%TO.P,D1107,1,K*%
%TO.N,GND*%
X147565000Y-97790000D03*
%TO.P,D1107,2,A*%
%TO.N,Net-(D1107-Pad2)*%
X149615000Y-97790000D03*
%TD*%
D71*
%TO.P,U502,1,ADJ*%
%TO.N,Net-(R514-Pad2)*%
X127230000Y-115825000D03*
D72*
%TO.P,U502,2,VO*%
%TO.N,V_J1850*%
X125730000Y-115912500D03*
D71*
%TO.P,U502,3,VI*%
%TO.N,+12V_SW*%
X124230000Y-115825000D03*
%TD*%
D15*
%TO.P,R517,1*%
%TO.N,Net-(Q508-Pad3)*%
X132715000Y-122555000D03*
%TO.P,R517,2*%
%TO.N,GND*%
X132715000Y-124555000D03*
%TD*%
D73*
%TO.N,Net-(C201-Pad1)*%
X130805775Y-65456676D03*
%TO.N,GND*%
X104886289Y-54109113D03*
X135255000Y-118745000D03*
X144780000Y-55880000D03*
X86995000Y-59055000D03*
X86995000Y-63500000D03*
X145415000Y-104140000D03*
X101600000Y-50800000D03*
X124123599Y-61961489D03*
X137160000Y-78105000D03*
X83185000Y-104140000D03*
X146685000Y-64135000D03*
X90805000Y-111125000D03*
X77470000Y-113665000D03*
X95885000Y-135890000D03*
X112395000Y-96520000D03*
X97790000Y-85725000D03*
X116840000Y-127635000D03*
X130354011Y-62732101D03*
X116840000Y-139065000D03*
X153670000Y-66675000D03*
X129540000Y-43815000D03*
X146050000Y-71120000D03*
X151130000Y-59690000D03*
X91440000Y-105410000D03*
X85725000Y-127635000D03*
X154940000Y-57785000D03*
X162247500Y-69537500D03*
X125095000Y-99695000D03*
X130810000Y-108585000D03*
X140970000Y-81915000D03*
X131445000Y-42545000D03*
X118745000Y-105320500D03*
X143510000Y-110490000D03*
X114935000Y-112395000D03*
X135915000Y-70460000D03*
X85090537Y-110460642D03*
X107315000Y-91440000D03*
X127975000Y-77130000D03*
X145415000Y-94615000D03*
X80645000Y-116840000D03*
X154325000Y-75565000D03*
X135255000Y-58420000D03*
X101600000Y-110871000D03*
X88900000Y-75565000D03*
X102235000Y-44450000D03*
X152400000Y-53975000D03*
X121285000Y-117475000D03*
X124460000Y-81915000D03*
X132080000Y-112395000D03*
X104140000Y-68580000D03*
X121285000Y-126365000D03*
X140970000Y-114935000D03*
X157500000Y-78105000D03*
X108917500Y-132382500D03*
X118110000Y-84455000D03*
X87630000Y-62230000D03*
X132715000Y-50800000D03*
X121285000Y-94615000D03*
X88900000Y-69215000D03*
X90805000Y-53975000D03*
X109220000Y-128270000D03*
X147955000Y-59690000D03*
X128270000Y-100965000D03*
X127000000Y-54445499D03*
X139065000Y-102870000D03*
X97790000Y-69850000D03*
X114935000Y-95885000D03*
X116205000Y-122555000D03*
X90805000Y-87540500D03*
X97790000Y-123190000D03*
X91440000Y-84455000D03*
X109855000Y-117475000D03*
X132080000Y-99060000D03*
X91440000Y-125095000D03*
X132715000Y-126365000D03*
X96180000Y-116545000D03*
X81280000Y-113119500D03*
X121920000Y-121285000D03*
X101600000Y-136525000D03*
X100965000Y-108585000D03*
X112395000Y-117475000D03*
%TO.N,+1V8*%
X147955000Y-71755000D03*
X157408245Y-60396755D03*
X157480000Y-67945000D03*
X148590000Y-55880000D03*
%TO.N,+5V*%
X105410000Y-89535000D03*
X97155000Y-83185000D03*
X135890000Y-104775000D03*
X135890000Y-99695000D03*
X125095000Y-112395000D03*
X101600000Y-65405000D03*
X105410000Y-78105000D03*
X140970000Y-93980000D03*
X92075000Y-95885000D03*
X99695000Y-80645000D03*
%TO.N,+12V_SW*%
X113665000Y-112395000D03*
X106045000Y-112395000D03*
X80645000Y-61595000D03*
X89535000Y-112395000D03*
%TO.N,V_J1850*%
X123825000Y-130175000D03*
X127635000Y-121285000D03*
%TO.N,Net-(C510-Pad1)*%
X122555000Y-94615000D03*
%TO.N,+3V3*%
X97155000Y-96520000D03*
X126030219Y-69450321D03*
X104775000Y-81915000D03*
X142240000Y-83820000D03*
X128905000Y-83185000D03*
X118745000Y-102870000D03*
X150495000Y-71755000D03*
X140970000Y-45720000D03*
X96520000Y-131445000D03*
X163195000Y-56515000D03*
X109855000Y-125095000D03*
X84455000Y-113119500D03*
X156845000Y-50800000D03*
X100965000Y-96520000D03*
X139065000Y-116840000D03*
X146050000Y-83185000D03*
X81190500Y-106680000D03*
X133985000Y-54610000D03*
X146700000Y-60325000D03*
X134709500Y-83185000D03*
X147904200Y-50850800D03*
X106680000Y-76200000D03*
X157500000Y-80010000D03*
X141605000Y-66675000D03*
X128572500Y-105712500D03*
X98425000Y-114935000D03*
X158115000Y-66675000D03*
X95250000Y-96520000D03*
X163195000Y-59690000D03*
X80601218Y-103512022D03*
X105410000Y-96520000D03*
X123825000Y-43180000D03*
X123914500Y-54610000D03*
X100965000Y-64135000D03*
X131406926Y-62715950D03*
X109220000Y-48895000D03*
X147320000Y-80010000D03*
X165735000Y-71120000D03*
X140335000Y-76200000D03*
X88900000Y-44450000D03*
X80010000Y-55245000D03*
X99060000Y-127635000D03*
X136525000Y-108585000D03*
X163195000Y-53340000D03*
X158115000Y-63500000D03*
X138430000Y-83820000D03*
X125005500Y-63410500D03*
X92345000Y-77105000D03*
%TO.N,+3.3VA*%
X138430000Y-58420000D03*
%TO.N,BAT_LEVEL*%
X92075000Y-113665000D03*
X135890000Y-53975000D03*
X125730000Y-48260000D03*
X101600000Y-98425000D03*
X109220000Y-64770000D03*
X120015000Y-53975000D03*
X107950000Y-85090000D03*
%TO.N,SAE_LEVEL*%
X134797122Y-65862878D03*
X129450500Y-71755000D03*
X102870000Y-114300000D03*
X111125000Y-94615000D03*
X133439500Y-68580000D03*
X102870000Y-98425000D03*
%TO.N,+5V_SW*%
X111125000Y-103505000D03*
X109220000Y-88265000D03*
X109220000Y-94615000D03*
X107950000Y-71755000D03*
X109220000Y-78740000D03*
X127000000Y-126365000D03*
X88265000Y-123190000D03*
X123190000Y-109855000D03*
X128905000Y-109855000D03*
%TO.N,+3V3_SW*%
X133822650Y-78267350D03*
X133985000Y-89535000D03*
X104775000Y-47625000D03*
X133985000Y-101600000D03*
X128587500Y-103822500D03*
X126202650Y-70647350D03*
%TO.N,SW_CAN*%
X85090000Y-64770000D03*
%TO.N,VPLL*%
X157480000Y-58420000D03*
X149834500Y-59169011D03*
%TO.N,VPHY*%
X152400000Y-59690000D03*
X158115000Y-59690000D03*
%TO.N,K_LINE*%
X77724000Y-104775000D03*
%TO.N,J1850_BUS+*%
X109855000Y-120015000D03*
X110585000Y-134715000D03*
X84455000Y-134620000D03*
%TO.N,J1850_BUS-*%
X117410500Y-130175000D03*
X74930000Y-122555000D03*
X101600000Y-133985000D03*
%TO.N,HS_CAN_HI*%
X95059500Y-89090500D03*
%TO.N,MS_CAN_HI*%
X93980000Y-74549000D03*
%TO.N,VBUS*%
X144780000Y-100965000D03*
X164465000Y-55880000D03*
%TO.N,Net-(D901-Pad3)*%
X82990201Y-106485201D03*
%TO.N,Net-(D1101-Pad1)*%
X131445000Y-88265000D03*
%TO.N,Net-(D1102-Pad1)*%
X132715000Y-88265000D03*
%TO.N,Net-(D1111-Pad1)*%
X136525000Y-88265000D03*
%TO.N,Net-(D1112-Pad1)*%
X144145000Y-87995000D03*
%TO.N,Net-(D1113-Pad1)*%
X140335000Y-88265000D03*
%TO.N,VBAT*%
X85090000Y-118745000D03*
X74930000Y-100965000D03*
X73025000Y-118745000D03*
%TO.N,~{SDCARD_CS}*%
X129450500Y-59958511D03*
X133439500Y-59690000D03*
X136525000Y-73025000D03*
%TO.N,SDCARD_MOSI*%
X129540000Y-58509500D03*
X136525000Y-74295000D03*
X129348158Y-67945000D03*
%TO.N,SDCARD_SCK*%
X136525000Y-75565000D03*
X131990500Y-59690000D03*
X130797169Y-68203232D03*
%TO.N,SDCARD_MISO*%
X135890000Y-78105000D03*
X128815500Y-76200000D03*
X123190000Y-61604561D03*
X123785351Y-69254649D03*
%TO.N,~{SDCARD_DETECT}*%
X130810000Y-69215000D03*
X133985000Y-50800000D03*
%TO.N,SDA*%
X119650497Y-66675000D03*
X118745000Y-57150000D03*
X119380000Y-76835000D03*
X132080000Y-80010000D03*
X143510000Y-79375000D03*
%TO.N,SCL*%
X120650000Y-76200000D03*
X119469500Y-67945000D03*
X117669799Y-57344799D03*
X143510000Y-78105000D03*
X132080000Y-78740000D03*
%TO.N,~{PWR_CTRL}*%
X113665000Y-103505000D03*
X123825000Y-106045000D03*
X131445000Y-50800000D03*
X129540000Y-88900000D03*
%TO.N,+12V_ISO*%
X95250000Y-99695000D03*
X88265000Y-97155000D03*
X79121000Y-109601000D03*
X104775000Y-99695000D03*
X83185000Y-99060000D03*
X114935000Y-99695000D03*
%TO.N,SAE_PWM*%
X128369365Y-67742586D03*
X122555000Y-78105000D03*
X104775000Y-132080000D03*
X125730000Y-71755000D03*
X139065000Y-90805000D03*
X127635000Y-89535000D03*
X139065000Y-121920000D03*
%TO.N,HS_CAN_TX*%
X127071755Y-66111755D03*
X110490000Y-91440000D03*
X125095000Y-65405000D03*
X103505000Y-92710000D03*
X110490000Y-83185000D03*
X118199500Y-65405000D03*
%TO.N,MS_CAN_TX*%
X121285000Y-60960000D03*
X107315000Y-73025000D03*
X130280803Y-55368162D03*
X116840000Y-61959503D03*
%TO.N,HS_CAN_RX*%
X102235000Y-80645000D03*
X106680000Y-80010000D03*
X117475000Y-64135000D03*
X121285000Y-64135000D03*
X127778510Y-66818510D03*
%TO.N,MS_CAN_RX*%
X129629500Y-54610000D03*
X95885000Y-62230000D03*
X122527194Y-60155550D03*
X116840000Y-60960000D03*
%TO.N,~{HS_CAN_EN}*%
X120650000Y-66675000D03*
X130175000Y-50800000D03*
X99695000Y-92710000D03*
X126955798Y-64135000D03*
X111214500Y-81915000D03*
X131355500Y-56515000D03*
%TO.N,~{MS_CAN_EN}*%
X107315000Y-74930000D03*
X95885000Y-79375000D03*
X99695000Y-76835000D03*
X125730000Y-64135000D03*
X116205000Y-62865000D03*
X130175000Y-56515000D03*
%TO.N,SW_CAN_LOAD*%
X110490000Y-56515000D03*
X114935000Y-52070000D03*
X123190000Y-52159500D03*
X92710000Y-59690000D03*
%TO.N,Net-(Q707-Pad3)*%
X93345000Y-62230000D03*
%TO.N,SAE_VPW*%
X105410000Y-130175000D03*
X104775000Y-125730000D03*
%TO.N,J1850_RX*%
X117475000Y-76200000D03*
X114300000Y-98425000D03*
X123825000Y-73660000D03*
X113665000Y-92075000D03*
X104451250Y-128581250D03*
X111125000Y-106045000D03*
X129360989Y-69165878D03*
X104140000Y-123825000D03*
%TO.N,J1850_TX+*%
X133985000Y-71755000D03*
X118110000Y-133985000D03*
X128270000Y-81915000D03*
X136525000Y-67220500D03*
X125794511Y-90359489D03*
X118110000Y-120650000D03*
X125794511Y-98106489D03*
%TO.N,J1850_TX-*%
X132715000Y-90080500D03*
X136593404Y-71194011D03*
X135766838Y-66569197D03*
X119380000Y-121920000D03*
X133350000Y-74930000D03*
X133985000Y-103505000D03*
%TO.N,ISO_K*%
X110490000Y-74295000D03*
X83312359Y-102743359D03*
X106045000Y-81369500D03*
X78740000Y-104648000D03*
X86995000Y-99695000D03*
X116205000Y-59690000D03*
%TO.N,ISO_L*%
X76200000Y-103505000D03*
%TO.N,ISO_LINE*%
X80645000Y-105499500D03*
X75565000Y-109220000D03*
%TO.N,~{RESET}*%
X147320000Y-62865000D03*
X127635000Y-62697298D03*
X147955000Y-53340000D03*
X139700000Y-62230000D03*
X151110000Y-66695000D03*
%TO.N,Net-(R302-Pad2)*%
X145360500Y-54610000D03*
X156210000Y-55880000D03*
%TO.N,Net-(R303-Pad1)*%
X151765000Y-56419020D03*
%TO.N,SWDIO*%
X144145000Y-71755000D03*
X142875000Y-67945000D03*
X149860000Y-66675000D03*
%TO.N,Net-(R306-Pad2)*%
X167005000Y-62865000D03*
X163195000Y-62230000D03*
%TO.N,Net-(R307-Pad2)*%
X167005000Y-64135000D03*
X158821755Y-62793245D03*
X154162412Y-62875761D03*
%TO.N,SW_CAN_MODE0*%
X86995000Y-48260000D03*
X117475000Y-46990000D03*
X116205000Y-41185500D03*
X85090000Y-54610000D03*
X130521074Y-58218139D03*
%TO.N,SW_CAN_MODE1*%
X84455000Y-48260000D03*
X118745000Y-46355000D03*
X83820000Y-54610000D03*
X131355500Y-57514503D03*
X117475000Y-41185500D03*
%TO.N,Net-(R720-Pad2)*%
X83820000Y-59690000D03*
X80010000Y-63500000D03*
%TO.N,Net-(R905-Pad2)*%
X83185000Y-110490000D03*
%TO.N,~{ISO_RX}*%
X99695000Y-91440000D03*
X134317567Y-60167497D03*
X128905000Y-60960000D03*
X121920000Y-67945000D03*
X84455000Y-107315000D03*
X92146755Y-98496755D03*
X121285000Y-62140500D03*
X111849500Y-79375000D03*
%TO.N,~{ISO_TX}*%
X98425000Y-91440000D03*
X127167702Y-61640174D03*
X78105000Y-114935000D03*
X122626755Y-68651755D03*
X133923597Y-61139011D03*
X123190000Y-62865000D03*
X113665000Y-78105000D03*
X91440000Y-97790000D03*
%TO.N,~{LED_UART_RX}*%
X140335000Y-66675000D03*
X140970000Y-80010000D03*
X132837693Y-80767693D03*
%TO.N,~{LED_UART_TX}*%
X135255000Y-81280000D03*
X142150500Y-69939500D03*
X142240000Y-80010000D03*
X146050000Y-66040000D03*
%TO.N,~{LED_OBD_ACT}*%
X144780000Y-82550000D03*
X137795000Y-64135000D03*
%TO.N,~{LED_HOST_ACT}*%
X135890000Y-62894500D03*
X140970000Y-83185000D03*
%TO.N,~{LED_STATUS}*%
X136525000Y-82550000D03*
X134026624Y-62728482D03*
%TO.N,~{SW_CAN_STATUS_INT}*%
X100941199Y-51953344D03*
%TO.N,~{SW_CAN_RX0BF}*%
X101600000Y-52705000D03*
%TO.N,~{SW_CAN_RX1BF}*%
X100965000Y-53605500D03*
%TO.N,~{SW_CAN_TX0RTS}*%
X101880000Y-54330000D03*
%TO.N,~{SW_CAN_TX2RTS}*%
X100330000Y-55155500D03*
X95885000Y-55245000D03*
%TO.N,~{SW_CAN_RESET}*%
X105338245Y-52776755D03*
X102870000Y-49619500D03*
%TO.N,SW_CAN_SOF*%
X93980000Y-48895000D03*
X106045000Y-52070000D03*
%TO.N,~{OUTPUT_RTS}*%
X142240000Y-62230000D03*
X141901950Y-56743428D03*
%TO.N,~{OUTPUT_CTS}*%
X145447847Y-60303309D03*
X142875000Y-56515000D03*
%TO.N,SW_CAN_CS*%
X96783501Y-49619500D03*
X95885000Y-45085000D03*
X124545795Y-47698180D03*
X122278593Y-56406470D03*
%TO.N,SW_CAN_MISO*%
X123825000Y-46990000D03*
X99695000Y-49750500D03*
X121285000Y-56515000D03*
X98425000Y-46355000D03*
%TO.N,SW_CAN_MOSI*%
X101600000Y-49530000D03*
X129672870Y-49645845D03*
X104775000Y-46355000D03*
%TO.N,SW_CAN_SCK*%
X128919499Y-48989006D03*
X99652582Y-51246522D03*
X102235000Y-47625000D03*
%TO.N,SWCLK*%
X144145000Y-69215000D03*
X148610000Y-66695000D03*
%TO.N,CLK_USB*%
X153670000Y-59690000D03*
X151675489Y-47079511D03*
X123825000Y-41910000D03*
X140970000Y-40640000D03*
%TO.N,CLK_CAN*%
X92075000Y-46355000D03*
X121920000Y-42545000D03*
X93980000Y-52705000D03*
%TO.N,SW_CAN_TX*%
X90170000Y-49530000D03*
X90170000Y-47625000D03*
%TD*%
D74*
%TO.N,Net-(C201-Pad1)*%
X130694999Y-65345900D02*
X130805775Y-65456676D01*
X130694999Y-64033400D02*
X130694999Y-65345900D01*
%TO.N,GND*%
X147565000Y-88265000D02*
X147565000Y-91440000D01*
X98115000Y-88590000D02*
X97790000Y-88265000D01*
X101880000Y-51080000D02*
X101600000Y-50800000D01*
X138197500Y-102002500D02*
X139065000Y-102870000D01*
X134940000Y-120347500D02*
X134940000Y-119060000D01*
X147610000Y-59345000D02*
X147955000Y-59690000D01*
X107630000Y-132382500D02*
X108917500Y-132382500D01*
X151610000Y-59210000D02*
X151610000Y-57825000D01*
X130195000Y-64033400D02*
X130195000Y-62891112D01*
X124555000Y-99155000D02*
X125095000Y-99695000D01*
X85740000Y-127620000D02*
X85725000Y-127635000D01*
X139140000Y-113105000D02*
X140970000Y-114935000D01*
X109855000Y-117475000D02*
X109855000Y-114985000D01*
X142875000Y-109855000D02*
X143510000Y-110490000D01*
X113665000Y-111125000D02*
X114935000Y-112395000D01*
X161925000Y-41910000D02*
X163845000Y-41910000D01*
X147565000Y-94615000D02*
X147565000Y-97790000D01*
X102870000Y-117877500D02*
X101367500Y-117877500D01*
X147565000Y-100965000D02*
X147565000Y-104140000D01*
X133350000Y-41815000D02*
X132175000Y-41815000D01*
X130175000Y-112125000D02*
X131810000Y-112125000D01*
X105642500Y-69215000D02*
X104775000Y-69215000D01*
X92942500Y-117242500D02*
X92075000Y-117242500D01*
X148610000Y-59670000D02*
X148590000Y-59690000D01*
X155917500Y-78445000D02*
X157160000Y-78445000D01*
X147110000Y-69175000D02*
X147110000Y-70060000D01*
X132695000Y-50820000D02*
X132715000Y-50800000D01*
X164415000Y-41910000D02*
X165615000Y-43110000D01*
X135915000Y-70460000D02*
X138500000Y-70460000D01*
X162247500Y-69537500D02*
X161692500Y-68982500D01*
X154900000Y-57825000D02*
X154940000Y-57785000D01*
X81915000Y-103040000D02*
X82085000Y-103040000D01*
X149110000Y-59575000D02*
X148995000Y-59690000D01*
X148610000Y-57825000D02*
X148610000Y-59670000D01*
X86345000Y-110220000D02*
X85331179Y-110220000D01*
X91440000Y-125095000D02*
X92692500Y-125095000D01*
X147565000Y-107315000D02*
X147565000Y-111125000D01*
X82147500Y-114685000D02*
X82210000Y-114622500D01*
X147565000Y-94615000D02*
X145415000Y-94615000D01*
X147565000Y-104140000D02*
X145415000Y-104140000D01*
X97790000Y-88265000D02*
X97790000Y-85725000D01*
X104775000Y-69215000D02*
X104140000Y-68580000D01*
X121285000Y-115972500D02*
X121285000Y-117475000D01*
X115570000Y-137795000D02*
X116840000Y-139065000D01*
X76515000Y-113332500D02*
X77137500Y-113332500D01*
X115570000Y-137525000D02*
X115570000Y-137795000D01*
X102002500Y-44682500D02*
X102235000Y-44450000D01*
X125831600Y-54670000D02*
X126775499Y-54670000D01*
X150495000Y-53289200D02*
X150495000Y-53877221D01*
X147610000Y-57825000D02*
X147610000Y-59345000D01*
X121285000Y-92544900D02*
X121285000Y-94615000D01*
X77137500Y-113332500D02*
X77470000Y-113665000D01*
X102505000Y-108585000D02*
X100965000Y-108585000D01*
X152126289Y-54248711D02*
X152400000Y-53975000D01*
X92075000Y-111187500D02*
X90867500Y-111187500D01*
X153110000Y-67235000D02*
X153670000Y-66675000D01*
X147565000Y-104140000D02*
X147565000Y-107315000D01*
X112395000Y-98657500D02*
X112395000Y-96520000D01*
X90715500Y-87630000D02*
X90805000Y-87540500D01*
X137650000Y-78595000D02*
X137160000Y-78105000D01*
X154695000Y-75195000D02*
X154325000Y-75565000D01*
X94927500Y-116545000D02*
X96180000Y-116545000D01*
X121285000Y-92544900D02*
X121285000Y-84302600D01*
X94345000Y-135255000D02*
X95250000Y-135255000D01*
X132715000Y-124555000D02*
X132715000Y-126365000D01*
X128098550Y-43497500D02*
X129222500Y-43497500D01*
X144185000Y-63750000D02*
X146300000Y-63750000D01*
X103182500Y-51730000D02*
X103182500Y-51080000D01*
X101367500Y-117877500D02*
X100652500Y-117162500D01*
X124123599Y-61961489D02*
X124415087Y-61670001D01*
X155535000Y-66250000D02*
X154095000Y-66250000D01*
X103380000Y-136525000D02*
X101600000Y-136525000D01*
X130195000Y-62891112D02*
X130354011Y-62732101D01*
X116205000Y-96117500D02*
X115167500Y-96117500D01*
X88900000Y-87630000D02*
X90715500Y-87630000D01*
X118140000Y-137765000D02*
X116840000Y-139065000D01*
X155917500Y-78445000D02*
X155917500Y-79095000D01*
X89535000Y-117205000D02*
X92037500Y-117205000D01*
X153110000Y-69175000D02*
X153110000Y-67235000D01*
X123825000Y-99155000D02*
X124555000Y-99155000D01*
X123672600Y-81915000D02*
X124460000Y-81915000D01*
X130175000Y-101235000D02*
X128540000Y-101235000D01*
X86900000Y-127620000D02*
X85740000Y-127620000D01*
X146050000Y-55880000D02*
X144780000Y-55880000D01*
X147565000Y-97790000D02*
X147565000Y-100965000D01*
X155917500Y-75195000D02*
X154695000Y-75195000D01*
X118140000Y-137475000D02*
X118140000Y-137765000D01*
X121285000Y-84302600D02*
X123672600Y-81915000D01*
X107315000Y-89937500D02*
X107315000Y-91440000D01*
X137058400Y-59170001D02*
X136005001Y-59170001D01*
X102870000Y-111822500D02*
X102551500Y-111822500D01*
X92692500Y-125095000D02*
X93005000Y-125407500D01*
X146610000Y-57825000D02*
X146610000Y-56440000D01*
X159985000Y-43960000D02*
X159885000Y-43860000D01*
X118745000Y-105410000D02*
X119712500Y-106377500D01*
X82147500Y-116840000D02*
X82147500Y-114685000D01*
X103182500Y-54980000D02*
X104015402Y-54980000D01*
X100652500Y-117162500D02*
X100652500Y-116545000D01*
X91315000Y-107315000D02*
X91315000Y-105535000D01*
X147110000Y-70060000D02*
X146050000Y-71120000D01*
X127975000Y-79930000D02*
X127975000Y-77130000D01*
X99340000Y-72080000D02*
X98115000Y-72080000D01*
X124415087Y-61670001D02*
X125831600Y-61670001D01*
X82147500Y-116840000D02*
X80645000Y-116840000D01*
X85331179Y-110220000D02*
X85090537Y-110460642D01*
X132715000Y-108755000D02*
X130980000Y-108755000D01*
X91672500Y-83185000D02*
X91672500Y-84222500D01*
X103102500Y-118110000D02*
X102870000Y-117877500D01*
X104015402Y-54980000D02*
X104886289Y-54109113D01*
X118262400Y-84302600D02*
X118110000Y-84455000D01*
X93640000Y-116545000D02*
X92942500Y-117242500D01*
X123655000Y-121285000D02*
X121920000Y-121285000D01*
X140930000Y-81955000D02*
X140970000Y-81915000D01*
X163490000Y-69537500D02*
X162247500Y-69537500D01*
X86360000Y-61518800D02*
X86360000Y-62865000D01*
X90170000Y-75332500D02*
X89132500Y-75332500D01*
X146610000Y-56440000D02*
X146050000Y-55880000D01*
X88585000Y-61275000D02*
X87630000Y-62230000D01*
X154095000Y-66250000D02*
X153670000Y-66675000D01*
X91315000Y-105535000D02*
X91440000Y-105410000D01*
X165615000Y-45040000D02*
X165735000Y-45160000D01*
X132695000Y-52806600D02*
X132695000Y-50820000D01*
X138500000Y-70460000D02*
X138675000Y-70635000D01*
X150866490Y-54248711D02*
X152126289Y-54248711D01*
X113665000Y-116205000D02*
X112395000Y-117475000D01*
X96180000Y-116545000D02*
X100652500Y-116545000D01*
X86360000Y-62865000D02*
X86995000Y-63500000D01*
X142875000Y-108755000D02*
X142875000Y-109855000D01*
X96520000Y-123190000D02*
X97790000Y-123190000D01*
X132175000Y-41815000D02*
X131445000Y-42545000D01*
X165615000Y-43110000D02*
X165615000Y-45040000D01*
X115167500Y-96117500D02*
X114935000Y-95885000D01*
X159885000Y-43860000D02*
X159975000Y-43860000D01*
X153610000Y-57825000D02*
X154900000Y-57825000D01*
X95250000Y-135255000D02*
X95885000Y-135890000D01*
X99340000Y-88590000D02*
X98115000Y-88590000D01*
X91672500Y-84222500D02*
X91440000Y-84455000D01*
X130980000Y-108755000D02*
X130810000Y-108585000D01*
X148995000Y-59690000D02*
X148590000Y-59690000D01*
X159985000Y-45180000D02*
X159985000Y-43960000D01*
X120335000Y-106377500D02*
X119712500Y-106377500D01*
X103182500Y-51080000D02*
X101880000Y-51080000D01*
X92387500Y-53725000D02*
X91055000Y-53725000D01*
X121285000Y-84302600D02*
X118262400Y-84302600D01*
X105410000Y-118110000D02*
X103102500Y-118110000D01*
X119380000Y-126095000D02*
X121015000Y-126095000D01*
X90402500Y-69215000D02*
X88900000Y-69215000D01*
X98115000Y-72080000D02*
X97790000Y-71755000D01*
X138450000Y-81955000D02*
X140930000Y-81955000D01*
X163845000Y-41910000D02*
X164415000Y-41910000D01*
X151130000Y-59690000D02*
X151610000Y-59210000D01*
X127975000Y-77130000D02*
X127975000Y-73960000D01*
X87630000Y-58420000D02*
X86995000Y-59055000D01*
X88585000Y-60990000D02*
X88585000Y-61275000D01*
X138800000Y-78595000D02*
X137650000Y-78595000D01*
X88535000Y-58420000D02*
X87630000Y-58420000D01*
X97790000Y-71755000D02*
X97790000Y-69850000D01*
X134940000Y-119060000D02*
X135255000Y-118745000D01*
X113665000Y-110892500D02*
X113665000Y-111125000D01*
X81280000Y-113119500D02*
X82210000Y-112189500D01*
X149110000Y-57825000D02*
X149110000Y-59575000D01*
X129222500Y-43497500D02*
X129540000Y-43815000D01*
X118745000Y-105410000D02*
X118745000Y-105320500D01*
X82085000Y-103040000D02*
X83185000Y-104140000D01*
X82210000Y-112189500D02*
X82210000Y-108897500D01*
X89132500Y-75332500D02*
X88900000Y-75565000D01*
X150495000Y-53877221D02*
X150866490Y-54248711D01*
X103182500Y-51080000D02*
X103182500Y-50430000D01*
X128540000Y-101235000D02*
X128270000Y-100965000D01*
X92037500Y-117205000D02*
X92075000Y-117242500D01*
X126775499Y-54670000D02*
X127000000Y-54445499D01*
X157160000Y-78445000D02*
X157500000Y-78105000D01*
X91055000Y-53725000D02*
X90805000Y-53975000D01*
X115570000Y-128540000D02*
X115935000Y-128540000D01*
X94927500Y-115895000D02*
X94927500Y-116545000D01*
X82860000Y-114622500D02*
X82210000Y-114622500D01*
X161692500Y-68982500D02*
X161692500Y-67945000D01*
X115255000Y-124157500D02*
X115255000Y-123505000D01*
X137795000Y-113105000D02*
X139140000Y-113105000D01*
X130540000Y-99060000D02*
X132080000Y-99060000D01*
X146300000Y-63750000D02*
X146685000Y-64135000D01*
X137795000Y-102002500D02*
X138197500Y-102002500D01*
X161585000Y-45060000D02*
X161585000Y-42250000D01*
X115255000Y-123505000D02*
X116205000Y-122555000D01*
X90867500Y-111187500D02*
X90805000Y-111125000D01*
X102551500Y-111822500D02*
X101600000Y-110871000D01*
X100330000Y-44682500D02*
X102002500Y-44682500D01*
X113665000Y-115935000D02*
X113665000Y-116205000D01*
X136005001Y-59170001D02*
X135255000Y-58420000D01*
X132650000Y-70460000D02*
X135915000Y-70460000D01*
X121015000Y-126095000D02*
X121285000Y-126365000D01*
X107680000Y-128270000D02*
X109220000Y-128270000D01*
X94927500Y-116545000D02*
X93640000Y-116545000D01*
X115935000Y-128540000D02*
X116840000Y-127635000D01*
X159975000Y-43860000D02*
X161925000Y-41910000D01*
X147955000Y-59690000D02*
X148590000Y-59690000D01*
X147565000Y-91440000D02*
X147565000Y-94615000D01*
X131810000Y-112125000D02*
X132080000Y-112395000D01*
%TO.N,+1V8*%
X148110000Y-56360000D02*
X148590000Y-55880000D01*
X148110000Y-57825000D02*
X148110000Y-56360000D01*
X148110000Y-69175000D02*
X148110000Y-71600000D01*
X156761490Y-59750000D02*
X155535000Y-59750000D01*
X148110000Y-71600000D02*
X147955000Y-71755000D01*
X157408245Y-60396755D02*
X156761490Y-59750000D01*
X156785000Y-67250000D02*
X157480000Y-67945000D01*
X155535000Y-67250000D02*
X156785000Y-67250000D01*
X159617500Y-67945000D02*
X157480000Y-67945000D01*
%TO.N,+12V*%
X109855000Y-107315000D02*
X109855000Y-108585000D01*
X120110000Y-99155000D02*
X119110000Y-98155000D01*
X113432500Y-108585000D02*
X113665000Y-108817500D01*
X109855000Y-108585000D02*
X113432500Y-108585000D01*
X117475000Y-102235000D02*
X117475000Y-98425000D01*
X116835000Y-103505000D02*
X116835000Y-105415000D01*
X117707500Y-98192500D02*
X118707500Y-98192500D01*
X116205000Y-98192500D02*
X117707500Y-98192500D01*
X116525000Y-110175000D02*
X116205000Y-109855000D01*
X119110000Y-98155000D02*
X118745000Y-98155000D01*
X113665000Y-108817500D02*
X115972500Y-108817500D01*
X117475000Y-98425000D02*
X117475000Y-92544900D01*
X116525000Y-111457500D02*
X116525000Y-110175000D01*
X108585000Y-104442500D02*
X108585000Y-106045000D01*
X116835000Y-103505000D02*
X116835000Y-102875000D01*
X116835000Y-102875000D02*
X117475000Y-102235000D01*
X115972500Y-108817500D02*
X116205000Y-108585000D01*
X116205000Y-109855000D02*
X116205000Y-108585000D01*
X108585000Y-106045000D02*
X109855000Y-107315000D01*
X116835000Y-105415000D02*
X116205000Y-106045000D01*
X121285000Y-99155000D02*
X120110000Y-99155000D01*
X118707500Y-98192500D02*
X118745000Y-98155000D01*
X117475000Y-98425000D02*
X117707500Y-98192500D01*
X116205000Y-106045000D02*
X116205000Y-108585000D01*
%TO.N,Net-(C503-Pad2)*%
X83185000Y-100965000D02*
X84455000Y-102235000D01*
X78835000Y-100965000D02*
X81915000Y-100965000D01*
X81915000Y-100965000D02*
X83185000Y-100965000D01*
X84455000Y-102235000D02*
X86995000Y-102235000D01*
%TO.N,Net-(C504-Pad2)*%
X109855000Y-100965000D02*
X109855000Y-98425000D01*
X109535000Y-102567500D02*
X109535000Y-101285000D01*
X112062500Y-102567500D02*
X112395000Y-102235000D01*
X109535000Y-102567500D02*
X112062500Y-102567500D01*
X109535000Y-101285000D02*
X109855000Y-100965000D01*
X112395000Y-102235000D02*
X112395000Y-100732500D01*
%TO.N,Net-(C505-Pad1)*%
X123825000Y-94615000D02*
X126095000Y-96885000D01*
X130772500Y-96885000D02*
X130810000Y-96922500D01*
X123825000Y-92544900D02*
X123825000Y-94615000D01*
X130810000Y-96922500D02*
X131212500Y-96520000D01*
X128270000Y-96885000D02*
X130772500Y-96885000D01*
X131212500Y-96520000D02*
X133890000Y-96520000D01*
X126095000Y-96885000D02*
X128270000Y-96885000D01*
X128540000Y-97155000D02*
X128270000Y-96885000D01*
X128540000Y-99060000D02*
X128540000Y-97155000D01*
%TO.N,Net-(C505-Pad2)*%
X125095000Y-94615000D02*
X125730000Y-95250000D01*
X127905000Y-95250000D02*
X128270000Y-94885000D01*
X130772500Y-94885000D02*
X130810000Y-94847500D01*
X128270000Y-94885000D02*
X130772500Y-94885000D01*
X125095000Y-92544900D02*
X125095000Y-94615000D01*
X125730000Y-95250000D02*
X127905000Y-95250000D01*
%TO.N,+5V*%
X99060000Y-83455000D02*
X97425000Y-83455000D01*
X103870000Y-89535000D02*
X105410000Y-89535000D01*
X135890000Y-104775000D02*
X135545000Y-105120000D01*
X135545000Y-105120000D02*
X135545000Y-106805000D01*
X141605000Y-94615000D02*
X140970000Y-93980000D01*
X97425000Y-83455000D02*
X97155000Y-83185000D01*
X137795000Y-99927500D02*
X137890000Y-99832500D01*
X104775000Y-77470000D02*
X105410000Y-78105000D01*
X92710000Y-95250000D02*
X92075000Y-95885000D01*
X140045000Y-105120000D02*
X139700000Y-104775000D01*
X103870000Y-77470000D02*
X104775000Y-77470000D01*
X125427500Y-112062500D02*
X125095000Y-112395000D01*
X142875000Y-106680000D02*
X142750000Y-106805000D01*
X137562500Y-99695000D02*
X137795000Y-99927500D01*
X135890000Y-99695000D02*
X137562500Y-99695000D01*
X99790000Y-80550000D02*
X99695000Y-80645000D01*
X138430000Y-97060000D02*
X137890000Y-96520000D01*
X101600000Y-66580000D02*
X101600000Y-65405000D01*
X139700000Y-104775000D02*
X135890000Y-104775000D01*
X141605000Y-97060000D02*
X141605000Y-94615000D01*
X140045000Y-106805000D02*
X140045000Y-105120000D01*
X125427500Y-110805000D02*
X125427500Y-112062500D01*
X137890000Y-99832500D02*
X137890000Y-96520000D01*
X92710000Y-94345000D02*
X92710000Y-95250000D01*
X99790000Y-78740000D02*
X99790000Y-80550000D01*
X141605000Y-97060000D02*
X138430000Y-97060000D01*
X142750000Y-106805000D02*
X140045000Y-106805000D01*
%TO.N,+12V_SW*%
X117475000Y-113332500D02*
X119047500Y-113332500D01*
X119612500Y-113897500D02*
X121285000Y-113897500D01*
X80721200Y-61518800D02*
X80645000Y-61595000D01*
X117475000Y-113665000D02*
X117475000Y-113332500D01*
X117205000Y-113935000D02*
X117475000Y-113665000D01*
X119047500Y-113332500D02*
X119612500Y-113897500D01*
X121285000Y-113897500D02*
X123422500Y-113897500D01*
X113665000Y-113935000D02*
X117205000Y-113935000D01*
X82550000Y-61518800D02*
X80721200Y-61518800D01*
X124230000Y-114705000D02*
X124230000Y-115825000D01*
X113665000Y-112395000D02*
X113665000Y-113935000D01*
X123422500Y-113897500D02*
X124230000Y-114705000D01*
%TO.N,V_J1850*%
X124410000Y-131765000D02*
X124460000Y-131715000D01*
X130175000Y-120650000D02*
X129540000Y-121285000D01*
X125730000Y-121285000D02*
X125730000Y-115912500D01*
X129540000Y-121285000D02*
X125730000Y-121285000D01*
X124460000Y-131715000D02*
X124460000Y-130810000D01*
X130175000Y-119745000D02*
X130175000Y-120650000D01*
X122222500Y-131765000D02*
X124410000Y-131765000D01*
X124460000Y-130810000D02*
X123825000Y-130175000D01*
%TO.N,Net-(C510-Pad1)*%
X122555000Y-92544900D02*
X122555000Y-94615000D01*
%TO.N,+3V3*%
X144780000Y-84430000D02*
X144805000Y-84430000D01*
X156575000Y-50800000D02*
X155305000Y-52070000D01*
X140875000Y-45815000D02*
X140970000Y-45720000D01*
X128572500Y-105712500D02*
X127315000Y-105712500D01*
X158040000Y-66750000D02*
X158115000Y-66675000D01*
X132715000Y-106680000D02*
X129540000Y-106680000D01*
X123914500Y-54610000D02*
X124474499Y-55169999D01*
X125507750Y-43497500D02*
X124142500Y-43497500D01*
X163830000Y-59055000D02*
X163195000Y-59690000D01*
X108907500Y-49207500D02*
X109220000Y-48895000D01*
X105505000Y-75025000D02*
X106680000Y-76200000D01*
X130175000Y-84700000D02*
X130175000Y-84455000D01*
X125184500Y-63410500D02*
X125005500Y-63410500D01*
X140140000Y-76395000D02*
X140335000Y-76200000D01*
X147904200Y-50850800D02*
X149544999Y-50850800D01*
X103172500Y-75245000D02*
X105190000Y-75245000D01*
X160020000Y-65405000D02*
X159385000Y-65405000D01*
X130175000Y-84455000D02*
X128905000Y-83185000D01*
X129540000Y-106680000D02*
X128572500Y-105712500D01*
X137045000Y-108065000D02*
X137045000Y-106805000D01*
X100652500Y-114595000D02*
X98765000Y-114595000D01*
X137550000Y-84700000D02*
X138430000Y-83820000D01*
X100650000Y-96205000D02*
X100965000Y-96520000D01*
X133350000Y-84544500D02*
X134709500Y-83185000D01*
X167005000Y-59055000D02*
X164465000Y-59055000D01*
X79470000Y-102870000D02*
X79959196Y-102870000D01*
X88535000Y-44085000D02*
X88900000Y-44450000D01*
X105190000Y-75245000D02*
X105410000Y-75025000D01*
X98425000Y-96250000D02*
X97425000Y-96250000D01*
X96207500Y-131132500D02*
X96520000Y-131445000D01*
X159385000Y-65405000D02*
X158115000Y-66675000D01*
X146050000Y-51070000D02*
X146269200Y-50850800D01*
X138430000Y-41815000D02*
X138430000Y-45815000D01*
X97425000Y-96250000D02*
X97155000Y-96520000D01*
X98765000Y-114595000D02*
X98425000Y-114935000D01*
X104140000Y-82550000D02*
X104775000Y-81915000D01*
X80280000Y-53340000D02*
X80280000Y-54975000D01*
X103235000Y-82550000D02*
X104140000Y-82550000D01*
X133350000Y-84700000D02*
X133350000Y-84544500D01*
X138430000Y-45815000D02*
X140875000Y-45815000D01*
X133194999Y-52806600D02*
X133194999Y-53831920D01*
X131195000Y-64033400D02*
X131195000Y-62927876D01*
X150610000Y-69175000D02*
X150610000Y-71640000D01*
X93627500Y-77105000D02*
X93677500Y-77155000D01*
X98425000Y-133080000D02*
X98155000Y-133080000D01*
X108045000Y-125095000D02*
X109855000Y-125095000D01*
X97155000Y-127635000D02*
X99060000Y-127635000D01*
X133973079Y-54610000D02*
X133985000Y-54610000D01*
X100650000Y-94585000D02*
X100650000Y-96205000D01*
X155535000Y-63750000D02*
X157865000Y-63750000D01*
X125000000Y-68420102D02*
X126030219Y-69450321D01*
X147585000Y-79745000D02*
X147320000Y-80010000D01*
X165440000Y-70825000D02*
X165735000Y-71120000D01*
X124142500Y-43497500D02*
X123825000Y-43180000D01*
X134620000Y-108585000D02*
X133985000Y-107950000D01*
X164465000Y-59055000D02*
X163830000Y-59055000D01*
X94955000Y-131132500D02*
X96207500Y-131132500D01*
X108907500Y-50430000D02*
X108907500Y-49207500D01*
X136525000Y-108585000D02*
X137045000Y-108065000D01*
X136525000Y-108585000D02*
X134620000Y-108585000D01*
X105410000Y-75025000D02*
X105505000Y-75025000D01*
X124474499Y-55169999D02*
X125831600Y-55169999D01*
X99695000Y-64135000D02*
X100965000Y-64135000D01*
X157235000Y-79745000D02*
X157500000Y-80010000D01*
X103185000Y-84787500D02*
X103185000Y-82600000D01*
X99695000Y-66675000D02*
X99695000Y-64135000D01*
X84455000Y-44085000D02*
X86995000Y-44085000D01*
X90805000Y-77105000D02*
X93627500Y-77105000D01*
X105410000Y-96520000D02*
X106410000Y-95520000D01*
X84222500Y-116840000D02*
X84222500Y-114685000D01*
X133350000Y-106680000D02*
X132715000Y-106680000D01*
X133194999Y-53831920D02*
X133973079Y-54610000D01*
X125000000Y-67945000D02*
X125000000Y-68420102D01*
X94935000Y-96205000D02*
X95250000Y-96520000D01*
X120555000Y-102870000D02*
X118745000Y-102870000D01*
X144185000Y-66750000D02*
X141680000Y-66750000D01*
X155917500Y-79745000D02*
X157235000Y-79745000D01*
X84222500Y-114685000D02*
X84160000Y-114622500D01*
X98155000Y-133080000D02*
X96520000Y-131445000D01*
X139065000Y-118110000D02*
X139065000Y-116840000D01*
X103185000Y-82600000D02*
X103235000Y-82550000D01*
X106410000Y-95520000D02*
X106410000Y-94615000D01*
X161655000Y-53340000D02*
X163195000Y-53340000D01*
X150192500Y-79745000D02*
X147585000Y-79745000D01*
X144805000Y-84430000D02*
X146050000Y-83185000D01*
X131195000Y-62927876D02*
X131406926Y-62715950D01*
X141680000Y-66750000D02*
X141605000Y-66675000D01*
X141360000Y-84700000D02*
X142240000Y-83820000D01*
X100965000Y-96520000D02*
X105410000Y-96520000D01*
X79959196Y-102870000D02*
X80601218Y-103512022D01*
X125831600Y-62763400D02*
X125184500Y-63410500D01*
X94935000Y-94282500D02*
X94935000Y-96205000D01*
X150610000Y-71640000D02*
X150495000Y-71755000D01*
X161685000Y-56515000D02*
X163195000Y-56515000D01*
X165440000Y-69537500D02*
X165440000Y-70825000D01*
X84160000Y-113414500D02*
X84455000Y-113119500D01*
X161685000Y-59690000D02*
X163195000Y-59690000D01*
X133985000Y-107950000D02*
X133985000Y-107315000D01*
X80280000Y-54975000D02*
X80010000Y-55245000D01*
X144185000Y-61250000D02*
X145775000Y-61250000D01*
X145775000Y-61250000D02*
X146700000Y-60325000D01*
X84160000Y-114622500D02*
X84160000Y-113414500D01*
X146269200Y-50850800D02*
X147904200Y-50850800D01*
X155535000Y-66750000D02*
X158040000Y-66750000D01*
X138800000Y-76395000D02*
X140140000Y-76395000D01*
X157865000Y-63750000D02*
X158115000Y-63500000D01*
X140970000Y-84700000D02*
X141360000Y-84700000D01*
X125831600Y-62170000D02*
X125831600Y-62763400D01*
X137160000Y-84700000D02*
X137550000Y-84700000D01*
X133985000Y-107315000D02*
X133350000Y-106680000D01*
X86995000Y-44085000D02*
X88535000Y-44085000D01*
X156845000Y-50800000D02*
X156575000Y-50800000D01*
%TO.N,+3.3VA*%
X137058400Y-58670000D02*
X138180000Y-58670000D01*
X138180000Y-58670000D02*
X138430000Y-58420000D01*
%TO.N,BAT_LEVEL*%
X107950000Y-75810386D02*
X107950000Y-85090000D01*
X134695001Y-53831921D02*
X134838080Y-53975000D01*
X94927500Y-115245000D02*
X94927500Y-114595000D01*
X89535000Y-115205000D02*
X92037500Y-115205000D01*
X125730000Y-48260000D02*
X120015000Y-53975000D01*
X134838080Y-53975000D02*
X135890000Y-53975000D01*
X92075000Y-115167500D02*
X92075000Y-113665000D01*
X134695001Y-52806600D02*
X134695001Y-53831921D01*
X109220000Y-74540386D02*
X107950000Y-75810386D01*
X86995000Y-115205000D02*
X89535000Y-115205000D01*
X94927500Y-115245000D02*
X92152500Y-115245000D01*
X92075000Y-112332500D02*
X92075000Y-113665000D01*
X92152500Y-115245000D02*
X92075000Y-115167500D01*
X109220000Y-64770000D02*
X109220000Y-74540386D01*
X92037500Y-115205000D02*
X92075000Y-115167500D01*
%TO.N,SAE_LEVEL*%
X100652500Y-115895000D02*
X100652500Y-115245000D01*
X105102500Y-115802500D02*
X105410000Y-116110000D01*
X134797122Y-65862878D02*
X134442878Y-65862878D01*
X134442878Y-65862878D02*
X133695001Y-65115001D01*
X102870000Y-115802500D02*
X102870000Y-114300000D01*
X106315000Y-116110000D02*
X107950000Y-117745000D01*
X102870000Y-114300000D02*
X102870000Y-112967500D01*
X102777500Y-115895000D02*
X102870000Y-115802500D01*
X133695001Y-65115001D02*
X133695001Y-64033400D01*
X102870000Y-115802500D02*
X105102500Y-115802500D01*
X105410000Y-116110000D02*
X106315000Y-116110000D01*
X100652500Y-115895000D02*
X102777500Y-115895000D01*
%TO.N,+5V_SW*%
X90440000Y-123190000D02*
X88265000Y-123190000D01*
X107625000Y-71430000D02*
X107950000Y-71755000D01*
X107717500Y-69215000D02*
X107717500Y-71522500D01*
X107625000Y-71430000D02*
X99340000Y-71430000D01*
X129905000Y-109855000D02*
X130175000Y-110125000D01*
X108895000Y-87940000D02*
X109220000Y-88265000D01*
X99340000Y-87940000D02*
X108895000Y-87940000D01*
X125855000Y-128270000D02*
X125855000Y-127510000D01*
X127302500Y-109855000D02*
X129905000Y-109855000D01*
X125855000Y-127510000D02*
X127000000Y-126365000D01*
%TO.N,Net-(C703-Pad2)*%
X91440000Y-89535000D02*
X89070000Y-89535000D01*
X89070000Y-89535000D02*
X88900000Y-89705000D01*
%TO.N,Net-(C704-Pad1)*%
X93980000Y-85360000D02*
X93980000Y-83417500D01*
X93980000Y-83417500D02*
X93747500Y-83185000D01*
%TO.N,Net-(C705-Pad2)*%
X90170000Y-73257500D02*
X92112500Y-73257500D01*
X92112500Y-73257500D02*
X92345000Y-73025000D01*
%TO.N,Net-(C706-Pad1)*%
X92572500Y-69120000D02*
X92477500Y-69215000D01*
X94615000Y-69120000D02*
X92572500Y-69120000D01*
%TO.N,+3V3_SW*%
X98112500Y-47875000D02*
X100080000Y-47875000D01*
X129175000Y-103235000D02*
X128587500Y-103822500D01*
X128587500Y-103822500D02*
X128572500Y-103837500D01*
X100330000Y-46757500D02*
X103907500Y-46757500D01*
X100330000Y-47625000D02*
X100330000Y-46757500D01*
X130175000Y-103235000D02*
X129175000Y-103235000D01*
X103907500Y-46757500D02*
X104775000Y-47625000D01*
X100080000Y-47875000D02*
X100330000Y-47625000D01*
X128572500Y-103837500D02*
X126365000Y-103837500D01*
%TO.N,SW_CAN*%
X84455000Y-64135000D02*
X83550000Y-64135000D01*
X85090000Y-64770000D02*
X84455000Y-64135000D01*
X85090000Y-61518800D02*
X85090000Y-68374260D01*
X85090000Y-68374260D02*
X85234780Y-68519040D01*
%TO.N,VPLL*%
X159385000Y-56515000D02*
X158115000Y-56515000D01*
X158115000Y-56515000D02*
X157480000Y-57150000D01*
X149610000Y-57825000D02*
X149610000Y-58944511D01*
X157480000Y-57150000D02*
X157480000Y-58420000D01*
X149610000Y-58944511D02*
X149834500Y-59169011D01*
%TO.N,VPHY*%
X152110000Y-57825000D02*
X152110000Y-59400000D01*
X159385000Y-59690000D02*
X158115000Y-59690000D01*
X152110000Y-59400000D02*
X152400000Y-59690000D01*
%TO.N,K_LINE*%
X77790000Y-104841000D02*
X77724000Y-104775000D01*
X77790000Y-106377500D02*
X77790000Y-104841000D01*
%TO.N,L_LINE*%
X73980000Y-95069700D02*
X76835000Y-92214700D01*
X73980000Y-105107500D02*
X73980000Y-95069700D01*
D75*
%TO.N,J1850_BUS+*%
X113030000Y-136905000D02*
X110965000Y-136905000D01*
X84455000Y-131090741D02*
X76200000Y-122835741D01*
X110965000Y-136905000D02*
X110585000Y-136525000D01*
X84455000Y-134620000D02*
X84455000Y-131090741D01*
X83327449Y-70561409D02*
X85234780Y-72468740D01*
X86630000Y-133985000D02*
X85090000Y-133985000D01*
X110585000Y-136525000D02*
X110585000Y-134715000D01*
X73025000Y-116840000D02*
X73025000Y-72390000D01*
X85090000Y-133985000D02*
X84455000Y-134620000D01*
X107950000Y-119745000D02*
X109585000Y-119745000D01*
X76200000Y-122835741D02*
X76200000Y-120015000D01*
X76200000Y-120015000D02*
X73025000Y-116840000D01*
X86630000Y-130810000D02*
X86630000Y-133985000D01*
X109585000Y-119745000D02*
X109855000Y-120015000D01*
X73025000Y-72390000D02*
X74853591Y-70561409D01*
X74853591Y-70561409D02*
X83327449Y-70561409D01*
%TO.N,J1850_BUS-*%
X96520000Y-139065000D02*
X86360000Y-139065000D01*
X115507500Y-130477500D02*
X115570000Y-130540000D01*
X86630000Y-137160000D02*
X86360000Y-137430000D01*
X85090000Y-139065000D02*
X86360000Y-139065000D01*
X86360000Y-137430000D02*
X86360000Y-139065000D01*
X101600000Y-133985000D02*
X96520000Y-139065000D01*
X117045500Y-130540000D02*
X117410500Y-130175000D01*
X74930000Y-128905000D02*
X85090000Y-139065000D01*
X74930000Y-122555000D02*
X74930000Y-128905000D01*
X113345000Y-130477500D02*
X115507500Y-130477500D01*
X115570000Y-130540000D02*
X117045500Y-130540000D01*
D74*
%TO.N,HS_CAN_HI*%
X94615000Y-89535000D02*
X93440000Y-89535000D01*
X96240000Y-88590000D02*
X95560000Y-88590000D01*
X95560000Y-88590000D02*
X95059500Y-89090500D01*
X94615000Y-89535000D02*
X95059500Y-89090500D01*
%TO.N,HS_CAN_LO*%
X83820000Y-86360000D02*
X78740000Y-86360000D01*
X93075000Y-87360000D02*
X92075000Y-86360000D01*
X95560000Y-87940000D02*
X94980000Y-87360000D01*
X93980000Y-87360000D02*
X93075000Y-87360000D01*
X87602669Y-86332669D02*
X83847331Y-86332669D01*
X96240000Y-87940000D02*
X95560000Y-87940000D01*
X92075000Y-86360000D02*
X87630000Y-86360000D01*
X94980000Y-87360000D02*
X93980000Y-87360000D01*
X87630000Y-86360000D02*
X87602669Y-86332669D01*
X78740000Y-86360000D02*
X76835000Y-88265000D01*
X83847331Y-86332669D02*
X83820000Y-86360000D01*
%TO.N,MS_CAN_HI*%
X94345000Y-73025000D02*
X94345000Y-74184000D01*
X94345000Y-74184000D02*
X93980000Y-74549000D01*
X96240000Y-72080000D02*
X95290000Y-72080000D01*
X95290000Y-72080000D02*
X94345000Y-73025000D01*
%TO.N,MS_CAN_LO*%
X86888929Y-74401071D02*
X78852369Y-74401071D01*
X78852369Y-74401071D02*
X76835000Y-76418440D01*
X90170000Y-71120000D02*
X86888929Y-74401071D01*
X94615000Y-71120000D02*
X90170000Y-71120000D01*
X94925000Y-71430000D02*
X94615000Y-71120000D01*
X96240000Y-71430000D02*
X94925000Y-71430000D01*
%TO.N,Net-(D501-Pad1)*%
X107635000Y-102567500D02*
X107635000Y-101285000D01*
X90995000Y-102235000D02*
X94345000Y-102235000D01*
X94345000Y-102235000D02*
X94615000Y-102505000D01*
X106555000Y-100205000D02*
X106555000Y-98425000D01*
X107635000Y-101285000D02*
X106555000Y-100205000D01*
X103442500Y-102505000D02*
X103505000Y-102567500D01*
X103505000Y-102567500D02*
X107635000Y-102567500D01*
X94615000Y-102505000D02*
X103442500Y-102505000D01*
%TO.N,Net-(D503-Pad1)*%
X94615000Y-104505000D02*
X97155000Y-104505000D01*
X94615000Y-104505000D02*
X94615000Y-107315000D01*
X97155000Y-104505000D02*
X97425000Y-104775000D01*
%TO.N,VBUS*%
X164185000Y-55600000D02*
X164465000Y-55880000D01*
X144685000Y-101060000D02*
X144780000Y-100965000D01*
X141605000Y-101060000D02*
X144685000Y-101060000D01*
X164185000Y-45060000D02*
X164185000Y-55600000D01*
%TO.N,Net-(D801-Pad2)*%
X115570000Y-132715000D02*
X114680000Y-133605000D01*
X114680000Y-133605000D02*
X113030000Y-133605000D01*
X120347500Y-132715000D02*
X115570000Y-132715000D01*
%TO.N,Net-(D802-Pad2)*%
X106680000Y-136525000D02*
X108585000Y-136525000D01*
%TO.N,Net-(D803-Pad3)*%
X88630000Y-129175000D02*
X88900000Y-128905000D01*
X93655000Y-126690000D02*
X92075000Y-128270000D01*
X92075000Y-128270000D02*
X88900000Y-128270000D01*
X88900000Y-128905000D02*
X88900000Y-128270000D01*
X93655000Y-125407500D02*
X93655000Y-126690000D01*
X88630000Y-130810000D02*
X88630000Y-129175000D01*
%TO.N,Net-(D804-Pad1)*%
X120650000Y-128270000D02*
X122555000Y-128270000D01*
%TO.N,Net-(D805-Pad1)*%
X90820000Y-134605000D02*
X92345000Y-134605000D01*
X92345000Y-133080000D02*
X92345000Y-134605000D01*
X90805000Y-134620000D02*
X90820000Y-134605000D01*
X90170000Y-133985000D02*
X90805000Y-134620000D01*
X93005000Y-132420000D02*
X92345000Y-133080000D01*
X88630000Y-133985000D02*
X90170000Y-133985000D01*
X93005000Y-132420000D02*
X93005000Y-131132500D01*
%TO.N,Net-(D805-Pad2)*%
X92345000Y-135905000D02*
X92695000Y-135905000D01*
X92695000Y-135905000D02*
X93655000Y-134945000D01*
X90170000Y-137160000D02*
X91440000Y-135890000D01*
X93655000Y-134945000D02*
X93655000Y-131132500D01*
X88630000Y-137160000D02*
X90170000Y-137160000D01*
X91455000Y-135905000D02*
X92345000Y-135905000D01*
X91440000Y-135890000D02*
X91455000Y-135905000D01*
%TO.N,Net-(D901-Pad3)*%
X86995000Y-108220000D02*
X86995000Y-107315000D01*
X86995000Y-107315000D02*
X86165201Y-106485201D01*
X86165201Y-106485201D02*
X82990201Y-106485201D01*
X83510000Y-107005000D02*
X82990201Y-106485201D01*
X83510000Y-108897500D02*
X83510000Y-107005000D01*
%TO.N,Net-(D1101-Pad1)*%
X130175000Y-86750000D02*
X130175000Y-86995000D01*
X130175000Y-86995000D02*
X131445000Y-88265000D01*
%TO.N,Net-(D1102-Pad1)*%
X133350000Y-86750000D02*
X133350000Y-87630000D01*
X133350000Y-87630000D02*
X132715000Y-88265000D01*
%TO.N,LED_MODE_HS_CAN*%
X154805000Y-78219639D02*
X155229639Y-77795000D01*
X155229639Y-77795000D02*
X155917500Y-77795000D01*
X154805000Y-81650000D02*
X154805000Y-78219639D01*
%TO.N,LED_MODE_MS_CAN*%
X154305000Y-78069639D02*
X155229639Y-77145000D01*
X155229639Y-77145000D02*
X155917500Y-77145000D01*
X154305000Y-81650000D02*
X154305000Y-78069639D01*
%TO.N,LED_MODE_SW_CAN*%
X153805000Y-81650000D02*
X153805000Y-77919639D01*
X155229639Y-76495000D02*
X155917500Y-76495000D01*
X153805000Y-77919639D02*
X155229639Y-76495000D01*
%TO.N,LED_MODE_SAE_PWM*%
X153305000Y-81650000D02*
X153305000Y-77769639D01*
X153305000Y-77769639D02*
X155229639Y-75845000D01*
X155229639Y-75845000D02*
X155917500Y-75845000D01*
%TO.N,LED_MODE_SAE_VPW*%
X150880361Y-75195000D02*
X150192500Y-75195000D01*
X152805000Y-81650000D02*
X152805000Y-77119639D01*
X152805000Y-77119639D02*
X150880361Y-75195000D01*
%TO.N,LED_MODE_ISO_K_LINE*%
X150880361Y-75845000D02*
X150192500Y-75845000D01*
X152305000Y-77269639D02*
X150880361Y-75845000D01*
X152305000Y-81650000D02*
X152305000Y-77269639D01*
%TO.N,LED_MODE_ISO_K_LINE_KW2000*%
X150880361Y-76495000D02*
X150192500Y-76495000D01*
X151805000Y-77419639D02*
X150880361Y-76495000D01*
X151805000Y-81650000D02*
X151805000Y-77419639D01*
%TO.N,LED_MODE_ISO_L_LINE*%
X150880361Y-77145000D02*
X150192500Y-77145000D01*
X151305000Y-77569639D02*
X150880361Y-77145000D01*
X151305000Y-81650000D02*
X151305000Y-77569639D01*
%TO.N,Net-(D1111-Pad1)*%
X137160000Y-87630000D02*
X136525000Y-88265000D01*
X137160000Y-86750000D02*
X137160000Y-87630000D01*
%TO.N,Net-(D1112-Pad1)*%
X144780000Y-87360000D02*
X144145000Y-87995000D01*
X144780000Y-86480000D02*
X144780000Y-87360000D01*
%TO.N,Net-(D1113-Pad1)*%
X140335000Y-88265000D02*
X140970000Y-87630000D01*
X140970000Y-87630000D02*
X140970000Y-86750000D01*
%TO.N,VBAT*%
X85455000Y-118745000D02*
X85090000Y-118745000D01*
X76835000Y-100965000D02*
X74930000Y-100965000D01*
X76835000Y-96166940D02*
X76835000Y-100965000D01*
X86995000Y-117205000D02*
X85455000Y-118745000D01*
%TO.N,~{SDCARD_CS}*%
X128743734Y-60163734D02*
X128041652Y-60163734D01*
X138800000Y-74195000D02*
X137695000Y-74195000D01*
X129450500Y-59958511D02*
X128948957Y-59958511D01*
X137695000Y-74195000D02*
X136525000Y-73025000D01*
X127535385Y-60670001D02*
X125831600Y-60670001D01*
X128041652Y-60163734D02*
X127535385Y-60670001D01*
X128948957Y-59958511D02*
X128743734Y-60163734D01*
%TO.N,SDCARD_MOSI*%
X127263951Y-59670000D02*
X125831600Y-59670000D01*
X129540000Y-58509500D02*
X128424451Y-58509500D01*
X128424451Y-58509500D02*
X127263951Y-59670000D01*
X137525000Y-75295000D02*
X136525000Y-74295000D01*
X138800000Y-75295000D02*
X137525000Y-75295000D01*
%TO.N,SDCARD_SCK*%
X127399669Y-60169999D02*
X125831600Y-60169999D01*
X129239897Y-59234011D02*
X129060886Y-59055000D01*
X131990500Y-59690000D02*
X131990500Y-59600500D01*
X138455000Y-77495000D02*
X136525000Y-75565000D01*
X128514668Y-59055000D02*
X127399669Y-60169999D01*
X131990500Y-59600500D02*
X131445000Y-59055000D01*
X129840103Y-59234011D02*
X129239897Y-59234011D01*
X138800000Y-77495000D02*
X138455000Y-77495000D01*
X131445000Y-59055000D02*
X130019114Y-59055000D01*
X130019114Y-59055000D02*
X129840103Y-59234011D01*
X129060886Y-59055000D02*
X128514668Y-59055000D01*
%TO.N,SDCARD_MISO*%
X123190000Y-61604561D02*
X123624561Y-61170000D01*
X123624561Y-61170000D02*
X125831600Y-61170000D01*
X137480000Y-79695000D02*
X135890000Y-78105000D01*
X138800000Y-79695000D02*
X137480000Y-79695000D01*
%TO.N,~{SDCARD_DETECT}*%
X133695001Y-52806600D02*
X133695001Y-51089999D01*
X128950000Y-70460000D02*
X129565000Y-70460000D01*
X129565000Y-70460000D02*
X130810000Y-69215000D01*
X128950000Y-69895000D02*
X127000000Y-67945000D01*
X133695001Y-51089999D02*
X133985000Y-50800000D01*
X128950000Y-70460000D02*
X128950000Y-69895000D01*
%TO.N,Net-(J302-Pad2)*%
X154527445Y-55694520D02*
X163535000Y-46686965D01*
X163535000Y-46686965D02*
X163535000Y-45060000D01*
X150610000Y-57825000D02*
X150610000Y-56400000D01*
X151315480Y-55694520D02*
X154527445Y-55694520D01*
X150610000Y-56400000D02*
X151315480Y-55694520D01*
%TO.N,Net-(J302-Pad3)*%
X150110000Y-56264282D02*
X150110000Y-57825000D01*
X162885000Y-45060000D02*
X162885000Y-46701247D01*
X154341247Y-55245000D02*
X151129282Y-55245000D01*
X162885000Y-46701247D02*
X154341247Y-55245000D01*
X151129282Y-55245000D02*
X150110000Y-56264282D01*
%TO.N,SDA*%
X118745000Y-67580497D02*
X118745000Y-68580000D01*
X119264999Y-57669999D02*
X125831600Y-57669999D01*
X150192500Y-79095000D02*
X143790000Y-79095000D01*
X108907500Y-51080000D02*
X110210000Y-51080000D01*
X110490000Y-46990000D02*
X110490000Y-50800000D01*
X119380000Y-69215000D02*
X119380000Y-76835000D01*
X119650497Y-66675000D02*
X118745000Y-67580497D01*
X118745000Y-68580000D02*
X119380000Y-69215000D01*
X110210000Y-51080000D02*
X112675000Y-51080000D01*
X112675000Y-51080000D02*
X119264999Y-57669999D01*
X110490000Y-50800000D02*
X110210000Y-51080000D01*
X143790000Y-79095000D02*
X143510000Y-79375000D01*
%TO.N,SCL*%
X107845480Y-51355841D02*
X107845480Y-49158270D01*
X108907500Y-51730000D02*
X112055000Y-51730000D01*
X118495000Y-58170000D02*
X125831600Y-58170000D01*
X119469500Y-67945000D02*
X120650000Y-69125500D01*
X150192500Y-78445000D02*
X143850000Y-78445000D01*
X108907500Y-51730000D02*
X108219639Y-51730000D01*
X112055000Y-51730000D02*
X118495000Y-58170000D01*
X120650000Y-69125500D02*
X120650000Y-76200000D01*
X108490000Y-48513750D02*
X108490000Y-46990000D01*
X108219639Y-51730000D02*
X107845480Y-51355841D01*
X143850000Y-78445000D02*
X143510000Y-78105000D01*
X107845480Y-49158270D02*
X108490000Y-48513750D01*
%TO.N,Net-(Q502-Pad1)*%
X102222500Y-104775000D02*
X102555000Y-104442500D01*
X99425000Y-104775000D02*
X102222500Y-104775000D01*
%TO.N,Net-(Q502-Pad2)*%
X104455000Y-104442500D02*
X104455000Y-108535000D01*
X104455000Y-108535000D02*
X104505000Y-108585000D01*
%TO.N,Net-(Q503-Pad1)*%
X125415000Y-108892500D02*
X125427500Y-108905000D01*
X124145000Y-108905000D02*
X125427500Y-108905000D01*
X118425000Y-111457500D02*
X118425000Y-108805000D01*
X121285000Y-108252500D02*
X118537500Y-108252500D01*
X118537500Y-108252500D02*
X118205000Y-108585000D01*
X125415000Y-105712500D02*
X125415000Y-108892500D01*
X123492500Y-108252500D02*
X124145000Y-108905000D01*
X118425000Y-108805000D02*
X118205000Y-108585000D01*
X121285000Y-108252500D02*
X123492500Y-108252500D01*
%TO.N,~{PWR_CTRL}*%
X123825000Y-106045000D02*
X123825000Y-103505000D01*
X122235000Y-106377500D02*
X123492500Y-106377500D01*
X114935000Y-103505000D02*
X113665000Y-103505000D01*
X131695000Y-52806600D02*
X131695000Y-51050000D01*
X131695000Y-51050000D02*
X131445000Y-50800000D01*
X123492500Y-106377500D02*
X123825000Y-106045000D01*
X123190000Y-102870000D02*
X122555000Y-102870000D01*
X123825000Y-103505000D02*
X123190000Y-102870000D01*
%TO.N,+12V_ISO*%
X115885000Y-101630000D02*
X115885000Y-100645000D01*
X115885000Y-100645000D02*
X114935000Y-99695000D01*
%TO.N,SAE_PWM*%
X104455000Y-131760000D02*
X104775000Y-132080000D01*
X136840000Y-120347500D02*
X138827500Y-120347500D01*
X139065000Y-120110000D02*
X139065000Y-121920000D01*
X122555000Y-78105000D02*
X125730000Y-74930000D01*
X128369365Y-67742586D02*
X128695000Y-67416951D01*
X104775000Y-132080000D02*
X105077500Y-132382500D01*
X125730000Y-74930000D02*
X125730000Y-71755000D01*
X105077500Y-132382500D02*
X105730000Y-132382500D01*
X138827500Y-120347500D02*
X139065000Y-120110000D01*
X128695000Y-67416951D02*
X128695000Y-64033400D01*
X103172500Y-131760000D02*
X104455000Y-131760000D01*
%TO.N,Net-(Q508-Pad3)*%
X134620000Y-122555000D02*
X132715000Y-122555000D01*
X134952500Y-122222500D02*
X134620000Y-122555000D01*
X135890000Y-122222500D02*
X134952500Y-122222500D01*
X132715000Y-120015000D02*
X132715000Y-122555000D01*
%TO.N,HS_CAN_TX*%
X104410000Y-94615000D02*
X102580000Y-94615000D01*
X127695000Y-65488510D02*
X127071755Y-66111755D01*
X102580000Y-94615000D02*
X102550000Y-94585000D01*
X125095000Y-65405000D02*
X118199500Y-65405000D01*
X127695000Y-64033400D02*
X127695000Y-65488510D01*
X102550000Y-94585000D02*
X102550000Y-93665000D01*
X102550000Y-93665000D02*
X103505000Y-92710000D01*
%TO.N,HS_CAN_TX_5V*%
X101600000Y-92710000D02*
X101600000Y-89805000D01*
X101575000Y-89240000D02*
X101870000Y-89535000D01*
X99340000Y-89240000D02*
X101575000Y-89240000D01*
X101600000Y-89805000D02*
X101870000Y-89535000D01*
%TO.N,MS_CAN_TX*%
X130195000Y-52806600D02*
X130195000Y-54150886D01*
X130195000Y-54150886D02*
X130354011Y-54309897D01*
X118380497Y-61959503D02*
X119380000Y-60960000D01*
X105090000Y-73345000D02*
X105410000Y-73025000D01*
X130354011Y-55294954D02*
X130280803Y-55368162D01*
X103172500Y-73345000D02*
X105090000Y-73345000D01*
X105410000Y-73025000D02*
X107315000Y-73025000D01*
X119380000Y-60960000D02*
X121285000Y-60960000D01*
X130354011Y-54309897D02*
X130354011Y-55294954D01*
X116840000Y-61959503D02*
X118380497Y-61959503D01*
%TO.N,MS_CAN_TX_5V*%
X101297500Y-74295000D02*
X101297500Y-76897500D01*
X100670000Y-72730000D02*
X101297500Y-73357500D01*
X99340000Y-72730000D02*
X100670000Y-72730000D01*
X101297500Y-73357500D02*
X101297500Y-74295000D01*
X101297500Y-76897500D02*
X101870000Y-77470000D01*
%TO.N,HS_CAN_RX*%
X101285000Y-82600000D02*
X101235000Y-82550000D01*
X101235000Y-82550000D02*
X101235000Y-81645000D01*
X101285000Y-84787500D02*
X101285000Y-82600000D01*
X127796266Y-66800754D02*
X127778510Y-66818510D01*
X101235000Y-81645000D02*
X102235000Y-80645000D01*
X127796266Y-66022962D02*
X127796266Y-66800754D01*
X128194999Y-64033400D02*
X128194999Y-65624229D01*
X128194999Y-65624229D02*
X127796266Y-66022962D01*
%TO.N,HS_CAN_RX_5V*%
X100662500Y-86662500D02*
X102235000Y-86662500D01*
X100035000Y-87290000D02*
X100662500Y-86662500D01*
X99340000Y-87290000D02*
X99340000Y-85735000D01*
X99340000Y-87290000D02*
X100035000Y-87290000D01*
X99340000Y-85735000D02*
X99060000Y-85455000D01*
%TO.N,MS_CAN_RX*%
X129695001Y-54544499D02*
X129629500Y-54610000D01*
X117564511Y-60235489D02*
X116840000Y-60960000D01*
X122447255Y-60235489D02*
X117564511Y-60235489D01*
X97695000Y-64135000D02*
X97695000Y-66575000D01*
X97695000Y-64040000D02*
X95885000Y-62230000D01*
X97695000Y-66575000D02*
X97795000Y-66675000D01*
X129695001Y-52806600D02*
X129695001Y-54544499D01*
X97695000Y-64135000D02*
X97695000Y-64040000D01*
X122527194Y-60155550D02*
X122447255Y-60235489D01*
%TO.N,MS_CAN_RX_5V*%
X101570000Y-68550000D02*
X101600000Y-68580000D01*
X98745000Y-69535000D02*
X98745000Y-68550000D01*
X99340000Y-70780000D02*
X99340000Y-70130000D01*
X99340000Y-70130000D02*
X98745000Y-69535000D01*
X98745000Y-68550000D02*
X101570000Y-68550000D01*
%TO.N,~{HS_CAN_EN}*%
X98425000Y-93980000D02*
X99695000Y-92710000D01*
X126347244Y-66040000D02*
X125712244Y-66675000D01*
X126347244Y-65177370D02*
X126347244Y-66040000D01*
X125712244Y-66675000D02*
X120650000Y-66675000D01*
X126365000Y-65159614D02*
X126347244Y-65177370D01*
X131195000Y-51820000D02*
X130175000Y-50800000D01*
X126955798Y-64135000D02*
X126365000Y-64725798D01*
X98392500Y-94282500D02*
X98425000Y-94250000D01*
X131195000Y-52806600D02*
X131195000Y-51820000D01*
X126365000Y-64725798D02*
X126365000Y-65159614D01*
X96835000Y-94282500D02*
X98392500Y-94282500D01*
X98425000Y-94250000D02*
X98425000Y-93980000D01*
%TO.N,~{HS_CAN_EN_5V}*%
X92772500Y-92407500D02*
X92710000Y-92345000D01*
X96240000Y-90450000D02*
X96240000Y-89240000D01*
X95885000Y-90805000D02*
X96240000Y-90450000D01*
X95885000Y-92407500D02*
X95885000Y-90805000D01*
X95885000Y-92407500D02*
X92772500Y-92407500D01*
%TO.N,~{MS_CAN_EN}*%
X93677500Y-79055000D02*
X95565000Y-79055000D01*
X90805000Y-79105000D02*
X93627500Y-79105000D01*
X130694999Y-52806600D02*
X130694999Y-54015167D01*
X123190000Y-64135000D02*
X121920000Y-62865000D01*
X131005314Y-55684686D02*
X130175000Y-56515000D01*
X121920000Y-62865000D02*
X116205000Y-62865000D01*
X95565000Y-79055000D02*
X95885000Y-79375000D01*
X93627500Y-79105000D02*
X93677500Y-79055000D01*
X131005314Y-54325482D02*
X131005314Y-55684686D01*
X125730000Y-64135000D02*
X123190000Y-64135000D01*
X130694999Y-54015167D02*
X131005314Y-54325482D01*
%TO.N,SW_CAN_LOAD*%
X124114999Y-56169999D02*
X125831600Y-56169999D01*
X123190000Y-52159500D02*
X123190000Y-55245000D01*
X91410000Y-60990000D02*
X92710000Y-59690000D01*
X90485000Y-60990000D02*
X90535000Y-60940000D01*
X90535000Y-60940000D02*
X90535000Y-58420000D01*
X123190000Y-55245000D02*
X124114999Y-56169999D01*
X90485000Y-60990000D02*
X91410000Y-60990000D01*
%TO.N,Net-(Q707-Pad3)*%
X92710000Y-62865000D02*
X93345000Y-62230000D01*
X89535000Y-62865000D02*
X92710000Y-62865000D01*
%TO.N,SAE_VPW*%
X106045000Y-125095000D02*
X105410000Y-125095000D01*
X111415000Y-130507500D02*
X111445000Y-130477500D01*
X105410000Y-125095000D02*
X104775000Y-125730000D01*
X106680000Y-130507500D02*
X111415000Y-130507500D01*
X106680000Y-130507500D02*
X105742500Y-130507500D01*
X103825000Y-126680000D02*
X104775000Y-125730000D01*
X105742500Y-130507500D02*
X105410000Y-130175000D01*
X102840000Y-126680000D02*
X103825000Y-126680000D01*
%TO.N,J1850_RX*%
X102840000Y-124780000D02*
X103185000Y-124780000D01*
X114300000Y-97155000D02*
X113665000Y-96520000D01*
X129695001Y-64033400D02*
X129695001Y-67267229D01*
X114300000Y-98425000D02*
X114300000Y-97155000D01*
X130072669Y-67644897D02*
X130072669Y-68682331D01*
X104762500Y-128270000D02*
X105680000Y-128270000D01*
X129589122Y-69165878D02*
X129360989Y-69165878D01*
X104451250Y-128581250D02*
X104762500Y-128270000D01*
X113665000Y-92075000D02*
X113665000Y-96520000D01*
X103172500Y-129860000D02*
X104451250Y-128581250D01*
X103185000Y-124780000D02*
X104140000Y-123825000D01*
X129695001Y-67267229D02*
X130072669Y-67644897D01*
X130072669Y-68682331D02*
X129589122Y-69165878D01*
%TO.N,VPW_RX*%
X100870000Y-125635000D02*
X100965000Y-125730000D01*
X94955000Y-125407500D02*
X96927500Y-125407500D01*
X97155000Y-125635000D02*
X100870000Y-125635000D01*
X96927500Y-125407500D02*
X97155000Y-125635000D01*
%TO.N,PWM_RX*%
X98060000Y-131080000D02*
X96520000Y-129540000D01*
X101297500Y-130810000D02*
X98695000Y-130810000D01*
X96520000Y-129540000D02*
X95209639Y-129540000D01*
X98695000Y-130810000D02*
X98425000Y-131080000D01*
X95209639Y-129540000D02*
X94305000Y-130444639D01*
X94305000Y-130444639D02*
X94305000Y-131132500D01*
X98425000Y-131080000D02*
X98060000Y-131080000D01*
%TO.N,Net-(Q803-Pad1)*%
X122272500Y-133715000D02*
X122222500Y-133665000D01*
X122222500Y-135587500D02*
X121285000Y-136525000D01*
X124460000Y-133715000D02*
X122272500Y-133715000D01*
X121285000Y-136525000D02*
X120015000Y-136525000D01*
X122222500Y-133665000D02*
X122222500Y-135587500D01*
D75*
%TO.N,J1850_TX+*%
X136525000Y-67220500D02*
X136435500Y-67310000D01*
X118140000Y-134015000D02*
X118110000Y-133985000D01*
X132695000Y-65315006D02*
X132695000Y-64033400D01*
X134689994Y-67310000D02*
X132695000Y-65315006D01*
X132715000Y-71755000D02*
X133985000Y-71755000D01*
X128270000Y-81915000D02*
X128905000Y-81915000D01*
X130810000Y-73660000D02*
X132715000Y-71755000D01*
X130810000Y-80010000D02*
X130810000Y-73660000D01*
X118090000Y-135525000D02*
X118140000Y-135575000D01*
X115570000Y-135525000D02*
X118090000Y-135525000D01*
X128905000Y-81915000D02*
X130810000Y-80010000D01*
X118140000Y-135575000D02*
X118140000Y-134015000D01*
X136435500Y-67310000D02*
X134689994Y-67310000D01*
D74*
%TO.N,Net-(Q806-Pad3)*%
X112395000Y-127635000D02*
X113997500Y-126032500D01*
X118650000Y-127540000D02*
X118650000Y-128270000D01*
X116205000Y-126032500D02*
X117142500Y-126032500D01*
X113997500Y-126032500D02*
X116205000Y-126032500D01*
X117142500Y-126032500D02*
X118650000Y-127540000D01*
X112395000Y-128602500D02*
X112395000Y-127635000D01*
D75*
%TO.N,J1850_TX-*%
X117155000Y-124157500D02*
X119317500Y-124157500D01*
X119380000Y-124095000D02*
X119380000Y-121920000D01*
X119317500Y-124157500D02*
X119380000Y-124095000D01*
X133350000Y-74437415D02*
X133350000Y-74930000D01*
X136593404Y-71194011D02*
X133350000Y-74437415D01*
X135766838Y-66569197D02*
X135661035Y-66675000D01*
X134620000Y-66675000D02*
X133194999Y-65249999D01*
X135661035Y-66675000D02*
X134620000Y-66675000D01*
X133194999Y-65249999D02*
X133194999Y-64033400D01*
D74*
%TO.N,ISO_K*%
X79690000Y-105598000D02*
X79690000Y-106377500D01*
X116205000Y-59690000D02*
X116724999Y-59170001D01*
X116724999Y-59170001D02*
X125831600Y-59170001D01*
X78740000Y-104648000D02*
X79690000Y-105598000D01*
%TO.N,ISO_L*%
X77470000Y-102870000D02*
X76835000Y-102870000D01*
X75880000Y-105107500D02*
X75880000Y-103825000D01*
X75880000Y-103825000D02*
X76200000Y-103505000D01*
X76835000Y-102870000D02*
X76200000Y-103505000D01*
%TO.N,ISO_LINE*%
X74930000Y-106982500D02*
X74930000Y-108585000D01*
X75565000Y-109220000D02*
X75565000Y-111457500D01*
X74930000Y-108585000D02*
X75565000Y-109220000D01*
X78740000Y-108252500D02*
X76532500Y-108252500D01*
X76532500Y-108252500D02*
X75565000Y-109220000D01*
%TO.N,Net-(Q904-Pad1)*%
X74565000Y-115570000D02*
X74565000Y-113382500D01*
X74565000Y-113382500D02*
X74615000Y-113332500D01*
%TO.N,Net-(R201-Pad2)*%
X147245000Y-47970000D02*
X153745000Y-47970000D01*
X153745000Y-51630000D02*
X153745000Y-47970000D01*
X152085800Y-53289200D02*
X153305000Y-52070000D01*
X153305000Y-52070000D02*
X153745000Y-51630000D01*
X151445001Y-53289200D02*
X152085800Y-53289200D01*
%TO.N,~{RESET}*%
X146269200Y-53289200D02*
X146050000Y-53070000D01*
X129194999Y-63008077D02*
X129194999Y-64033400D01*
X128884220Y-62697298D02*
X129194999Y-63008077D01*
X151110000Y-69175000D02*
X151110000Y-66695000D01*
X149544999Y-53289200D02*
X146269200Y-53289200D01*
X127635000Y-62697298D02*
X128884220Y-62697298D01*
%TO.N,Net-(R302-Pad2)*%
X146685000Y-54610000D02*
X145360500Y-54610000D01*
X147110000Y-55035000D02*
X146685000Y-54610000D01*
X147110000Y-57825000D02*
X147110000Y-55035000D01*
X156210000Y-55245000D02*
X158115000Y-53340000D01*
X158115000Y-53340000D02*
X159655000Y-53340000D01*
X156210000Y-55880000D02*
X156210000Y-55245000D01*
%TO.N,Net-(R303-Pad1)*%
X151110000Y-57805000D02*
X151130000Y-57785000D01*
X151130000Y-57785000D02*
X151130000Y-56515718D01*
X151110000Y-57825000D02*
X151110000Y-57805000D01*
X151130359Y-56515359D02*
X151226698Y-56419020D01*
X151130000Y-56515718D02*
X151130359Y-56515359D01*
X151226698Y-56419020D02*
X151765000Y-56419020D01*
%TO.N,Net-(R304-Pad2)*%
X157708348Y-61121266D02*
X157869614Y-60960000D01*
X157869614Y-60960000D02*
X164370000Y-60960000D01*
X157108142Y-61121266D02*
X157708348Y-61121266D01*
X164370000Y-60960000D02*
X164465000Y-61055000D01*
X164790000Y-61380000D02*
X164465000Y-61055000D01*
X156736876Y-60750000D02*
X157108142Y-61121266D01*
X155535000Y-60750000D02*
X156736876Y-60750000D01*
X164790000Y-63812500D02*
X164790000Y-61380000D01*
%TO.N,SWDIO*%
X144145000Y-71755000D02*
X144145000Y-72930000D01*
X149110000Y-69175000D02*
X149110000Y-67425000D01*
X149110000Y-67425000D02*
X149860000Y-66675000D01*
X132195001Y-65415368D02*
X132195001Y-64033400D01*
X134724633Y-67945000D02*
X132195001Y-65415368D01*
X144145000Y-72930000D02*
X144050000Y-73025000D01*
X142875000Y-67945000D02*
X134724633Y-67945000D01*
%TO.N,Net-(R305-Pad2)*%
X146050000Y-73025000D02*
X148590000Y-73025000D01*
X149610000Y-72005000D02*
X149610000Y-69175000D01*
X148590000Y-73025000D02*
X149610000Y-72005000D01*
%TO.N,Net-(R306-Pad2)*%
X169005000Y-61055000D02*
X169545000Y-61595000D01*
X163830000Y-62230000D02*
X164140000Y-62540000D01*
X162560000Y-61595000D02*
X163195000Y-62230000D01*
X156845000Y-61595000D02*
X162560000Y-61595000D01*
X164140000Y-62540000D02*
X164140000Y-63812500D01*
X163195000Y-62230000D02*
X163830000Y-62230000D01*
X155535000Y-61250000D02*
X156500000Y-61250000D01*
X167005000Y-61055000D02*
X169005000Y-61055000D01*
X167005000Y-61055000D02*
X167005000Y-62865000D01*
X156500000Y-61250000D02*
X156845000Y-61595000D01*
%TO.N,Net-(R307-Pad2)*%
X158821755Y-62793245D02*
X159408245Y-62793245D01*
X166682500Y-63812500D02*
X167005000Y-64135000D01*
X153670000Y-60960000D02*
X153670000Y-62383349D01*
X155535000Y-60250000D02*
X154380000Y-60250000D01*
X165440000Y-63812500D02*
X166682500Y-63812500D01*
X153670000Y-62383349D02*
X154162412Y-62875761D01*
X159408245Y-62793245D02*
X160020000Y-63405000D01*
X154380000Y-60250000D02*
X153670000Y-60960000D01*
%TO.N,Net-(R308-Pad1)*%
X168275000Y-65405000D02*
X163830000Y-65405000D01*
X163490000Y-65065000D02*
X163490000Y-63812500D01*
X169545000Y-63595000D02*
X169545000Y-64135000D01*
X163830000Y-65405000D02*
X163490000Y-65065000D01*
X169545000Y-64135000D02*
X168275000Y-65405000D01*
%TO.N,Net-(R511-Pad1)*%
X118745000Y-96155000D02*
X118745000Y-92544900D01*
%TO.N,Net-(R512-Pad2)*%
X121285000Y-97155000D02*
X123825000Y-97155000D01*
X120015000Y-94615000D02*
X121285000Y-95885000D01*
X120015000Y-92544900D02*
X120015000Y-94615000D01*
X121285000Y-95885000D02*
X121285000Y-97155000D01*
%TO.N,Net-(R514-Pad2)*%
X130175000Y-117745000D02*
X132445000Y-117745000D01*
X127230000Y-115825000D02*
X129795000Y-115825000D01*
X130175000Y-116205000D02*
X130175000Y-117745000D01*
X129795000Y-115825000D02*
X130175000Y-116205000D01*
X132445000Y-117745000D02*
X132715000Y-118015000D01*
%TO.N,SW_CAN_MODE0*%
X130521074Y-58218139D02*
X130541949Y-58239014D01*
X134080969Y-58906301D02*
X135344667Y-60169999D01*
X117475000Y-43815000D02*
X116205000Y-42545000D01*
X130541949Y-58239014D02*
X133803296Y-58239014D01*
X135344667Y-60169999D02*
X137058400Y-60169999D01*
X134080969Y-58516687D02*
X134080969Y-58906301D01*
X116205000Y-42545000D02*
X116205000Y-41275000D01*
X85090000Y-56591200D02*
X85090000Y-54610000D01*
X86995000Y-46085000D02*
X86995000Y-48260000D01*
X116205000Y-41275000D02*
X116205000Y-41185500D01*
X117475000Y-46990000D02*
X117475000Y-43815000D01*
X133803296Y-58239014D02*
X134080969Y-58516687D01*
%TO.N,SW_CAN_MODE1*%
X134530489Y-58720103D02*
X135480386Y-59670000D01*
X131355500Y-57514503D02*
X133714503Y-57514503D01*
X134530489Y-58330489D02*
X134530489Y-58720103D01*
X83820000Y-56591200D02*
X83820000Y-54610000D01*
X133714503Y-57514503D02*
X134530489Y-58330489D01*
X135480386Y-59670000D02*
X137058400Y-59670000D01*
X84455000Y-46085000D02*
X84455000Y-48260000D01*
X118745000Y-42455500D02*
X118745000Y-46355000D01*
X117475000Y-41185500D02*
X118745000Y-42455500D01*
%TO.N,SW_CAN_RX*%
X83185000Y-53340000D02*
X88000000Y-48525000D01*
X82280000Y-53340000D02*
X83185000Y-53340000D01*
X88000000Y-48525000D02*
X92387500Y-48525000D01*
X82550000Y-56591200D02*
X82550000Y-53610000D01*
X82550000Y-53610000D02*
X82280000Y-53340000D01*
%TO.N,Net-(R720-Pad2)*%
X83820000Y-59690000D02*
X83820000Y-61518800D01*
X81550000Y-64135000D02*
X80645000Y-64135000D01*
X80645000Y-64135000D02*
X80010000Y-63500000D01*
%TO.N,Net-(R807-Pad2)*%
X92440000Y-123190000D02*
X94520000Y-123190000D01*
X94305000Y-123405000D02*
X94520000Y-123190000D01*
X94305000Y-125407500D02*
X94305000Y-123405000D01*
%TO.N,Net-(R905-Pad2)*%
X82860000Y-108897500D02*
X82860000Y-110165000D01*
X82860000Y-110165000D02*
X83185000Y-110490000D01*
%TO.N,~{ISO_RX}*%
X84160000Y-107610000D02*
X84455000Y-107315000D01*
X135965016Y-61670001D02*
X137058400Y-61670001D01*
X84160000Y-108897500D02*
X84160000Y-107610000D01*
X134317567Y-60167497D02*
X134462512Y-60167497D01*
X134462512Y-60167497D02*
X135965016Y-61670001D01*
%TO.N,~{ISO_TX}*%
X77470000Y-115570000D02*
X78105000Y-114935000D01*
X133923597Y-61139011D02*
X134798308Y-61139011D01*
X134798308Y-61139011D02*
X135829297Y-62170000D01*
X135829297Y-62170000D02*
X137058400Y-62170000D01*
X76565000Y-115570000D02*
X77470000Y-115570000D01*
%TO.N,~{LED_UART_RX}*%
X141260000Y-65750000D02*
X140335000Y-66675000D01*
X144185000Y-65750000D02*
X141260000Y-65750000D01*
%TO.N,~{LED_UART_TX}*%
X145840000Y-66250000D02*
X146050000Y-66040000D01*
X144185000Y-66250000D02*
X145840000Y-66250000D01*
%TO.N,~{LED_OBD_ACT}*%
X137693400Y-64033400D02*
X137795000Y-64135000D01*
X135195000Y-64033400D02*
X137693400Y-64033400D01*
%TO.N,~{LED_HOST_ACT}*%
X134695001Y-63008077D02*
X134808578Y-62894500D01*
X134695001Y-64033400D02*
X134695001Y-63008077D01*
X134808578Y-62894500D02*
X135890000Y-62894500D01*
%TO.N,~{LED_STATUS}*%
X134026624Y-62728482D02*
X134195000Y-62896858D01*
X134195000Y-62896858D02*
X134195000Y-64033400D01*
%TO.N,~{SW_CAN_STATUS_INT}*%
X100968344Y-51980489D02*
X100941199Y-51953344D01*
X99340000Y-52425000D02*
X99811656Y-51953344D01*
X102494639Y-52380000D02*
X102095128Y-51980489D01*
X98112500Y-52425000D02*
X99340000Y-52425000D01*
X100968344Y-51980489D02*
X102095128Y-51980489D01*
X103182500Y-52380000D02*
X102494639Y-52380000D01*
X99811656Y-51953344D02*
X100941199Y-51953344D01*
%TO.N,~{SW_CAN_RX0BF}*%
X101925000Y-53030000D02*
X101600000Y-52705000D01*
X100330000Y-52705000D02*
X101600000Y-52705000D01*
X98112500Y-53075000D02*
X99960000Y-53075000D01*
X103182500Y-53030000D02*
X101925000Y-53030000D01*
X99960000Y-53075000D02*
X100330000Y-52705000D01*
%TO.N,~{SW_CAN_RX1BF}*%
X98112500Y-53725000D02*
X100845500Y-53725000D01*
X100845500Y-53725000D02*
X100965000Y-53605500D01*
X103182500Y-53680000D02*
X103108000Y-53605500D01*
X103108000Y-53605500D02*
X100965000Y-53605500D01*
%TO.N,~{SW_CAN_TX0RTS}*%
X96520000Y-50800000D02*
X96520000Y-53975000D01*
X96520000Y-53975000D02*
X97155000Y-54610000D01*
X101880000Y-54330000D02*
X103182500Y-54330000D01*
X99975000Y-54330000D02*
X101880000Y-54330000D01*
X92387500Y-49825000D02*
X95545000Y-49825000D01*
X97155000Y-54610000D02*
X99695000Y-54610000D01*
X95545000Y-49825000D02*
X96520000Y-50800000D01*
X99695000Y-54610000D02*
X99975000Y-54330000D01*
%TO.N,~{SW_CAN_TX1RTS}*%
X98425000Y-56515000D02*
X104775000Y-56515000D01*
X97790000Y-55880000D02*
X98425000Y-56515000D01*
X94925000Y-50475000D02*
X95885000Y-51435000D01*
X106310000Y-54980000D02*
X108907500Y-54980000D01*
X107940000Y-57795000D02*
X108907500Y-56827500D01*
X107940000Y-59055000D02*
X107940000Y-57795000D01*
X97789282Y-55880000D02*
X97790000Y-55880000D01*
X104775000Y-56515000D02*
X106310000Y-54980000D01*
X95885000Y-51435000D02*
X95885000Y-53975718D01*
X108907500Y-56827500D02*
X108907500Y-54980000D01*
X92387500Y-50475000D02*
X94925000Y-50475000D01*
X95885000Y-53975718D02*
X97789282Y-55880000D01*
%TO.N,~{SW_CAN_TX2RTS}*%
X111760000Y-55245000D02*
X111760000Y-57775000D01*
X111760000Y-57775000D02*
X110480000Y-59055000D01*
X94955000Y-51775000D02*
X95250000Y-52070000D01*
X95250000Y-54610000D02*
X95885000Y-55245000D01*
X100875500Y-55155500D02*
X101600000Y-55880000D01*
X110845000Y-54330000D02*
X111760000Y-55245000D01*
X92387500Y-51775000D02*
X94955000Y-51775000D01*
X105690000Y-54330000D02*
X108907500Y-54330000D01*
X108907500Y-54330000D02*
X110845000Y-54330000D01*
X95250000Y-52070000D02*
X95250000Y-54610000D01*
X101600000Y-55880000D02*
X104140000Y-55880000D01*
X104140000Y-55880000D02*
X105690000Y-54330000D01*
X100330000Y-55155500D02*
X100875500Y-55155500D01*
%TO.N,~{SW_CAN_RESET}*%
X108907500Y-53680000D02*
X111465000Y-53680000D01*
X106241490Y-53680000D02*
X108907500Y-53680000D01*
X111465000Y-53680000D02*
X113030000Y-55245000D01*
X105338245Y-52776755D02*
X106241490Y-53680000D01*
X113030000Y-55245000D02*
X113020000Y-55255000D01*
X98112500Y-48525000D02*
X101775500Y-48525000D01*
X101775500Y-48525000D02*
X102870000Y-49619500D01*
X113020000Y-55255000D02*
X113020000Y-59055000D01*
%TO.N,SW_CAN_SOF*%
X106045000Y-52070000D02*
X107005000Y-53030000D01*
X93700000Y-49175000D02*
X93980000Y-48895000D01*
X107005000Y-53030000D02*
X108907500Y-53030000D01*
X92387500Y-49175000D02*
X93700000Y-49175000D01*
%TO.N,~{OUTPUT_TX}*%
X144185000Y-59750000D02*
X142300000Y-59750000D01*
X138719999Y-56169999D02*
X137058400Y-56169999D01*
X142300000Y-59750000D02*
X138719999Y-56169999D01*
%TO.N,~{OUTPUT_RX}*%
X140970718Y-57785000D02*
X146050000Y-57785000D01*
X138855718Y-55670000D02*
X140970718Y-57785000D01*
X137058400Y-55670000D02*
X138855718Y-55670000D01*
%TO.N,~{OUTPUT_RTS}*%
X142240000Y-60960000D02*
X142240000Y-62230000D01*
X140328521Y-55169999D02*
X141901950Y-56743428D01*
X144185000Y-60750000D02*
X142450000Y-60750000D01*
X142450000Y-60750000D02*
X142240000Y-60960000D01*
X137058400Y-55169999D02*
X140328521Y-55169999D01*
%TO.N,~{OUTPUT_CTS}*%
X145394538Y-60250000D02*
X145447847Y-60303309D01*
X141030000Y-54670000D02*
X142875000Y-56515000D01*
X144185000Y-60250000D02*
X145394538Y-60250000D01*
X137058400Y-54670000D02*
X141030000Y-54670000D01*
%TO.N,~{LINBUS_TX}*%
X140627100Y-52412900D02*
X141889480Y-52412900D01*
X135195000Y-52806600D02*
X140233400Y-52806600D01*
X140233400Y-52806600D02*
X140627100Y-52412900D01*
%TO.N,~{LINBUS_RX}*%
X140970000Y-50800000D02*
X141084300Y-50914300D01*
X135255000Y-50800000D02*
X140970000Y-50800000D01*
X141084300Y-50914300D02*
X141889480Y-50914300D01*
X134195000Y-52806600D02*
X134195000Y-51860000D01*
X134195000Y-51860000D02*
X135255000Y-50800000D01*
%TO.N,SW_CAN_CS*%
X98112500Y-49175000D02*
X97228001Y-49175000D01*
X97228001Y-49175000D02*
X96783501Y-49619500D01*
X122542124Y-56670001D02*
X122278593Y-56406470D01*
X125831600Y-56670001D02*
X122542124Y-56670001D01*
%TO.N,SW_CAN_MISO*%
X98112500Y-49825000D02*
X99620500Y-49825000D01*
X99620500Y-49825000D02*
X99695000Y-49750500D01*
X125831600Y-57170000D02*
X121940000Y-57170000D01*
X121940000Y-57170000D02*
X121285000Y-56515000D01*
%TO.N,SW_CAN_MOSI*%
X129194999Y-50123716D02*
X129672870Y-49645845D01*
X129194999Y-52806600D02*
X129194999Y-50123716D01*
X101600000Y-49530000D02*
X100655000Y-50475000D01*
X100655000Y-50475000D02*
X98112500Y-50475000D01*
%TO.N,SW_CAN_SCK*%
X128695000Y-49213505D02*
X128919499Y-48989006D01*
X99124104Y-51775000D02*
X99652582Y-51246522D01*
X128695000Y-52806600D02*
X128695000Y-49213505D01*
X98800361Y-51775000D02*
X99124104Y-51775000D01*
%TO.N,CLK_CPU*%
X128194999Y-44543950D02*
X128098550Y-44447501D01*
X128194999Y-52806600D02*
X128194999Y-44543950D01*
%TO.N,~{SW_CAN_INT}*%
X117725000Y-58670000D02*
X111435000Y-52380000D01*
X125831600Y-58670000D02*
X117725000Y-58670000D01*
X111435000Y-52380000D02*
X108907500Y-52380000D01*
%TO.N,SWCLK*%
X131695000Y-64033400D02*
X131695000Y-65551084D01*
X135358916Y-69215000D02*
X144145000Y-69215000D01*
X148610000Y-69175000D02*
X148610000Y-66695000D01*
X131695000Y-65551084D02*
X135358916Y-69215000D01*
%TO.N,Net-(U202-Pad3)*%
X130810000Y-45085000D02*
X130810000Y-43815000D01*
X131540000Y-45815000D02*
X130810000Y-45085000D01*
X128098550Y-42547499D02*
X129542499Y-42547499D01*
X129542499Y-42547499D02*
X130810000Y-43815000D01*
X133350000Y-45815000D02*
X131540000Y-45815000D01*
%TO.N,CLK_USB*%
X153110000Y-59130000D02*
X153110000Y-57825000D01*
X153670000Y-59690000D02*
X153110000Y-59130000D01*
X125507750Y-42547499D02*
X124462499Y-42547499D01*
X124462499Y-42547499D02*
X123825000Y-41910000D01*
%TO.N,CLK_CAN*%
X93610000Y-53075000D02*
X93980000Y-52705000D01*
X92387500Y-53075000D02*
X93610000Y-53075000D01*
X121920000Y-42545000D02*
X123822501Y-44447501D01*
X125507750Y-44447501D02*
X123822501Y-44447501D01*
%TO.N,~{MS_CAN_EN_5V}*%
X95552500Y-78105000D02*
X95552500Y-73992500D01*
X97155000Y-78105000D02*
X97790000Y-78740000D01*
X96240000Y-73305000D02*
X96240000Y-72730000D01*
X95552500Y-78105000D02*
X97155000Y-78105000D01*
X95552500Y-73992500D02*
X96240000Y-73305000D01*
%TO.N,SW_CAN_TX*%
X86360000Y-53340000D02*
X86360000Y-56591200D01*
X92387500Y-47875000D02*
X90420000Y-47875000D01*
X90170000Y-49530000D02*
X86360000Y-53340000D01*
X90420000Y-47875000D02*
X90170000Y-47625000D01*
%TO.N,Net-(D1103-Pad2)*%
X154805000Y-108720000D02*
X152400000Y-111125000D01*
X154805000Y-83450000D02*
X154805000Y-108720000D01*
X152400000Y-111125000D02*
X149615000Y-111125000D01*
%TO.N,Net-(D1104-Pad2)*%
X154305000Y-104775000D02*
X151765000Y-107315000D01*
X154305000Y-83450000D02*
X154305000Y-104775000D01*
X151765000Y-107315000D02*
X149615000Y-107315000D01*
%TO.N,Net-(D1105-Pad2)*%
X153805000Y-83450000D02*
X153805000Y-102100000D01*
X151765000Y-104140000D02*
X149615000Y-104140000D01*
X153805000Y-102100000D02*
X151765000Y-104140000D01*
%TO.N,Net-(D1106-Pad2)*%
X153305000Y-83450000D02*
X153305000Y-99425000D01*
X151765000Y-100965000D02*
X149615000Y-100965000D01*
X153305000Y-99425000D02*
X151765000Y-100965000D01*
%TO.N,Net-(D1107-Pad2)*%
X152805000Y-83450000D02*
X152805000Y-93575717D01*
X151130000Y-97790000D02*
X149615000Y-97790000D01*
X152855480Y-93626197D02*
X152855480Y-96064520D01*
X152805000Y-93575717D02*
X152855480Y-93626197D01*
X152855480Y-96064520D02*
X151130000Y-97790000D01*
%TO.N,Net-(D1108-Pad2)*%
X152305000Y-83450000D02*
X152305000Y-93440000D01*
X151130000Y-94615000D02*
X149615000Y-94615000D01*
X152305000Y-93440000D02*
X151130000Y-94615000D01*
%TO.N,Net-(D1109-Pad2)*%
X151805000Y-83450000D02*
X151805000Y-90130000D01*
X151805000Y-90130000D02*
X150495000Y-91440000D01*
X150495000Y-91440000D02*
X149615000Y-91440000D01*
%TO.N,Net-(D1110-Pad2)*%
X151305000Y-83450000D02*
X151305000Y-87915000D01*
X151305000Y-87915000D02*
X150955000Y-88265000D01*
X150955000Y-88265000D02*
X149615000Y-88265000D01*
%TD*%
M02*
