%TF.GenerationSoftware,KiCad,Pcbnew,6.0.2+dfsg-1*%
%TF.CreationDate,2023-01-27T10:33:08-05:00*%
%TF.ProjectId,vehicle-can-collector,76656869-636c-4652-9d63-616e2d636f6c,rev?*%
%TF.SameCoordinates,Original*%
%TF.FileFunction,Copper,L2,Inr*%
%TF.FilePolarity,Positive*%
%FSLAX46Y46*%
G04 Gerber Fmt 4.6, Leading zero omitted, Abs format (unit mm)*
G04 Created by KiCad (PCBNEW 6.0.2+dfsg-1) date 2023-01-27 10:33:08*
%MOMM*%
%LPD*%
G01*
G04 APERTURE LIST*
G04 Aperture macros list*
%AMRoundRect*
0 Rectangle with rounded corners*
0 $1 Rounding radius*
0 $2 $3 $4 $5 $6 $7 $8 $9 X,Y pos of 4 corners*
0 Add a 4 corners polygon primitive as box body*
4,1,4,$2,$3,$4,$5,$6,$7,$8,$9,$2,$3,0*
0 Add four circle primitives for the rounded corners*
1,1,$1+$1,$2,$3*
1,1,$1+$1,$4,$5*
1,1,$1+$1,$6,$7*
1,1,$1+$1,$8,$9*
0 Add four rect primitives between the rounded corners*
20,1,$1+$1,$2,$3,$4,$5,0*
20,1,$1+$1,$4,$5,$6,$7,0*
20,1,$1+$1,$6,$7,$8,$9,0*
20,1,$1+$1,$8,$9,$2,$3,0*%
G04 Aperture macros list end*
%TA.AperFunction,ComponentPad*%
%ADD10RoundRect,0.250000X0.350000X0.625000X-0.350000X0.625000X-0.350000X-0.625000X0.350000X-0.625000X0*%
%TD*%
%TA.AperFunction,ComponentPad*%
%ADD11O,1.200000X1.750000*%
%TD*%
%TA.AperFunction,ComponentPad*%
%ADD12O,1.350000X1.700000*%
%TD*%
%TA.AperFunction,ComponentPad*%
%ADD13O,1.100000X1.500000*%
%TD*%
%TA.AperFunction,ComponentPad*%
%ADD14C,3.215640*%
%TD*%
%TA.AperFunction,ComponentPad*%
%ADD15C,2.000000*%
%TD*%
%TA.AperFunction,ComponentPad*%
%ADD16C,1.206500*%
%TD*%
%TA.AperFunction,ComponentPad*%
%ADD17R,1.600000X1.600000*%
%TD*%
%TA.AperFunction,ComponentPad*%
%ADD18O,1.600000X1.600000*%
%TD*%
%TA.AperFunction,ViaPad*%
%ADD19C,0.800000*%
%TD*%
%TA.AperFunction,Conductor*%
%ADD20C,0.250000*%
%TD*%
%TA.AperFunction,Conductor*%
%ADD21C,0.200000*%
%TD*%
G04 APERTURE END LIST*
D10*
%TO.N,GND*%
%TO.C,J303*%
X114490000Y-46990000D03*
D11*
%TO.N,+3V3*%
X112490000Y-46990000D03*
%TO.N,SDA*%
X110490000Y-46990000D03*
%TO.N,SCL*%
X108490000Y-46990000D03*
%TD*%
D12*
%TO.N,GND*%
%TO.C,J302*%
X160155000Y-42180000D03*
D13*
X165305000Y-45180000D03*
X160465000Y-45180000D03*
D12*
X165615000Y-42180000D03*
%TD*%
D14*
%TO.N,MS_CAN_HI*%
%TO.C,J401*%
X85234780Y-76418440D03*
%TO.N,HS_CAN_HI*%
X85234780Y-88265000D03*
%TO.N,K_LINE*%
X85234780Y-92214700D03*
%TD*%
D15*
%TO.N,GND*%
%TO.C,SW201*%
X147245000Y-43470000D03*
X153745000Y-43470000D03*
%TO.N,Net-(R201-Pad2)*%
X147245000Y-47970000D03*
X153745000Y-47970000D03*
%TD*%
D16*
%TO.N,+3V3*%
%TO.C,J304*%
X141889480Y-49413160D03*
%TD*%
D17*
%TO.N,+3V3*%
%TO.C,RN701*%
X95240000Y-59055000D03*
D18*
%TO.N,~{SW_CAN_STATUS_INT}*%
X97780000Y-59055000D03*
%TO.N,~{SW_CAN_RX0BF}*%
X100320000Y-59055000D03*
%TO.N,~{SW_CAN_RX1BF}*%
X102860000Y-59055000D03*
%TO.N,~{SW_CAN_TX0RTS}*%
X105400000Y-59055000D03*
%TO.N,~{SW_CAN_TX1RTS}*%
X107940000Y-59055000D03*
%TO.N,~{SW_CAN_TX2RTS}*%
X110480000Y-59055000D03*
%TO.N,~{SW_CAN_RESET}*%
X113020000Y-59055000D03*
%TD*%
D19*
%TO.N,Net-(C201-Pad1)*%
X130805775Y-65456676D03*
%TO.N,GND*%
X104886289Y-54109113D03*
X135255000Y-118745000D03*
X144780000Y-55880000D03*
X86995000Y-59055000D03*
X86995000Y-63500000D03*
X145415000Y-104140000D03*
X101600000Y-50800000D03*
X124123599Y-61961489D03*
X137160000Y-78105000D03*
X83185000Y-104140000D03*
X146685000Y-64135000D03*
X90805000Y-111125000D03*
X77470000Y-113665000D03*
X95885000Y-135890000D03*
X112395000Y-96520000D03*
X97790000Y-85725000D03*
X116840000Y-127635000D03*
X130354011Y-62732101D03*
X116840000Y-139065000D03*
X153670000Y-66675000D03*
X129540000Y-43815000D03*
X146050000Y-71120000D03*
X151130000Y-59690000D03*
X91440000Y-105410000D03*
X85725000Y-127635000D03*
X154940000Y-57785000D03*
X162247500Y-69537500D03*
X125095000Y-99695000D03*
X130810000Y-108585000D03*
X140970000Y-81915000D03*
X131445000Y-42545000D03*
X118745000Y-105320500D03*
X143510000Y-110490000D03*
X114935000Y-112395000D03*
X135915000Y-70460000D03*
X85090537Y-110460642D03*
X107315000Y-91440000D03*
X127975000Y-77130000D03*
X145415000Y-94615000D03*
X80645000Y-116840000D03*
X154325000Y-75565000D03*
X135255000Y-58420000D03*
X101600000Y-110871000D03*
X88900000Y-75565000D03*
X102235000Y-44450000D03*
X152400000Y-53975000D03*
X121285000Y-117475000D03*
X124460000Y-81915000D03*
X132080000Y-112395000D03*
X104140000Y-68580000D03*
X121285000Y-126365000D03*
X140970000Y-114935000D03*
X157500000Y-78105000D03*
X108917500Y-132382500D03*
X118110000Y-84455000D03*
X87630000Y-62230000D03*
X132715000Y-50800000D03*
X121285000Y-94615000D03*
X88900000Y-69215000D03*
X90805000Y-53975000D03*
X109220000Y-128270000D03*
X147955000Y-59690000D03*
X128270000Y-100965000D03*
X127000000Y-54445499D03*
X139065000Y-102870000D03*
X97790000Y-69850000D03*
X114935000Y-95885000D03*
X116205000Y-122555000D03*
X90805000Y-87540500D03*
X97790000Y-123190000D03*
X91440000Y-84455000D03*
X109855000Y-117475000D03*
X132080000Y-99060000D03*
X91440000Y-125095000D03*
X132715000Y-126365000D03*
X96180000Y-116545000D03*
X81280000Y-113119500D03*
X121920000Y-121285000D03*
X101600000Y-136525000D03*
X100965000Y-108585000D03*
X112395000Y-117475000D03*
%TO.N,+1V8*%
X147955000Y-71755000D03*
X157408245Y-60396755D03*
X157480000Y-67945000D03*
X148590000Y-55880000D03*
%TO.N,+5V*%
X105410000Y-89535000D03*
X97155000Y-83185000D03*
X135890000Y-104775000D03*
X135890000Y-99695000D03*
X125095000Y-112395000D03*
X101600000Y-65405000D03*
X105410000Y-78105000D03*
X140970000Y-93980000D03*
X92075000Y-95885000D03*
X99695000Y-80645000D03*
%TO.N,+12V_SW*%
X113665000Y-112395000D03*
X106045000Y-112395000D03*
X80645000Y-61595000D03*
X89535000Y-112395000D03*
%TO.N,V_J1850*%
X123825000Y-130175000D03*
X127635000Y-121285000D03*
%TO.N,Net-(C510-Pad1)*%
X122555000Y-94615000D03*
%TO.N,+3V3*%
X97155000Y-96520000D03*
X126030219Y-69450321D03*
X104775000Y-81915000D03*
X142240000Y-83820000D03*
X128905000Y-83185000D03*
X118745000Y-102870000D03*
X150495000Y-71755000D03*
X140970000Y-45720000D03*
X96520000Y-131445000D03*
X163195000Y-56515000D03*
X109855000Y-125095000D03*
X84455000Y-113119500D03*
X156845000Y-50800000D03*
X100965000Y-96520000D03*
X139065000Y-116840000D03*
X146050000Y-83185000D03*
X81190500Y-106680000D03*
X133985000Y-54610000D03*
X146700000Y-60325000D03*
X134709500Y-83185000D03*
X147904200Y-50850800D03*
X106680000Y-76200000D03*
X157500000Y-80010000D03*
X141605000Y-66675000D03*
X128572500Y-105712500D03*
X98425000Y-114935000D03*
X158115000Y-66675000D03*
X95250000Y-96520000D03*
X163195000Y-59690000D03*
X80601218Y-103512022D03*
X105410000Y-96520000D03*
X123825000Y-43180000D03*
X123914500Y-54610000D03*
X100965000Y-64135000D03*
X131406926Y-62715950D03*
X109220000Y-48895000D03*
X147320000Y-80010000D03*
X165735000Y-71120000D03*
X140335000Y-76200000D03*
X88900000Y-44450000D03*
X80010000Y-55245000D03*
X99060000Y-127635000D03*
X136525000Y-108585000D03*
X163195000Y-53340000D03*
X158115000Y-63500000D03*
X138430000Y-83820000D03*
X125005500Y-63410500D03*
X92345000Y-77105000D03*
%TO.N,+3.3VA*%
X138430000Y-58420000D03*
%TO.N,BAT_LEVEL*%
X92075000Y-113665000D03*
X135890000Y-53975000D03*
X125730000Y-48260000D03*
X101600000Y-98425000D03*
X109220000Y-64770000D03*
X120015000Y-53975000D03*
X107950000Y-85090000D03*
%TO.N,SAE_LEVEL*%
X134797122Y-65862878D03*
X129450500Y-71755000D03*
X102870000Y-114300000D03*
X111125000Y-94615000D03*
X133439500Y-68580000D03*
X102870000Y-98425000D03*
%TO.N,+5V_SW*%
X111125000Y-103505000D03*
X109220000Y-88265000D03*
X109220000Y-94615000D03*
X107950000Y-71755000D03*
X109220000Y-78740000D03*
X127000000Y-126365000D03*
X88265000Y-123190000D03*
X123190000Y-109855000D03*
X128905000Y-109855000D03*
%TO.N,+3V3_SW*%
X133822650Y-78267350D03*
X133985000Y-89535000D03*
X104775000Y-47625000D03*
X133985000Y-101600000D03*
X128587500Y-103822500D03*
X126202650Y-70647350D03*
%TO.N,SW_CAN*%
X85090000Y-64770000D03*
%TO.N,VPLL*%
X157480000Y-58420000D03*
X149834500Y-59169011D03*
%TO.N,VPHY*%
X152400000Y-59690000D03*
X158115000Y-59690000D03*
%TO.N,K_LINE*%
X77724000Y-104775000D03*
%TO.N,J1850_BUS+*%
X109855000Y-120015000D03*
X110585000Y-134715000D03*
X84455000Y-134620000D03*
%TO.N,J1850_BUS-*%
X117410500Y-130175000D03*
X74930000Y-122555000D03*
X101600000Y-133985000D03*
%TO.N,HS_CAN_HI*%
X95059500Y-89090500D03*
%TO.N,MS_CAN_HI*%
X93980000Y-74549000D03*
%TO.N,VBUS*%
X144780000Y-100965000D03*
X164465000Y-55880000D03*
%TO.N,Net-(D901-Pad3)*%
X82990201Y-106485201D03*
%TO.N,Net-(D1101-Pad1)*%
X131445000Y-88265000D03*
%TO.N,Net-(D1102-Pad1)*%
X132715000Y-88265000D03*
%TO.N,Net-(D1111-Pad1)*%
X136525000Y-88265000D03*
%TO.N,Net-(D1112-Pad1)*%
X144145000Y-87995000D03*
%TO.N,Net-(D1113-Pad1)*%
X140335000Y-88265000D03*
%TO.N,VBAT*%
X85090000Y-118745000D03*
X74930000Y-100965000D03*
X73025000Y-118745000D03*
%TO.N,~{SDCARD_CS}*%
X129450500Y-59958511D03*
X133439500Y-59690000D03*
X136525000Y-73025000D03*
%TO.N,SDCARD_MOSI*%
X129540000Y-58509500D03*
X136525000Y-74295000D03*
X129348158Y-67945000D03*
%TO.N,SDCARD_SCK*%
X136525000Y-75565000D03*
X131990500Y-59690000D03*
X130797169Y-68203232D03*
%TO.N,SDCARD_MISO*%
X135890000Y-78105000D03*
X128815500Y-76200000D03*
X123190000Y-61604561D03*
X123785351Y-69254649D03*
%TO.N,~{SDCARD_DETECT}*%
X130810000Y-69215000D03*
X133985000Y-50800000D03*
%TO.N,SDA*%
X119650497Y-66675000D03*
X118745000Y-57150000D03*
X119380000Y-76835000D03*
X132080000Y-80010000D03*
X143510000Y-79375000D03*
%TO.N,SCL*%
X120650000Y-76200000D03*
X119469500Y-67945000D03*
X117669799Y-57344799D03*
X143510000Y-78105000D03*
X132080000Y-78740000D03*
%TO.N,~{PWR_CTRL}*%
X113665000Y-103505000D03*
X123825000Y-106045000D03*
X131445000Y-50800000D03*
X129540000Y-88900000D03*
%TO.N,+12V_ISO*%
X95250000Y-99695000D03*
X88265000Y-97155000D03*
X79121000Y-109601000D03*
X104775000Y-99695000D03*
X83185000Y-99060000D03*
X114935000Y-99695000D03*
%TO.N,SAE_PWM*%
X128369365Y-67742586D03*
X122555000Y-78105000D03*
X104775000Y-132080000D03*
X125730000Y-71755000D03*
X139065000Y-90805000D03*
X127635000Y-89535000D03*
X139065000Y-121920000D03*
%TO.N,HS_CAN_TX*%
X127071755Y-66111755D03*
X110490000Y-91440000D03*
X125095000Y-65405000D03*
X103505000Y-92710000D03*
X110490000Y-83185000D03*
X118199500Y-65405000D03*
%TO.N,MS_CAN_TX*%
X121285000Y-60960000D03*
X107315000Y-73025000D03*
X130280803Y-55368162D03*
X116840000Y-61959503D03*
%TO.N,HS_CAN_RX*%
X102235000Y-80645000D03*
X106680000Y-80010000D03*
X117475000Y-64135000D03*
X121285000Y-64135000D03*
X127778510Y-66818510D03*
%TO.N,MS_CAN_RX*%
X129629500Y-54610000D03*
X95885000Y-62230000D03*
X122527194Y-60155550D03*
X116840000Y-60960000D03*
%TO.N,~{HS_CAN_EN}*%
X120650000Y-66675000D03*
X130175000Y-50800000D03*
X99695000Y-92710000D03*
X126955798Y-64135000D03*
X111214500Y-81915000D03*
X131355500Y-56515000D03*
%TO.N,~{MS_CAN_EN}*%
X107315000Y-74930000D03*
X95885000Y-79375000D03*
X99695000Y-76835000D03*
X125730000Y-64135000D03*
X116205000Y-62865000D03*
X130175000Y-56515000D03*
%TO.N,SW_CAN_LOAD*%
X110490000Y-56515000D03*
X114935000Y-52070000D03*
X123190000Y-52159500D03*
X92710000Y-59690000D03*
%TO.N,Net-(Q707-Pad3)*%
X93345000Y-62230000D03*
%TO.N,SAE_VPW*%
X105410000Y-130175000D03*
X104775000Y-125730000D03*
%TO.N,J1850_RX*%
X117475000Y-76200000D03*
X114300000Y-98425000D03*
X123825000Y-73660000D03*
X113665000Y-92075000D03*
X104451250Y-128581250D03*
X111125000Y-106045000D03*
X129360989Y-69165878D03*
X104140000Y-123825000D03*
%TO.N,J1850_TX+*%
X133985000Y-71755000D03*
X118110000Y-133985000D03*
X128270000Y-81915000D03*
X136525000Y-67220500D03*
X125794511Y-90359489D03*
X118110000Y-120650000D03*
X125794511Y-98106489D03*
%TO.N,J1850_TX-*%
X132715000Y-90080500D03*
X136593404Y-71194011D03*
X135766838Y-66569197D03*
X119380000Y-121920000D03*
X133350000Y-74930000D03*
X133985000Y-103505000D03*
%TO.N,ISO_K*%
X110490000Y-74295000D03*
X83312359Y-102743359D03*
X106045000Y-81369500D03*
X78740000Y-104648000D03*
X86995000Y-99695000D03*
X116205000Y-59690000D03*
%TO.N,ISO_L*%
X76200000Y-103505000D03*
%TO.N,ISO_LINE*%
X80645000Y-105499500D03*
X75565000Y-109220000D03*
%TO.N,~{RESET}*%
X147320000Y-62865000D03*
X127635000Y-62697298D03*
X147955000Y-53340000D03*
X139700000Y-62230000D03*
X151110000Y-66695000D03*
%TO.N,Net-(R302-Pad2)*%
X145360500Y-54610000D03*
X156210000Y-55880000D03*
%TO.N,Net-(R303-Pad1)*%
X151765000Y-56419020D03*
%TO.N,SWDIO*%
X144145000Y-71755000D03*
X142875000Y-67945000D03*
X149860000Y-66675000D03*
%TO.N,Net-(R306-Pad2)*%
X167005000Y-62865000D03*
X163195000Y-62230000D03*
%TO.N,Net-(R307-Pad2)*%
X167005000Y-64135000D03*
X158821755Y-62793245D03*
X154162412Y-62875761D03*
%TO.N,SW_CAN_MODE0*%
X86995000Y-48260000D03*
X117475000Y-46990000D03*
X116205000Y-41185500D03*
X85090000Y-54610000D03*
X130521074Y-58218139D03*
%TO.N,SW_CAN_MODE1*%
X84455000Y-48260000D03*
X118745000Y-46355000D03*
X83820000Y-54610000D03*
X131355500Y-57514503D03*
X117475000Y-41185500D03*
%TO.N,Net-(R720-Pad2)*%
X83820000Y-59690000D03*
X80010000Y-63500000D03*
%TO.N,Net-(R905-Pad2)*%
X83185000Y-110490000D03*
%TO.N,~{ISO_RX}*%
X99695000Y-91440000D03*
X134317567Y-60167497D03*
X128905000Y-60960000D03*
X121920000Y-67945000D03*
X84455000Y-107315000D03*
X92146755Y-98496755D03*
X121285000Y-62140500D03*
X111849500Y-79375000D03*
%TO.N,~{ISO_TX}*%
X98425000Y-91440000D03*
X127167702Y-61640174D03*
X78105000Y-114935000D03*
X122626755Y-68651755D03*
X133923597Y-61139011D03*
X123190000Y-62865000D03*
X113665000Y-78105000D03*
X91440000Y-97790000D03*
%TO.N,~{LED_UART_RX}*%
X140335000Y-66675000D03*
X140970000Y-80010000D03*
X132837693Y-80767693D03*
%TO.N,~{LED_UART_TX}*%
X135255000Y-81280000D03*
X142150500Y-69939500D03*
X142240000Y-80010000D03*
X146050000Y-66040000D03*
%TO.N,~{LED_OBD_ACT}*%
X144780000Y-82550000D03*
X137795000Y-64135000D03*
%TO.N,~{LED_HOST_ACT}*%
X135890000Y-62894500D03*
X140970000Y-83185000D03*
%TO.N,~{LED_STATUS}*%
X136525000Y-82550000D03*
X134026624Y-62728482D03*
%TO.N,~{SW_CAN_STATUS_INT}*%
X100941199Y-51953344D03*
%TO.N,~{SW_CAN_RX0BF}*%
X101600000Y-52705000D03*
%TO.N,~{SW_CAN_RX1BF}*%
X100965000Y-53605500D03*
%TO.N,~{SW_CAN_TX0RTS}*%
X101880000Y-54330000D03*
%TO.N,~{SW_CAN_TX2RTS}*%
X100330000Y-55155500D03*
X95885000Y-55245000D03*
%TO.N,~{SW_CAN_RESET}*%
X105338245Y-52776755D03*
X102870000Y-49619500D03*
%TO.N,SW_CAN_SOF*%
X93980000Y-48895000D03*
X106045000Y-52070000D03*
%TO.N,~{OUTPUT_RTS}*%
X142240000Y-62230000D03*
X141901950Y-56743428D03*
%TO.N,~{OUTPUT_CTS}*%
X145447847Y-60303309D03*
X142875000Y-56515000D03*
%TO.N,SW_CAN_CS*%
X96783501Y-49619500D03*
X95885000Y-45085000D03*
X124545795Y-47698180D03*
X122278593Y-56406470D03*
%TO.N,SW_CAN_MISO*%
X123825000Y-46990000D03*
X99695000Y-49750500D03*
X121285000Y-56515000D03*
X98425000Y-46355000D03*
%TO.N,SW_CAN_MOSI*%
X101600000Y-49530000D03*
X129672870Y-49645845D03*
X104775000Y-46355000D03*
%TO.N,SW_CAN_SCK*%
X128919499Y-48989006D03*
X99652582Y-51246522D03*
X102235000Y-47625000D03*
%TO.N,SWCLK*%
X144145000Y-69215000D03*
X148610000Y-66695000D03*
%TO.N,CLK_USB*%
X153670000Y-59690000D03*
X151675489Y-47079511D03*
X123825000Y-41910000D03*
X140970000Y-40640000D03*
%TO.N,CLK_CAN*%
X92075000Y-46355000D03*
X121920000Y-42545000D03*
X93980000Y-52705000D03*
%TO.N,SW_CAN_TX*%
X90170000Y-49530000D03*
X90170000Y-47625000D03*
%TD*%
D20*
%TO.N,+12V_SW*%
X80645000Y-61595000D02*
X74930000Y-61595000D01*
X73025000Y-63500000D02*
X73025000Y-110490000D01*
X73025000Y-110490000D02*
X74930000Y-112395000D01*
X74930000Y-112395000D02*
X89535000Y-112395000D01*
X106045000Y-112395000D02*
X113665000Y-112395000D01*
X73025000Y-63500000D02*
X74930000Y-61595000D01*
%TO.N,V_J1850*%
X123825000Y-130175000D02*
X123825000Y-125095000D01*
X123825000Y-125095000D02*
X127635000Y-121285000D01*
%TO.N,BAT_LEVEL*%
X101600000Y-104140000D02*
X101600000Y-98425000D01*
X129540000Y-48260000D02*
X125730000Y-48260000D01*
X130810000Y-49530000D02*
X129540000Y-48260000D01*
X135890000Y-53975000D02*
X135890000Y-50800000D01*
X134620000Y-49530000D02*
X130810000Y-49530000D01*
X92075000Y-113665000D02*
X101600000Y-104140000D01*
X135890000Y-50800000D02*
X134620000Y-49530000D01*
%TO.N,SAE_LEVEL*%
X129450500Y-71755000D02*
X129540011Y-71844511D01*
X102235000Y-99060000D02*
X102870000Y-98425000D01*
X102870000Y-114300000D02*
X102870000Y-107315000D01*
X129540011Y-77859603D02*
X112784614Y-94615000D01*
X112784614Y-94615000D02*
X111125000Y-94615000D01*
X102235000Y-106680000D02*
X102235000Y-99060000D01*
X102870000Y-107315000D02*
X102235000Y-106680000D01*
X129540011Y-71844511D02*
X129540011Y-77859603D01*
%TO.N,+5V_SW*%
X104140000Y-116205000D02*
X101600000Y-118745000D01*
X109220000Y-88265000D02*
X109220000Y-78740000D01*
X101600000Y-118745000D02*
X92710000Y-118745000D01*
X92710000Y-118745000D02*
X88265000Y-123190000D01*
X111125000Y-103505000D02*
X104140000Y-110490000D01*
X117475000Y-109855000D02*
X111125000Y-103505000D01*
X123190000Y-109855000D02*
X117475000Y-109855000D01*
X104140000Y-110490000D02*
X104140000Y-116205000D01*
%TO.N,+3V3_SW*%
X118110000Y-60325000D02*
X109220000Y-51435000D01*
X126202650Y-70647350D02*
X118110000Y-62554700D01*
X108585000Y-51435000D02*
X104775000Y-47625000D01*
X109220000Y-51435000D02*
X108585000Y-51435000D01*
X118110000Y-62554700D02*
X118110000Y-60325000D01*
X133985000Y-78429700D02*
X133822650Y-78267350D01*
X133985000Y-89535000D02*
X133985000Y-78429700D01*
D21*
%TO.N,J1850_BUS+*%
X97155000Y-135255000D02*
X96520000Y-134620000D01*
X96520000Y-134620000D02*
X84455000Y-134620000D01*
X110585000Y-134715000D02*
X110045000Y-135255000D01*
X110045000Y-135255000D02*
X97155000Y-135255000D01*
%TO.N,J1850_BUS-*%
X116710989Y-130874511D02*
X117410500Y-130175000D01*
X101600000Y-133985000D02*
X104710489Y-130874511D01*
X104710489Y-130874511D02*
X116710989Y-130874511D01*
D20*
%TO.N,VBUS*%
X144780000Y-100965000D02*
X144780000Y-99060000D01*
X164465000Y-79375000D02*
X164465000Y-55880000D01*
X144780000Y-99060000D02*
X164465000Y-79375000D01*
%TO.N,VBAT*%
X85090000Y-118745000D02*
X73025000Y-118745000D01*
%TO.N,~{SDCARD_CS}*%
X133164520Y-59964980D02*
X133164520Y-67496198D01*
X132715000Y-69215000D02*
X136525000Y-73025000D01*
X132715000Y-67945718D02*
X132715000Y-69215000D01*
X133439500Y-59690000D02*
X133164520Y-59964980D01*
X133164520Y-67496198D02*
X132715000Y-67945718D01*
%TO.N,SDCARD_MOSI*%
X129348158Y-67945000D02*
X129348158Y-67609663D01*
X129066266Y-67327771D02*
X129066266Y-62230000D01*
X130175000Y-59055000D02*
X129629500Y-58509500D01*
X129348158Y-67609663D02*
X129066266Y-67327771D01*
X130175000Y-61121266D02*
X130175000Y-59055000D01*
X129066266Y-62230000D02*
X130175000Y-61121266D01*
X129629500Y-58509500D02*
X129540000Y-58509500D01*
%TO.N,SDCARD_SCK*%
X132265480Y-66734921D02*
X130797169Y-68203232D01*
X132265480Y-59964980D02*
X132265480Y-66734921D01*
X131990500Y-59690000D02*
X132265480Y-59964980D01*
%TO.N,SDCARD_MISO*%
X128815500Y-76200000D02*
X123785351Y-71169851D01*
X123785351Y-71169851D02*
X123785351Y-69254649D01*
%TO.N,~{SDCARD_DETECT}*%
X132715000Y-67310000D02*
X132715000Y-53975000D01*
X133985000Y-52705000D02*
X133985000Y-50800000D01*
X130810000Y-69215000D02*
X132715000Y-67310000D01*
X132715000Y-53975000D02*
X133985000Y-52705000D01*
%TO.N,~{PWR_CTRL}*%
X130072658Y-68503335D02*
X130072658Y-67310000D01*
X129612106Y-62449392D02*
X131265989Y-60795509D01*
X116205000Y-106045000D02*
X123825000Y-106045000D01*
X130085489Y-69515103D02*
X130085489Y-68516166D01*
X129540000Y-88900000D02*
X130175000Y-88265000D01*
X132080000Y-51435000D02*
X131445000Y-50800000D01*
X130175000Y-69604614D02*
X130085489Y-69515103D01*
X129612106Y-66849448D02*
X129612106Y-62449392D01*
X130175000Y-88265000D02*
X130175000Y-69604614D01*
X131265989Y-60795509D02*
X131265989Y-59234011D01*
X113665000Y-103505000D02*
X116205000Y-106045000D01*
X130085489Y-68516166D02*
X130072658Y-68503335D01*
X130072658Y-67310000D02*
X129612106Y-66849448D01*
X131265989Y-59234011D02*
X132080000Y-58420000D01*
X132080000Y-58420000D02*
X132080000Y-51435000D01*
%TO.N,+12V_ISO*%
X82265201Y-99979799D02*
X83185000Y-99060000D01*
X86360000Y-99060000D02*
X88265000Y-97155000D01*
X82265201Y-106964799D02*
X82265201Y-99979799D01*
X79121000Y-109601000D02*
X79629000Y-109601000D01*
X83185000Y-99060000D02*
X86360000Y-99060000D01*
X79629000Y-109601000D02*
X82265201Y-106964799D01*
X95250000Y-99695000D02*
X90805000Y-99695000D01*
X90805000Y-99695000D02*
X88265000Y-97155000D01*
X114935000Y-99695000D02*
X104775000Y-99695000D01*
%TO.N,SAE_PWM*%
X128369365Y-67742586D02*
X128369365Y-69505249D01*
X126119614Y-71755000D02*
X125730000Y-71755000D01*
X105197011Y-131657989D02*
X104775000Y-132080000D01*
X128905000Y-90805000D02*
X139065000Y-90805000D01*
X128369365Y-69505249D02*
X126119614Y-71755000D01*
X127635000Y-89535000D02*
X128905000Y-90805000D01*
X129327011Y-131657989D02*
X105197011Y-131657989D01*
X139065000Y-121920000D02*
X129327011Y-131657989D01*
%TO.N,HS_CAN_TX*%
X110490000Y-77470000D02*
X110490000Y-83185000D01*
X118110000Y-69850000D02*
X110490000Y-77470000D01*
X127053999Y-66129511D02*
X125819511Y-66129511D01*
X103505000Y-92710000D02*
X109220000Y-92710000D01*
X127071755Y-66111755D02*
X127053999Y-66129511D01*
X118110000Y-65494500D02*
X118110000Y-69850000D01*
X118199500Y-65405000D02*
X118110000Y-65494500D01*
X125819511Y-66129511D02*
X125095000Y-65405000D01*
X109220000Y-92710000D02*
X110490000Y-91440000D01*
%TO.N,MS_CAN_TX*%
X115480489Y-62564897D02*
X116085883Y-61959503D01*
X116085883Y-61959503D02*
X116840000Y-61959503D01*
X115480489Y-65530274D02*
X115480489Y-62564897D01*
X107985763Y-73025000D02*
X115480489Y-65530274D01*
X107315000Y-73025000D02*
X107985763Y-73025000D01*
%TO.N,HS_CAN_RX*%
X117475000Y-69215000D02*
X117475000Y-64135000D01*
X127778510Y-66818510D02*
X127760754Y-66836266D01*
X127760754Y-66836266D02*
X125256266Y-66836266D01*
X106680000Y-80010000D02*
X117475000Y-69215000D01*
X122555000Y-64135000D02*
X121285000Y-64135000D01*
X125256266Y-66836266D02*
X122555000Y-64135000D01*
%TO.N,MS_CAN_RX*%
X95885000Y-62230000D02*
X97155000Y-60960000D01*
X97155000Y-60960000D02*
X116840000Y-60960000D01*
%TO.N,~{HS_CAN_EN}*%
X111125000Y-78105000D02*
X120650000Y-68580000D01*
X130175000Y-53340000D02*
X130175000Y-50800000D01*
X131445000Y-56425500D02*
X131445000Y-54610000D01*
X111125000Y-81825500D02*
X111125000Y-78105000D01*
X131445000Y-54610000D02*
X130175000Y-53340000D01*
X120650000Y-68580000D02*
X120650000Y-66675000D01*
X131355500Y-56515000D02*
X131445000Y-56425500D01*
X111214500Y-81915000D02*
X111125000Y-81825500D01*
%TO.N,~{MS_CAN_EN}*%
X108585718Y-73660000D02*
X111125000Y-71120718D01*
X108585000Y-73660000D02*
X108585718Y-73660000D01*
X111125000Y-71120000D02*
X116205000Y-66040000D01*
X116205000Y-66040000D02*
X116205000Y-62865000D01*
X98425000Y-76835000D02*
X99695000Y-76835000D01*
X107315000Y-74930000D02*
X108585000Y-73660000D01*
X95885000Y-79375000D02*
X98425000Y-76835000D01*
X111125000Y-71120718D02*
X111125000Y-71120000D01*
%TO.N,SW_CAN_LOAD*%
X93980000Y-56515000D02*
X110490000Y-56515000D01*
X92710000Y-57785000D02*
X93980000Y-56515000D01*
X92710000Y-59690000D02*
X92710000Y-57785000D01*
X114935000Y-52070000D02*
X115024500Y-52159500D01*
X115024500Y-52159500D02*
X123190000Y-52159500D01*
%TO.N,SAE_VPW*%
X105410000Y-130175000D02*
X105410000Y-126365000D01*
X105410000Y-126365000D02*
X104775000Y-125730000D01*
%TO.N,J1850_RX*%
X102870000Y-127635000D02*
X102870000Y-125095000D01*
X102870000Y-125095000D02*
X104140000Y-123825000D01*
X120015000Y-73660000D02*
X117475000Y-76200000D01*
X123825000Y-73660000D02*
X120015000Y-73660000D01*
X103816250Y-128581250D02*
X102870000Y-127635000D01*
X104451250Y-128581250D02*
X103816250Y-128581250D01*
D21*
%TO.N,J1850_TX+*%
X125794511Y-109790489D02*
X125794511Y-98106489D01*
X125794511Y-90359489D02*
X125794511Y-84390489D01*
X118110000Y-117475000D02*
X125794511Y-109790489D01*
X118110000Y-120650000D02*
X118110000Y-117475000D01*
X125794511Y-84390489D02*
X128270000Y-81915000D01*
%TO.N,J1850_TX-*%
X133537204Y-80477945D02*
X133537204Y-88712796D01*
X133123139Y-75156861D02*
X133123139Y-80063880D01*
X133123139Y-80063880D02*
X133537204Y-80477945D01*
X136614511Y-70170252D02*
X136614511Y-71172904D01*
X135766838Y-66569197D02*
X135766838Y-69322579D01*
X133537204Y-88712796D02*
X132715000Y-89535000D01*
X119380000Y-117120741D02*
X119380000Y-121920000D01*
X135766838Y-69322579D02*
X136614511Y-70170252D01*
X136614511Y-71172904D02*
X136593404Y-71194011D01*
X132995741Y-103505000D02*
X119380000Y-117120741D01*
X133350000Y-74930000D02*
X133123139Y-75156861D01*
X132715000Y-89535000D02*
X132715000Y-90080500D01*
X133985000Y-103505000D02*
X132995741Y-103505000D01*
D20*
%TO.N,ISO_K*%
X105410000Y-79375000D02*
X110490000Y-74295000D01*
X86360718Y-99695000D02*
X86995000Y-99695000D01*
X106045000Y-81369500D02*
X106045000Y-80645000D01*
X106045000Y-80645000D02*
X105410000Y-80010000D01*
X83312359Y-102743359D02*
X86360718Y-99695000D01*
X105410000Y-80010000D02*
X105410000Y-79375000D01*
%TO.N,ISO_LINE*%
X80645000Y-105499500D02*
X79285500Y-105499500D01*
X79285500Y-105499500D02*
X75565000Y-109220000D01*
%TO.N,~{RESET}*%
X147230489Y-62954511D02*
X140424511Y-62954511D01*
X140424511Y-62954511D02*
X139700000Y-62230000D01*
X147320000Y-62865000D02*
X147230489Y-62954511D01*
X147955000Y-53975000D02*
X147955000Y-53340000D01*
X139700000Y-62230000D02*
X147955000Y-53975000D01*
%TO.N,SWDIO*%
X142875000Y-70485000D02*
X142875000Y-67945000D01*
X144145000Y-71755000D02*
X142875000Y-70485000D01*
%TO.N,SW_CAN_MODE0*%
X129688699Y-57689031D02*
X128359511Y-56359843D01*
X129991966Y-57689031D02*
X129688699Y-57689031D01*
X125730000Y-51435000D02*
X121920000Y-51435000D01*
X121920000Y-51435000D02*
X117475000Y-46990000D01*
X128359511Y-56359843D02*
X128359511Y-54064511D01*
X130521074Y-58218139D02*
X129991966Y-57689031D01*
X116115500Y-41275000D02*
X116205000Y-41185500D01*
X89535000Y-41275000D02*
X116115500Y-41275000D01*
X86995000Y-43815000D02*
X89535000Y-41275000D01*
X128359511Y-54064511D02*
X125730000Y-51435000D01*
X86995000Y-48260000D02*
X86995000Y-43815000D01*
%TO.N,SW_CAN_MODE1*%
X126365000Y-50800000D02*
X123190000Y-50800000D01*
X116750489Y-40460989D02*
X117475000Y-41185500D01*
X131355500Y-57514503D02*
X131080508Y-57239511D01*
X88900000Y-40640000D02*
X114935000Y-40640000D01*
X115114011Y-40460989D02*
X116750489Y-40460989D01*
X84455000Y-45085000D02*
X88900000Y-40640000D01*
X123190000Y-50800000D02*
X118745000Y-46355000D01*
X128905000Y-56269614D02*
X128905000Y-53340000D01*
X114935000Y-40640000D02*
X115114011Y-40460989D01*
X128905000Y-53340000D02*
X126365000Y-50800000D01*
X131080508Y-57239511D02*
X129874897Y-57239511D01*
X84455000Y-48260000D02*
X84455000Y-45085000D01*
X129874897Y-57239511D02*
X128905000Y-56269614D01*
%TO.N,Net-(R720-Pad2)*%
X80010000Y-63500000D02*
X82550000Y-63500000D01*
X82550000Y-63500000D02*
X83820000Y-62230000D01*
X83820000Y-62230000D02*
X83820000Y-59690000D01*
%TO.N,~{ISO_RX}*%
X121285000Y-69215000D02*
X121285000Y-68580000D01*
X122644511Y-60870489D02*
X121374500Y-62140500D01*
X128815489Y-60870489D02*
X122644511Y-60870489D01*
X121374500Y-62140500D02*
X121285000Y-62140500D01*
X111849500Y-79375000D02*
X111849500Y-78650500D01*
X95339511Y-95795489D02*
X99695000Y-91440000D01*
X121285000Y-68580000D02*
X121920000Y-67945000D01*
X128905000Y-60960000D02*
X128815489Y-60870489D01*
X94848021Y-95795489D02*
X95339511Y-95795489D01*
X92146755Y-98496755D02*
X94848021Y-95795489D01*
X111849500Y-78650500D02*
X121285000Y-69215000D01*
%TO.N,~{ISO_TX}*%
X127167702Y-61762184D02*
X126243897Y-62685989D01*
X91440000Y-97790000D02*
X97790000Y-91440000D01*
X97790000Y-91440000D02*
X98425000Y-91440000D01*
X123369011Y-62685989D02*
X123190000Y-62865000D01*
X126243897Y-62685989D02*
X123369011Y-62685989D01*
X122626755Y-69143245D02*
X122626755Y-68651755D01*
X113665000Y-78105000D02*
X122626755Y-69143245D01*
X127167702Y-61640174D02*
X127167702Y-61762184D01*
%TO.N,~{LED_UART_RX}*%
X141059511Y-67399511D02*
X141059511Y-79920489D01*
X141059511Y-79920489D02*
X140970000Y-80010000D01*
X140335000Y-66675000D02*
X141059511Y-67399511D01*
%TO.N,~{LED_UART_TX}*%
X142150500Y-79920500D02*
X142240000Y-80010000D01*
X142150500Y-69939500D02*
X142150500Y-79920500D01*
%TO.N,~{LED_OBD_ACT}*%
X140562989Y-81190489D02*
X139065000Y-79692500D01*
X139065000Y-79692500D02*
X139065000Y-65405000D01*
X144780000Y-82550000D02*
X143420489Y-81190489D01*
X139065000Y-65405000D02*
X137795000Y-64135000D01*
X143420489Y-81190489D02*
X140562989Y-81190489D01*
%TO.N,~{LED_HOST_ACT}*%
X140970000Y-83185000D02*
X140335000Y-83185000D01*
X138430000Y-81280000D02*
X138430000Y-66675000D01*
X140335000Y-83185000D02*
X138430000Y-81280000D01*
X138430000Y-66675000D02*
X135890000Y-64135000D01*
X135890000Y-64135000D02*
X135890000Y-62894500D01*
%TO.N,~{LED_STATUS}*%
X137249511Y-72724897D02*
X136825103Y-72300489D01*
X137249511Y-73114511D02*
X137249511Y-72724897D01*
X134026624Y-69017490D02*
X134164011Y-68880103D01*
X134026624Y-69890906D02*
X134026624Y-69017490D01*
X134026624Y-68142510D02*
X134026624Y-62728482D01*
X134164011Y-68880103D02*
X134164011Y-68279897D01*
X134164011Y-68279897D02*
X134026624Y-68142510D01*
X136436207Y-72300489D02*
X134026624Y-69890906D01*
X137884511Y-73749511D02*
X137249511Y-73114511D01*
X136525000Y-82550000D02*
X137884511Y-81190489D01*
X136825103Y-72300489D02*
X136436207Y-72300489D01*
X137884511Y-81190489D02*
X137884511Y-73749511D01*
%TO.N,~{SW_CAN_TX2RTS}*%
X100240500Y-55245000D02*
X100330000Y-55155500D01*
X95885000Y-55245000D02*
X100240500Y-55245000D01*
%TO.N,~{SW_CAN_RESET}*%
X104775000Y-52213510D02*
X105338245Y-52776755D01*
X104775000Y-50800000D02*
X104775000Y-52213510D01*
X102870000Y-49619500D02*
X103594500Y-49619500D01*
X103594500Y-49619500D02*
X104775000Y-50800000D01*
%TO.N,SW_CAN_SOF*%
X106045000Y-50800000D02*
X106045000Y-52070000D01*
X93980000Y-48895000D02*
X104140000Y-48895000D01*
X104140000Y-48895000D02*
X106045000Y-50800000D01*
%TO.N,SW_CAN_CS*%
X124545795Y-47698180D02*
X124545795Y-47293819D01*
X120650000Y-42545000D02*
X98425000Y-42545000D01*
X124549511Y-46444511D02*
X120650000Y-42545000D01*
X98425000Y-42545000D02*
X95885000Y-45085000D01*
X124545795Y-47293819D02*
X124549511Y-47290103D01*
X124549511Y-47290103D02*
X124549511Y-46444511D01*
%TO.N,SW_CAN_MISO*%
X120014282Y-43180000D02*
X100330000Y-43180000D01*
X100330000Y-43180000D02*
X98425000Y-45085000D01*
X123824282Y-46990000D02*
X120014282Y-43180000D01*
X98425000Y-45085000D02*
X98425000Y-46355000D01*
X123825000Y-46990000D02*
X123824282Y-46990000D01*
%TO.N,SW_CAN_MOSI*%
X129672870Y-49645845D02*
X129605198Y-49713517D01*
X124008517Y-49713517D02*
X118745000Y-44450000D01*
X105410000Y-44450000D02*
X118745000Y-44450000D01*
X104775000Y-46355000D02*
X104775000Y-45085000D01*
X104775000Y-45085000D02*
X105410000Y-44450000D01*
X129605198Y-49713517D02*
X124008517Y-49713517D01*
%TO.N,SW_CAN_SCK*%
X103505000Y-46355000D02*
X103505000Y-45085000D01*
X128919499Y-48989006D02*
X124554006Y-48989006D01*
X124554006Y-48989006D02*
X119380000Y-43815000D01*
X103505000Y-45085000D02*
X104775000Y-43815000D01*
X102235000Y-47625000D02*
X103505000Y-46355000D01*
X104775000Y-43815000D02*
X119380000Y-43815000D01*
%TO.N,CLK_USB*%
X125095000Y-40640000D02*
X140970000Y-40640000D01*
X151675489Y-47079511D02*
X151675489Y-51980489D01*
X151675489Y-51980489D02*
X153670000Y-53975000D01*
X123825000Y-41910000D02*
X125095000Y-40640000D01*
X153670000Y-53975000D02*
X153670000Y-59690000D01*
%TO.N,CLK_CAN*%
X94615000Y-41910000D02*
X121285000Y-41910000D01*
X92075000Y-44450000D02*
X94615000Y-41910000D01*
X121285000Y-41910000D02*
X121920000Y-42545000D01*
X92075000Y-46355000D02*
X92075000Y-44450000D01*
%TD*%
%TA.AperFunction,Conductor*%
%TO.N,+5V*%
G36*
X102845128Y-64793066D02*
G01*
X102897572Y-64840922D01*
X102906368Y-64858323D01*
X104005547Y-67527758D01*
X104012989Y-67598363D01*
X103981077Y-67661783D01*
X103915235Y-67698979D01*
X103857712Y-67711206D01*
X103851682Y-67713891D01*
X103851681Y-67713891D01*
X103689278Y-67786197D01*
X103689276Y-67786198D01*
X103683248Y-67788882D01*
X103528747Y-67901134D01*
X103524326Y-67906044D01*
X103524325Y-67906045D01*
X103416044Y-68026304D01*
X103400960Y-68043056D01*
X103359918Y-68114142D01*
X103321891Y-68180008D01*
X103305473Y-68208444D01*
X103246458Y-68390072D01*
X103226496Y-68580000D01*
X103246458Y-68769928D01*
X103305473Y-68951556D01*
X103400960Y-69116944D01*
X103405378Y-69121851D01*
X103405379Y-69121852D01*
X103449753Y-69171134D01*
X103528747Y-69258866D01*
X103683248Y-69371118D01*
X103689276Y-69373802D01*
X103689278Y-69373803D01*
X103794007Y-69420431D01*
X103857712Y-69448794D01*
X103950858Y-69468593D01*
X104038056Y-69487128D01*
X104038061Y-69487128D01*
X104044513Y-69488500D01*
X104235487Y-69488500D01*
X104241939Y-69487128D01*
X104241944Y-69487128D01*
X104329142Y-69468593D01*
X104422288Y-69448794D01*
X104596752Y-69371118D01*
X104602094Y-69367237D01*
X104607391Y-69364179D01*
X104676387Y-69347442D01*
X104743478Y-69370663D01*
X104786898Y-69425324D01*
X106721753Y-74124258D01*
X106729195Y-74194861D01*
X106698882Y-74256537D01*
X106575960Y-74393056D01*
X106542438Y-74451118D01*
X106485926Y-74549000D01*
X106480473Y-74558444D01*
X106421458Y-74740072D01*
X106401496Y-74930000D01*
X106421458Y-75119928D01*
X106423498Y-75126206D01*
X106443371Y-75187370D01*
X106445398Y-75258338D01*
X106408736Y-75319136D01*
X106374786Y-75341413D01*
X106229281Y-75406195D01*
X106229274Y-75406199D01*
X106223248Y-75408882D01*
X106217907Y-75412762D01*
X106217906Y-75412763D01*
X106209093Y-75419166D01*
X106068747Y-75521134D01*
X105940960Y-75663056D01*
X105845473Y-75828444D01*
X105786458Y-76010072D01*
X105785768Y-76016633D01*
X105785768Y-76016635D01*
X105770126Y-76165460D01*
X105766496Y-76200000D01*
X105767186Y-76206565D01*
X105780208Y-76330458D01*
X105786458Y-76389928D01*
X105845473Y-76571556D01*
X105940960Y-76736944D01*
X105945378Y-76741851D01*
X105945379Y-76741852D01*
X106023339Y-76828435D01*
X106068747Y-76878866D01*
X106223248Y-76991118D01*
X106229276Y-76993802D01*
X106229278Y-76993803D01*
X106391681Y-77066109D01*
X106397712Y-77068794D01*
X106486260Y-77087616D01*
X106519231Y-77094624D01*
X106581705Y-77128353D01*
X106616026Y-77190502D01*
X106611298Y-77261341D01*
X106582129Y-77306966D01*
X105017747Y-78871348D01*
X105009461Y-78878888D01*
X105002982Y-78883000D01*
X104997557Y-78888777D01*
X104956357Y-78932651D01*
X104953602Y-78935493D01*
X104933865Y-78955230D01*
X104931385Y-78958427D01*
X104923682Y-78967447D01*
X104893414Y-78999679D01*
X104889595Y-79006625D01*
X104889593Y-79006628D01*
X104883652Y-79017434D01*
X104872801Y-79033953D01*
X104860386Y-79049959D01*
X104857241Y-79057228D01*
X104857238Y-79057232D01*
X104842826Y-79090537D01*
X104837609Y-79101187D01*
X104816305Y-79139940D01*
X104814334Y-79147615D01*
X104814334Y-79147616D01*
X104811267Y-79159562D01*
X104804863Y-79178266D01*
X104796819Y-79196855D01*
X104795580Y-79204678D01*
X104795577Y-79204688D01*
X104789901Y-79240524D01*
X104787495Y-79252144D01*
X104776500Y-79294970D01*
X104776500Y-79315224D01*
X104774949Y-79334934D01*
X104771780Y-79354943D01*
X104772526Y-79362835D01*
X104775941Y-79398961D01*
X104776500Y-79410819D01*
X104776500Y-79931233D01*
X104775973Y-79942416D01*
X104774298Y-79949909D01*
X104774547Y-79957832D01*
X104774547Y-79957833D01*
X104776438Y-80017986D01*
X104776500Y-80021945D01*
X104776500Y-80049856D01*
X104776997Y-80053790D01*
X104776997Y-80053791D01*
X104777005Y-80053856D01*
X104777938Y-80065693D01*
X104779327Y-80109889D01*
X104784978Y-80129339D01*
X104788987Y-80148700D01*
X104791526Y-80168797D01*
X104794445Y-80176168D01*
X104794445Y-80176170D01*
X104807804Y-80209912D01*
X104811649Y-80221142D01*
X104821771Y-80255983D01*
X104823982Y-80263593D01*
X104828015Y-80270412D01*
X104828017Y-80270417D01*
X104834293Y-80281028D01*
X104842988Y-80298776D01*
X104850448Y-80317617D01*
X104855110Y-80324033D01*
X104855110Y-80324034D01*
X104876436Y-80353387D01*
X104882952Y-80363307D01*
X104893745Y-80381556D01*
X104905458Y-80401362D01*
X104919779Y-80415683D01*
X104932619Y-80430716D01*
X104944528Y-80447107D01*
X104978605Y-80475298D01*
X104987384Y-80483288D01*
X105248829Y-80744733D01*
X105282855Y-80807045D01*
X105277790Y-80877860D01*
X105268858Y-80896819D01*
X105213476Y-80992743D01*
X105162094Y-81041735D01*
X105092380Y-81055170D01*
X105065422Y-81049574D01*
X105063315Y-81048889D01*
X105057288Y-81046206D01*
X105050835Y-81044834D01*
X105050834Y-81044834D01*
X104876944Y-81007872D01*
X104876939Y-81007872D01*
X104870487Y-81006500D01*
X104679513Y-81006500D01*
X104673061Y-81007872D01*
X104673056Y-81007872D01*
X104605279Y-81022279D01*
X104492712Y-81046206D01*
X104486682Y-81048891D01*
X104486681Y-81048891D01*
X104324278Y-81121197D01*
X104324276Y-81121198D01*
X104318248Y-81123882D01*
X104163747Y-81236134D01*
X104159326Y-81241044D01*
X104159325Y-81241045D01*
X104081257Y-81327749D01*
X104035960Y-81378056D01*
X103940473Y-81543444D01*
X103881458Y-81725072D01*
X103880768Y-81731633D01*
X103880768Y-81731635D01*
X103867444Y-81858404D01*
X103861496Y-81915000D01*
X103881458Y-82104928D01*
X103940473Y-82286556D01*
X104035960Y-82451944D01*
X104163747Y-82593866D01*
X104318248Y-82706118D01*
X104324276Y-82708802D01*
X104324278Y-82708803D01*
X104486681Y-82781109D01*
X104492712Y-82783794D01*
X104586112Y-82803647D01*
X104673056Y-82822128D01*
X104673061Y-82822128D01*
X104679513Y-82823500D01*
X104870487Y-82823500D01*
X104876939Y-82822128D01*
X104876944Y-82822128D01*
X104963888Y-82803647D01*
X105057288Y-82783794D01*
X105063319Y-82781109D01*
X105225722Y-82708803D01*
X105225724Y-82708802D01*
X105231752Y-82706118D01*
X105386253Y-82593866D01*
X105514040Y-82451944D01*
X105606523Y-82291759D01*
X105657906Y-82242766D01*
X105727619Y-82229330D01*
X105754578Y-82234926D01*
X105756685Y-82235611D01*
X105762712Y-82238294D01*
X105769165Y-82239666D01*
X105769166Y-82239666D01*
X105943056Y-82276628D01*
X105943061Y-82276628D01*
X105949513Y-82278000D01*
X106140487Y-82278000D01*
X106146940Y-82276628D01*
X106146953Y-82276627D01*
X106301222Y-82243835D01*
X106372012Y-82249236D01*
X106416514Y-82277986D01*
X108104933Y-83966405D01*
X108138959Y-84028717D01*
X108133894Y-84099532D01*
X108091347Y-84156368D01*
X108024827Y-84181179D01*
X108015838Y-84181500D01*
X107854513Y-84181500D01*
X107848061Y-84182872D01*
X107848056Y-84182872D01*
X107761112Y-84201353D01*
X107667712Y-84221206D01*
X107661682Y-84223891D01*
X107661681Y-84223891D01*
X107499278Y-84296197D01*
X107499276Y-84296198D01*
X107493248Y-84298882D01*
X107338747Y-84411134D01*
X107210960Y-84553056D01*
X107115473Y-84718444D01*
X107056458Y-84900072D01*
X107055768Y-84906633D01*
X107055768Y-84906635D01*
X107046802Y-84991944D01*
X107036496Y-85090000D01*
X107056458Y-85279928D01*
X107115473Y-85461556D01*
X107210960Y-85626944D01*
X107338747Y-85768866D01*
X107493248Y-85881118D01*
X107499276Y-85883802D01*
X107499278Y-85883803D01*
X107650298Y-85951041D01*
X107667712Y-85958794D01*
X107761112Y-85978647D01*
X107848056Y-85997128D01*
X107848061Y-85997128D01*
X107854513Y-85998500D01*
X108045487Y-85998500D01*
X108051939Y-85997128D01*
X108051944Y-85997128D01*
X108138888Y-85978647D01*
X108232288Y-85958794D01*
X108256656Y-85947945D01*
X108406752Y-85881118D01*
X108407677Y-85883196D01*
X108466488Y-85868924D01*
X108533581Y-85892141D01*
X108577472Y-85947945D01*
X108586500Y-85994782D01*
X108586500Y-87562476D01*
X108566498Y-87630597D01*
X108554142Y-87646779D01*
X108480960Y-87728056D01*
X108385473Y-87893444D01*
X108326458Y-88075072D01*
X108325768Y-88081633D01*
X108325768Y-88081635D01*
X108311106Y-88221134D01*
X108306496Y-88265000D01*
X108307186Y-88271565D01*
X108321500Y-88407751D01*
X108326458Y-88454928D01*
X108385473Y-88636556D01*
X108480960Y-88801944D01*
X108608747Y-88943866D01*
X108763248Y-89056118D01*
X108769276Y-89058802D01*
X108769278Y-89058803D01*
X108864084Y-89101013D01*
X108937712Y-89133794D01*
X109031113Y-89153647D01*
X109118056Y-89172128D01*
X109118061Y-89172128D01*
X109124513Y-89173500D01*
X109315487Y-89173500D01*
X109321939Y-89172128D01*
X109321944Y-89172128D01*
X109408887Y-89153647D01*
X109502288Y-89133794D01*
X109575916Y-89101013D01*
X109670722Y-89058803D01*
X109670724Y-89058802D01*
X109676752Y-89056118D01*
X109831253Y-88943866D01*
X109959040Y-88801944D01*
X110054527Y-88636556D01*
X110113542Y-88454928D01*
X110118501Y-88407751D01*
X110132814Y-88271565D01*
X110133504Y-88265000D01*
X110128894Y-88221134D01*
X110114232Y-88081635D01*
X110114232Y-88081633D01*
X110113542Y-88075072D01*
X110054527Y-87893444D01*
X109959040Y-87728056D01*
X109885863Y-87646785D01*
X109855147Y-87582779D01*
X109853500Y-87562476D01*
X109853500Y-86019162D01*
X109873502Y-85951041D01*
X109927158Y-85904548D01*
X109997432Y-85894444D01*
X110062012Y-85923938D01*
X110068595Y-85930067D01*
X114235415Y-90096887D01*
X116049928Y-90153591D01*
X116117388Y-90175710D01*
X116162183Y-90230792D01*
X116170087Y-90301347D01*
X116135085Y-90368624D01*
X114718669Y-91785040D01*
X114656357Y-91819066D01*
X114585542Y-91814001D01*
X114528706Y-91771454D01*
X114509743Y-91734884D01*
X114499527Y-91703444D01*
X114404040Y-91538056D01*
X114318650Y-91443220D01*
X114280675Y-91401045D01*
X114280674Y-91401044D01*
X114276253Y-91396134D01*
X114121752Y-91283882D01*
X114115724Y-91281198D01*
X114115722Y-91281197D01*
X113953319Y-91208891D01*
X113953318Y-91208891D01*
X113947288Y-91206206D01*
X113853887Y-91186353D01*
X113766944Y-91167872D01*
X113766939Y-91167872D01*
X113760487Y-91166500D01*
X113569513Y-91166500D01*
X113563061Y-91167872D01*
X113563056Y-91167872D01*
X113476113Y-91186353D01*
X113382712Y-91206206D01*
X113376682Y-91208891D01*
X113376681Y-91208891D01*
X113214278Y-91281197D01*
X113214276Y-91281198D01*
X113208248Y-91283882D01*
X113053747Y-91396134D01*
X113049326Y-91401044D01*
X113049325Y-91401045D01*
X113011351Y-91443220D01*
X112925960Y-91538056D01*
X112830473Y-91703444D01*
X112771458Y-91885072D01*
X112770768Y-91891633D01*
X112770768Y-91891635D01*
X112766466Y-91932568D01*
X112751496Y-92075000D01*
X112752186Y-92081565D01*
X112768187Y-92233803D01*
X112771458Y-92264928D01*
X112830473Y-92446556D01*
X112925960Y-92611944D01*
X113053747Y-92753866D01*
X113208248Y-92866118D01*
X113214274Y-92868801D01*
X113214281Y-92868805D01*
X113337843Y-92923817D01*
X113391939Y-92969797D01*
X113412589Y-93037724D01*
X113393237Y-93106032D01*
X113375690Y-93128019D01*
X112559114Y-93944595D01*
X112496802Y-93978621D01*
X112470019Y-93981500D01*
X111833200Y-93981500D01*
X111765079Y-93961498D01*
X111745853Y-93945157D01*
X111745580Y-93945460D01*
X111740668Y-93941037D01*
X111736253Y-93936134D01*
X111696645Y-93907357D01*
X111587094Y-93827763D01*
X111587093Y-93827762D01*
X111581752Y-93823882D01*
X111575724Y-93821198D01*
X111575722Y-93821197D01*
X111413319Y-93748891D01*
X111413318Y-93748891D01*
X111407288Y-93746206D01*
X111313888Y-93726353D01*
X111226944Y-93707872D01*
X111226939Y-93707872D01*
X111220487Y-93706500D01*
X111029513Y-93706500D01*
X111023061Y-93707872D01*
X111023056Y-93707872D01*
X110936113Y-93726353D01*
X110842712Y-93746206D01*
X110836682Y-93748891D01*
X110836681Y-93748891D01*
X110674278Y-93821197D01*
X110674276Y-93821198D01*
X110668248Y-93823882D01*
X110513747Y-93936134D01*
X110509326Y-93941044D01*
X110509325Y-93941045D01*
X110475492Y-93978621D01*
X110385960Y-94078056D01*
X110290473Y-94243444D01*
X110288433Y-94249723D01*
X110287606Y-94251580D01*
X110241626Y-94305675D01*
X110173699Y-94326324D01*
X110105391Y-94306971D01*
X110057394Y-94251580D01*
X110056567Y-94249723D01*
X110054527Y-94243444D01*
X109959040Y-94078056D01*
X109869509Y-93978621D01*
X109835675Y-93941045D01*
X109835674Y-93941044D01*
X109831253Y-93936134D01*
X109676752Y-93823882D01*
X109670724Y-93821198D01*
X109670722Y-93821197D01*
X109508319Y-93748891D01*
X109508318Y-93748891D01*
X109502288Y-93746206D01*
X109408888Y-93726353D01*
X109321944Y-93707872D01*
X109321939Y-93707872D01*
X109315487Y-93706500D01*
X109124513Y-93706500D01*
X109118061Y-93707872D01*
X109118056Y-93707872D01*
X109031113Y-93726353D01*
X108937712Y-93746206D01*
X108931682Y-93748891D01*
X108931681Y-93748891D01*
X108769278Y-93821197D01*
X108769276Y-93821198D01*
X108763248Y-93823882D01*
X108608747Y-93936134D01*
X108604326Y-93941044D01*
X108604325Y-93941045D01*
X108570492Y-93978621D01*
X108480960Y-94078056D01*
X108385473Y-94243444D01*
X108326458Y-94425072D01*
X108306496Y-94615000D01*
X108326458Y-94804928D01*
X108385473Y-94986556D01*
X108480960Y-95151944D01*
X108485378Y-95156851D01*
X108485379Y-95156852D01*
X108567452Y-95248003D01*
X108608747Y-95293866D01*
X108763248Y-95406118D01*
X108769276Y-95408802D01*
X108769278Y-95408803D01*
X108931681Y-95481109D01*
X108937712Y-95483794D01*
X109004419Y-95497973D01*
X109118056Y-95522128D01*
X109118061Y-95522128D01*
X109124513Y-95523500D01*
X109315487Y-95523500D01*
X109321939Y-95522128D01*
X109321944Y-95522128D01*
X109435581Y-95497973D01*
X109502288Y-95483794D01*
X109508319Y-95481109D01*
X109670722Y-95408803D01*
X109670724Y-95408802D01*
X109676752Y-95406118D01*
X109831253Y-95293866D01*
X109872548Y-95248003D01*
X109954621Y-95156852D01*
X109954622Y-95156851D01*
X109959040Y-95151944D01*
X110022616Y-95041827D01*
X110051226Y-94992274D01*
X110051227Y-94992272D01*
X110054527Y-94986556D01*
X110056567Y-94980277D01*
X110057394Y-94978420D01*
X110103374Y-94924325D01*
X110171301Y-94903676D01*
X110239609Y-94923029D01*
X110287606Y-94978420D01*
X110288433Y-94980277D01*
X110290473Y-94986556D01*
X110293773Y-94992272D01*
X110293774Y-94992274D01*
X110322384Y-95041827D01*
X110385960Y-95151944D01*
X110390378Y-95156851D01*
X110390379Y-95156852D01*
X110472452Y-95248003D01*
X110513747Y-95293866D01*
X110668248Y-95406118D01*
X110674276Y-95408802D01*
X110674278Y-95408803D01*
X110836681Y-95481109D01*
X110842712Y-95483794D01*
X110909419Y-95497973D01*
X111023056Y-95522128D01*
X111023061Y-95522128D01*
X111029513Y-95523500D01*
X111220487Y-95523500D01*
X111226939Y-95522128D01*
X111226944Y-95522128D01*
X111340581Y-95497973D01*
X111407288Y-95483794D01*
X111413319Y-95481109D01*
X111575722Y-95408803D01*
X111575724Y-95408802D01*
X111581752Y-95406118D01*
X111668423Y-95343148D01*
X111718777Y-95306563D01*
X111736253Y-95293866D01*
X111740668Y-95288963D01*
X111745580Y-95284540D01*
X111746705Y-95285789D01*
X111800014Y-95252949D01*
X111833200Y-95248500D01*
X112705847Y-95248500D01*
X112717030Y-95249027D01*
X112724523Y-95250702D01*
X112732449Y-95250453D01*
X112732450Y-95250453D01*
X112792600Y-95248562D01*
X112796559Y-95248500D01*
X112824470Y-95248500D01*
X112828405Y-95248003D01*
X112828470Y-95247995D01*
X112840307Y-95247062D01*
X112872565Y-95246048D01*
X112876584Y-95245922D01*
X112884503Y-95245673D01*
X112903957Y-95240021D01*
X112923314Y-95236013D01*
X112935544Y-95234468D01*
X112935545Y-95234468D01*
X112943411Y-95233474D01*
X112950782Y-95230555D01*
X112950784Y-95230555D01*
X112984526Y-95217196D01*
X112995756Y-95213351D01*
X113030597Y-95203229D01*
X113030598Y-95203229D01*
X113038207Y-95201018D01*
X113045026Y-95196985D01*
X113045031Y-95196983D01*
X113055642Y-95190707D01*
X113073390Y-95182012D01*
X113092231Y-95174552D01*
X113128001Y-95148564D01*
X113137921Y-95142048D01*
X113169149Y-95123580D01*
X113169152Y-95123578D01*
X113175976Y-95119542D01*
X113190297Y-95105221D01*
X113205331Y-95092380D01*
X113215308Y-95085131D01*
X113221721Y-95080472D01*
X113249912Y-95046395D01*
X113257902Y-95037616D01*
X113680518Y-94615000D01*
X120371496Y-94615000D01*
X120391458Y-94804928D01*
X120450473Y-94986556D01*
X120545960Y-95151944D01*
X120550378Y-95156851D01*
X120550379Y-95156852D01*
X120632452Y-95248003D01*
X120673747Y-95293866D01*
X120828248Y-95406118D01*
X120834276Y-95408802D01*
X120834278Y-95408803D01*
X120996681Y-95481109D01*
X121002712Y-95483794D01*
X121069419Y-95497973D01*
X121183056Y-95522128D01*
X121183061Y-95522128D01*
X121189513Y-95523500D01*
X121380487Y-95523500D01*
X121386939Y-95522128D01*
X121386944Y-95522128D01*
X121500581Y-95497973D01*
X121567288Y-95483794D01*
X121573319Y-95481109D01*
X121735722Y-95408803D01*
X121735724Y-95408802D01*
X121741752Y-95406118D01*
X121845940Y-95330421D01*
X121912806Y-95306563D01*
X121981958Y-95322643D01*
X121994056Y-95330418D01*
X122098248Y-95406118D01*
X122104276Y-95408802D01*
X122104278Y-95408803D01*
X122266681Y-95481109D01*
X122272712Y-95483794D01*
X122339419Y-95497973D01*
X122453056Y-95522128D01*
X122453061Y-95522128D01*
X122459513Y-95523500D01*
X122650487Y-95523500D01*
X122656939Y-95522128D01*
X122656944Y-95522128D01*
X122770581Y-95497973D01*
X122837288Y-95483794D01*
X122843319Y-95481109D01*
X123005722Y-95408803D01*
X123005724Y-95408802D01*
X123011752Y-95406118D01*
X123166253Y-95293866D01*
X123207548Y-95248003D01*
X123289621Y-95156852D01*
X123289622Y-95156851D01*
X123294040Y-95151944D01*
X123389527Y-94986556D01*
X123448542Y-94804928D01*
X123468504Y-94615000D01*
X123448542Y-94425072D01*
X123389527Y-94243444D01*
X123294040Y-94078056D01*
X123204509Y-93978621D01*
X123170675Y-93941045D01*
X123170674Y-93941044D01*
X123166253Y-93936134D01*
X123011752Y-93823882D01*
X123005724Y-93821198D01*
X123005722Y-93821197D01*
X122843319Y-93748891D01*
X122843318Y-93748891D01*
X122837288Y-93746206D01*
X122743888Y-93726353D01*
X122656944Y-93707872D01*
X122656939Y-93707872D01*
X122650487Y-93706500D01*
X122459513Y-93706500D01*
X122453061Y-93707872D01*
X122453056Y-93707872D01*
X122366113Y-93726353D01*
X122272712Y-93746206D01*
X122266682Y-93748891D01*
X122266681Y-93748891D01*
X122104278Y-93821197D01*
X122104276Y-93821198D01*
X122098248Y-93823882D01*
X121994060Y-93899579D01*
X121927194Y-93923437D01*
X121858042Y-93907357D01*
X121845944Y-93899582D01*
X121741752Y-93823882D01*
X121735724Y-93821198D01*
X121735722Y-93821197D01*
X121573319Y-93748891D01*
X121573318Y-93748891D01*
X121567288Y-93746206D01*
X121473888Y-93726353D01*
X121386944Y-93707872D01*
X121386939Y-93707872D01*
X121380487Y-93706500D01*
X121189513Y-93706500D01*
X121183061Y-93707872D01*
X121183056Y-93707872D01*
X121096113Y-93726353D01*
X121002712Y-93746206D01*
X120996682Y-93748891D01*
X120996681Y-93748891D01*
X120834278Y-93821197D01*
X120834276Y-93821198D01*
X120828248Y-93823882D01*
X120673747Y-93936134D01*
X120669326Y-93941044D01*
X120669325Y-93941045D01*
X120635492Y-93978621D01*
X120545960Y-94078056D01*
X120450473Y-94243444D01*
X120391458Y-94425072D01*
X120371496Y-94615000D01*
X113680518Y-94615000D01*
X118039987Y-90255531D01*
X118102299Y-90221505D01*
X118133017Y-90218687D01*
X120348183Y-90287911D01*
X124778513Y-90426359D01*
X124845975Y-90448480D01*
X124890770Y-90503561D01*
X124899886Y-90539122D01*
X124900278Y-90542846D01*
X124900969Y-90549417D01*
X124959984Y-90731045D01*
X125055471Y-90896433D01*
X125183258Y-91038355D01*
X125337759Y-91150607D01*
X125343787Y-91153291D01*
X125343789Y-91153292D01*
X125506192Y-91225598D01*
X125512223Y-91228283D01*
X125605623Y-91248136D01*
X125692567Y-91266617D01*
X125692572Y-91266617D01*
X125699024Y-91267989D01*
X125889998Y-91267989D01*
X125896450Y-91266617D01*
X125896455Y-91266617D01*
X125983398Y-91248136D01*
X126076799Y-91228283D01*
X126082830Y-91225598D01*
X126245233Y-91153292D01*
X126245235Y-91153291D01*
X126251263Y-91150607D01*
X126405764Y-91038355D01*
X126533551Y-90896433D01*
X126629038Y-90731045D01*
X126679212Y-90576625D01*
X126719286Y-90518020D01*
X126784682Y-90490383D01*
X126802975Y-90489623D01*
X127672580Y-90516798D01*
X127740041Y-90538919D01*
X127757738Y-90553642D01*
X128401343Y-91197247D01*
X128408887Y-91205537D01*
X128413000Y-91212018D01*
X128418777Y-91217443D01*
X128462667Y-91258658D01*
X128465509Y-91261413D01*
X128485230Y-91281134D01*
X128488425Y-91283612D01*
X128497447Y-91291318D01*
X128529679Y-91321586D01*
X128536628Y-91325406D01*
X128547432Y-91331346D01*
X128563956Y-91342199D01*
X128579959Y-91354613D01*
X128620543Y-91372176D01*
X128631173Y-91377383D01*
X128669940Y-91398695D01*
X128677617Y-91400666D01*
X128677622Y-91400668D01*
X128689558Y-91403732D01*
X128708266Y-91410137D01*
X128726855Y-91418181D01*
X128734683Y-91419421D01*
X128734690Y-91419423D01*
X128770524Y-91425099D01*
X128782144Y-91427505D01*
X128805242Y-91433435D01*
X128824970Y-91438500D01*
X128845224Y-91438500D01*
X128864934Y-91440051D01*
X128884943Y-91443220D01*
X128892835Y-91442474D01*
X128928961Y-91439059D01*
X128940819Y-91438500D01*
X136939754Y-91438500D01*
X136975307Y-91443620D01*
X137880064Y-91709725D01*
X144747277Y-93729493D01*
X144806985Y-93767904D01*
X144836449Y-93832498D01*
X144826313Y-93902767D01*
X144802582Y-93935085D01*
X144803747Y-93936134D01*
X144675960Y-94078056D01*
X144580473Y-94243444D01*
X144521458Y-94425072D01*
X144501496Y-94615000D01*
X144521458Y-94804928D01*
X144580473Y-94986556D01*
X144675960Y-95151944D01*
X144680378Y-95156851D01*
X144680379Y-95156852D01*
X144762452Y-95248003D01*
X144803747Y-95293866D01*
X144958248Y-95406118D01*
X144964276Y-95408802D01*
X144964278Y-95408803D01*
X145126681Y-95481109D01*
X145132712Y-95483794D01*
X145139167Y-95485166D01*
X145139170Y-95485167D01*
X145199419Y-95497973D01*
X145261893Y-95531701D01*
X145296215Y-95593851D01*
X145299167Y-95624976D01*
X145242705Y-97517872D01*
X145238553Y-97657053D01*
X145216529Y-97724547D01*
X145201704Y-97742391D01*
X144387747Y-98556348D01*
X144379461Y-98563888D01*
X144372982Y-98568000D01*
X144367557Y-98573777D01*
X144326357Y-98617651D01*
X144323602Y-98620493D01*
X144303865Y-98640230D01*
X144301385Y-98643427D01*
X144293682Y-98652447D01*
X144263414Y-98684679D01*
X144259595Y-98691625D01*
X144259593Y-98691628D01*
X144253652Y-98702434D01*
X144242801Y-98718953D01*
X144230386Y-98734959D01*
X144227241Y-98742228D01*
X144227238Y-98742232D01*
X144212826Y-98775537D01*
X144207609Y-98786187D01*
X144186305Y-98824940D01*
X144184334Y-98832615D01*
X144184334Y-98832616D01*
X144181267Y-98844562D01*
X144174863Y-98863266D01*
X144166819Y-98881855D01*
X144165580Y-98889678D01*
X144165577Y-98889688D01*
X144159901Y-98925524D01*
X144157495Y-98937144D01*
X144156212Y-98942142D01*
X144146500Y-98979970D01*
X144146500Y-99000224D01*
X144144949Y-99019934D01*
X144141780Y-99039943D01*
X144142526Y-99047835D01*
X144145941Y-99083961D01*
X144146500Y-99095819D01*
X144146500Y-100262476D01*
X144126498Y-100330597D01*
X144114142Y-100346779D01*
X144040960Y-100428056D01*
X143945473Y-100593444D01*
X143886458Y-100775072D01*
X143885768Y-100781633D01*
X143885768Y-100781635D01*
X143871515Y-100917251D01*
X143866496Y-100965000D01*
X143886458Y-101154928D01*
X143945473Y-101336556D01*
X144040960Y-101501944D01*
X144168747Y-101643866D01*
X144323248Y-101756118D01*
X144329276Y-101758802D01*
X144329278Y-101758803D01*
X144491681Y-101831109D01*
X144497712Y-101833794D01*
X144591112Y-101853647D01*
X144678056Y-101872128D01*
X144678061Y-101872128D01*
X144684513Y-101873500D01*
X144875487Y-101873500D01*
X144881939Y-101872128D01*
X144881944Y-101872128D01*
X144957372Y-101856095D01*
X145028163Y-101861497D01*
X145084796Y-101904314D01*
X145109289Y-101970952D01*
X145109513Y-101983099D01*
X145072622Y-103219866D01*
X145050598Y-103287360D01*
X144997927Y-103331215D01*
X144964285Y-103346194D01*
X144958248Y-103348882D01*
X144803747Y-103461134D01*
X144799326Y-103466044D01*
X144799325Y-103466045D01*
X144721257Y-103552749D01*
X144675960Y-103603056D01*
X144580473Y-103768444D01*
X144521458Y-103950072D01*
X144501496Y-104140000D01*
X144502186Y-104146565D01*
X144518187Y-104298803D01*
X144521458Y-104329928D01*
X144580473Y-104511556D01*
X144675960Y-104676944D01*
X144680378Y-104681851D01*
X144680379Y-104681852D01*
X144799325Y-104813955D01*
X144803747Y-104818866D01*
X144878333Y-104873056D01*
X144952903Y-104927235D01*
X144952906Y-104927236D01*
X144956474Y-104929829D01*
X144958248Y-104931118D01*
X144958012Y-104931443D01*
X145004336Y-104980028D01*
X145018285Y-105041519D01*
X144787688Y-112772279D01*
X144783541Y-112911302D01*
X144761517Y-112978796D01*
X144706499Y-113023668D01*
X144661301Y-113033491D01*
X132652087Y-113386703D01*
X132583408Y-113368712D01*
X132535358Y-113316446D01*
X132523192Y-113246500D01*
X132550774Y-113181080D01*
X132574319Y-113158824D01*
X132691253Y-113073866D01*
X132732101Y-113028500D01*
X132814621Y-112936852D01*
X132814622Y-112936851D01*
X132819040Y-112931944D01*
X132914527Y-112766556D01*
X132973542Y-112584928D01*
X132993504Y-112395000D01*
X132973542Y-112205072D01*
X132914527Y-112023444D01*
X132819040Y-111858056D01*
X132691253Y-111716134D01*
X132536752Y-111603882D01*
X132530724Y-111601198D01*
X132530722Y-111601197D01*
X132368319Y-111528891D01*
X132368318Y-111528891D01*
X132362288Y-111526206D01*
X132268888Y-111506353D01*
X132181944Y-111487872D01*
X132181939Y-111487872D01*
X132175487Y-111486500D01*
X131984513Y-111486500D01*
X131978061Y-111487872D01*
X131978056Y-111487872D01*
X131891112Y-111506353D01*
X131797712Y-111526206D01*
X131791682Y-111528891D01*
X131791681Y-111528891D01*
X131629278Y-111601197D01*
X131629276Y-111601198D01*
X131623248Y-111603882D01*
X131468747Y-111716134D01*
X131340960Y-111858056D01*
X131245473Y-112023444D01*
X131186458Y-112205072D01*
X131166496Y-112395000D01*
X131186458Y-112584928D01*
X131245473Y-112766556D01*
X131340960Y-112931944D01*
X131345378Y-112936851D01*
X131345379Y-112936852D01*
X131427899Y-113028500D01*
X131468747Y-113073866D01*
X131621679Y-113184978D01*
X131621681Y-113184980D01*
X131623248Y-113186118D01*
X131623040Y-113186405D01*
X131669477Y-113235111D01*
X131682910Y-113304825D01*
X131656520Y-113370735D01*
X131598687Y-113411915D01*
X131561187Y-113418789D01*
X124028798Y-113640329D01*
X123960121Y-113622339D01*
X123912071Y-113570073D01*
X123899905Y-113500127D01*
X123927487Y-113434707D01*
X123936001Y-113425289D01*
X127796885Y-109564405D01*
X127859197Y-109530379D01*
X127930012Y-109535444D01*
X127986848Y-109577991D01*
X128011659Y-109644511D01*
X128011290Y-109666670D01*
X127991496Y-109855000D01*
X127992186Y-109861565D01*
X128002795Y-109962500D01*
X128011458Y-110044928D01*
X128070473Y-110226556D01*
X128073776Y-110232278D01*
X128073777Y-110232279D01*
X128090947Y-110262018D01*
X128165960Y-110391944D01*
X128170378Y-110396851D01*
X128170379Y-110396852D01*
X128248339Y-110483435D01*
X128293747Y-110533866D01*
X128448248Y-110646118D01*
X128454276Y-110648802D01*
X128454278Y-110648803D01*
X128616681Y-110721109D01*
X128622712Y-110723794D01*
X128716112Y-110743647D01*
X128803056Y-110762128D01*
X128803061Y-110762128D01*
X128809513Y-110763500D01*
X129000487Y-110763500D01*
X129006939Y-110762128D01*
X129006944Y-110762128D01*
X129093888Y-110743647D01*
X129187288Y-110723794D01*
X129193319Y-110721109D01*
X129355722Y-110648803D01*
X129355724Y-110648802D01*
X129361752Y-110646118D01*
X129516253Y-110533866D01*
X129555750Y-110490000D01*
X142596496Y-110490000D01*
X142597186Y-110496565D01*
X142613187Y-110648803D01*
X142616458Y-110679928D01*
X142675473Y-110861556D01*
X142678776Y-110867278D01*
X142678777Y-110867279D01*
X142712686Y-110926010D01*
X142770960Y-111026944D01*
X142898747Y-111168866D01*
X143053248Y-111281118D01*
X143059276Y-111283802D01*
X143059278Y-111283803D01*
X143221681Y-111356109D01*
X143227712Y-111358794D01*
X143321112Y-111378647D01*
X143408056Y-111397128D01*
X143408061Y-111397128D01*
X143414513Y-111398500D01*
X143605487Y-111398500D01*
X143611939Y-111397128D01*
X143611944Y-111397128D01*
X143698888Y-111378647D01*
X143792288Y-111358794D01*
X143798319Y-111356109D01*
X143960722Y-111283803D01*
X143960724Y-111283802D01*
X143966752Y-111281118D01*
X144121253Y-111168866D01*
X144249040Y-111026944D01*
X144307314Y-110926010D01*
X144341223Y-110867279D01*
X144341224Y-110867278D01*
X144344527Y-110861556D01*
X144403542Y-110679928D01*
X144406814Y-110648803D01*
X144422814Y-110496565D01*
X144423504Y-110490000D01*
X144411058Y-110371586D01*
X144404232Y-110306635D01*
X144404232Y-110306633D01*
X144403542Y-110300072D01*
X144344527Y-110118444D01*
X144249040Y-109953056D01*
X144121253Y-109811134D01*
X143966752Y-109698882D01*
X143960724Y-109696198D01*
X143960722Y-109696197D01*
X143798319Y-109623891D01*
X143798318Y-109623891D01*
X143792288Y-109621206D01*
X143698888Y-109601353D01*
X143611944Y-109582872D01*
X143611939Y-109582872D01*
X143605487Y-109581500D01*
X143414513Y-109581500D01*
X143408061Y-109582872D01*
X143408056Y-109582872D01*
X143321112Y-109601353D01*
X143227712Y-109621206D01*
X143221682Y-109623891D01*
X143221681Y-109623891D01*
X143059278Y-109696197D01*
X143059276Y-109696198D01*
X143053248Y-109698882D01*
X142898747Y-109811134D01*
X142770960Y-109953056D01*
X142675473Y-110118444D01*
X142616458Y-110300072D01*
X142615768Y-110306633D01*
X142615768Y-110306635D01*
X142608942Y-110371586D01*
X142596496Y-110490000D01*
X129555750Y-110490000D01*
X129561661Y-110483435D01*
X129639621Y-110396852D01*
X129639622Y-110396851D01*
X129644040Y-110391944D01*
X129719053Y-110262018D01*
X129736223Y-110232279D01*
X129736224Y-110232278D01*
X129739527Y-110226556D01*
X129798542Y-110044928D01*
X129807206Y-109962500D01*
X129817814Y-109861565D01*
X129818504Y-109855000D01*
X129813485Y-109807251D01*
X129799232Y-109671635D01*
X129799232Y-109671633D01*
X129798542Y-109665072D01*
X129739527Y-109483444D01*
X129644040Y-109318056D01*
X129598744Y-109267749D01*
X129520675Y-109181045D01*
X129520674Y-109181044D01*
X129516253Y-109176134D01*
X129361752Y-109063882D01*
X129355724Y-109061198D01*
X129355722Y-109061197D01*
X129193319Y-108988891D01*
X129193318Y-108988891D01*
X129187288Y-108986206D01*
X129074721Y-108962279D01*
X129006944Y-108947872D01*
X129006939Y-108947872D01*
X129000487Y-108946500D01*
X128809513Y-108946500D01*
X128803060Y-108947872D01*
X128803047Y-108947873D01*
X128724314Y-108964609D01*
X128653524Y-108959208D01*
X128596891Y-108916391D01*
X128572397Y-108849754D01*
X128587818Y-108780452D01*
X128609022Y-108752268D01*
X128776290Y-108585000D01*
X129896496Y-108585000D01*
X129916458Y-108774928D01*
X129975473Y-108956556D01*
X130070960Y-109121944D01*
X130075378Y-109126851D01*
X130075379Y-109126852D01*
X130174720Y-109237181D01*
X130198747Y-109263866D01*
X130353248Y-109376118D01*
X130359276Y-109378802D01*
X130359278Y-109378803D01*
X130521681Y-109451109D01*
X130527712Y-109453794D01*
X130621113Y-109473647D01*
X130708056Y-109492128D01*
X130708061Y-109492128D01*
X130714513Y-109493500D01*
X130905487Y-109493500D01*
X130911939Y-109492128D01*
X130911944Y-109492128D01*
X130998887Y-109473647D01*
X131092288Y-109453794D01*
X131098319Y-109451109D01*
X131260722Y-109378803D01*
X131260724Y-109378802D01*
X131266752Y-109376118D01*
X131421253Y-109263866D01*
X131445280Y-109237181D01*
X131544621Y-109126852D01*
X131544622Y-109126851D01*
X131549040Y-109121944D01*
X131644527Y-108956556D01*
X131703542Y-108774928D01*
X131723504Y-108585000D01*
X135611496Y-108585000D01*
X135631458Y-108774928D01*
X135690473Y-108956556D01*
X135785960Y-109121944D01*
X135790378Y-109126851D01*
X135790379Y-109126852D01*
X135889720Y-109237181D01*
X135913747Y-109263866D01*
X136068248Y-109376118D01*
X136074276Y-109378802D01*
X136074278Y-109378803D01*
X136236681Y-109451109D01*
X136242712Y-109453794D01*
X136336113Y-109473647D01*
X136423056Y-109492128D01*
X136423061Y-109492128D01*
X136429513Y-109493500D01*
X136620487Y-109493500D01*
X136626939Y-109492128D01*
X136626944Y-109492128D01*
X136713887Y-109473647D01*
X136807288Y-109453794D01*
X136813319Y-109451109D01*
X136975722Y-109378803D01*
X136975724Y-109378802D01*
X136981752Y-109376118D01*
X137136253Y-109263866D01*
X137160280Y-109237181D01*
X137259621Y-109126852D01*
X137259622Y-109126851D01*
X137264040Y-109121944D01*
X137359527Y-108956556D01*
X137418542Y-108774928D01*
X137438504Y-108585000D01*
X137418542Y-108395072D01*
X137359527Y-108213444D01*
X137264040Y-108048056D01*
X137136253Y-107906134D01*
X136981752Y-107793882D01*
X136975724Y-107791198D01*
X136975722Y-107791197D01*
X136813319Y-107718891D01*
X136813318Y-107718891D01*
X136807288Y-107716206D01*
X136713888Y-107696353D01*
X136626944Y-107677872D01*
X136626939Y-107677872D01*
X136620487Y-107676500D01*
X136429513Y-107676500D01*
X136423061Y-107677872D01*
X136423056Y-107677872D01*
X136336112Y-107696353D01*
X136242712Y-107716206D01*
X136236682Y-107718891D01*
X136236681Y-107718891D01*
X136074278Y-107791197D01*
X136074276Y-107791198D01*
X136068248Y-107793882D01*
X135913747Y-107906134D01*
X135785960Y-108048056D01*
X135690473Y-108213444D01*
X135631458Y-108395072D01*
X135611496Y-108585000D01*
X131723504Y-108585000D01*
X131703542Y-108395072D01*
X131644527Y-108213444D01*
X131549040Y-108048056D01*
X131421253Y-107906134D01*
X131266752Y-107793882D01*
X131260724Y-107791198D01*
X131260722Y-107791197D01*
X131098319Y-107718891D01*
X131098318Y-107718891D01*
X131092288Y-107716206D01*
X130998888Y-107696353D01*
X130911944Y-107677872D01*
X130911939Y-107677872D01*
X130905487Y-107676500D01*
X130714513Y-107676500D01*
X130708061Y-107677872D01*
X130708056Y-107677872D01*
X130621112Y-107696353D01*
X130527712Y-107716206D01*
X130521682Y-107718891D01*
X130521681Y-107718891D01*
X130359278Y-107791197D01*
X130359276Y-107791198D01*
X130353248Y-107793882D01*
X130198747Y-107906134D01*
X130070960Y-108048056D01*
X129975473Y-108213444D01*
X129916458Y-108395072D01*
X129896496Y-108585000D01*
X128776290Y-108585000D01*
X133186843Y-104174447D01*
X133249155Y-104140421D01*
X133319970Y-104145486D01*
X133363757Y-104175276D01*
X133364420Y-104174540D01*
X133369332Y-104178963D01*
X133373747Y-104183866D01*
X133528248Y-104296118D01*
X133534276Y-104298802D01*
X133534278Y-104298803D01*
X133696681Y-104371109D01*
X133702712Y-104373794D01*
X133796113Y-104393647D01*
X133883056Y-104412128D01*
X133883061Y-104412128D01*
X133889513Y-104413500D01*
X134080487Y-104413500D01*
X134086939Y-104412128D01*
X134086944Y-104412128D01*
X134173887Y-104393647D01*
X134267288Y-104373794D01*
X134273319Y-104371109D01*
X134435722Y-104298803D01*
X134435724Y-104298802D01*
X134441752Y-104296118D01*
X134596253Y-104183866D01*
X134600675Y-104178955D01*
X134719621Y-104046852D01*
X134719622Y-104046851D01*
X134724040Y-104041944D01*
X134819527Y-103876556D01*
X134878542Y-103694928D01*
X134881814Y-103663803D01*
X134897814Y-103511565D01*
X134898504Y-103505000D01*
X134897814Y-103498435D01*
X134879232Y-103321635D01*
X134879232Y-103321633D01*
X134878542Y-103315072D01*
X134819527Y-103133444D01*
X134805282Y-103108770D01*
X134751347Y-103015353D01*
X134724040Y-102968056D01*
X134655854Y-102892327D01*
X134635751Y-102870000D01*
X138151496Y-102870000D01*
X138152186Y-102876564D01*
X138152186Y-102876565D01*
X138168866Y-103035263D01*
X138171458Y-103059928D01*
X138230473Y-103241556D01*
X138325960Y-103406944D01*
X138330378Y-103411851D01*
X138330379Y-103411852D01*
X138374753Y-103461134D01*
X138453747Y-103548866D01*
X138608248Y-103661118D01*
X138614276Y-103663802D01*
X138614278Y-103663803D01*
X138776681Y-103736109D01*
X138782712Y-103738794D01*
X138876112Y-103758647D01*
X138963056Y-103777128D01*
X138963061Y-103777128D01*
X138969513Y-103778500D01*
X139160487Y-103778500D01*
X139166939Y-103777128D01*
X139166944Y-103777128D01*
X139253887Y-103758647D01*
X139347288Y-103738794D01*
X139353319Y-103736109D01*
X139515722Y-103663803D01*
X139515724Y-103663802D01*
X139521752Y-103661118D01*
X139676253Y-103548866D01*
X139755247Y-103461134D01*
X139799621Y-103411852D01*
X139799622Y-103411851D01*
X139804040Y-103406944D01*
X139899527Y-103241556D01*
X139958542Y-103059928D01*
X139961135Y-103035263D01*
X139977814Y-102876565D01*
X139977814Y-102876564D01*
X139978504Y-102870000D01*
X139973485Y-102822251D01*
X139959232Y-102686635D01*
X139959232Y-102686633D01*
X139958542Y-102680072D01*
X139899527Y-102498444D01*
X139891992Y-102485392D01*
X139807341Y-102338774D01*
X139804040Y-102333056D01*
X139758744Y-102282749D01*
X139680675Y-102196045D01*
X139680674Y-102196044D01*
X139676253Y-102191134D01*
X139521752Y-102078882D01*
X139515724Y-102076198D01*
X139515722Y-102076197D01*
X139353319Y-102003891D01*
X139353318Y-102003891D01*
X139347288Y-102001206D01*
X139234721Y-101977279D01*
X139166944Y-101962872D01*
X139166939Y-101962872D01*
X139160487Y-101961500D01*
X138969513Y-101961500D01*
X138963061Y-101962872D01*
X138963056Y-101962872D01*
X138895279Y-101977279D01*
X138782712Y-102001206D01*
X138776682Y-102003891D01*
X138776681Y-102003891D01*
X138614278Y-102076197D01*
X138614276Y-102076198D01*
X138608248Y-102078882D01*
X138453747Y-102191134D01*
X138449326Y-102196044D01*
X138449325Y-102196045D01*
X138371257Y-102282749D01*
X138325960Y-102333056D01*
X138322659Y-102338774D01*
X138238009Y-102485392D01*
X138230473Y-102498444D01*
X138171458Y-102680072D01*
X138170768Y-102686633D01*
X138170768Y-102686635D01*
X138156515Y-102822251D01*
X138151496Y-102870000D01*
X134635751Y-102870000D01*
X134600675Y-102831045D01*
X134600674Y-102831044D01*
X134596253Y-102826134D01*
X134441752Y-102713882D01*
X134435724Y-102711198D01*
X134435722Y-102711197D01*
X134337816Y-102667607D01*
X134283721Y-102621627D01*
X134263071Y-102553700D01*
X134282423Y-102485392D01*
X134337816Y-102437393D01*
X134435722Y-102393803D01*
X134435724Y-102393802D01*
X134441752Y-102391118D01*
X134596253Y-102278866D01*
X134636008Y-102234714D01*
X134719621Y-102141852D01*
X134719622Y-102141851D01*
X134724040Y-102136944D01*
X134819527Y-101971556D01*
X134878542Y-101789928D01*
X134881814Y-101758803D01*
X134897814Y-101606565D01*
X134898504Y-101600000D01*
X134878542Y-101410072D01*
X134819527Y-101228444D01*
X134724040Y-101063056D01*
X134596253Y-100921134D01*
X134441752Y-100808882D01*
X134435724Y-100806198D01*
X134435722Y-100806197D01*
X134273319Y-100733891D01*
X134273318Y-100733891D01*
X134267288Y-100731206D01*
X134173888Y-100711353D01*
X134086944Y-100692872D01*
X134086939Y-100692872D01*
X134080487Y-100691500D01*
X133889513Y-100691500D01*
X133883061Y-100692872D01*
X133883056Y-100692872D01*
X133796112Y-100711353D01*
X133702712Y-100731206D01*
X133696682Y-100733891D01*
X133696681Y-100733891D01*
X133534278Y-100806197D01*
X133534276Y-100806198D01*
X133528248Y-100808882D01*
X133373747Y-100921134D01*
X133245960Y-101063056D01*
X133150473Y-101228444D01*
X133091458Y-101410072D01*
X133071496Y-101600000D01*
X133072186Y-101606565D01*
X133088187Y-101758803D01*
X133091458Y-101789928D01*
X133150473Y-101971556D01*
X133245960Y-102136944D01*
X133250378Y-102141851D01*
X133250379Y-102141852D01*
X133333992Y-102234714D01*
X133373747Y-102278866D01*
X133528248Y-102391118D01*
X133534276Y-102393802D01*
X133534278Y-102393803D01*
X133632184Y-102437393D01*
X133686279Y-102483373D01*
X133706929Y-102551300D01*
X133687577Y-102619608D01*
X133632184Y-102667607D01*
X133534278Y-102711197D01*
X133534276Y-102711198D01*
X133528248Y-102713882D01*
X133373747Y-102826134D01*
X133369334Y-102831036D01*
X133369332Y-102831037D01*
X133347926Y-102854811D01*
X133287480Y-102892050D01*
X133254290Y-102896500D01*
X133043885Y-102896500D01*
X133027439Y-102895422D01*
X133003929Y-102892327D01*
X132995741Y-102891249D01*
X132836890Y-102912162D01*
X132688865Y-102973476D01*
X132643046Y-103008634D01*
X132593678Y-103046515D01*
X132593662Y-103046529D01*
X132568307Y-103065984D01*
X132568304Y-103065987D01*
X132561754Y-103071013D01*
X132556724Y-103077568D01*
X132542289Y-103096379D01*
X132531422Y-103108770D01*
X129685726Y-105954466D01*
X129623414Y-105988492D01*
X129552599Y-105983427D01*
X129495763Y-105940880D01*
X129470952Y-105874360D01*
X129471321Y-105852201D01*
X129485314Y-105719065D01*
X129486004Y-105712500D01*
X129466042Y-105522572D01*
X129407027Y-105340944D01*
X129311540Y-105175556D01*
X129197139Y-105048500D01*
X129188175Y-105038545D01*
X129188174Y-105038544D01*
X129183753Y-105033634D01*
X129043100Y-104931443D01*
X129034594Y-104925263D01*
X129034593Y-104925262D01*
X129029252Y-104921382D01*
X129023224Y-104918698D01*
X129023222Y-104918697D01*
X128949662Y-104885946D01*
X128895566Y-104839965D01*
X128874917Y-104772038D01*
X128894270Y-104703730D01*
X128949662Y-104655732D01*
X129038222Y-104616303D01*
X129038224Y-104616302D01*
X129044252Y-104613618D01*
X129198753Y-104501366D01*
X129279103Y-104412128D01*
X129322121Y-104364352D01*
X129322122Y-104364351D01*
X129326540Y-104359444D01*
X129422027Y-104194056D01*
X129481042Y-104012428D01*
X129501004Y-103822500D01*
X129500314Y-103815935D01*
X129481732Y-103639135D01*
X129481732Y-103639133D01*
X129481042Y-103632572D01*
X129422027Y-103450944D01*
X129389391Y-103394416D01*
X129329841Y-103291274D01*
X129326540Y-103285556D01*
X129198753Y-103143634D01*
X129065096Y-103046526D01*
X129049594Y-103035263D01*
X129049593Y-103035262D01*
X129044252Y-103031382D01*
X129038224Y-103028698D01*
X129038222Y-103028697D01*
X128875819Y-102956391D01*
X128875818Y-102956391D01*
X128869788Y-102953706D01*
X128776387Y-102933853D01*
X128689444Y-102915372D01*
X128689439Y-102915372D01*
X128682987Y-102914000D01*
X128492013Y-102914000D01*
X128485561Y-102915372D01*
X128485556Y-102915372D01*
X128398613Y-102933853D01*
X128305212Y-102953706D01*
X128299182Y-102956391D01*
X128299181Y-102956391D01*
X128136778Y-103028697D01*
X128136776Y-103028698D01*
X128130748Y-103031382D01*
X128125407Y-103035262D01*
X128125406Y-103035263D01*
X128109904Y-103046526D01*
X127976247Y-103143634D01*
X127848460Y-103285556D01*
X127845159Y-103291274D01*
X127785610Y-103394416D01*
X127752973Y-103450944D01*
X127693958Y-103632572D01*
X127693268Y-103639133D01*
X127693268Y-103639135D01*
X127674686Y-103815935D01*
X127673996Y-103822500D01*
X127693958Y-104012428D01*
X127752973Y-104194056D01*
X127848460Y-104359444D01*
X127852878Y-104364351D01*
X127852879Y-104364352D01*
X127895897Y-104412128D01*
X127976247Y-104501366D01*
X128130748Y-104613618D01*
X128136776Y-104616302D01*
X128136778Y-104616303D01*
X128210338Y-104649054D01*
X128264434Y-104695035D01*
X128285083Y-104762962D01*
X128265730Y-104831270D01*
X128210338Y-104879268D01*
X128121778Y-104918697D01*
X128121776Y-104918698D01*
X128115748Y-104921382D01*
X128110407Y-104925262D01*
X128110406Y-104925263D01*
X128101900Y-104931443D01*
X127961247Y-105033634D01*
X127956826Y-105038544D01*
X127956825Y-105038545D01*
X127947862Y-105048500D01*
X127833460Y-105175556D01*
X127737973Y-105340944D01*
X127678958Y-105522572D01*
X127658996Y-105712500D01*
X127678958Y-105902428D01*
X127737973Y-106084056D01*
X127833460Y-106249444D01*
X127961247Y-106391366D01*
X128115748Y-106503618D01*
X128121776Y-106506302D01*
X128121778Y-106506303D01*
X128284181Y-106578609D01*
X128290212Y-106581294D01*
X128352873Y-106594613D01*
X128470556Y-106619628D01*
X128470561Y-106619628D01*
X128477013Y-106621000D01*
X128667987Y-106621000D01*
X128674442Y-106619628D01*
X128674451Y-106619627D01*
X128697920Y-106614638D01*
X128768711Y-106620039D01*
X128825344Y-106662855D01*
X128849838Y-106729492D01*
X128834418Y-106798794D01*
X128813213Y-106826979D01*
X126618106Y-109022086D01*
X126555794Y-109056112D01*
X126484979Y-109051047D01*
X126428143Y-109008500D01*
X126403332Y-108941980D01*
X126403011Y-108932991D01*
X126403011Y-100965000D01*
X127356496Y-100965000D01*
X127376458Y-101154928D01*
X127435473Y-101336556D01*
X127530960Y-101501944D01*
X127658747Y-101643866D01*
X127813248Y-101756118D01*
X127819276Y-101758802D01*
X127819278Y-101758803D01*
X127981681Y-101831109D01*
X127987712Y-101833794D01*
X128081112Y-101853647D01*
X128168056Y-101872128D01*
X128168061Y-101872128D01*
X128174513Y-101873500D01*
X128365487Y-101873500D01*
X128371939Y-101872128D01*
X128371944Y-101872128D01*
X128458887Y-101853647D01*
X128552288Y-101833794D01*
X128558319Y-101831109D01*
X128720722Y-101758803D01*
X128720724Y-101758802D01*
X128726752Y-101756118D01*
X128881253Y-101643866D01*
X129009040Y-101501944D01*
X129104527Y-101336556D01*
X129163542Y-101154928D01*
X129183504Y-100965000D01*
X129178485Y-100917251D01*
X129164232Y-100781635D01*
X129164232Y-100781633D01*
X129163542Y-100775072D01*
X129104527Y-100593444D01*
X129009040Y-100428056D01*
X128963744Y-100377749D01*
X128885675Y-100291045D01*
X128885674Y-100291044D01*
X128881253Y-100286134D01*
X128726752Y-100173882D01*
X128720724Y-100171198D01*
X128720722Y-100171197D01*
X128558319Y-100098891D01*
X128558318Y-100098891D01*
X128552288Y-100096206D01*
X128439721Y-100072279D01*
X128371944Y-100057872D01*
X128371939Y-100057872D01*
X128365487Y-100056500D01*
X128174513Y-100056500D01*
X128168061Y-100057872D01*
X128168056Y-100057872D01*
X128100279Y-100072279D01*
X127987712Y-100096206D01*
X127981682Y-100098891D01*
X127981681Y-100098891D01*
X127819278Y-100171197D01*
X127819276Y-100171198D01*
X127813248Y-100173882D01*
X127658747Y-100286134D01*
X127654326Y-100291044D01*
X127654325Y-100291045D01*
X127576257Y-100377749D01*
X127530960Y-100428056D01*
X127435473Y-100593444D01*
X127376458Y-100775072D01*
X127375768Y-100781633D01*
X127375768Y-100781635D01*
X127361515Y-100917251D01*
X127356496Y-100965000D01*
X126403011Y-100965000D01*
X126403011Y-99060000D01*
X131166496Y-99060000D01*
X131167186Y-99066565D01*
X131183187Y-99218803D01*
X131186458Y-99249928D01*
X131245473Y-99431556D01*
X131340960Y-99596944D01*
X131468747Y-99738866D01*
X131623248Y-99851118D01*
X131629276Y-99853802D01*
X131629278Y-99853803D01*
X131791681Y-99926109D01*
X131797712Y-99928794D01*
X131891112Y-99948647D01*
X131978056Y-99967128D01*
X131978061Y-99967128D01*
X131984513Y-99968500D01*
X132175487Y-99968500D01*
X132181939Y-99967128D01*
X132181944Y-99967128D01*
X132268888Y-99948647D01*
X132362288Y-99928794D01*
X132368319Y-99926109D01*
X132530722Y-99853803D01*
X132530724Y-99853802D01*
X132536752Y-99851118D01*
X132691253Y-99738866D01*
X132819040Y-99596944D01*
X132914527Y-99431556D01*
X132973542Y-99249928D01*
X132976814Y-99218803D01*
X132992814Y-99066565D01*
X132993504Y-99060000D01*
X132989842Y-99025157D01*
X132974232Y-98876635D01*
X132974232Y-98876633D01*
X132973542Y-98870072D01*
X132914527Y-98688444D01*
X132891374Y-98648341D01*
X132844988Y-98568000D01*
X132819040Y-98523056D01*
X132795359Y-98496755D01*
X132695675Y-98386045D01*
X132695674Y-98386044D01*
X132691253Y-98381134D01*
X132574651Y-98296417D01*
X132542094Y-98272763D01*
X132542093Y-98272762D01*
X132536752Y-98268882D01*
X132530724Y-98266198D01*
X132530722Y-98266197D01*
X132368319Y-98193891D01*
X132368318Y-98193891D01*
X132362288Y-98191206D01*
X132268888Y-98171353D01*
X132181944Y-98152872D01*
X132181939Y-98152872D01*
X132175487Y-98151500D01*
X131984513Y-98151500D01*
X131978061Y-98152872D01*
X131978056Y-98152872D01*
X131891112Y-98171353D01*
X131797712Y-98191206D01*
X131791682Y-98193891D01*
X131791681Y-98193891D01*
X131629278Y-98266197D01*
X131629276Y-98266198D01*
X131623248Y-98268882D01*
X131617907Y-98272762D01*
X131617906Y-98272763D01*
X131585349Y-98296417D01*
X131468747Y-98381134D01*
X131464326Y-98386044D01*
X131464325Y-98386045D01*
X131364642Y-98496755D01*
X131340960Y-98523056D01*
X131315012Y-98568000D01*
X131268627Y-98648341D01*
X131245473Y-98688444D01*
X131186458Y-98870072D01*
X131185768Y-98876633D01*
X131185768Y-98876635D01*
X131170158Y-99025157D01*
X131166496Y-99060000D01*
X126403011Y-99060000D01*
X126403011Y-98836779D01*
X126423013Y-98768658D01*
X126435375Y-98752469D01*
X126529132Y-98648341D01*
X126529133Y-98648340D01*
X126533551Y-98643433D01*
X126603971Y-98521462D01*
X126625734Y-98483768D01*
X126625735Y-98483767D01*
X126629038Y-98478045D01*
X126688053Y-98296417D01*
X126695161Y-98228794D01*
X126707325Y-98113054D01*
X126708015Y-98106489D01*
X126688053Y-97916561D01*
X126629038Y-97734933D01*
X126618891Y-97717357D01*
X126536852Y-97575263D01*
X126533551Y-97569545D01*
X126487025Y-97517872D01*
X126410186Y-97432534D01*
X126410185Y-97432533D01*
X126405764Y-97427623D01*
X126251263Y-97315371D01*
X126245235Y-97312687D01*
X126245233Y-97312686D01*
X126082830Y-97240380D01*
X126082829Y-97240380D01*
X126076799Y-97237695D01*
X125983398Y-97217842D01*
X125896455Y-97199361D01*
X125896450Y-97199361D01*
X125889998Y-97197989D01*
X125699024Y-97197989D01*
X125692572Y-97199361D01*
X125692567Y-97199361D01*
X125605624Y-97217842D01*
X125512223Y-97237695D01*
X125506193Y-97240380D01*
X125506192Y-97240380D01*
X125343789Y-97312686D01*
X125343787Y-97312687D01*
X125337759Y-97315371D01*
X125183258Y-97427623D01*
X125178837Y-97432533D01*
X125178836Y-97432534D01*
X125101998Y-97517872D01*
X125055471Y-97569545D01*
X125052170Y-97575263D01*
X124970132Y-97717357D01*
X124959984Y-97734933D01*
X124900969Y-97916561D01*
X124881007Y-98106489D01*
X124881697Y-98113054D01*
X124893862Y-98228794D01*
X124900969Y-98296417D01*
X124959984Y-98478045D01*
X124963287Y-98483767D01*
X124963288Y-98483768D01*
X125036213Y-98610078D01*
X125052951Y-98679074D01*
X125029730Y-98746165D01*
X124973923Y-98790052D01*
X124953293Y-98796324D01*
X124812712Y-98826206D01*
X124806682Y-98828891D01*
X124806681Y-98828891D01*
X124644278Y-98901197D01*
X124644276Y-98901198D01*
X124638248Y-98903882D01*
X124483747Y-99016134D01*
X124479326Y-99021044D01*
X124479325Y-99021045D01*
X124401257Y-99107749D01*
X124355960Y-99158056D01*
X124260473Y-99323444D01*
X124201458Y-99505072D01*
X124181496Y-99695000D01*
X124182186Y-99701565D01*
X124198187Y-99853803D01*
X124201458Y-99884928D01*
X124260473Y-100066556D01*
X124355960Y-100231944D01*
X124360378Y-100236851D01*
X124360379Y-100236852D01*
X124404753Y-100286134D01*
X124483747Y-100373866D01*
X124638248Y-100486118D01*
X124644276Y-100488802D01*
X124644278Y-100488803D01*
X124775953Y-100547428D01*
X124812712Y-100563794D01*
X124901361Y-100582637D01*
X124993056Y-100602128D01*
X124993061Y-100602128D01*
X124999513Y-100603500D01*
X125060011Y-100603500D01*
X125128132Y-100623502D01*
X125174625Y-100677158D01*
X125186011Y-100729500D01*
X125186011Y-104505188D01*
X125166009Y-104573309D01*
X125112353Y-104619802D01*
X125042079Y-104629906D01*
X125034054Y-104628485D01*
X122137603Y-104018706D01*
X119626748Y-103490105D01*
X119564209Y-103456499D01*
X119529767Y-103394416D01*
X119534357Y-103323568D01*
X119543586Y-103303808D01*
X119576223Y-103247279D01*
X119576224Y-103247278D01*
X119579527Y-103241556D01*
X119638542Y-103059928D01*
X119641135Y-103035263D01*
X119657814Y-102876565D01*
X119657814Y-102876564D01*
X119658504Y-102870000D01*
X119653485Y-102822251D01*
X119639232Y-102686635D01*
X119639232Y-102686633D01*
X119638542Y-102680072D01*
X119579527Y-102498444D01*
X119571992Y-102485392D01*
X119487341Y-102338774D01*
X119484040Y-102333056D01*
X119438744Y-102282749D01*
X119360675Y-102196045D01*
X119360674Y-102196044D01*
X119356253Y-102191134D01*
X119201752Y-102078882D01*
X119195724Y-102076198D01*
X119195722Y-102076197D01*
X119033319Y-102003891D01*
X119033318Y-102003891D01*
X119027288Y-102001206D01*
X118914721Y-101977279D01*
X118846944Y-101962872D01*
X118846939Y-101962872D01*
X118840487Y-101961500D01*
X118649513Y-101961500D01*
X118643061Y-101962872D01*
X118643056Y-101962872D01*
X118575279Y-101977279D01*
X118462712Y-102001206D01*
X118456682Y-102003891D01*
X118456681Y-102003891D01*
X118294278Y-102076197D01*
X118294276Y-102076198D01*
X118288248Y-102078882D01*
X118133747Y-102191134D01*
X118129326Y-102196044D01*
X118129325Y-102196045D01*
X118051257Y-102282749D01*
X118005960Y-102333056D01*
X118002659Y-102338774D01*
X117918009Y-102485392D01*
X117910473Y-102498444D01*
X117851458Y-102680072D01*
X117850768Y-102686633D01*
X117850768Y-102686635D01*
X117836515Y-102822251D01*
X117831496Y-102870000D01*
X117836260Y-102915322D01*
X117839433Y-102945514D01*
X117826661Y-103015353D01*
X117778159Y-103067199D01*
X117709326Y-103084594D01*
X117688166Y-103081982D01*
X115491888Y-102619608D01*
X113665000Y-102235000D01*
X113663047Y-102234714D01*
X113663039Y-102234713D01*
X102976270Y-100672102D01*
X102911760Y-100642455D01*
X102873519Y-100582637D01*
X102868500Y-100547428D01*
X102868500Y-99695000D01*
X103861496Y-99695000D01*
X103862186Y-99701565D01*
X103878187Y-99853803D01*
X103881458Y-99884928D01*
X103940473Y-100066556D01*
X104035960Y-100231944D01*
X104040378Y-100236851D01*
X104040379Y-100236852D01*
X104084753Y-100286134D01*
X104163747Y-100373866D01*
X104318248Y-100486118D01*
X104324276Y-100488802D01*
X104324278Y-100488803D01*
X104455953Y-100547428D01*
X104492712Y-100563794D01*
X104581361Y-100582637D01*
X104673056Y-100602128D01*
X104673061Y-100602128D01*
X104679513Y-100603500D01*
X104870487Y-100603500D01*
X104876939Y-100602128D01*
X104876944Y-100602128D01*
X104968639Y-100582637D01*
X105057288Y-100563794D01*
X105094047Y-100547428D01*
X105225722Y-100488803D01*
X105225724Y-100488802D01*
X105231752Y-100486118D01*
X105318423Y-100423148D01*
X105364671Y-100389546D01*
X105386253Y-100373866D01*
X105390668Y-100368963D01*
X105395580Y-100364540D01*
X105396705Y-100365789D01*
X105450014Y-100332949D01*
X105483200Y-100328500D01*
X114226800Y-100328500D01*
X114294921Y-100348502D01*
X114314147Y-100364843D01*
X114314420Y-100364540D01*
X114319332Y-100368963D01*
X114323747Y-100373866D01*
X114345329Y-100389546D01*
X114391578Y-100423148D01*
X114478248Y-100486118D01*
X114484276Y-100488802D01*
X114484278Y-100488803D01*
X114615953Y-100547428D01*
X114652712Y-100563794D01*
X114741361Y-100582637D01*
X114833056Y-100602128D01*
X114833061Y-100602128D01*
X114839513Y-100603500D01*
X115030487Y-100603500D01*
X115036939Y-100602128D01*
X115036944Y-100602128D01*
X115128639Y-100582637D01*
X115217288Y-100563794D01*
X115254047Y-100547428D01*
X115385722Y-100488803D01*
X115385724Y-100488802D01*
X115391752Y-100486118D01*
X115546253Y-100373866D01*
X115625247Y-100286134D01*
X115669621Y-100236852D01*
X115669622Y-100236851D01*
X115674040Y-100231944D01*
X115769527Y-100066556D01*
X115828542Y-99884928D01*
X115831814Y-99853803D01*
X115847814Y-99701565D01*
X115848504Y-99695000D01*
X115828542Y-99505072D01*
X115769527Y-99323444D01*
X115674040Y-99158056D01*
X115628744Y-99107749D01*
X115550675Y-99021045D01*
X115550674Y-99021044D01*
X115546253Y-99016134D01*
X115391752Y-98903882D01*
X115385726Y-98901199D01*
X115385719Y-98901195D01*
X115240214Y-98836413D01*
X115186118Y-98790433D01*
X115165468Y-98722506D01*
X115171629Y-98682370D01*
X115191502Y-98621206D01*
X115193542Y-98614928D01*
X115196814Y-98583803D01*
X115212814Y-98431565D01*
X115213504Y-98425000D01*
X115203198Y-98326944D01*
X115194232Y-98241635D01*
X115194232Y-98241633D01*
X115193542Y-98235072D01*
X115134527Y-98053444D01*
X115039040Y-97888056D01*
X114911253Y-97746134D01*
X114756752Y-97633882D01*
X114750724Y-97631198D01*
X114750722Y-97631197D01*
X114588319Y-97558891D01*
X114588318Y-97558891D01*
X114582288Y-97556206D01*
X114488888Y-97536353D01*
X114401944Y-97517872D01*
X114401939Y-97517872D01*
X114395487Y-97516500D01*
X114204513Y-97516500D01*
X114198061Y-97517872D01*
X114198056Y-97517872D01*
X114111112Y-97536353D01*
X114017712Y-97556206D01*
X114011682Y-97558891D01*
X114011681Y-97558891D01*
X113849278Y-97631197D01*
X113849276Y-97631198D01*
X113843248Y-97633882D01*
X113688747Y-97746134D01*
X113560960Y-97888056D01*
X113465473Y-98053444D01*
X113406458Y-98235072D01*
X113405768Y-98241633D01*
X113405768Y-98241635D01*
X113396802Y-98326944D01*
X113386496Y-98425000D01*
X113387186Y-98431565D01*
X113403187Y-98583803D01*
X113406458Y-98614928D01*
X113465473Y-98796556D01*
X113468776Y-98802278D01*
X113468777Y-98802279D01*
X113509319Y-98872500D01*
X113526057Y-98941496D01*
X113502836Y-99008587D01*
X113447029Y-99052474D01*
X113400200Y-99061500D01*
X105483200Y-99061500D01*
X105415079Y-99041498D01*
X105395853Y-99025157D01*
X105395580Y-99025460D01*
X105390668Y-99021037D01*
X105386253Y-99016134D01*
X105325906Y-98972289D01*
X105237094Y-98907763D01*
X105237093Y-98907762D01*
X105231752Y-98903882D01*
X105225724Y-98901198D01*
X105225722Y-98901197D01*
X105063319Y-98828891D01*
X105063318Y-98828891D01*
X105057288Y-98826206D01*
X104944721Y-98802279D01*
X104876944Y-98787872D01*
X104876939Y-98787872D01*
X104870487Y-98786500D01*
X104679513Y-98786500D01*
X104673061Y-98787872D01*
X104673056Y-98787872D01*
X104605279Y-98802279D01*
X104492712Y-98826206D01*
X104486682Y-98828891D01*
X104486681Y-98828891D01*
X104324278Y-98901197D01*
X104324276Y-98901198D01*
X104318248Y-98903882D01*
X104163747Y-99016134D01*
X104159326Y-99021044D01*
X104159325Y-99021045D01*
X104081257Y-99107749D01*
X104035960Y-99158056D01*
X103940473Y-99323444D01*
X103881458Y-99505072D01*
X103861496Y-99695000D01*
X102868500Y-99695000D01*
X102868500Y-99456148D01*
X102888502Y-99388027D01*
X102942158Y-99341534D01*
X102968299Y-99332902D01*
X103152288Y-99293794D01*
X103158319Y-99291109D01*
X103320722Y-99218803D01*
X103320724Y-99218802D01*
X103326752Y-99216118D01*
X103481253Y-99103866D01*
X103514839Y-99066565D01*
X103604621Y-98966852D01*
X103604625Y-98966847D01*
X103609040Y-98961944D01*
X103687409Y-98826206D01*
X103701223Y-98802279D01*
X103701224Y-98802278D01*
X103704527Y-98796556D01*
X103763542Y-98614928D01*
X103766814Y-98583803D01*
X103782814Y-98431565D01*
X103783504Y-98425000D01*
X103773198Y-98326944D01*
X103764232Y-98241635D01*
X103764232Y-98241633D01*
X103763542Y-98235072D01*
X103704527Y-98053444D01*
X103609040Y-97888056D01*
X103481253Y-97746134D01*
X103326752Y-97633882D01*
X103320724Y-97631198D01*
X103320722Y-97631197D01*
X103158319Y-97558891D01*
X103158318Y-97558891D01*
X103152288Y-97556206D01*
X103058888Y-97536353D01*
X102971944Y-97517872D01*
X102971939Y-97517872D01*
X102965487Y-97516500D01*
X102774513Y-97516500D01*
X102768061Y-97517872D01*
X102768056Y-97517872D01*
X102681112Y-97536353D01*
X102587712Y-97556206D01*
X102581682Y-97558891D01*
X102581681Y-97558891D01*
X102419278Y-97631197D01*
X102419276Y-97631198D01*
X102413248Y-97633882D01*
X102309060Y-97709579D01*
X102242194Y-97733437D01*
X102173042Y-97717357D01*
X102160944Y-97709582D01*
X102056752Y-97633882D01*
X102050724Y-97631198D01*
X102050722Y-97631197D01*
X101888319Y-97558891D01*
X101888318Y-97558891D01*
X101882288Y-97556206D01*
X101788888Y-97536353D01*
X101701944Y-97517872D01*
X101701939Y-97517872D01*
X101695487Y-97516500D01*
X101526856Y-97516500D01*
X101458735Y-97496498D01*
X101412242Y-97442842D01*
X101402138Y-97372568D01*
X101431632Y-97307988D01*
X101452795Y-97288564D01*
X101519114Y-97240380D01*
X101576253Y-97198866D01*
X101655247Y-97111134D01*
X101699621Y-97061852D01*
X101699622Y-97061851D01*
X101704040Y-97056944D01*
X101799527Y-96891556D01*
X101858542Y-96709928D01*
X101861814Y-96678803D01*
X101877814Y-96526565D01*
X101878504Y-96520000D01*
X104496496Y-96520000D01*
X104497186Y-96526565D01*
X104513187Y-96678803D01*
X104516458Y-96709928D01*
X104575473Y-96891556D01*
X104670960Y-97056944D01*
X104675378Y-97061851D01*
X104675379Y-97061852D01*
X104719753Y-97111134D01*
X104798747Y-97198866D01*
X104953248Y-97311118D01*
X104959276Y-97313802D01*
X104959278Y-97313803D01*
X105121681Y-97386109D01*
X105127712Y-97388794D01*
X105220858Y-97408593D01*
X105308056Y-97427128D01*
X105308061Y-97427128D01*
X105314513Y-97428500D01*
X105505487Y-97428500D01*
X105511939Y-97427128D01*
X105511944Y-97427128D01*
X105599142Y-97408593D01*
X105692288Y-97388794D01*
X105698319Y-97386109D01*
X105860722Y-97313803D01*
X105860724Y-97313802D01*
X105866752Y-97311118D01*
X106021253Y-97198866D01*
X106100247Y-97111134D01*
X106144621Y-97061852D01*
X106144622Y-97061851D01*
X106149040Y-97056944D01*
X106244527Y-96891556D01*
X106303542Y-96709928D01*
X106306814Y-96678803D01*
X106322814Y-96526565D01*
X106323504Y-96520000D01*
X111481496Y-96520000D01*
X111482186Y-96526565D01*
X111498187Y-96678803D01*
X111501458Y-96709928D01*
X111560473Y-96891556D01*
X111655960Y-97056944D01*
X111660378Y-97061851D01*
X111660379Y-97061852D01*
X111704753Y-97111134D01*
X111783747Y-97198866D01*
X111938248Y-97311118D01*
X111944276Y-97313802D01*
X111944278Y-97313803D01*
X112106681Y-97386109D01*
X112112712Y-97388794D01*
X112205858Y-97408593D01*
X112293056Y-97427128D01*
X112293061Y-97427128D01*
X112299513Y-97428500D01*
X112490487Y-97428500D01*
X112496939Y-97427128D01*
X112496944Y-97427128D01*
X112584142Y-97408593D01*
X112677288Y-97388794D01*
X112683319Y-97386109D01*
X112845722Y-97313803D01*
X112845724Y-97313802D01*
X112851752Y-97311118D01*
X113006253Y-97198866D01*
X113085247Y-97111134D01*
X113129621Y-97061852D01*
X113129622Y-97061851D01*
X113134040Y-97056944D01*
X113229527Y-96891556D01*
X113288542Y-96709928D01*
X113291814Y-96678803D01*
X113307814Y-96526565D01*
X113308504Y-96520000D01*
X113288542Y-96330072D01*
X113229527Y-96148444D01*
X113134040Y-95983056D01*
X113045750Y-95885000D01*
X114021496Y-95885000D01*
X114022186Y-95891565D01*
X114035721Y-96020339D01*
X114041458Y-96074928D01*
X114100473Y-96256556D01*
X114195960Y-96421944D01*
X114200378Y-96426851D01*
X114200379Y-96426852D01*
X114284250Y-96520000D01*
X114323747Y-96563866D01*
X114478248Y-96676118D01*
X114484276Y-96678802D01*
X114484278Y-96678803D01*
X114646681Y-96751109D01*
X114652712Y-96753794D01*
X114734149Y-96771104D01*
X114833056Y-96792128D01*
X114833061Y-96792128D01*
X114839513Y-96793500D01*
X115030487Y-96793500D01*
X115036939Y-96792128D01*
X115036944Y-96792128D01*
X115135851Y-96771104D01*
X115217288Y-96753794D01*
X115223319Y-96751109D01*
X115385722Y-96678803D01*
X115385724Y-96678802D01*
X115391752Y-96676118D01*
X115546253Y-96563866D01*
X115585750Y-96520000D01*
X115669621Y-96426852D01*
X115669622Y-96426851D01*
X115674040Y-96421944D01*
X115769527Y-96256556D01*
X115828542Y-96074928D01*
X115834280Y-96020339D01*
X115847814Y-95891565D01*
X115848504Y-95885000D01*
X115843485Y-95837251D01*
X115829232Y-95701635D01*
X115829232Y-95701633D01*
X115828542Y-95695072D01*
X115769527Y-95513444D01*
X115674040Y-95348056D01*
X115658162Y-95330421D01*
X115550675Y-95211045D01*
X115550674Y-95211044D01*
X115546253Y-95206134D01*
X115391752Y-95093882D01*
X115385724Y-95091198D01*
X115385722Y-95091197D01*
X115223319Y-95018891D01*
X115223318Y-95018891D01*
X115217288Y-95016206D01*
X115104721Y-94992279D01*
X115036944Y-94977872D01*
X115036939Y-94977872D01*
X115030487Y-94976500D01*
X114839513Y-94976500D01*
X114833061Y-94977872D01*
X114833056Y-94977872D01*
X114765279Y-94992279D01*
X114652712Y-95016206D01*
X114646682Y-95018891D01*
X114646681Y-95018891D01*
X114484278Y-95091197D01*
X114484276Y-95091198D01*
X114478248Y-95093882D01*
X114323747Y-95206134D01*
X114319326Y-95211044D01*
X114319325Y-95211045D01*
X114211839Y-95330421D01*
X114195960Y-95348056D01*
X114100473Y-95513444D01*
X114041458Y-95695072D01*
X114040768Y-95701633D01*
X114040768Y-95701635D01*
X114026515Y-95837251D01*
X114021496Y-95885000D01*
X113045750Y-95885000D01*
X113006253Y-95841134D01*
X112851752Y-95728882D01*
X112845724Y-95726198D01*
X112845722Y-95726197D01*
X112683319Y-95653891D01*
X112683318Y-95653891D01*
X112677288Y-95651206D01*
X112583888Y-95631353D01*
X112496944Y-95612872D01*
X112496939Y-95612872D01*
X112490487Y-95611500D01*
X112299513Y-95611500D01*
X112293061Y-95612872D01*
X112293056Y-95612872D01*
X112206112Y-95631353D01*
X112112712Y-95651206D01*
X112106682Y-95653891D01*
X112106681Y-95653891D01*
X111944278Y-95726197D01*
X111944276Y-95726198D01*
X111938248Y-95728882D01*
X111783747Y-95841134D01*
X111655960Y-95983056D01*
X111560473Y-96148444D01*
X111501458Y-96330072D01*
X111481496Y-96520000D01*
X106323504Y-96520000D01*
X106303542Y-96330072D01*
X106244527Y-96148444D01*
X106149040Y-95983056D01*
X106021253Y-95841134D01*
X105866752Y-95728882D01*
X105860724Y-95726198D01*
X105860722Y-95726197D01*
X105698319Y-95653891D01*
X105698318Y-95653891D01*
X105692288Y-95651206D01*
X105598888Y-95631353D01*
X105511944Y-95612872D01*
X105511939Y-95612872D01*
X105505487Y-95611500D01*
X105314513Y-95611500D01*
X105308061Y-95612872D01*
X105308056Y-95612872D01*
X105221112Y-95631353D01*
X105127712Y-95651206D01*
X105121682Y-95653891D01*
X105121681Y-95653891D01*
X104959278Y-95726197D01*
X104959276Y-95726198D01*
X104953248Y-95728882D01*
X104798747Y-95841134D01*
X104670960Y-95983056D01*
X104575473Y-96148444D01*
X104516458Y-96330072D01*
X104496496Y-96520000D01*
X101878504Y-96520000D01*
X101858542Y-96330072D01*
X101799527Y-96148444D01*
X101704040Y-95983056D01*
X101576253Y-95841134D01*
X101421752Y-95728882D01*
X101415724Y-95726198D01*
X101415722Y-95726197D01*
X101253319Y-95653891D01*
X101253318Y-95653891D01*
X101247288Y-95651206D01*
X101153888Y-95631353D01*
X101066944Y-95612872D01*
X101066939Y-95612872D01*
X101060487Y-95611500D01*
X100869513Y-95611500D01*
X100863061Y-95612872D01*
X100863056Y-95612872D01*
X100776112Y-95631353D01*
X100682712Y-95651206D01*
X100676682Y-95653891D01*
X100676681Y-95653891D01*
X100514278Y-95726197D01*
X100514276Y-95726198D01*
X100508248Y-95728882D01*
X100353747Y-95841134D01*
X100225960Y-95983056D01*
X100130473Y-96148444D01*
X100071458Y-96330072D01*
X100051496Y-96520000D01*
X100052186Y-96526565D01*
X100068187Y-96678803D01*
X100071458Y-96709928D01*
X100130473Y-96891556D01*
X100225960Y-97056944D01*
X100230378Y-97061851D01*
X100230379Y-97061852D01*
X100274753Y-97111134D01*
X100353747Y-97198866D01*
X100508248Y-97311118D01*
X100514276Y-97313802D01*
X100514278Y-97313803D01*
X100676681Y-97386109D01*
X100682712Y-97388794D01*
X100775858Y-97408593D01*
X100863056Y-97427128D01*
X100863061Y-97427128D01*
X100869513Y-97428500D01*
X101038144Y-97428500D01*
X101106265Y-97448502D01*
X101152758Y-97502158D01*
X101162862Y-97572432D01*
X101133368Y-97637012D01*
X101112205Y-97656436D01*
X100988747Y-97746134D01*
X100860960Y-97888056D01*
X100765473Y-98053444D01*
X100706458Y-98235072D01*
X100705768Y-98241633D01*
X100705768Y-98241635D01*
X100696802Y-98326944D01*
X100686496Y-98425000D01*
X100687186Y-98431565D01*
X100703187Y-98583803D01*
X100706458Y-98614928D01*
X100765473Y-98796556D01*
X100768776Y-98802278D01*
X100768777Y-98802279D01*
X100782591Y-98826206D01*
X100860960Y-98961944D01*
X100934137Y-99043215D01*
X100964853Y-99107221D01*
X100966500Y-99127524D01*
X100966500Y-100232472D01*
X100946498Y-100300593D01*
X100892842Y-100347086D01*
X100822271Y-100357146D01*
X99056054Y-100098891D01*
X96258319Y-99689808D01*
X96193809Y-99660161D01*
X96155568Y-99600343D01*
X96151239Y-99578305D01*
X96144232Y-99511634D01*
X96144231Y-99511631D01*
X96143542Y-99505072D01*
X96084527Y-99323444D01*
X95989040Y-99158056D01*
X95943744Y-99107749D01*
X95865675Y-99021045D01*
X95865674Y-99021044D01*
X95861253Y-99016134D01*
X95706752Y-98903882D01*
X95700724Y-98901198D01*
X95700722Y-98901197D01*
X95538319Y-98828891D01*
X95538318Y-98828891D01*
X95532288Y-98826206D01*
X95419721Y-98802279D01*
X95351944Y-98787872D01*
X95351939Y-98787872D01*
X95345487Y-98786500D01*
X95154513Y-98786500D01*
X95148061Y-98787872D01*
X95148056Y-98787872D01*
X95080279Y-98802279D01*
X94967712Y-98826206D01*
X94961682Y-98828891D01*
X94961681Y-98828891D01*
X94799278Y-98901197D01*
X94799276Y-98901198D01*
X94793248Y-98903882D01*
X94787907Y-98907762D01*
X94787906Y-98907763D01*
X94699094Y-98972289D01*
X94638747Y-99016134D01*
X94634332Y-99021037D01*
X94629420Y-99025460D01*
X94628295Y-99024211D01*
X94574986Y-99057051D01*
X94541800Y-99061500D01*
X93087982Y-99061500D01*
X93019861Y-99041498D01*
X92973368Y-98987842D01*
X92963264Y-98917568D01*
X92976120Y-98880430D01*
X92975294Y-98880062D01*
X92977978Y-98874034D01*
X92981282Y-98868311D01*
X93040297Y-98686683D01*
X93042744Y-98663407D01*
X93053851Y-98557723D01*
X93057662Y-98521461D01*
X93084675Y-98455805D01*
X93093877Y-98445537D01*
X94403575Y-97135840D01*
X94465887Y-97101814D01*
X94536703Y-97106879D01*
X94586305Y-97140624D01*
X94638747Y-97198866D01*
X94793248Y-97311118D01*
X94799276Y-97313802D01*
X94799278Y-97313803D01*
X94961681Y-97386109D01*
X94967712Y-97388794D01*
X95060858Y-97408593D01*
X95148056Y-97427128D01*
X95148061Y-97427128D01*
X95154513Y-97428500D01*
X95345487Y-97428500D01*
X95351939Y-97427128D01*
X95351944Y-97427128D01*
X95439142Y-97408593D01*
X95532288Y-97388794D01*
X95538319Y-97386109D01*
X95700722Y-97313803D01*
X95700724Y-97313802D01*
X95706752Y-97311118D01*
X95861253Y-97198866D01*
X95940247Y-97111134D01*
X95984621Y-97061852D01*
X95984622Y-97061851D01*
X95989040Y-97056944D01*
X96084527Y-96891556D01*
X96086567Y-96885277D01*
X96087394Y-96883420D01*
X96133374Y-96829325D01*
X96201301Y-96808676D01*
X96269609Y-96828029D01*
X96317606Y-96883420D01*
X96318433Y-96885277D01*
X96320473Y-96891556D01*
X96415960Y-97056944D01*
X96420378Y-97061851D01*
X96420379Y-97061852D01*
X96464753Y-97111134D01*
X96543747Y-97198866D01*
X96698248Y-97311118D01*
X96704276Y-97313802D01*
X96704278Y-97313803D01*
X96866681Y-97386109D01*
X96872712Y-97388794D01*
X96965858Y-97408593D01*
X97053056Y-97427128D01*
X97053061Y-97427128D01*
X97059513Y-97428500D01*
X97250487Y-97428500D01*
X97256939Y-97427128D01*
X97256944Y-97427128D01*
X97344142Y-97408593D01*
X97437288Y-97388794D01*
X97443319Y-97386109D01*
X97605722Y-97313803D01*
X97605724Y-97313802D01*
X97611752Y-97311118D01*
X97766253Y-97198866D01*
X97845247Y-97111134D01*
X97889621Y-97061852D01*
X97889622Y-97061851D01*
X97894040Y-97056944D01*
X97989527Y-96891556D01*
X98048542Y-96709928D01*
X98051814Y-96678803D01*
X98067814Y-96526565D01*
X98068504Y-96520000D01*
X98048542Y-96330072D01*
X97989527Y-96148444D01*
X97894040Y-95983056D01*
X97766253Y-95841134D01*
X97611752Y-95728882D01*
X97605724Y-95726198D01*
X97605722Y-95726197D01*
X97443319Y-95653891D01*
X97443318Y-95653891D01*
X97437288Y-95651206D01*
X97343888Y-95631353D01*
X97256944Y-95612872D01*
X97256939Y-95612872D01*
X97250487Y-95611500D01*
X97059513Y-95611500D01*
X97053061Y-95612872D01*
X97053056Y-95612872D01*
X96966112Y-95631353D01*
X96872712Y-95651206D01*
X96866682Y-95653891D01*
X96866681Y-95653891D01*
X96704278Y-95726197D01*
X96704276Y-95726198D01*
X96698248Y-95728882D01*
X96692907Y-95732762D01*
X96692906Y-95732763D01*
X96544515Y-95840576D01*
X96538450Y-95842740D01*
X96524229Y-95862811D01*
X96415960Y-95983056D01*
X96320473Y-96148444D01*
X96318433Y-96154723D01*
X96317606Y-96156580D01*
X96271626Y-96210675D01*
X96203699Y-96231324D01*
X96135391Y-96211971D01*
X96087394Y-96156580D01*
X96086567Y-96154722D01*
X96084527Y-96148444D01*
X96058906Y-96104067D01*
X96042169Y-96035072D01*
X96065390Y-95967980D01*
X96078931Y-95951973D01*
X96341498Y-95689406D01*
X96364852Y-95676654D01*
X96370674Y-95661699D01*
X96381359Y-95649545D01*
X98780580Y-93250324D01*
X98842892Y-93216298D01*
X98913707Y-93221363D01*
X98963311Y-93255108D01*
X99083747Y-93388866D01*
X99238248Y-93501118D01*
X99244276Y-93503802D01*
X99244278Y-93503803D01*
X99406681Y-93576109D01*
X99412712Y-93578794D01*
X99506113Y-93598647D01*
X99593056Y-93617128D01*
X99593061Y-93617128D01*
X99599513Y-93618500D01*
X99790487Y-93618500D01*
X99796939Y-93617128D01*
X99796944Y-93617128D01*
X99883887Y-93598647D01*
X99977288Y-93578794D01*
X99983319Y-93576109D01*
X100145722Y-93503803D01*
X100145724Y-93503802D01*
X100151752Y-93501118D01*
X100306253Y-93388866D01*
X100347548Y-93343003D01*
X100429621Y-93251852D01*
X100429622Y-93251851D01*
X100434040Y-93246944D01*
X100529527Y-93081556D01*
X100588542Y-92899928D01*
X100592504Y-92862237D01*
X100607814Y-92716565D01*
X100608504Y-92710000D01*
X102591496Y-92710000D01*
X102592186Y-92716565D01*
X102607497Y-92862237D01*
X102611458Y-92899928D01*
X102670473Y-93081556D01*
X102765960Y-93246944D01*
X102770378Y-93251851D01*
X102770379Y-93251852D01*
X102852452Y-93343003D01*
X102893747Y-93388866D01*
X103048248Y-93501118D01*
X103054276Y-93503802D01*
X103054278Y-93503803D01*
X103216681Y-93576109D01*
X103222712Y-93578794D01*
X103316113Y-93598647D01*
X103403056Y-93617128D01*
X103403061Y-93617128D01*
X103409513Y-93618500D01*
X103600487Y-93618500D01*
X103606939Y-93617128D01*
X103606944Y-93617128D01*
X103693887Y-93598647D01*
X103787288Y-93578794D01*
X103793319Y-93576109D01*
X103955722Y-93503803D01*
X103955724Y-93503802D01*
X103961752Y-93501118D01*
X104116253Y-93388866D01*
X104120668Y-93383963D01*
X104125580Y-93379540D01*
X104126705Y-93380789D01*
X104180014Y-93347949D01*
X104213200Y-93343500D01*
X109141233Y-93343500D01*
X109152416Y-93344027D01*
X109159909Y-93345702D01*
X109167835Y-93345453D01*
X109167836Y-93345453D01*
X109227986Y-93343562D01*
X109231945Y-93343500D01*
X109259856Y-93343500D01*
X109263791Y-93343003D01*
X109263856Y-93342995D01*
X109275693Y-93342062D01*
X109307951Y-93341048D01*
X109311970Y-93340922D01*
X109319889Y-93340673D01*
X109339343Y-93335021D01*
X109358700Y-93331013D01*
X109370930Y-93329468D01*
X109370931Y-93329468D01*
X109378797Y-93328474D01*
X109386168Y-93325555D01*
X109386170Y-93325555D01*
X109419912Y-93312196D01*
X109431142Y-93308351D01*
X109465983Y-93298229D01*
X109465984Y-93298229D01*
X109473593Y-93296018D01*
X109480412Y-93291985D01*
X109480417Y-93291983D01*
X109491028Y-93285707D01*
X109508776Y-93277012D01*
X109527617Y-93269552D01*
X109554083Y-93250324D01*
X109563387Y-93243564D01*
X109573307Y-93237048D01*
X109604535Y-93218580D01*
X109604538Y-93218578D01*
X109611362Y-93214542D01*
X109625683Y-93200221D01*
X109640717Y-93187380D01*
X109650694Y-93180131D01*
X109657107Y-93175472D01*
X109685298Y-93141395D01*
X109693288Y-93132616D01*
X110440499Y-92385405D01*
X110502811Y-92351379D01*
X110529594Y-92348500D01*
X110585487Y-92348500D01*
X110591939Y-92347128D01*
X110591944Y-92347128D01*
X110678888Y-92328647D01*
X110772288Y-92308794D01*
X110778319Y-92306109D01*
X110940722Y-92233803D01*
X110940724Y-92233802D01*
X110946752Y-92231118D01*
X111101253Y-92118866D01*
X111134839Y-92081565D01*
X111224621Y-91981852D01*
X111224625Y-91981847D01*
X111229040Y-91976944D01*
X111324527Y-91811556D01*
X111383542Y-91629928D01*
X111403504Y-91440000D01*
X111396375Y-91372168D01*
X111384232Y-91256635D01*
X111384232Y-91256633D01*
X111383542Y-91250072D01*
X111324527Y-91068444D01*
X111229040Y-90903056D01*
X111212882Y-90885110D01*
X111105675Y-90766045D01*
X111105674Y-90766044D01*
X111101253Y-90761134D01*
X110946752Y-90648882D01*
X110940724Y-90646198D01*
X110940722Y-90646197D01*
X110778319Y-90573891D01*
X110778318Y-90573891D01*
X110772288Y-90571206D01*
X110678887Y-90551353D01*
X110591944Y-90532872D01*
X110591939Y-90532872D01*
X110585487Y-90531500D01*
X110394513Y-90531500D01*
X110388061Y-90532872D01*
X110388056Y-90532872D01*
X110301113Y-90551353D01*
X110207712Y-90571206D01*
X110201682Y-90573891D01*
X110201681Y-90573891D01*
X110039278Y-90646197D01*
X110039276Y-90646198D01*
X110033248Y-90648882D01*
X109878747Y-90761134D01*
X109874326Y-90766044D01*
X109874325Y-90766045D01*
X109767119Y-90885110D01*
X109750960Y-90903056D01*
X109655473Y-91068444D01*
X109596458Y-91250072D01*
X109595768Y-91256633D01*
X109595768Y-91256635D01*
X109592123Y-91291318D01*
X109581107Y-91396134D01*
X109579093Y-91415292D01*
X109552080Y-91480949D01*
X109542878Y-91491217D01*
X108994500Y-92039595D01*
X108932188Y-92073621D01*
X108905405Y-92076500D01*
X108214800Y-92076500D01*
X108146679Y-92056498D01*
X108100186Y-92002842D01*
X108090082Y-91932568D01*
X108105681Y-91887500D01*
X108146223Y-91817279D01*
X108146224Y-91817278D01*
X108149527Y-91811556D01*
X108208542Y-91629928D01*
X108228504Y-91440000D01*
X108221375Y-91372168D01*
X108209232Y-91256635D01*
X108209232Y-91256633D01*
X108208542Y-91250072D01*
X108149527Y-91068444D01*
X108054040Y-90903056D01*
X108037882Y-90885110D01*
X107930675Y-90766045D01*
X107930674Y-90766044D01*
X107926253Y-90761134D01*
X107771752Y-90648882D01*
X107765724Y-90646198D01*
X107765722Y-90646197D01*
X107603319Y-90573891D01*
X107603318Y-90573891D01*
X107597288Y-90571206D01*
X107503887Y-90551353D01*
X107416944Y-90532872D01*
X107416939Y-90532872D01*
X107410487Y-90531500D01*
X107219513Y-90531500D01*
X107213061Y-90532872D01*
X107213056Y-90532872D01*
X107126113Y-90551353D01*
X107032712Y-90571206D01*
X107026682Y-90573891D01*
X107026681Y-90573891D01*
X106864278Y-90646197D01*
X106864276Y-90646198D01*
X106858248Y-90648882D01*
X106703747Y-90761134D01*
X106699326Y-90766044D01*
X106699325Y-90766045D01*
X106592119Y-90885110D01*
X106575960Y-90903056D01*
X106480473Y-91068444D01*
X106421458Y-91250072D01*
X106420768Y-91256633D01*
X106420768Y-91256635D01*
X106408625Y-91372168D01*
X106401496Y-91440000D01*
X106421458Y-91629928D01*
X106480473Y-91811556D01*
X106483776Y-91817278D01*
X106483777Y-91817279D01*
X106524319Y-91887500D01*
X106541057Y-91956496D01*
X106517836Y-92023587D01*
X106462029Y-92067474D01*
X106415200Y-92076500D01*
X104213200Y-92076500D01*
X104145079Y-92056498D01*
X104125853Y-92040157D01*
X104125580Y-92040460D01*
X104120668Y-92036037D01*
X104116253Y-92031134D01*
X104077313Y-92002842D01*
X103967094Y-91922763D01*
X103967093Y-91922762D01*
X103961752Y-91918882D01*
X103955724Y-91916198D01*
X103955722Y-91916197D01*
X103793319Y-91843891D01*
X103793318Y-91843891D01*
X103787288Y-91841206D01*
X103674721Y-91817279D01*
X103606944Y-91802872D01*
X103606939Y-91802872D01*
X103600487Y-91801500D01*
X103409513Y-91801500D01*
X103403061Y-91802872D01*
X103403056Y-91802872D01*
X103335279Y-91817279D01*
X103222712Y-91841206D01*
X103216682Y-91843891D01*
X103216681Y-91843891D01*
X103054278Y-91916197D01*
X103054276Y-91916198D01*
X103048248Y-91918882D01*
X102893747Y-92031134D01*
X102889326Y-92036044D01*
X102889325Y-92036045D01*
X102811257Y-92122749D01*
X102765960Y-92173056D01*
X102670473Y-92338444D01*
X102611458Y-92520072D01*
X102591496Y-92710000D01*
X100608504Y-92710000D01*
X100588542Y-92520072D01*
X100529527Y-92338444D01*
X100434040Y-92173056D01*
X100421662Y-92159309D01*
X100390946Y-92095303D01*
X100399710Y-92024850D01*
X100421661Y-91990693D01*
X100434040Y-91976944D01*
X100529527Y-91811556D01*
X100588542Y-91629928D01*
X100608504Y-91440000D01*
X100601375Y-91372168D01*
X100589232Y-91256635D01*
X100589232Y-91256633D01*
X100588542Y-91250072D01*
X100529527Y-91068444D01*
X100434040Y-90903056D01*
X100417882Y-90885110D01*
X100310675Y-90766045D01*
X100310674Y-90766044D01*
X100306253Y-90761134D01*
X100151752Y-90648882D01*
X100145724Y-90646198D01*
X100145722Y-90646197D01*
X99983319Y-90573891D01*
X99983318Y-90573891D01*
X99977288Y-90571206D01*
X99883887Y-90551353D01*
X99796944Y-90532872D01*
X99796939Y-90532872D01*
X99790487Y-90531500D01*
X99599513Y-90531500D01*
X99593061Y-90532872D01*
X99593056Y-90532872D01*
X99506113Y-90551353D01*
X99412712Y-90571206D01*
X99406682Y-90573891D01*
X99406681Y-90573891D01*
X99244278Y-90646197D01*
X99244276Y-90646198D01*
X99238248Y-90648882D01*
X99134060Y-90724579D01*
X99067194Y-90748437D01*
X98998042Y-90732357D01*
X98985944Y-90724582D01*
X98881752Y-90648882D01*
X98875724Y-90646198D01*
X98875722Y-90646197D01*
X98713319Y-90573891D01*
X98713318Y-90573891D01*
X98707288Y-90571206D01*
X98613887Y-90551353D01*
X98526944Y-90532872D01*
X98526939Y-90532872D01*
X98520487Y-90531500D01*
X98329513Y-90531500D01*
X98323061Y-90532872D01*
X98323056Y-90532872D01*
X98236113Y-90551353D01*
X98142712Y-90571206D01*
X98136682Y-90573891D01*
X98136681Y-90573891D01*
X97974278Y-90646197D01*
X97974276Y-90646198D01*
X97968248Y-90648882D01*
X97813747Y-90761134D01*
X97809333Y-90766036D01*
X97809331Y-90766038D01*
X97808655Y-90766789D01*
X97808155Y-90767097D01*
X97804420Y-90770460D01*
X97803805Y-90769777D01*
X97748211Y-90804031D01*
X97718976Y-90808419D01*
X97699940Y-90809018D01*
X97698029Y-90809078D01*
X97690110Y-90809327D01*
X97672454Y-90814456D01*
X97670658Y-90814978D01*
X97651306Y-90818986D01*
X97644235Y-90819880D01*
X97631203Y-90821526D01*
X97623834Y-90824443D01*
X97623832Y-90824444D01*
X97590097Y-90837800D01*
X97578869Y-90841645D01*
X97536407Y-90853982D01*
X97529584Y-90858017D01*
X97529582Y-90858018D01*
X97518972Y-90864293D01*
X97501224Y-90872988D01*
X97482383Y-90880448D01*
X97475967Y-90885110D01*
X97475966Y-90885110D01*
X97446613Y-90906436D01*
X97436693Y-90912952D01*
X97405465Y-90931420D01*
X97405462Y-90931422D01*
X97398638Y-90935458D01*
X97384317Y-90949779D01*
X97369284Y-90962619D01*
X97352893Y-90974528D01*
X97347842Y-90980634D01*
X97324702Y-91008605D01*
X97316712Y-91017384D01*
X91489500Y-96844595D01*
X91427188Y-96878621D01*
X91400405Y-96881500D01*
X91344513Y-96881500D01*
X91323545Y-96885957D01*
X91252754Y-96880557D01*
X91196120Y-96837741D01*
X91171625Y-96771104D01*
X91174329Y-96735451D01*
X92106990Y-92526635D01*
X92645415Y-90096887D01*
X92645415Y-89090500D01*
X94145996Y-89090500D01*
X94146686Y-89097065D01*
X94165026Y-89271556D01*
X94165958Y-89280428D01*
X94224973Y-89462056D01*
X94320460Y-89627444D01*
X94324878Y-89632351D01*
X94324879Y-89632352D01*
X94377792Y-89691118D01*
X94448247Y-89769366D01*
X94602748Y-89881618D01*
X94608776Y-89884302D01*
X94608778Y-89884303D01*
X94725355Y-89936206D01*
X94777212Y-89959294D01*
X94870612Y-89979147D01*
X94957556Y-89997628D01*
X94957561Y-89997628D01*
X94964013Y-89999000D01*
X95154987Y-89999000D01*
X95161439Y-89997628D01*
X95161444Y-89997628D01*
X95248388Y-89979147D01*
X95341788Y-89959294D01*
X95393645Y-89936206D01*
X95510222Y-89884303D01*
X95510224Y-89884302D01*
X95516252Y-89881618D01*
X95670753Y-89769366D01*
X95741208Y-89691118D01*
X95794121Y-89632352D01*
X95794122Y-89632351D01*
X95798540Y-89627444D01*
X95894027Y-89462056D01*
X95953042Y-89280428D01*
X95953975Y-89271556D01*
X95972314Y-89097065D01*
X95973004Y-89090500D01*
X95963288Y-88998056D01*
X95953732Y-88907135D01*
X95953732Y-88907133D01*
X95953042Y-88900572D01*
X95894027Y-88718944D01*
X95878991Y-88692900D01*
X95846460Y-88636556D01*
X95798540Y-88553556D01*
X95779081Y-88531944D01*
X95675175Y-88416545D01*
X95675174Y-88416544D01*
X95670753Y-88411634D01*
X95516252Y-88299382D01*
X95510224Y-88296698D01*
X95510222Y-88296697D01*
X95347819Y-88224391D01*
X95347818Y-88224391D01*
X95341788Y-88221706D01*
X95248388Y-88201853D01*
X95161444Y-88183372D01*
X95161439Y-88183372D01*
X95154987Y-88182000D01*
X94964013Y-88182000D01*
X94957561Y-88183372D01*
X94957556Y-88183372D01*
X94870612Y-88201853D01*
X94777212Y-88221706D01*
X94771182Y-88224391D01*
X94771181Y-88224391D01*
X94608778Y-88296697D01*
X94608776Y-88296698D01*
X94602748Y-88299382D01*
X94448247Y-88411634D01*
X94443826Y-88416544D01*
X94443825Y-88416545D01*
X94339920Y-88531944D01*
X94320460Y-88553556D01*
X94272540Y-88636556D01*
X94240010Y-88692900D01*
X94224973Y-88718944D01*
X94165958Y-88900572D01*
X94165268Y-88907133D01*
X94165268Y-88907135D01*
X94155712Y-88998056D01*
X94145996Y-89090500D01*
X92645415Y-89090500D01*
X92645415Y-85725000D01*
X96876496Y-85725000D01*
X96877186Y-85731565D01*
X96893187Y-85883803D01*
X96896458Y-85914928D01*
X96955473Y-86096556D01*
X97050960Y-86261944D01*
X97178747Y-86403866D01*
X97333248Y-86516118D01*
X97339276Y-86518802D01*
X97339278Y-86518803D01*
X97501681Y-86591109D01*
X97507712Y-86593794D01*
X97601113Y-86613647D01*
X97688056Y-86632128D01*
X97688061Y-86632128D01*
X97694513Y-86633500D01*
X97885487Y-86633500D01*
X97891939Y-86632128D01*
X97891944Y-86632128D01*
X97978887Y-86613647D01*
X98072288Y-86593794D01*
X98078319Y-86591109D01*
X98240722Y-86518803D01*
X98240724Y-86518802D01*
X98246752Y-86516118D01*
X98401253Y-86403866D01*
X98529040Y-86261944D01*
X98624527Y-86096556D01*
X98683542Y-85914928D01*
X98686814Y-85883803D01*
X98702814Y-85731565D01*
X98703504Y-85725000D01*
X98683542Y-85535072D01*
X98624527Y-85353444D01*
X98529040Y-85188056D01*
X98401253Y-85046134D01*
X98246752Y-84933882D01*
X98240724Y-84931198D01*
X98240722Y-84931197D01*
X98078319Y-84858891D01*
X98078318Y-84858891D01*
X98072288Y-84856206D01*
X97978888Y-84836353D01*
X97891944Y-84817872D01*
X97891939Y-84817872D01*
X97885487Y-84816500D01*
X97694513Y-84816500D01*
X97688061Y-84817872D01*
X97688056Y-84817872D01*
X97601112Y-84836353D01*
X97507712Y-84856206D01*
X97501682Y-84858891D01*
X97501681Y-84858891D01*
X97339278Y-84931197D01*
X97339276Y-84931198D01*
X97333248Y-84933882D01*
X97178747Y-85046134D01*
X97050960Y-85188056D01*
X96955473Y-85353444D01*
X96896458Y-85535072D01*
X96876496Y-85725000D01*
X92645415Y-85725000D01*
X92645415Y-81206887D01*
X92624283Y-80645000D01*
X101321496Y-80645000D01*
X101341458Y-80834928D01*
X101400473Y-81016556D01*
X101495960Y-81181944D01*
X101500378Y-81186851D01*
X101500379Y-81186852D01*
X101544753Y-81236134D01*
X101623747Y-81323866D01*
X101778248Y-81436118D01*
X101784276Y-81438802D01*
X101784278Y-81438803D01*
X101946681Y-81511109D01*
X101952712Y-81513794D01*
X102046112Y-81533647D01*
X102133056Y-81552128D01*
X102133061Y-81552128D01*
X102139513Y-81553500D01*
X102330487Y-81553500D01*
X102336939Y-81552128D01*
X102336944Y-81552128D01*
X102423888Y-81533647D01*
X102517288Y-81513794D01*
X102523319Y-81511109D01*
X102685722Y-81438803D01*
X102685724Y-81438802D01*
X102691752Y-81436118D01*
X102846253Y-81323866D01*
X102925247Y-81236134D01*
X102969621Y-81186852D01*
X102969622Y-81186851D01*
X102974040Y-81181944D01*
X103069527Y-81016556D01*
X103128542Y-80834928D01*
X103148504Y-80645000D01*
X103128542Y-80455072D01*
X103069527Y-80273444D01*
X102974040Y-80108056D01*
X102928744Y-80057749D01*
X102850675Y-79971045D01*
X102850674Y-79971044D01*
X102846253Y-79966134D01*
X102691752Y-79853882D01*
X102685724Y-79851198D01*
X102685722Y-79851197D01*
X102523319Y-79778891D01*
X102523318Y-79778891D01*
X102517288Y-79776206D01*
X102404721Y-79752279D01*
X102336944Y-79737872D01*
X102336939Y-79737872D01*
X102330487Y-79736500D01*
X102139513Y-79736500D01*
X102133061Y-79737872D01*
X102133056Y-79737872D01*
X102065279Y-79752279D01*
X101952712Y-79776206D01*
X101946682Y-79778891D01*
X101946681Y-79778891D01*
X101784278Y-79851197D01*
X101784276Y-79851198D01*
X101778248Y-79853882D01*
X101623747Y-79966134D01*
X101619326Y-79971044D01*
X101619325Y-79971045D01*
X101541257Y-80057749D01*
X101495960Y-80108056D01*
X101400473Y-80273444D01*
X101341458Y-80455072D01*
X101321496Y-80645000D01*
X92624283Y-80645000D01*
X92576519Y-79375000D01*
X94971496Y-79375000D01*
X94972186Y-79381565D01*
X94990220Y-79553145D01*
X94991458Y-79564928D01*
X95050473Y-79746556D01*
X95145960Y-79911944D01*
X95150378Y-79916851D01*
X95150379Y-79916852D01*
X95243216Y-80019958D01*
X95273747Y-80053866D01*
X95428248Y-80166118D01*
X95434276Y-80168802D01*
X95434278Y-80168803D01*
X95596681Y-80241109D01*
X95602712Y-80243794D01*
X95695858Y-80263593D01*
X95783056Y-80282128D01*
X95783061Y-80282128D01*
X95789513Y-80283500D01*
X95980487Y-80283500D01*
X95986939Y-80282128D01*
X95986944Y-80282128D01*
X96074142Y-80263593D01*
X96167288Y-80243794D01*
X96173319Y-80241109D01*
X96335722Y-80168803D01*
X96335724Y-80168802D01*
X96341752Y-80166118D01*
X96496253Y-80053866D01*
X96526784Y-80019958D01*
X96619621Y-79916852D01*
X96619622Y-79916851D01*
X96624040Y-79911944D01*
X96719527Y-79746556D01*
X96778542Y-79564928D01*
X96779781Y-79553145D01*
X96795907Y-79399707D01*
X96822920Y-79334050D01*
X96832122Y-79323782D01*
X98650499Y-77505405D01*
X98712811Y-77471379D01*
X98739594Y-77468500D01*
X98986800Y-77468500D01*
X99054921Y-77488502D01*
X99074147Y-77504843D01*
X99074420Y-77504540D01*
X99079332Y-77508963D01*
X99083747Y-77513866D01*
X99105329Y-77529546D01*
X99198445Y-77597199D01*
X99238248Y-77626118D01*
X99244276Y-77628802D01*
X99244278Y-77628803D01*
X99329945Y-77666944D01*
X99412712Y-77703794D01*
X99506113Y-77723647D01*
X99593056Y-77742128D01*
X99593061Y-77742128D01*
X99599513Y-77743500D01*
X99790487Y-77743500D01*
X99796939Y-77742128D01*
X99796944Y-77742128D01*
X99883887Y-77723647D01*
X99977288Y-77703794D01*
X100060055Y-77666944D01*
X100145722Y-77628803D01*
X100145724Y-77628802D01*
X100151752Y-77626118D01*
X100191556Y-77597199D01*
X100251600Y-77553574D01*
X100306253Y-77513866D01*
X100340139Y-77476232D01*
X100429621Y-77376852D01*
X100429622Y-77376851D01*
X100434040Y-77371944D01*
X100529527Y-77206556D01*
X100588542Y-77024928D01*
X100591814Y-76993803D01*
X100607814Y-76841565D01*
X100608504Y-76835000D01*
X100588542Y-76645072D01*
X100529527Y-76463444D01*
X100434040Y-76298056D01*
X100417882Y-76280110D01*
X100310675Y-76161045D01*
X100310674Y-76161044D01*
X100306253Y-76156134D01*
X100151752Y-76043882D01*
X100145724Y-76041198D01*
X100145722Y-76041197D01*
X99983319Y-75968891D01*
X99983318Y-75968891D01*
X99977288Y-75966206D01*
X99883888Y-75946353D01*
X99796944Y-75927872D01*
X99796939Y-75927872D01*
X99790487Y-75926500D01*
X99599513Y-75926500D01*
X99593061Y-75927872D01*
X99593056Y-75927872D01*
X99506112Y-75946353D01*
X99412712Y-75966206D01*
X99406682Y-75968891D01*
X99406681Y-75968891D01*
X99244278Y-76041197D01*
X99244276Y-76041198D01*
X99238248Y-76043882D01*
X99083747Y-76156134D01*
X99079332Y-76161037D01*
X99074420Y-76165460D01*
X99073295Y-76164211D01*
X99019986Y-76197051D01*
X98986800Y-76201500D01*
X98503763Y-76201500D01*
X98492579Y-76200973D01*
X98485091Y-76199299D01*
X98477168Y-76199548D01*
X98417033Y-76201438D01*
X98413075Y-76201500D01*
X98385144Y-76201500D01*
X98381229Y-76201995D01*
X98381225Y-76201995D01*
X98381167Y-76202003D01*
X98381138Y-76202006D01*
X98369296Y-76202939D01*
X98325110Y-76204327D01*
X98307744Y-76209372D01*
X98305658Y-76209978D01*
X98286306Y-76213986D01*
X98274068Y-76215532D01*
X98274066Y-76215533D01*
X98266203Y-76216526D01*
X98225086Y-76232806D01*
X98213885Y-76236641D01*
X98171406Y-76248982D01*
X98164587Y-76253015D01*
X98164582Y-76253017D01*
X98153971Y-76259293D01*
X98136221Y-76267990D01*
X98117383Y-76275448D01*
X98110967Y-76280109D01*
X98110966Y-76280110D01*
X98081625Y-76301428D01*
X98071701Y-76307947D01*
X98040460Y-76326422D01*
X98040455Y-76326426D01*
X98033637Y-76330458D01*
X98019313Y-76344782D01*
X98004281Y-76357621D01*
X97987893Y-76369528D01*
X97971017Y-76389928D01*
X97959712Y-76403593D01*
X97951722Y-76412373D01*
X95934500Y-78429595D01*
X95872188Y-78463621D01*
X95845405Y-78466500D01*
X95789513Y-78466500D01*
X95783061Y-78467872D01*
X95783056Y-78467872D01*
X95696112Y-78486353D01*
X95602712Y-78506206D01*
X95596682Y-78508891D01*
X95596681Y-78508891D01*
X95434278Y-78581197D01*
X95434276Y-78581198D01*
X95428248Y-78583882D01*
X95273747Y-78696134D01*
X95269326Y-78701044D01*
X95269325Y-78701045D01*
X95159000Y-78823574D01*
X95145960Y-78838056D01*
X95050473Y-79003444D01*
X94991458Y-79185072D01*
X94990768Y-79191633D01*
X94990768Y-79191635D01*
X94981802Y-79276944D01*
X94971496Y-79375000D01*
X92576519Y-79375000D01*
X92528621Y-78101435D01*
X92546049Y-78032612D01*
X92597919Y-77984136D01*
X92615594Y-77976868D01*
X92620830Y-77975167D01*
X92627288Y-77973794D01*
X92745601Y-77921118D01*
X92795722Y-77898803D01*
X92795724Y-77898802D01*
X92801752Y-77896118D01*
X92956253Y-77783866D01*
X93084040Y-77641944D01*
X93155744Y-77517749D01*
X93176223Y-77482279D01*
X93176224Y-77482278D01*
X93179527Y-77476556D01*
X93238542Y-77294928D01*
X93249518Y-77190502D01*
X93257814Y-77111565D01*
X93258504Y-77105000D01*
X93238542Y-76915072D01*
X93179527Y-76733444D01*
X93084040Y-76568056D01*
X92998902Y-76473500D01*
X92960675Y-76431045D01*
X92960674Y-76431044D01*
X92956253Y-76426134D01*
X92844282Y-76344782D01*
X92807094Y-76317763D01*
X92807093Y-76317762D01*
X92801752Y-76313882D01*
X92795724Y-76311198D01*
X92795722Y-76311197D01*
X92633319Y-76238891D01*
X92633318Y-76238891D01*
X92627288Y-76236206D01*
X92620827Y-76234833D01*
X92620822Y-76234831D01*
X92553135Y-76220443D01*
X92490661Y-76186715D01*
X92456340Y-76124566D01*
X92453422Y-76101938D01*
X92395017Y-74549000D01*
X93066496Y-74549000D01*
X93067186Y-74555565D01*
X93068546Y-74568500D01*
X93086458Y-74738928D01*
X93145473Y-74920556D01*
X93148776Y-74926278D01*
X93148777Y-74926279D01*
X93154716Y-74936565D01*
X93240960Y-75085944D01*
X93368747Y-75227866D01*
X93410688Y-75258338D01*
X93510982Y-75331206D01*
X93523248Y-75340118D01*
X93529276Y-75342802D01*
X93529278Y-75342803D01*
X93601756Y-75375072D01*
X93697712Y-75417794D01*
X93791112Y-75437647D01*
X93878056Y-75456128D01*
X93878061Y-75456128D01*
X93884513Y-75457500D01*
X94075487Y-75457500D01*
X94081939Y-75456128D01*
X94081944Y-75456128D01*
X94168888Y-75437647D01*
X94262288Y-75417794D01*
X94358244Y-75375072D01*
X94430722Y-75342803D01*
X94430724Y-75342802D01*
X94436752Y-75340118D01*
X94449019Y-75331206D01*
X94549312Y-75258338D01*
X94591253Y-75227866D01*
X94719040Y-75085944D01*
X94805284Y-74936565D01*
X94811223Y-74926279D01*
X94811224Y-74926278D01*
X94814527Y-74920556D01*
X94873542Y-74738928D01*
X94891455Y-74568500D01*
X94892814Y-74555565D01*
X94893504Y-74549000D01*
X94877114Y-74393056D01*
X94874232Y-74365635D01*
X94874232Y-74365633D01*
X94873542Y-74359072D01*
X94814527Y-74177444D01*
X94719040Y-74012056D01*
X94639254Y-73923444D01*
X94595675Y-73875045D01*
X94595674Y-73875044D01*
X94591253Y-73870134D01*
X94436752Y-73757882D01*
X94430724Y-73755198D01*
X94430722Y-73755197D01*
X94268319Y-73682891D01*
X94268318Y-73682891D01*
X94262288Y-73680206D01*
X94167227Y-73660000D01*
X94081944Y-73641872D01*
X94081939Y-73641872D01*
X94075487Y-73640500D01*
X93884513Y-73640500D01*
X93878061Y-73641872D01*
X93878056Y-73641872D01*
X93792773Y-73660000D01*
X93697712Y-73680206D01*
X93691682Y-73682891D01*
X93691681Y-73682891D01*
X93529278Y-73755197D01*
X93529276Y-73755198D01*
X93523248Y-73757882D01*
X93368747Y-73870134D01*
X93364326Y-73875044D01*
X93364325Y-73875045D01*
X93320747Y-73923444D01*
X93240960Y-74012056D01*
X93145473Y-74177444D01*
X93086458Y-74359072D01*
X93085768Y-74365633D01*
X93085768Y-74365635D01*
X93082886Y-74393056D01*
X93066496Y-74549000D01*
X92395017Y-74549000D01*
X92218291Y-69850000D01*
X96876496Y-69850000D01*
X96877186Y-69856565D01*
X96887742Y-69956996D01*
X96896458Y-70039928D01*
X96955473Y-70221556D01*
X97050960Y-70386944D01*
X97178747Y-70528866D01*
X97333248Y-70641118D01*
X97339276Y-70643802D01*
X97339278Y-70643803D01*
X97347245Y-70647350D01*
X97507712Y-70718794D01*
X97601113Y-70738647D01*
X97688056Y-70757128D01*
X97688061Y-70757128D01*
X97694513Y-70758500D01*
X97885487Y-70758500D01*
X97891939Y-70757128D01*
X97891944Y-70757128D01*
X97978887Y-70738647D01*
X98072288Y-70718794D01*
X98232755Y-70647350D01*
X98240722Y-70643803D01*
X98240724Y-70643802D01*
X98246752Y-70641118D01*
X98401253Y-70528866D01*
X98529040Y-70386944D01*
X98624527Y-70221556D01*
X98683542Y-70039928D01*
X98692259Y-69956996D01*
X98702814Y-69856565D01*
X98703504Y-69850000D01*
X98690330Y-69724654D01*
X98684232Y-69666635D01*
X98684232Y-69666633D01*
X98683542Y-69660072D01*
X98624527Y-69478444D01*
X98529040Y-69313056D01*
X98501707Y-69282699D01*
X98405675Y-69176045D01*
X98405674Y-69176044D01*
X98401253Y-69171134D01*
X98283990Y-69085937D01*
X98252094Y-69062763D01*
X98252093Y-69062762D01*
X98246752Y-69058882D01*
X98240724Y-69056198D01*
X98240722Y-69056197D01*
X98078319Y-68983891D01*
X98078318Y-68983891D01*
X98072288Y-68981206D01*
X97959721Y-68957279D01*
X97891944Y-68942872D01*
X97891939Y-68942872D01*
X97885487Y-68941500D01*
X97694513Y-68941500D01*
X97688061Y-68942872D01*
X97688056Y-68942872D01*
X97620279Y-68957279D01*
X97507712Y-68981206D01*
X97501682Y-68983891D01*
X97501681Y-68983891D01*
X97339278Y-69056197D01*
X97339276Y-69056198D01*
X97333248Y-69058882D01*
X97327907Y-69062762D01*
X97327906Y-69062763D01*
X97296010Y-69085937D01*
X97178747Y-69171134D01*
X97174326Y-69176044D01*
X97174325Y-69176045D01*
X97078294Y-69282699D01*
X97050960Y-69313056D01*
X96955473Y-69478444D01*
X96896458Y-69660072D01*
X96895768Y-69666633D01*
X96895768Y-69666635D01*
X96889670Y-69724654D01*
X96876496Y-69850000D01*
X92218291Y-69850000D01*
X92079373Y-66156276D01*
X92096801Y-66087452D01*
X92148671Y-66038976D01*
X92190559Y-66026405D01*
X100733370Y-65021368D01*
X100774286Y-65023259D01*
X100863049Y-65042127D01*
X100863058Y-65042128D01*
X100869513Y-65043500D01*
X101060487Y-65043500D01*
X101066939Y-65042128D01*
X101066944Y-65042128D01*
X101164609Y-65021368D01*
X101247288Y-65003794D01*
X101253315Y-65001111D01*
X101253323Y-65001108D01*
X101360709Y-64953297D01*
X101397235Y-64943267D01*
X102267163Y-64840922D01*
X102775138Y-64781160D01*
X102845128Y-64793066D01*
G37*
%TD.AperFunction*%
%TD*%
%TA.AperFunction,Conductor*%
%TO.N,+1V8*%
G36*
X151761273Y-54630002D02*
G01*
X151778969Y-54645045D01*
X151779423Y-54644541D01*
X151784325Y-54648954D01*
X151788747Y-54653866D01*
X151943248Y-54766118D01*
X151949276Y-54768802D01*
X151949278Y-54768803D01*
X152111681Y-54841109D01*
X152117712Y-54843794D01*
X152211112Y-54863647D01*
X152298056Y-54882128D01*
X152298061Y-54882128D01*
X152304513Y-54883500D01*
X152495487Y-54883500D01*
X152501939Y-54882128D01*
X152501944Y-54882128D01*
X152588887Y-54863647D01*
X152682288Y-54843794D01*
X152706656Y-54832945D01*
X152856752Y-54766118D01*
X152857677Y-54768196D01*
X152916488Y-54753924D01*
X152983581Y-54777141D01*
X153027472Y-54832945D01*
X153036500Y-54879782D01*
X153036500Y-58785218D01*
X153016498Y-58853339D01*
X152962842Y-58899832D01*
X152892568Y-58909936D01*
X152857270Y-58897718D01*
X152856752Y-58898882D01*
X152688319Y-58823891D01*
X152688318Y-58823891D01*
X152682288Y-58821206D01*
X152569721Y-58797279D01*
X152501944Y-58782872D01*
X152501939Y-58782872D01*
X152495487Y-58781500D01*
X152304513Y-58781500D01*
X152298061Y-58782872D01*
X152298056Y-58782872D01*
X152230279Y-58797279D01*
X152117712Y-58821206D01*
X152111682Y-58823891D01*
X152111681Y-58823891D01*
X151949278Y-58896197D01*
X151949276Y-58896198D01*
X151943248Y-58898882D01*
X151937907Y-58902762D01*
X151937906Y-58902763D01*
X151904773Y-58926836D01*
X151839060Y-58974579D01*
X151772194Y-58998437D01*
X151703042Y-58982357D01*
X151690944Y-58974582D01*
X151625227Y-58926836D01*
X151592094Y-58902763D01*
X151592093Y-58902762D01*
X151586752Y-58898882D01*
X151580724Y-58896198D01*
X151580722Y-58896197D01*
X151418319Y-58823891D01*
X151418318Y-58823891D01*
X151412288Y-58821206D01*
X151299721Y-58797279D01*
X151231944Y-58782872D01*
X151231939Y-58782872D01*
X151225487Y-58781500D01*
X151034513Y-58781500D01*
X151028061Y-58782872D01*
X151028056Y-58782872D01*
X150889340Y-58812358D01*
X150847712Y-58821206D01*
X150820115Y-58833493D01*
X150749748Y-58842926D01*
X150685451Y-58812818D01*
X150659749Y-58781385D01*
X150576841Y-58637785D01*
X150573540Y-58632067D01*
X150564171Y-58621661D01*
X150450175Y-58495056D01*
X150450174Y-58495055D01*
X150445753Y-58490145D01*
X150291252Y-58377893D01*
X150285224Y-58375209D01*
X150285222Y-58375208D01*
X150122819Y-58302902D01*
X150122818Y-58302902D01*
X150116788Y-58300217D01*
X150023388Y-58280364D01*
X149936444Y-58261883D01*
X149936439Y-58261883D01*
X149929987Y-58260511D01*
X149739013Y-58260511D01*
X149732561Y-58261883D01*
X149732556Y-58261883D01*
X149645612Y-58280364D01*
X149552212Y-58300217D01*
X149546182Y-58302902D01*
X149546181Y-58302902D01*
X149383778Y-58375208D01*
X149383776Y-58375209D01*
X149377748Y-58377893D01*
X149223247Y-58490145D01*
X149218826Y-58495055D01*
X149218825Y-58495056D01*
X149104830Y-58621661D01*
X149095460Y-58632067D01*
X149092159Y-58637785D01*
X149008393Y-58782872D01*
X148999973Y-58797455D01*
X148940958Y-58979083D01*
X148928369Y-59098866D01*
X148927981Y-59102554D01*
X148900968Y-59168211D01*
X148842746Y-59208841D01*
X148771801Y-59211544D01*
X148710657Y-59175462D01*
X148700736Y-59163447D01*
X148697341Y-59158774D01*
X148694040Y-59153056D01*
X148566253Y-59011134D01*
X148467157Y-58939136D01*
X148417094Y-58902763D01*
X148417093Y-58902762D01*
X148411752Y-58898882D01*
X148405724Y-58896198D01*
X148405722Y-58896197D01*
X148243319Y-58823891D01*
X148243318Y-58823891D01*
X148237288Y-58821206D01*
X148124721Y-58797279D01*
X148056944Y-58782872D01*
X148056939Y-58782872D01*
X148050487Y-58781500D01*
X147859513Y-58781500D01*
X147853061Y-58782872D01*
X147853056Y-58782872D01*
X147785279Y-58797279D01*
X147672712Y-58821206D01*
X147666682Y-58823891D01*
X147666681Y-58823891D01*
X147504278Y-58896197D01*
X147504276Y-58896198D01*
X147498248Y-58898882D01*
X147492907Y-58902762D01*
X147492906Y-58902763D01*
X147442843Y-58939136D01*
X147343747Y-59011134D01*
X147339326Y-59016044D01*
X147339325Y-59016045D01*
X147261257Y-59102749D01*
X147215960Y-59153056D01*
X147120473Y-59318444D01*
X147118432Y-59324727D01*
X147104734Y-59366883D01*
X147064660Y-59425489D01*
X146999263Y-59453125D01*
X146958704Y-59451193D01*
X146801944Y-59417872D01*
X146801939Y-59417872D01*
X146795487Y-59416500D01*
X146604513Y-59416500D01*
X146598061Y-59417872D01*
X146598056Y-59417872D01*
X146511113Y-59436353D01*
X146417712Y-59456206D01*
X146411682Y-59458891D01*
X146411681Y-59458891D01*
X146249278Y-59531197D01*
X146249276Y-59531198D01*
X146243248Y-59533882D01*
X146237907Y-59537762D01*
X146237906Y-59537763D01*
X146162912Y-59592250D01*
X146096045Y-59616108D01*
X146026893Y-59600028D01*
X146014790Y-59592250D01*
X145909941Y-59516072D01*
X145909940Y-59516071D01*
X145904599Y-59512191D01*
X145898571Y-59509507D01*
X145898569Y-59509506D01*
X145736166Y-59437200D01*
X145736165Y-59437200D01*
X145730135Y-59434515D01*
X145636734Y-59414662D01*
X145549791Y-59396181D01*
X145549786Y-59396181D01*
X145543334Y-59394809D01*
X145352360Y-59394809D01*
X145345908Y-59396181D01*
X145345903Y-59396181D01*
X145258960Y-59414662D01*
X145165559Y-59434515D01*
X145159529Y-59437200D01*
X145159528Y-59437200D01*
X144997125Y-59509506D01*
X144997123Y-59509507D01*
X144991095Y-59512191D01*
X144985754Y-59516071D01*
X144985753Y-59516072D01*
X144961240Y-59533882D01*
X144836594Y-59624443D01*
X144832173Y-59629353D01*
X144832172Y-59629354D01*
X144758778Y-59710867D01*
X144708807Y-59766365D01*
X144613320Y-59931753D01*
X144554305Y-60113381D01*
X144534343Y-60303309D01*
X144554305Y-60493237D01*
X144613320Y-60674865D01*
X144616623Y-60680587D01*
X144616624Y-60680588D01*
X144650533Y-60739319D01*
X144708807Y-60840253D01*
X144713225Y-60845160D01*
X144713226Y-60845161D01*
X144832172Y-60977264D01*
X144836594Y-60982175D01*
X144991095Y-61094427D01*
X144997123Y-61097111D01*
X144997125Y-61097112D01*
X145159528Y-61169418D01*
X145165559Y-61172103D01*
X145254975Y-61191109D01*
X145345903Y-61210437D01*
X145345908Y-61210437D01*
X145352360Y-61211809D01*
X145543334Y-61211809D01*
X145549786Y-61210437D01*
X145549791Y-61210437D01*
X145640719Y-61191109D01*
X145730135Y-61172103D01*
X145736166Y-61169418D01*
X145898569Y-61097112D01*
X145898571Y-61097111D01*
X145904599Y-61094427D01*
X145984936Y-61036059D01*
X146051802Y-61012201D01*
X146120954Y-61028281D01*
X146133057Y-61036059D01*
X146217089Y-61097112D01*
X146243248Y-61116118D01*
X146249276Y-61118802D01*
X146249278Y-61118803D01*
X146395712Y-61183999D01*
X146417712Y-61193794D01*
X146511113Y-61213647D01*
X146598056Y-61232128D01*
X146598061Y-61232128D01*
X146604513Y-61233500D01*
X146795487Y-61233500D01*
X146801939Y-61232128D01*
X146801944Y-61232128D01*
X146888887Y-61213647D01*
X146982288Y-61193794D01*
X147004288Y-61183999D01*
X147150722Y-61118803D01*
X147150724Y-61118802D01*
X147156752Y-61116118D01*
X147182912Y-61097112D01*
X147266943Y-61036059D01*
X147311253Y-61003866D01*
X147315675Y-60998955D01*
X147434621Y-60866852D01*
X147434622Y-60866851D01*
X147439040Y-60861944D01*
X147534527Y-60696556D01*
X147550266Y-60648117D01*
X147590340Y-60589511D01*
X147655737Y-60561875D01*
X147696296Y-60563807D01*
X147853056Y-60597128D01*
X147853061Y-60597128D01*
X147859513Y-60598500D01*
X148050487Y-60598500D01*
X148056939Y-60597128D01*
X148056944Y-60597128D01*
X148143887Y-60578647D01*
X148237288Y-60558794D01*
X148318905Y-60522456D01*
X148405722Y-60483803D01*
X148405724Y-60483802D01*
X148411752Y-60481118D01*
X148566253Y-60368866D01*
X148694040Y-60226944D01*
X148780249Y-60077626D01*
X148786223Y-60067279D01*
X148786224Y-60067278D01*
X148789527Y-60061556D01*
X148848542Y-59879928D01*
X148861519Y-59756456D01*
X148888532Y-59690800D01*
X148946754Y-59650170D01*
X149017699Y-59647467D01*
X149078843Y-59683549D01*
X149088764Y-59695564D01*
X149092156Y-59700233D01*
X149095460Y-59705955D01*
X149223247Y-59847877D01*
X149377748Y-59960129D01*
X149383776Y-59962813D01*
X149383778Y-59962814D01*
X149546179Y-60035119D01*
X149552212Y-60037805D01*
X149634383Y-60055271D01*
X149732556Y-60076139D01*
X149732561Y-60076139D01*
X149739013Y-60077511D01*
X149929987Y-60077511D01*
X149936439Y-60076139D01*
X149936444Y-60076139D01*
X150077326Y-60046193D01*
X150116788Y-60037805D01*
X150144386Y-60025518D01*
X150214752Y-60016085D01*
X150279049Y-60046193D01*
X150304751Y-60077626D01*
X150390960Y-60226944D01*
X150518747Y-60368866D01*
X150673248Y-60481118D01*
X150679276Y-60483802D01*
X150679278Y-60483803D01*
X150766095Y-60522456D01*
X150847712Y-60558794D01*
X150941113Y-60578647D01*
X151028056Y-60597128D01*
X151028061Y-60597128D01*
X151034513Y-60598500D01*
X151225487Y-60598500D01*
X151231939Y-60597128D01*
X151231944Y-60597128D01*
X151318887Y-60578647D01*
X151412288Y-60558794D01*
X151493905Y-60522456D01*
X151580722Y-60483803D01*
X151580724Y-60483802D01*
X151586752Y-60481118D01*
X151690940Y-60405421D01*
X151757806Y-60381563D01*
X151826958Y-60397643D01*
X151839056Y-60405418D01*
X151943248Y-60481118D01*
X151949276Y-60483802D01*
X151949278Y-60483803D01*
X152036095Y-60522456D01*
X152117712Y-60558794D01*
X152211113Y-60578647D01*
X152298056Y-60597128D01*
X152298061Y-60597128D01*
X152304513Y-60598500D01*
X152495487Y-60598500D01*
X152501939Y-60597128D01*
X152501944Y-60597128D01*
X152588887Y-60578647D01*
X152682288Y-60558794D01*
X152763905Y-60522456D01*
X152850722Y-60483803D01*
X152850724Y-60483802D01*
X152856752Y-60481118D01*
X152960940Y-60405421D01*
X153027806Y-60381563D01*
X153096958Y-60397643D01*
X153109056Y-60405418D01*
X153213248Y-60481118D01*
X153219276Y-60483802D01*
X153219278Y-60483803D01*
X153306095Y-60522456D01*
X153387712Y-60558794D01*
X153481113Y-60578647D01*
X153568056Y-60597128D01*
X153568061Y-60597128D01*
X153574513Y-60598500D01*
X153765487Y-60598500D01*
X153771939Y-60597128D01*
X153771944Y-60597128D01*
X153858887Y-60578647D01*
X153952288Y-60558794D01*
X154033905Y-60522456D01*
X154120722Y-60483803D01*
X154120724Y-60483802D01*
X154126752Y-60481118D01*
X154281253Y-60368866D01*
X154409040Y-60226944D01*
X154495249Y-60077626D01*
X154501223Y-60067279D01*
X154501224Y-60067278D01*
X154504527Y-60061556D01*
X154563542Y-59879928D01*
X154583504Y-59690000D01*
X154567798Y-59540567D01*
X154564232Y-59506635D01*
X154564232Y-59506633D01*
X154563542Y-59500072D01*
X154504527Y-59318444D01*
X154409040Y-59153056D01*
X154335863Y-59071785D01*
X154305147Y-59007779D01*
X154303500Y-58987476D01*
X154303500Y-58689782D01*
X154323502Y-58621661D01*
X154377158Y-58575168D01*
X154447432Y-58565064D01*
X154482730Y-58577282D01*
X154483248Y-58576118D01*
X154597889Y-58627159D01*
X154657712Y-58653794D01*
X154751113Y-58673647D01*
X154838056Y-58692128D01*
X154838061Y-58692128D01*
X154844513Y-58693500D01*
X155035487Y-58693500D01*
X155041939Y-58692128D01*
X155041944Y-58692128D01*
X155128887Y-58673647D01*
X155222288Y-58653794D01*
X155271088Y-58632067D01*
X155390722Y-58578803D01*
X155390724Y-58578802D01*
X155396752Y-58576118D01*
X155411967Y-58565064D01*
X155515083Y-58490145D01*
X155551253Y-58463866D01*
X155590750Y-58420000D01*
X156566496Y-58420000D01*
X156567186Y-58426565D01*
X156583187Y-58578803D01*
X156586458Y-58609928D01*
X156645473Y-58791556D01*
X156648776Y-58797278D01*
X156648777Y-58797279D01*
X156682686Y-58856010D01*
X156740960Y-58956944D01*
X156745378Y-58961851D01*
X156745379Y-58961852D01*
X156786732Y-59007779D01*
X156868747Y-59098866D01*
X157023248Y-59211118D01*
X157029274Y-59213801D01*
X157029281Y-59213805D01*
X157174786Y-59278587D01*
X157228882Y-59324567D01*
X157249532Y-59392494D01*
X157243371Y-59432630D01*
X157228446Y-59478566D01*
X157221458Y-59500072D01*
X157220768Y-59506633D01*
X157220768Y-59506635D01*
X157217202Y-59540567D01*
X157201496Y-59690000D01*
X157221458Y-59879928D01*
X157280473Y-60061556D01*
X157283776Y-60067278D01*
X157283777Y-60067279D01*
X157289751Y-60077626D01*
X157375960Y-60226944D01*
X157503747Y-60368866D01*
X157658248Y-60481118D01*
X157664276Y-60483802D01*
X157664278Y-60483803D01*
X157751095Y-60522456D01*
X157832712Y-60558794D01*
X157926113Y-60578647D01*
X158013056Y-60597128D01*
X158013061Y-60597128D01*
X158019513Y-60598500D01*
X158210487Y-60598500D01*
X158216939Y-60597128D01*
X158216944Y-60597128D01*
X158303887Y-60578647D01*
X158397288Y-60558794D01*
X158478905Y-60522456D01*
X158565722Y-60483803D01*
X158565724Y-60483802D01*
X158571752Y-60481118D01*
X158726253Y-60368866D01*
X158854040Y-60226944D01*
X158940249Y-60077626D01*
X158946223Y-60067279D01*
X158946224Y-60067278D01*
X158949527Y-60061556D01*
X159008542Y-59879928D01*
X159028504Y-59690000D01*
X159012798Y-59540567D01*
X159009232Y-59506635D01*
X159009232Y-59506633D01*
X159008542Y-59500072D01*
X158949527Y-59318444D01*
X158854040Y-59153056D01*
X158808744Y-59102749D01*
X158730675Y-59016045D01*
X158730674Y-59016044D01*
X158726253Y-59011134D01*
X158627157Y-58939136D01*
X158577094Y-58902763D01*
X158577093Y-58902762D01*
X158571752Y-58898882D01*
X158565726Y-58896199D01*
X158565719Y-58896195D01*
X158420214Y-58831413D01*
X158366118Y-58785433D01*
X158345468Y-58717506D01*
X158351629Y-58677370D01*
X158371502Y-58616206D01*
X158373542Y-58609928D01*
X158376814Y-58578803D01*
X158392814Y-58426565D01*
X158393504Y-58420000D01*
X158381197Y-58302902D01*
X158374232Y-58236635D01*
X158374232Y-58236633D01*
X158373542Y-58230072D01*
X158314527Y-58048444D01*
X158219040Y-57883056D01*
X158091253Y-57741134D01*
X157936752Y-57628882D01*
X157930724Y-57626198D01*
X157930722Y-57626197D01*
X157768319Y-57553891D01*
X157768318Y-57553891D01*
X157762288Y-57551206D01*
X157668887Y-57531353D01*
X157581944Y-57512872D01*
X157581939Y-57512872D01*
X157575487Y-57511500D01*
X157384513Y-57511500D01*
X157378061Y-57512872D01*
X157378056Y-57512872D01*
X157291113Y-57531353D01*
X157197712Y-57551206D01*
X157191682Y-57553891D01*
X157191681Y-57553891D01*
X157029278Y-57626197D01*
X157029276Y-57626198D01*
X157023248Y-57628882D01*
X156868747Y-57741134D01*
X156740960Y-57883056D01*
X156645473Y-58048444D01*
X156586458Y-58230072D01*
X156585768Y-58236633D01*
X156585768Y-58236635D01*
X156578803Y-58302902D01*
X156566496Y-58420000D01*
X155590750Y-58420000D01*
X155625169Y-58381774D01*
X155674621Y-58326852D01*
X155674622Y-58326851D01*
X155679040Y-58321944D01*
X155774527Y-58156556D01*
X155833542Y-57974928D01*
X155853504Y-57785000D01*
X155839518Y-57651928D01*
X155834232Y-57601635D01*
X155834232Y-57601633D01*
X155833542Y-57595072D01*
X155774527Y-57413444D01*
X155679040Y-57248056D01*
X155551253Y-57106134D01*
X155396752Y-56993882D01*
X155390724Y-56991198D01*
X155390722Y-56991197D01*
X155228319Y-56918891D01*
X155228318Y-56918891D01*
X155222288Y-56916206D01*
X155128888Y-56896353D01*
X155041944Y-56877872D01*
X155041939Y-56877872D01*
X155035487Y-56876500D01*
X154844513Y-56876500D01*
X154838061Y-56877872D01*
X154838056Y-56877872D01*
X154751112Y-56896353D01*
X154657712Y-56916206D01*
X154651682Y-56918891D01*
X154651681Y-56918891D01*
X154557390Y-56960872D01*
X154483248Y-56993882D01*
X154482323Y-56991804D01*
X154423512Y-57006076D01*
X154356419Y-56982859D01*
X154312528Y-56927055D01*
X154303500Y-56880218D01*
X154303500Y-55880000D01*
X155296496Y-55880000D01*
X155297186Y-55886565D01*
X155314758Y-56053749D01*
X155316458Y-56069928D01*
X155375473Y-56251556D01*
X155470960Y-56416944D01*
X155598747Y-56558866D01*
X155753248Y-56671118D01*
X155759276Y-56673802D01*
X155759278Y-56673803D01*
X155921681Y-56746109D01*
X155927712Y-56748794D01*
X156021112Y-56768647D01*
X156108056Y-56787128D01*
X156108061Y-56787128D01*
X156114513Y-56788500D01*
X156305487Y-56788500D01*
X156311939Y-56787128D01*
X156311944Y-56787128D01*
X156398887Y-56768647D01*
X156492288Y-56748794D01*
X156498319Y-56746109D01*
X156660722Y-56673803D01*
X156660724Y-56673802D01*
X156666752Y-56671118D01*
X156821253Y-56558866D01*
X156949040Y-56416944D01*
X157044527Y-56251556D01*
X157103542Y-56069928D01*
X157105243Y-56053749D01*
X157122814Y-55886565D01*
X157123504Y-55880000D01*
X157103542Y-55690072D01*
X157044527Y-55508444D01*
X156949040Y-55343056D01*
X156821253Y-55201134D01*
X156666752Y-55088882D01*
X156660724Y-55086198D01*
X156660722Y-55086197D01*
X156498319Y-55013891D01*
X156498318Y-55013891D01*
X156492288Y-55011206D01*
X156398887Y-54991353D01*
X156311944Y-54972872D01*
X156311939Y-54972872D01*
X156305487Y-54971500D01*
X156114513Y-54971500D01*
X156108061Y-54972872D01*
X156108056Y-54972872D01*
X156021113Y-54991353D01*
X155927712Y-55011206D01*
X155921682Y-55013891D01*
X155921681Y-55013891D01*
X155759278Y-55086197D01*
X155759276Y-55086198D01*
X155753248Y-55088882D01*
X155598747Y-55201134D01*
X155470960Y-55343056D01*
X155375473Y-55508444D01*
X155316458Y-55690072D01*
X155296496Y-55880000D01*
X154303500Y-55880000D01*
X154303500Y-54736000D01*
X154323502Y-54667879D01*
X154377158Y-54621386D01*
X154429500Y-54610000D01*
X159894000Y-54610000D01*
X159962121Y-54630002D01*
X160008614Y-54683658D01*
X160020000Y-54736000D01*
X160020000Y-74169000D01*
X159999998Y-74237121D01*
X159946342Y-74283614D01*
X159894000Y-74295000D01*
X142910000Y-74295000D01*
X142841879Y-74274998D01*
X142795386Y-74221342D01*
X142784000Y-74169000D01*
X142784000Y-71594094D01*
X142804002Y-71525973D01*
X142857658Y-71479480D01*
X142927932Y-71469376D01*
X142992512Y-71498870D01*
X142999095Y-71504999D01*
X143197878Y-71703782D01*
X143231904Y-71766094D01*
X143234092Y-71779703D01*
X143236515Y-71802749D01*
X143247497Y-71907237D01*
X143251458Y-71944928D01*
X143310473Y-72126556D01*
X143405960Y-72291944D01*
X143533747Y-72433866D01*
X143688248Y-72546118D01*
X143694276Y-72548802D01*
X143694278Y-72548803D01*
X143856681Y-72621109D01*
X143862712Y-72623794D01*
X143956113Y-72643647D01*
X144043056Y-72662128D01*
X144043061Y-72662128D01*
X144049513Y-72663500D01*
X144240487Y-72663500D01*
X144246939Y-72662128D01*
X144246944Y-72662128D01*
X144333887Y-72643647D01*
X144427288Y-72623794D01*
X144433319Y-72621109D01*
X144595722Y-72548803D01*
X144595724Y-72548802D01*
X144601752Y-72546118D01*
X144756253Y-72433866D01*
X144884040Y-72291944D01*
X144979527Y-72126556D01*
X145038542Y-71944928D01*
X145041814Y-71913803D01*
X145057814Y-71761565D01*
X145058504Y-71755000D01*
X145051680Y-71690070D01*
X145064453Y-71620232D01*
X145112955Y-71568385D01*
X145181788Y-71550991D01*
X145249097Y-71573573D01*
X145286107Y-71613898D01*
X145310960Y-71656944D01*
X145438747Y-71798866D01*
X145593248Y-71911118D01*
X145599276Y-71913802D01*
X145599278Y-71913803D01*
X145761681Y-71986109D01*
X145767712Y-71988794D01*
X145861112Y-72008647D01*
X145948056Y-72027128D01*
X145948061Y-72027128D01*
X145954513Y-72028500D01*
X146145487Y-72028500D01*
X146151939Y-72027128D01*
X146151944Y-72027128D01*
X146238888Y-72008647D01*
X146332288Y-71988794D01*
X146338319Y-71986109D01*
X146500722Y-71913803D01*
X146500724Y-71913802D01*
X146506752Y-71911118D01*
X146661253Y-71798866D01*
X146700750Y-71755000D01*
X149581496Y-71755000D01*
X149582186Y-71761565D01*
X149598187Y-71913803D01*
X149601458Y-71944928D01*
X149660473Y-72126556D01*
X149755960Y-72291944D01*
X149883747Y-72433866D01*
X150038248Y-72546118D01*
X150044276Y-72548802D01*
X150044278Y-72548803D01*
X150206681Y-72621109D01*
X150212712Y-72623794D01*
X150306113Y-72643647D01*
X150393056Y-72662128D01*
X150393061Y-72662128D01*
X150399513Y-72663500D01*
X150590487Y-72663500D01*
X150596939Y-72662128D01*
X150596944Y-72662128D01*
X150683887Y-72643647D01*
X150777288Y-72623794D01*
X150783319Y-72621109D01*
X150945722Y-72548803D01*
X150945724Y-72548802D01*
X150951752Y-72546118D01*
X151106253Y-72433866D01*
X151234040Y-72291944D01*
X151329527Y-72126556D01*
X151388542Y-71944928D01*
X151391814Y-71913803D01*
X151407814Y-71761565D01*
X151408504Y-71755000D01*
X151397597Y-71651226D01*
X151389232Y-71571635D01*
X151389232Y-71571633D01*
X151388542Y-71565072D01*
X151329527Y-71383444D01*
X151234040Y-71218056D01*
X151106253Y-71076134D01*
X150951752Y-70963882D01*
X150945724Y-70961198D01*
X150945722Y-70961197D01*
X150783319Y-70888891D01*
X150783318Y-70888891D01*
X150777288Y-70886206D01*
X150683888Y-70866353D01*
X150596944Y-70847872D01*
X150596939Y-70847872D01*
X150590487Y-70846500D01*
X150399513Y-70846500D01*
X150393061Y-70847872D01*
X150393056Y-70847872D01*
X150306112Y-70866353D01*
X150212712Y-70886206D01*
X150206682Y-70888891D01*
X150206681Y-70888891D01*
X150044278Y-70961197D01*
X150044276Y-70961198D01*
X150038248Y-70963882D01*
X149883747Y-71076134D01*
X149755960Y-71218056D01*
X149660473Y-71383444D01*
X149601458Y-71565072D01*
X149600768Y-71571633D01*
X149600768Y-71571635D01*
X149592403Y-71651226D01*
X149581496Y-71755000D01*
X146700750Y-71755000D01*
X146789040Y-71656944D01*
X146884527Y-71491556D01*
X146943542Y-71309928D01*
X146944436Y-71301427D01*
X146962814Y-71126565D01*
X146963504Y-71120000D01*
X146958485Y-71072251D01*
X146944232Y-70936635D01*
X146944232Y-70936633D01*
X146943542Y-70930072D01*
X146884527Y-70748444D01*
X146789040Y-70583056D01*
X146661253Y-70441134D01*
X146506752Y-70328882D01*
X146500724Y-70326198D01*
X146500722Y-70326197D01*
X146338319Y-70253891D01*
X146338318Y-70253891D01*
X146332288Y-70251206D01*
X146238888Y-70231353D01*
X146151944Y-70212872D01*
X146151939Y-70212872D01*
X146145487Y-70211500D01*
X145954513Y-70211500D01*
X145948061Y-70212872D01*
X145948056Y-70212872D01*
X145861112Y-70231353D01*
X145767712Y-70251206D01*
X145761682Y-70253891D01*
X145761681Y-70253891D01*
X145599278Y-70326197D01*
X145599276Y-70326198D01*
X145593248Y-70328882D01*
X145438747Y-70441134D01*
X145310960Y-70583056D01*
X145215473Y-70748444D01*
X145156458Y-70930072D01*
X145155768Y-70936633D01*
X145155768Y-70936635D01*
X145141515Y-71072251D01*
X145136496Y-71120000D01*
X145137186Y-71126565D01*
X145143320Y-71184930D01*
X145130547Y-71254768D01*
X145082045Y-71306615D01*
X145013212Y-71324009D01*
X144945903Y-71301427D01*
X144908893Y-71261102D01*
X144884040Y-71218056D01*
X144756253Y-71076134D01*
X144601752Y-70963882D01*
X144595724Y-70961198D01*
X144595722Y-70961197D01*
X144433319Y-70888891D01*
X144433318Y-70888891D01*
X144427288Y-70886206D01*
X144333888Y-70866353D01*
X144246944Y-70847872D01*
X144246939Y-70847872D01*
X144240487Y-70846500D01*
X144184595Y-70846500D01*
X144116474Y-70826498D01*
X144095500Y-70809595D01*
X143545405Y-70259500D01*
X143511379Y-70197188D01*
X143508500Y-70170405D01*
X143508500Y-70119782D01*
X143528502Y-70051661D01*
X143582158Y-70005168D01*
X143652432Y-69995064D01*
X143687730Y-70007282D01*
X143688248Y-70006118D01*
X143862712Y-70083794D01*
X143956112Y-70103647D01*
X144043056Y-70122128D01*
X144043061Y-70122128D01*
X144049513Y-70123500D01*
X144240487Y-70123500D01*
X144246939Y-70122128D01*
X144246944Y-70122128D01*
X144333888Y-70103647D01*
X144427288Y-70083794D01*
X144433319Y-70081109D01*
X144595722Y-70008803D01*
X144595724Y-70008802D01*
X144601752Y-70006118D01*
X144616967Y-69995064D01*
X144657157Y-69965864D01*
X144756253Y-69893866D01*
X144884040Y-69751944D01*
X144979527Y-69586556D01*
X145038542Y-69404928D01*
X145058504Y-69215000D01*
X145057814Y-69208435D01*
X145039232Y-69031635D01*
X145039232Y-69031633D01*
X145038542Y-69025072D01*
X144979527Y-68843444D01*
X144884040Y-68678056D01*
X144756253Y-68536134D01*
X144601752Y-68423882D01*
X144595724Y-68421198D01*
X144595722Y-68421197D01*
X144433319Y-68348891D01*
X144433318Y-68348891D01*
X144427288Y-68346206D01*
X144314721Y-68322279D01*
X144246944Y-68307872D01*
X144246939Y-68307872D01*
X144240487Y-68306500D01*
X144049513Y-68306500D01*
X144043061Y-68307872D01*
X144043056Y-68307872D01*
X143901284Y-68338007D01*
X143830493Y-68332605D01*
X143773861Y-68289788D01*
X143749367Y-68223150D01*
X143755254Y-68175824D01*
X143766502Y-68141206D01*
X143768542Y-68134928D01*
X143788504Y-67945000D01*
X143768542Y-67755072D01*
X143709527Y-67573444D01*
X143702406Y-67561109D01*
X143659109Y-67486118D01*
X143614040Y-67408056D01*
X143606705Y-67399909D01*
X143490675Y-67271045D01*
X143490674Y-67271044D01*
X143486253Y-67266134D01*
X143331752Y-67153882D01*
X143325724Y-67151198D01*
X143325722Y-67151197D01*
X143163319Y-67078891D01*
X143163318Y-67078891D01*
X143157288Y-67076206D01*
X143044721Y-67052279D01*
X142976944Y-67037872D01*
X142976939Y-67037872D01*
X142970487Y-67036500D01*
X142779513Y-67036500D01*
X142773061Y-67037872D01*
X142773056Y-67037872D01*
X142631284Y-67068007D01*
X142560493Y-67062605D01*
X142503861Y-67019788D01*
X142479367Y-66953150D01*
X142485254Y-66905824D01*
X142490004Y-66891206D01*
X142498542Y-66864928D01*
X142501814Y-66833803D01*
X142517814Y-66681565D01*
X142518504Y-66675000D01*
X142498542Y-66485072D01*
X142439527Y-66303444D01*
X142344040Y-66138056D01*
X142239005Y-66021402D01*
X142220675Y-66001045D01*
X142220674Y-66001044D01*
X142216253Y-65996134D01*
X142061752Y-65883882D01*
X142055724Y-65881198D01*
X142055722Y-65881197D01*
X141893319Y-65808891D01*
X141893318Y-65808891D01*
X141887288Y-65806206D01*
X141784247Y-65784304D01*
X141704803Y-65767417D01*
X141642329Y-65733688D01*
X141608008Y-65671539D01*
X141605000Y-65644170D01*
X141605000Y-63714011D01*
X141625002Y-63645890D01*
X141678658Y-63599397D01*
X141731000Y-63588011D01*
X145735314Y-63588011D01*
X145803435Y-63608013D01*
X145849928Y-63661669D01*
X145860032Y-63731943D01*
X145851415Y-63761813D01*
X145850473Y-63763444D01*
X145791458Y-63945072D01*
X145771496Y-64135000D01*
X145772186Y-64141565D01*
X145788187Y-64293803D01*
X145791458Y-64324928D01*
X145850473Y-64506556D01*
X145945960Y-64671944D01*
X146073747Y-64813866D01*
X146164009Y-64879446D01*
X146197205Y-64903564D01*
X146240559Y-64959787D01*
X146246634Y-65030523D01*
X146213502Y-65093314D01*
X146151682Y-65128226D01*
X146123144Y-65131500D01*
X145954513Y-65131500D01*
X145948061Y-65132872D01*
X145948056Y-65132872D01*
X145893461Y-65144477D01*
X145767712Y-65171206D01*
X145761682Y-65173891D01*
X145761681Y-65173891D01*
X145599278Y-65246197D01*
X145599276Y-65246198D01*
X145593248Y-65248882D01*
X145438747Y-65361134D01*
X145310960Y-65503056D01*
X145215473Y-65668444D01*
X145156458Y-65850072D01*
X145155768Y-65856633D01*
X145155768Y-65856635D01*
X145139004Y-66016134D01*
X145136496Y-66040000D01*
X145156458Y-66229928D01*
X145215473Y-66411556D01*
X145310960Y-66576944D01*
X145438747Y-66718866D01*
X145593248Y-66831118D01*
X145599276Y-66833802D01*
X145599278Y-66833803D01*
X145761041Y-66905824D01*
X145767712Y-66908794D01*
X145860858Y-66928593D01*
X145948056Y-66947128D01*
X145948061Y-66947128D01*
X145954513Y-66948500D01*
X146145487Y-66948500D01*
X146151939Y-66947128D01*
X146151944Y-66947128D01*
X146239142Y-66928593D01*
X146332288Y-66908794D01*
X146338959Y-66905824D01*
X146500722Y-66833803D01*
X146500724Y-66833802D01*
X146506752Y-66831118D01*
X146661253Y-66718866D01*
X146682742Y-66695000D01*
X147696496Y-66695000D01*
X147697186Y-66701565D01*
X147711085Y-66833803D01*
X147716458Y-66884928D01*
X147775473Y-67066556D01*
X147778776Y-67072278D01*
X147778777Y-67072279D01*
X147812686Y-67131010D01*
X147870960Y-67231944D01*
X147875378Y-67236851D01*
X147875379Y-67236852D01*
X147976317Y-67348955D01*
X147998747Y-67373866D01*
X148153248Y-67486118D01*
X148159276Y-67488802D01*
X148159278Y-67488803D01*
X148321681Y-67561109D01*
X148327712Y-67563794D01*
X148402680Y-67579729D01*
X148508056Y-67602128D01*
X148508061Y-67602128D01*
X148514513Y-67603500D01*
X148705487Y-67603500D01*
X148711939Y-67602128D01*
X148711944Y-67602128D01*
X148817320Y-67579729D01*
X148892288Y-67563794D01*
X148898319Y-67561109D01*
X149060722Y-67488803D01*
X149060724Y-67488802D01*
X149066752Y-67486118D01*
X149094280Y-67466118D01*
X149174703Y-67407687D01*
X149241571Y-67383828D01*
X149310722Y-67399909D01*
X149322825Y-67407687D01*
X149403248Y-67466118D01*
X149409276Y-67468802D01*
X149409278Y-67468803D01*
X149571681Y-67541109D01*
X149577712Y-67543794D01*
X149671112Y-67563647D01*
X149758056Y-67582128D01*
X149758061Y-67582128D01*
X149764513Y-67583500D01*
X149955487Y-67583500D01*
X149961939Y-67582128D01*
X149961944Y-67582128D01*
X150048888Y-67563647D01*
X150142288Y-67543794D01*
X150148319Y-67541109D01*
X150310722Y-67468803D01*
X150310724Y-67468802D01*
X150316752Y-67466118D01*
X150397175Y-67407687D01*
X150464043Y-67383829D01*
X150533194Y-67399909D01*
X150545297Y-67407687D01*
X150625720Y-67466118D01*
X150653248Y-67486118D01*
X150659276Y-67488802D01*
X150659278Y-67488803D01*
X150821681Y-67561109D01*
X150827712Y-67563794D01*
X150902680Y-67579729D01*
X151008056Y-67602128D01*
X151008061Y-67602128D01*
X151014513Y-67603500D01*
X151205487Y-67603500D01*
X151211939Y-67602128D01*
X151211944Y-67602128D01*
X151317320Y-67579729D01*
X151392288Y-67563794D01*
X151398319Y-67561109D01*
X151560722Y-67488803D01*
X151560724Y-67488802D01*
X151566752Y-67486118D01*
X151721253Y-67373866D01*
X151743683Y-67348955D01*
X151844621Y-67236852D01*
X151844622Y-67236851D01*
X151849040Y-67231944D01*
X151907314Y-67131010D01*
X151941223Y-67072279D01*
X151941224Y-67072278D01*
X151944527Y-67066556D01*
X152003542Y-66884928D01*
X152008916Y-66833803D01*
X152022814Y-66701565D01*
X152023504Y-66695000D01*
X152021402Y-66675000D01*
X152756496Y-66675000D01*
X152757186Y-66681565D01*
X152773187Y-66833803D01*
X152776458Y-66864928D01*
X152835473Y-67046556D01*
X152930960Y-67211944D01*
X152935378Y-67216851D01*
X152935379Y-67216852D01*
X152979753Y-67266134D01*
X153058747Y-67353866D01*
X153213248Y-67466118D01*
X153219276Y-67468802D01*
X153219278Y-67468803D01*
X153381681Y-67541109D01*
X153387712Y-67543794D01*
X153481112Y-67563647D01*
X153568056Y-67582128D01*
X153568061Y-67582128D01*
X153574513Y-67583500D01*
X153765487Y-67583500D01*
X153771939Y-67582128D01*
X153771944Y-67582128D01*
X153858888Y-67563647D01*
X153952288Y-67543794D01*
X153958319Y-67541109D01*
X154120722Y-67468803D01*
X154120724Y-67468802D01*
X154126752Y-67466118D01*
X154281253Y-67353866D01*
X154360247Y-67266134D01*
X154404621Y-67216852D01*
X154404622Y-67216851D01*
X154409040Y-67211944D01*
X154504527Y-67046556D01*
X154563542Y-66864928D01*
X154566814Y-66833803D01*
X154582814Y-66681565D01*
X154583504Y-66675000D01*
X157201496Y-66675000D01*
X157202186Y-66681565D01*
X157218187Y-66833803D01*
X157221458Y-66864928D01*
X157280473Y-67046556D01*
X157375960Y-67211944D01*
X157380378Y-67216851D01*
X157380379Y-67216852D01*
X157424753Y-67266134D01*
X157503747Y-67353866D01*
X157658248Y-67466118D01*
X157664276Y-67468802D01*
X157664278Y-67468803D01*
X157826681Y-67541109D01*
X157832712Y-67543794D01*
X157926112Y-67563647D01*
X158013056Y-67582128D01*
X158013061Y-67582128D01*
X158019513Y-67583500D01*
X158210487Y-67583500D01*
X158216939Y-67582128D01*
X158216944Y-67582128D01*
X158303888Y-67563647D01*
X158397288Y-67543794D01*
X158403319Y-67541109D01*
X158565722Y-67468803D01*
X158565724Y-67468802D01*
X158571752Y-67466118D01*
X158726253Y-67353866D01*
X158805247Y-67266134D01*
X158849621Y-67216852D01*
X158849622Y-67216851D01*
X158854040Y-67211944D01*
X158949527Y-67046556D01*
X159008542Y-66864928D01*
X159011814Y-66833803D01*
X159027814Y-66681565D01*
X159028504Y-66675000D01*
X159008542Y-66485072D01*
X158949527Y-66303444D01*
X158854040Y-66138056D01*
X158749005Y-66021402D01*
X158730675Y-66001045D01*
X158730674Y-66001044D01*
X158726253Y-65996134D01*
X158571752Y-65883882D01*
X158565724Y-65881198D01*
X158565722Y-65881197D01*
X158403319Y-65808891D01*
X158403318Y-65808891D01*
X158397288Y-65806206D01*
X158303888Y-65786353D01*
X158216944Y-65767872D01*
X158216939Y-65767872D01*
X158210487Y-65766500D01*
X158019513Y-65766500D01*
X158013061Y-65767872D01*
X158013056Y-65767872D01*
X157926112Y-65786353D01*
X157832712Y-65806206D01*
X157826682Y-65808891D01*
X157826681Y-65808891D01*
X157664278Y-65881197D01*
X157664276Y-65881198D01*
X157658248Y-65883882D01*
X157503747Y-65996134D01*
X157499326Y-66001044D01*
X157499325Y-66001045D01*
X157480996Y-66021402D01*
X157375960Y-66138056D01*
X157280473Y-66303444D01*
X157221458Y-66485072D01*
X157201496Y-66675000D01*
X154583504Y-66675000D01*
X154563542Y-66485072D01*
X154504527Y-66303444D01*
X154409040Y-66138056D01*
X154304005Y-66021402D01*
X154285675Y-66001045D01*
X154285674Y-66001044D01*
X154281253Y-65996134D01*
X154126752Y-65883882D01*
X154120724Y-65881198D01*
X154120722Y-65881197D01*
X153958319Y-65808891D01*
X153958318Y-65808891D01*
X153952288Y-65806206D01*
X153858888Y-65786353D01*
X153771944Y-65767872D01*
X153771939Y-65767872D01*
X153765487Y-65766500D01*
X153574513Y-65766500D01*
X153568061Y-65767872D01*
X153568056Y-65767872D01*
X153481112Y-65786353D01*
X153387712Y-65806206D01*
X153381682Y-65808891D01*
X153381681Y-65808891D01*
X153219278Y-65881197D01*
X153219276Y-65881198D01*
X153213248Y-65883882D01*
X153058747Y-65996134D01*
X153054326Y-66001044D01*
X153054325Y-66001045D01*
X153035996Y-66021402D01*
X152930960Y-66138056D01*
X152835473Y-66303444D01*
X152776458Y-66485072D01*
X152756496Y-66675000D01*
X152021402Y-66675000D01*
X152003542Y-66505072D01*
X151944527Y-66323444D01*
X151849040Y-66158056D01*
X151836181Y-66143774D01*
X151725675Y-66021045D01*
X151725674Y-66021044D01*
X151721253Y-66016134D01*
X151566752Y-65903882D01*
X151560724Y-65901198D01*
X151560722Y-65901197D01*
X151398319Y-65828891D01*
X151398318Y-65828891D01*
X151392288Y-65826206D01*
X151291741Y-65804834D01*
X151211944Y-65787872D01*
X151211939Y-65787872D01*
X151205487Y-65786500D01*
X151014513Y-65786500D01*
X151008061Y-65787872D01*
X151008056Y-65787872D01*
X150928259Y-65804834D01*
X150827712Y-65826206D01*
X150821682Y-65828891D01*
X150821681Y-65828891D01*
X150659278Y-65901197D01*
X150659276Y-65901198D01*
X150653248Y-65903882D01*
X150647907Y-65907762D01*
X150647906Y-65907763D01*
X150572825Y-65962313D01*
X150505957Y-65986171D01*
X150436806Y-65970091D01*
X150424703Y-65962313D01*
X150322094Y-65887763D01*
X150322093Y-65887762D01*
X150316752Y-65883882D01*
X150310724Y-65881198D01*
X150310722Y-65881197D01*
X150148319Y-65808891D01*
X150148318Y-65808891D01*
X150142288Y-65806206D01*
X150048888Y-65786353D01*
X149961944Y-65767872D01*
X149961939Y-65767872D01*
X149955487Y-65766500D01*
X149764513Y-65766500D01*
X149758061Y-65767872D01*
X149758056Y-65767872D01*
X149671112Y-65786353D01*
X149577712Y-65806206D01*
X149571682Y-65808891D01*
X149571681Y-65808891D01*
X149409278Y-65881197D01*
X149409276Y-65881198D01*
X149403248Y-65883882D01*
X149397907Y-65887762D01*
X149397906Y-65887763D01*
X149295297Y-65962313D01*
X149228429Y-65986172D01*
X149159278Y-65970091D01*
X149147175Y-65962313D01*
X149072094Y-65907763D01*
X149072093Y-65907762D01*
X149066752Y-65903882D01*
X149060724Y-65901198D01*
X149060722Y-65901197D01*
X148898319Y-65828891D01*
X148898318Y-65828891D01*
X148892288Y-65826206D01*
X148791741Y-65804834D01*
X148711944Y-65787872D01*
X148711939Y-65787872D01*
X148705487Y-65786500D01*
X148514513Y-65786500D01*
X148508061Y-65787872D01*
X148508056Y-65787872D01*
X148428259Y-65804834D01*
X148327712Y-65826206D01*
X148321682Y-65828891D01*
X148321681Y-65828891D01*
X148159278Y-65901197D01*
X148159276Y-65901198D01*
X148153248Y-65903882D01*
X147998747Y-66016134D01*
X147994326Y-66021044D01*
X147994325Y-66021045D01*
X147883820Y-66143774D01*
X147870960Y-66158056D01*
X147775473Y-66323444D01*
X147716458Y-66505072D01*
X147696496Y-66695000D01*
X146682742Y-66695000D01*
X146789040Y-66576944D01*
X146884527Y-66411556D01*
X146943542Y-66229928D01*
X146963504Y-66040000D01*
X146960996Y-66016134D01*
X146944232Y-65856635D01*
X146944232Y-65856633D01*
X146943542Y-65850072D01*
X146884527Y-65668444D01*
X146789040Y-65503056D01*
X146661253Y-65361134D01*
X146537795Y-65271436D01*
X146494441Y-65215213D01*
X146488366Y-65144477D01*
X146521498Y-65081686D01*
X146583318Y-65046774D01*
X146611856Y-65043500D01*
X146780487Y-65043500D01*
X146786939Y-65042128D01*
X146786944Y-65042128D01*
X146873887Y-65023647D01*
X146967288Y-65003794D01*
X147066130Y-64959787D01*
X147135722Y-64928803D01*
X147135724Y-64928802D01*
X147141752Y-64926118D01*
X147296253Y-64813866D01*
X147424040Y-64671944D01*
X147519527Y-64506556D01*
X147578542Y-64324928D01*
X147581814Y-64293803D01*
X147597814Y-64141565D01*
X147598504Y-64135000D01*
X147578542Y-63945072D01*
X147556629Y-63877630D01*
X147554602Y-63806662D01*
X147591264Y-63745864D01*
X147625214Y-63723587D01*
X147770719Y-63658805D01*
X147770726Y-63658801D01*
X147776752Y-63656118D01*
X147931253Y-63543866D01*
X147992365Y-63475994D01*
X148054621Y-63406852D01*
X148054622Y-63406851D01*
X148059040Y-63401944D01*
X148154527Y-63236556D01*
X148213542Y-63054928D01*
X148221774Y-62976610D01*
X148232373Y-62875761D01*
X153248908Y-62875761D01*
X153249598Y-62882326D01*
X153259508Y-62976610D01*
X153268870Y-63065689D01*
X153327885Y-63247317D01*
X153423372Y-63412705D01*
X153427790Y-63417612D01*
X153427791Y-63417613D01*
X153546737Y-63549716D01*
X153551159Y-63554627D01*
X153705660Y-63666879D01*
X153711688Y-63669563D01*
X153711690Y-63669564D01*
X153855954Y-63733794D01*
X153880124Y-63744555D01*
X153968989Y-63763444D01*
X154060468Y-63782889D01*
X154060473Y-63782889D01*
X154066925Y-63784261D01*
X154257899Y-63784261D01*
X154264351Y-63782889D01*
X154264356Y-63782889D01*
X154355835Y-63763444D01*
X154444700Y-63744555D01*
X154468870Y-63733794D01*
X154613134Y-63669564D01*
X154613136Y-63669563D01*
X154619164Y-63666879D01*
X154773665Y-63554627D01*
X154778087Y-63549716D01*
X154822851Y-63500000D01*
X157201496Y-63500000D01*
X157202186Y-63506565D01*
X157219318Y-63669564D01*
X157221458Y-63689928D01*
X157280473Y-63871556D01*
X157375960Y-64036944D01*
X157503747Y-64178866D01*
X157658248Y-64291118D01*
X157664276Y-64293802D01*
X157664278Y-64293803D01*
X157826681Y-64366109D01*
X157832712Y-64368794D01*
X157926113Y-64388647D01*
X158013056Y-64407128D01*
X158013061Y-64407128D01*
X158019513Y-64408500D01*
X158210487Y-64408500D01*
X158216939Y-64407128D01*
X158216944Y-64407128D01*
X158303887Y-64388647D01*
X158397288Y-64368794D01*
X158403319Y-64366109D01*
X158565722Y-64293803D01*
X158565724Y-64293802D01*
X158571752Y-64291118D01*
X158726253Y-64178866D01*
X158854040Y-64036944D01*
X158949527Y-63871556D01*
X158988711Y-63750961D01*
X159028785Y-63692356D01*
X159082345Y-63666652D01*
X159097580Y-63663413D01*
X159097582Y-63663412D01*
X159104043Y-63662039D01*
X159126059Y-63652237D01*
X159272477Y-63587048D01*
X159272479Y-63587047D01*
X159278507Y-63584363D01*
X159314091Y-63558510D01*
X159403658Y-63493435D01*
X159433008Y-63472111D01*
X159491646Y-63406987D01*
X159556376Y-63335097D01*
X159556377Y-63335096D01*
X159560795Y-63330189D01*
X159656282Y-63164801D01*
X159715297Y-62983173D01*
X159716811Y-62968774D01*
X159734569Y-62799810D01*
X159735259Y-62793245D01*
X159726110Y-62706197D01*
X159715987Y-62609880D01*
X159715987Y-62609878D01*
X159715297Y-62603317D01*
X159656282Y-62421689D01*
X159560795Y-62256301D01*
X159537114Y-62230000D01*
X159437430Y-62119290D01*
X159437429Y-62119289D01*
X159433008Y-62114379D01*
X159278507Y-62002127D01*
X159272479Y-61999443D01*
X159272477Y-61999442D01*
X159110074Y-61927136D01*
X159110073Y-61927136D01*
X159104043Y-61924451D01*
X159010643Y-61904598D01*
X158923699Y-61886117D01*
X158923694Y-61886117D01*
X158917242Y-61884745D01*
X158726268Y-61884745D01*
X158719816Y-61886117D01*
X158719811Y-61886117D01*
X158632867Y-61904598D01*
X158539467Y-61924451D01*
X158533437Y-61927136D01*
X158533436Y-61927136D01*
X158371033Y-61999442D01*
X158371031Y-61999443D01*
X158365003Y-62002127D01*
X158210502Y-62114379D01*
X158206081Y-62119289D01*
X158206080Y-62119290D01*
X158106397Y-62230000D01*
X158082715Y-62256301D01*
X157987228Y-62421689D01*
X157985187Y-62427971D01*
X157948044Y-62542284D01*
X157907970Y-62600889D01*
X157854410Y-62626593D01*
X157839175Y-62629832D01*
X157839173Y-62629833D01*
X157832712Y-62631206D01*
X157826682Y-62633891D01*
X157826681Y-62633891D01*
X157664278Y-62706197D01*
X157664276Y-62706198D01*
X157658248Y-62708882D01*
X157503747Y-62821134D01*
X157499326Y-62826044D01*
X157499325Y-62826045D01*
X157448650Y-62882326D01*
X157375960Y-62963056D01*
X157280473Y-63128444D01*
X157221458Y-63310072D01*
X157220768Y-63316633D01*
X157220768Y-63316635D01*
X157218828Y-63335097D01*
X157201496Y-63500000D01*
X154822851Y-63500000D01*
X154897033Y-63417613D01*
X154897034Y-63417612D01*
X154901452Y-63412705D01*
X154996939Y-63247317D01*
X155055954Y-63065689D01*
X155065317Y-62976610D01*
X155075226Y-62882326D01*
X155075916Y-62875761D01*
X155063552Y-62758120D01*
X155056644Y-62692396D01*
X155056644Y-62692394D01*
X155055954Y-62685833D01*
X154996939Y-62504205D01*
X154901452Y-62338817D01*
X154885420Y-62321011D01*
X154778087Y-62201806D01*
X154778086Y-62201805D01*
X154773665Y-62196895D01*
X154660092Y-62114379D01*
X154624506Y-62088524D01*
X154624505Y-62088523D01*
X154619164Y-62084643D01*
X154613136Y-62081959D01*
X154613134Y-62081958D01*
X154450731Y-62009652D01*
X154450730Y-62009652D01*
X154444700Y-62006967D01*
X154351299Y-61987114D01*
X154264356Y-61968633D01*
X154264351Y-61968633D01*
X154257899Y-61967261D01*
X154066925Y-61967261D01*
X154060473Y-61968633D01*
X154060468Y-61968633D01*
X153973525Y-61987114D01*
X153880124Y-62006967D01*
X153874094Y-62009652D01*
X153874093Y-62009652D01*
X153711690Y-62081958D01*
X153711688Y-62081959D01*
X153705660Y-62084643D01*
X153700319Y-62088523D01*
X153700318Y-62088524D01*
X153664732Y-62114379D01*
X153551159Y-62196895D01*
X153546738Y-62201805D01*
X153546737Y-62201806D01*
X153439405Y-62321011D01*
X153423372Y-62338817D01*
X153327885Y-62504205D01*
X153268870Y-62685833D01*
X153268180Y-62692394D01*
X153268180Y-62692396D01*
X153261272Y-62758120D01*
X153248908Y-62875761D01*
X148232373Y-62875761D01*
X148232814Y-62871565D01*
X148233504Y-62865000D01*
X148222271Y-62758120D01*
X148214232Y-62681635D01*
X148214232Y-62681633D01*
X148213542Y-62675072D01*
X148154527Y-62493444D01*
X148059040Y-62328056D01*
X147990013Y-62251393D01*
X147935675Y-62191045D01*
X147935674Y-62191044D01*
X147931253Y-62186134D01*
X147776752Y-62073882D01*
X147770724Y-62071198D01*
X147770722Y-62071197D01*
X147608319Y-61998891D01*
X147608318Y-61998891D01*
X147602288Y-61996206D01*
X147508888Y-61976353D01*
X147421944Y-61957872D01*
X147421939Y-61957872D01*
X147415487Y-61956500D01*
X147224513Y-61956500D01*
X147218061Y-61957872D01*
X147218056Y-61957872D01*
X147131112Y-61976353D01*
X147037712Y-61996206D01*
X147031682Y-61998891D01*
X147031681Y-61998891D01*
X146869278Y-62071197D01*
X146869276Y-62071198D01*
X146863248Y-62073882D01*
X146857907Y-62077762D01*
X146857906Y-62077763D01*
X146730329Y-62170454D01*
X146708747Y-62186134D01*
X146704334Y-62191036D01*
X146704332Y-62191037D01*
X146624840Y-62279322D01*
X146564394Y-62316561D01*
X146531204Y-62321011D01*
X143276521Y-62321011D01*
X143208400Y-62301009D01*
X143161907Y-62247353D01*
X143151211Y-62208182D01*
X143134232Y-62046634D01*
X143134231Y-62046631D01*
X143133542Y-62040072D01*
X143074527Y-61858444D01*
X142979040Y-61693056D01*
X142851253Y-61551134D01*
X142696752Y-61438882D01*
X142690724Y-61436198D01*
X142690722Y-61436197D01*
X142528319Y-61363891D01*
X142528318Y-61363891D01*
X142522288Y-61361206D01*
X142428887Y-61341353D01*
X142341944Y-61322872D01*
X142341939Y-61322872D01*
X142335487Y-61321500D01*
X142144513Y-61321500D01*
X142138061Y-61322872D01*
X142138056Y-61322872D01*
X142051113Y-61341353D01*
X141957712Y-61361206D01*
X141951682Y-61363891D01*
X141951681Y-61363891D01*
X141809933Y-61427001D01*
X141783248Y-61438882D01*
X141782120Y-61436349D01*
X141725026Y-61450210D01*
X141657930Y-61427001D01*
X141614034Y-61371201D01*
X141605000Y-61324352D01*
X141605000Y-61273094D01*
X141625002Y-61204973D01*
X141641905Y-61183999D01*
X144499053Y-58326852D01*
X146406885Y-56419020D01*
X150851496Y-56419020D01*
X150871458Y-56608948D01*
X150930473Y-56790576D01*
X151025960Y-56955964D01*
X151153747Y-57097886D01*
X151203693Y-57134174D01*
X151285852Y-57193866D01*
X151308248Y-57210138D01*
X151314276Y-57212822D01*
X151314278Y-57212823D01*
X151465997Y-57280372D01*
X151482712Y-57287814D01*
X151568825Y-57306118D01*
X151663056Y-57326148D01*
X151663061Y-57326148D01*
X151669513Y-57327520D01*
X151860487Y-57327520D01*
X151866939Y-57326148D01*
X151866944Y-57326148D01*
X151961175Y-57306118D01*
X152047288Y-57287814D01*
X152064003Y-57280372D01*
X152215722Y-57212823D01*
X152215724Y-57212822D01*
X152221752Y-57210138D01*
X152244149Y-57193866D01*
X152326307Y-57134174D01*
X152376253Y-57097886D01*
X152504040Y-56955964D01*
X152599527Y-56790576D01*
X152658542Y-56608948D01*
X152678504Y-56419020D01*
X152660903Y-56251556D01*
X152659232Y-56235655D01*
X152659232Y-56235653D01*
X152658542Y-56229092D01*
X152599527Y-56047464D01*
X152504040Y-55882076D01*
X152376253Y-55740154D01*
X152221752Y-55627902D01*
X152215724Y-55625218D01*
X152215722Y-55625217D01*
X152053319Y-55552911D01*
X152053318Y-55552911D01*
X152047288Y-55550226D01*
X151953888Y-55530373D01*
X151866944Y-55511892D01*
X151866939Y-55511892D01*
X151860487Y-55510520D01*
X151669513Y-55510520D01*
X151663061Y-55511892D01*
X151663056Y-55511892D01*
X151576112Y-55530373D01*
X151482712Y-55550226D01*
X151476682Y-55552911D01*
X151476681Y-55552911D01*
X151314278Y-55625217D01*
X151314276Y-55625218D01*
X151308248Y-55627902D01*
X151153747Y-55740154D01*
X151025960Y-55882076D01*
X150930473Y-56047464D01*
X150871458Y-56229092D01*
X150870768Y-56235653D01*
X150870768Y-56235655D01*
X150869097Y-56251556D01*
X150851496Y-56419020D01*
X146406885Y-56419020D01*
X148179000Y-54646905D01*
X148241312Y-54612879D01*
X148268095Y-54610000D01*
X151693152Y-54610000D01*
X151761273Y-54630002D01*
G37*
%TD.AperFunction*%
%TD*%
M02*
