%TF.GenerationSoftware,KiCad,Pcbnew,6.0.2+dfsg-1*%
%TF.CreationDate,2023-01-27T10:33:09-05:00*%
%TF.ProjectId,vehicle-can-collector,76656869-636c-4652-9d63-616e2d636f6c,rev?*%
%TF.SameCoordinates,Original*%
%TF.FileFunction,Soldermask,Top*%
%TF.FilePolarity,Negative*%
%FSLAX46Y46*%
G04 Gerber Fmt 4.6, Leading zero omitted, Abs format (unit mm)*
G04 Created by KiCad (PCBNEW 6.0.2+dfsg-1) date 2023-01-27 10:33:09*
%MOMM*%
%LPD*%
G01*
G04 APERTURE LIST*
G04 Aperture macros list*
%AMRoundRect*
0 Rectangle with rounded corners*
0 $1 Rounding radius*
0 $2 $3 $4 $5 $6 $7 $8 $9 X,Y pos of 4 corners*
0 Add a 4 corners polygon primitive as box body*
4,1,4,$2,$3,$4,$5,$6,$7,$8,$9,$2,$3,0*
0 Add four circle primitives for the rounded corners*
1,1,$1+$1,$2,$3*
1,1,$1+$1,$4,$5*
1,1,$1+$1,$6,$7*
1,1,$1+$1,$8,$9*
0 Add four rect primitives between the rounded corners*
20,1,$1+$1,$2,$3,$4,$5,0*
20,1,$1+$1,$4,$5,$6,$7,0*
20,1,$1+$1,$6,$7,$8,$9,0*
20,1,$1+$1,$8,$9,$2,$3,0*%
%AMFreePoly0*
4,1,9,3.862500,-0.866500,0.737500,-0.866500,0.737500,-0.450000,-0.737500,-0.450000,-0.737500,0.450000,0.737500,0.450000,0.737500,0.866500,3.862500,0.866500,3.862500,-0.866500,3.862500,-0.866500,$1*%
G04 Aperture macros list end*
%ADD10R,1.473200X0.279400*%
%ADD11R,0.279400X1.473200*%
%ADD12RoundRect,0.250000X0.475000X-0.337500X0.475000X0.337500X-0.475000X0.337500X-0.475000X-0.337500X0*%
%ADD13RoundRect,0.250000X0.450000X-0.325000X0.450000X0.325000X-0.450000X0.325000X-0.450000X-0.325000X0*%
%ADD14RoundRect,0.150000X-0.150000X0.587500X-0.150000X-0.587500X0.150000X-0.587500X0.150000X0.587500X0*%
%ADD15RoundRect,0.250000X-0.450000X0.350000X-0.450000X-0.350000X0.450000X-0.350000X0.450000X0.350000X0*%
%ADD16RoundRect,0.250000X0.450000X-0.350000X0.450000X0.350000X-0.450000X0.350000X-0.450000X-0.350000X0*%
%ADD17R,0.700000X0.450000*%
%ADD18RoundRect,0.250000X-0.350000X-0.450000X0.350000X-0.450000X0.350000X0.450000X-0.350000X0.450000X0*%
%ADD19RoundRect,0.160000X0.160000X-0.222500X0.160000X0.222500X-0.160000X0.222500X-0.160000X-0.222500X0*%
%ADD20RoundRect,0.250000X-0.337500X-0.475000X0.337500X-0.475000X0.337500X0.475000X-0.337500X0.475000X0*%
%ADD21R,0.508000X1.270000*%
%ADD22R,0.508000X1.981200*%
%ADD23RoundRect,0.250000X0.350000X0.450000X-0.350000X0.450000X-0.350000X-0.450000X0.350000X-0.450000X0*%
%ADD24RoundRect,0.150000X0.150000X-0.587500X0.150000X0.587500X-0.150000X0.587500X-0.150000X-0.587500X0*%
%ADD25R,0.650000X0.350000*%
%ADD26R,1.550000X2.400000*%
%ADD27RoundRect,0.250000X-0.275000X-0.350000X0.275000X-0.350000X0.275000X0.350000X-0.275000X0.350000X0*%
%ADD28R,0.300000X0.800000*%
%ADD29RoundRect,0.100000X-0.100000X0.637500X-0.100000X-0.637500X0.100000X-0.637500X0.100000X0.637500X0*%
%ADD30RoundRect,0.150000X0.587500X0.150000X-0.587500X0.150000X-0.587500X-0.150000X0.587500X-0.150000X0*%
%ADD31RoundRect,0.250000X-0.475000X0.337500X-0.475000X-0.337500X0.475000X-0.337500X0.475000X0.337500X0*%
%ADD32RoundRect,0.100000X0.637500X0.100000X-0.637500X0.100000X-0.637500X-0.100000X0.637500X-0.100000X0*%
%ADD33R,0.900000X1.200000*%
%ADD34RoundRect,0.250000X0.350000X0.625000X-0.350000X0.625000X-0.350000X-0.625000X0.350000X-0.625000X0*%
%ADD35O,1.200000X1.750000*%
%ADD36RoundRect,0.250000X-0.325000X-0.450000X0.325000X-0.450000X0.325000X0.450000X-0.325000X0.450000X0*%
%ADD37R,2.500000X1.800000*%
%ADD38RoundRect,0.150000X-0.587500X-0.150000X0.587500X-0.150000X0.587500X0.150000X-0.587500X0.150000X0*%
%ADD39R,0.450000X0.700000*%
%ADD40RoundRect,0.100000X-0.637500X-0.100000X0.637500X-0.100000X0.637500X0.100000X-0.637500X0.100000X0*%
%ADD41R,1.800000X2.500000*%
%ADD42RoundRect,0.075000X-0.075000X0.700000X-0.075000X-0.700000X0.075000X-0.700000X0.075000X0.700000X0*%
%ADD43RoundRect,0.075000X-0.700000X0.075000X-0.700000X-0.075000X0.700000X-0.075000X0.700000X0.075000X0*%
%ADD44RoundRect,0.250000X0.337500X0.475000X-0.337500X0.475000X-0.337500X-0.475000X0.337500X-0.475000X0*%
%ADD45R,0.400000X1.650000*%
%ADD46R,2.000000X1.500000*%
%ADD47O,1.350000X1.700000*%
%ADD48O,1.100000X1.500000*%
%ADD49R,1.350000X2.000000*%
%ADD50R,1.825000X0.700000*%
%ADD51R,1.430000X2.500000*%
%ADD52C,3.215640*%
%ADD53C,2.000000*%
%ADD54RoundRect,0.250000X-1.025000X0.875000X-1.025000X-0.875000X1.025000X-0.875000X1.025000X0.875000X0*%
%ADD55R,1.200000X0.900000*%
%ADD56R,1.320800X0.558800*%
%ADD57R,1.100000X0.850000*%
%ADD58R,1.100000X0.750000*%
%ADD59R,1.000000X1.200000*%
%ADD60R,1.350000X1.550000*%
%ADD61R,1.350000X1.900000*%
%ADD62R,1.800000X1.170000*%
%ADD63R,1.000000X2.200000*%
%ADD64R,3.400000X1.800000*%
%ADD65R,0.787400X2.667000*%
%ADD66R,10.414000X10.414000*%
%ADD67C,1.206500*%
%ADD68R,1.600000X1.600000*%
%ADD69O,1.600000X1.600000*%
%ADD70R,1.800000X2.000000*%
%ADD71R,0.900000X1.300000*%
%ADD72FreePoly0,270.000000*%
G04 APERTURE END LIST*
D10*
%TO.C,U201*%
X137058400Y-62170000D03*
X137058400Y-61670001D03*
X137058400Y-61170000D03*
X137058400Y-60670001D03*
X137058400Y-60169999D03*
X137058400Y-59670000D03*
X137058400Y-59170001D03*
X137058400Y-58670000D03*
X137058400Y-58170000D03*
X137058400Y-57669999D03*
X137058400Y-57170000D03*
X137058400Y-56670001D03*
X137058400Y-56169999D03*
X137058400Y-55670000D03*
X137058400Y-55169999D03*
X137058400Y-54670000D03*
D11*
X135195000Y-52806600D03*
X134695001Y-52806600D03*
X134195000Y-52806600D03*
X133695001Y-52806600D03*
X133194999Y-52806600D03*
X132695000Y-52806600D03*
X132195001Y-52806600D03*
X131695000Y-52806600D03*
X131195000Y-52806600D03*
X130694999Y-52806600D03*
X130195000Y-52806600D03*
X129695001Y-52806600D03*
X129194999Y-52806600D03*
X128695000Y-52806600D03*
X128194999Y-52806600D03*
X127695000Y-52806600D03*
D10*
X125831600Y-54670000D03*
X125831600Y-55169999D03*
X125831600Y-55670000D03*
X125831600Y-56169999D03*
X125831600Y-56670001D03*
X125831600Y-57170000D03*
X125831600Y-57669999D03*
X125831600Y-58170000D03*
X125831600Y-58670000D03*
X125831600Y-59170001D03*
X125831600Y-59670000D03*
X125831600Y-60169999D03*
X125831600Y-60670001D03*
X125831600Y-61170000D03*
X125831600Y-61670001D03*
X125831600Y-62170000D03*
D11*
X127695000Y-64033400D03*
X128194999Y-64033400D03*
X128695000Y-64033400D03*
X129194999Y-64033400D03*
X129695001Y-64033400D03*
X130195000Y-64033400D03*
X130694999Y-64033400D03*
X131195000Y-64033400D03*
X131695000Y-64033400D03*
X132195001Y-64033400D03*
X132695000Y-64033400D03*
X133194999Y-64033400D03*
X133695001Y-64033400D03*
X134195000Y-64033400D03*
X134695001Y-64033400D03*
X135195000Y-64033400D03*
%TD*%
D12*
%TO.C,C503*%
X81915000Y-103040000D03*
X81915000Y-100965000D03*
%TD*%
D13*
%TO.C,D1102*%
X133350000Y-86750000D03*
X133350000Y-84700000D03*
%TD*%
D14*
%TO.C,Q508*%
X136840000Y-120347500D03*
X134940000Y-120347500D03*
X135890000Y-122222500D03*
%TD*%
D15*
%TO.C,R604*%
X105410000Y-116110000D03*
X105410000Y-118110000D03*
%TD*%
D16*
%TO.C,R508*%
X130175000Y-103235000D03*
X130175000Y-101235000D03*
%TD*%
D17*
%TO.C,D803*%
X86900000Y-127620000D03*
X86900000Y-128920000D03*
X88900000Y-128270000D03*
%TD*%
D18*
%TO.C,R801*%
X105680000Y-128270000D03*
X107680000Y-128270000D03*
%TD*%
D19*
%TO.C,D601*%
X92075000Y-112332500D03*
X92075000Y-111187500D03*
%TD*%
D20*
%TO.C,C702*%
X105642500Y-69215000D03*
X107717500Y-69215000D03*
%TD*%
D16*
%TO.C,R713*%
X98425000Y-96250000D03*
X98425000Y-94250000D03*
%TD*%
D21*
%TO.C,U203*%
X149544999Y-53289200D03*
X150495000Y-53289200D03*
X151445001Y-53289200D03*
X151445001Y-50850800D03*
X149544999Y-50850800D03*
%TD*%
D22*
%TO.C,U705*%
X86360000Y-56591200D03*
X85090000Y-56591200D03*
X83820000Y-56591200D03*
X82550000Y-56591200D03*
X82550000Y-61518800D03*
X83820000Y-61518800D03*
X85090000Y-61518800D03*
X86360000Y-61518800D03*
%TD*%
D15*
%TO.C,R501*%
X94615000Y-102505000D03*
X94615000Y-104505000D03*
%TD*%
D16*
%TO.C,R806*%
X97155000Y-127635000D03*
X97155000Y-125635000D03*
%TD*%
D23*
%TO.C,R702*%
X103870000Y-89535000D03*
X101870000Y-89535000D03*
%TD*%
D24*
%TO.C,Q705*%
X94935000Y-94282500D03*
X96835000Y-94282500D03*
X95885000Y-92407500D03*
%TD*%
D25*
%TO.C,U702*%
X99340000Y-72730000D03*
X99340000Y-72080000D03*
X99340000Y-71430000D03*
X99340000Y-70780000D03*
X96240000Y-70780000D03*
X96240000Y-71430000D03*
X96240000Y-72080000D03*
X96240000Y-72730000D03*
D26*
X97790000Y-71755000D03*
%TD*%
D16*
%TO.C,R514*%
X130175000Y-119745000D03*
X130175000Y-117745000D03*
%TD*%
D14*
%TO.C,Q506*%
X122235000Y-106377500D03*
X120335000Y-106377500D03*
X121285000Y-108252500D03*
%TD*%
D23*
%TO.C,R707*%
X94345000Y-73025000D03*
X92345000Y-73025000D03*
%TD*%
%TO.C,R802*%
X110585000Y-136525000D03*
X108585000Y-136525000D03*
%TD*%
D27*
%TO.C,L301*%
X159385000Y-56515000D03*
X161685000Y-56515000D03*
%TD*%
D28*
%TO.C,RN1101*%
X154805000Y-81650000D03*
X154305000Y-81650000D03*
X153805000Y-81650000D03*
X153305000Y-81650000D03*
X152805000Y-81650000D03*
X152305000Y-81650000D03*
X151805000Y-81650000D03*
X151305000Y-81650000D03*
X151305000Y-83450000D03*
X151805000Y-83450000D03*
X152305000Y-83450000D03*
X152805000Y-83450000D03*
X153305000Y-83450000D03*
X153805000Y-83450000D03*
X154305000Y-83450000D03*
X154805000Y-83450000D03*
%TD*%
D16*
%TO.C,R308*%
X169545000Y-63595000D03*
X169545000Y-61595000D03*
%TD*%
D29*
%TO.C,U302*%
X165440000Y-63812500D03*
X164790000Y-63812500D03*
X164140000Y-63812500D03*
X163490000Y-63812500D03*
X163490000Y-69537500D03*
X164140000Y-69537500D03*
X164790000Y-69537500D03*
X165440000Y-69537500D03*
%TD*%
D30*
%TO.C,Q803*%
X122222500Y-133665000D03*
X122222500Y-131765000D03*
X120347500Y-132715000D03*
%TD*%
D15*
%TO.C,R202*%
X146050000Y-51070000D03*
X146050000Y-53070000D03*
%TD*%
D31*
%TO.C,C507*%
X116205000Y-96117500D03*
X116205000Y-98192500D03*
%TD*%
D32*
%TO.C,U1101*%
X155917500Y-79745000D03*
X155917500Y-79095000D03*
X155917500Y-78445000D03*
X155917500Y-77795000D03*
X155917500Y-77145000D03*
X155917500Y-76495000D03*
X155917500Y-75845000D03*
X155917500Y-75195000D03*
X150192500Y-75195000D03*
X150192500Y-75845000D03*
X150192500Y-76495000D03*
X150192500Y-77145000D03*
X150192500Y-77795000D03*
X150192500Y-78445000D03*
X150192500Y-79095000D03*
X150192500Y-79745000D03*
%TD*%
D33*
%TO.C,D502*%
X106555000Y-98425000D03*
X109855000Y-98425000D03*
%TD*%
D18*
%TO.C,R504*%
X120555000Y-102870000D03*
X122555000Y-102870000D03*
%TD*%
D34*
%TO.C,J303*%
X114490000Y-46990000D03*
D35*
X112490000Y-46990000D03*
X110490000Y-46990000D03*
X108490000Y-46990000D03*
%TD*%
D36*
%TO.C,D1106*%
X147565000Y-100965000D03*
X149615000Y-100965000D03*
%TD*%
D30*
%TO.C,Q802*%
X103172500Y-131760000D03*
X103172500Y-129860000D03*
X101297500Y-130810000D03*
%TD*%
D37*
%TO.C,D505*%
X137890000Y-96520000D03*
X133890000Y-96520000D03*
%TD*%
D24*
%TO.C,Q507*%
X114935000Y-103505000D03*
X116835000Y-103505000D03*
X115885000Y-101630000D03*
%TD*%
D15*
%TO.C,R507*%
X130175000Y-110125000D03*
X130175000Y-112125000D03*
%TD*%
D31*
%TO.C,C601*%
X92075000Y-115167500D03*
X92075000Y-117242500D03*
%TD*%
D16*
%TO.C,R307*%
X160020000Y-65405000D03*
X160020000Y-63405000D03*
%TD*%
D31*
%TO.C,C506*%
X137795000Y-99927500D03*
X137795000Y-102002500D03*
%TD*%
D23*
%TO.C,R709*%
X103235000Y-82550000D03*
X101235000Y-82550000D03*
%TD*%
D18*
%TO.C,R719*%
X80280000Y-53340000D03*
X82280000Y-53340000D03*
%TD*%
D24*
%TO.C,Q505*%
X125415000Y-105712500D03*
X127315000Y-105712500D03*
X126365000Y-103837500D03*
%TD*%
D30*
%TO.C,Q801*%
X102840000Y-126680000D03*
X102840000Y-124780000D03*
X100965000Y-125730000D03*
%TD*%
D38*
%TO.C,Q804*%
X118140000Y-135575000D03*
X118140000Y-137475000D03*
X120015000Y-136525000D03*
%TD*%
D39*
%TO.C,D901*%
X86345000Y-110220000D03*
X87645000Y-110220000D03*
X86995000Y-108220000D03*
%TD*%
D31*
%TO.C,C502*%
X113665000Y-108817500D03*
X113665000Y-110892500D03*
%TD*%
D16*
%TO.C,R512*%
X121285000Y-99155000D03*
X121285000Y-97155000D03*
%TD*%
D14*
%TO.C,Q501*%
X109535000Y-102567500D03*
X107635000Y-102567500D03*
X108585000Y-104442500D03*
%TD*%
%TO.C,Q707*%
X90485000Y-60990000D03*
X88585000Y-60990000D03*
X89535000Y-62865000D03*
%TD*%
D23*
%TO.C,R201*%
X155305000Y-52070000D03*
X153305000Y-52070000D03*
%TD*%
D36*
%TO.C,D1108*%
X147565000Y-94615000D03*
X149615000Y-94615000D03*
%TD*%
D40*
%TO.C,U601*%
X94927500Y-114595000D03*
X94927500Y-115245000D03*
X94927500Y-115895000D03*
X94927500Y-116545000D03*
X100652500Y-116545000D03*
X100652500Y-115895000D03*
X100652500Y-115245000D03*
X100652500Y-114595000D03*
%TD*%
D15*
%TO.C,R506*%
X113665000Y-113935000D03*
X113665000Y-115935000D03*
%TD*%
D23*
%TO.C,R505*%
X104505000Y-108585000D03*
X102505000Y-108585000D03*
%TD*%
D20*
%TO.C,C901*%
X82147500Y-116840000D03*
X84222500Y-116840000D03*
%TD*%
D12*
%TO.C,C508*%
X121285000Y-115972500D03*
X121285000Y-113897500D03*
%TD*%
D15*
%TO.C,R813*%
X98425000Y-131080000D03*
X98425000Y-133080000D03*
%TD*%
%TO.C,R513*%
X123825000Y-97155000D03*
X123825000Y-99155000D03*
%TD*%
D24*
%TO.C,Q806*%
X111445000Y-130477500D03*
X113345000Y-130477500D03*
X112395000Y-128602500D03*
%TD*%
D41*
%TO.C,D504*%
X141605000Y-97060000D03*
X141605000Y-101060000D03*
%TD*%
D23*
%TO.C,R701*%
X106410000Y-94615000D03*
X104410000Y-94615000D03*
%TD*%
D16*
%TO.C,R811*%
X115570000Y-130540000D03*
X115570000Y-128540000D03*
%TD*%
%TO.C,R714*%
X92710000Y-94345000D03*
X92710000Y-92345000D03*
%TD*%
D12*
%TO.C,C505*%
X130810000Y-96922500D03*
X130810000Y-94847500D03*
%TD*%
D27*
%TO.C,L302*%
X159385000Y-59690000D03*
X161685000Y-59690000D03*
%TD*%
D14*
%TO.C,Q703*%
X103185000Y-84787500D03*
X101285000Y-84787500D03*
X102235000Y-86662500D03*
%TD*%
D16*
%TO.C,R703*%
X105410000Y-75025000D03*
X105410000Y-73025000D03*
%TD*%
D18*
%TO.C,R807*%
X90440000Y-123190000D03*
X92440000Y-123190000D03*
%TD*%
D23*
%TO.C,R716*%
X99790000Y-78740000D03*
X97790000Y-78740000D03*
%TD*%
D14*
%TO.C,Q503*%
X118425000Y-111457500D03*
X116525000Y-111457500D03*
X117475000Y-113332500D03*
%TD*%
D36*
%TO.C,D1104*%
X147565000Y-107315000D03*
X149615000Y-107315000D03*
%TD*%
D23*
%TO.C,R704*%
X103870000Y-77470000D03*
X101870000Y-77470000D03*
%TD*%
%TO.C,R722*%
X90535000Y-58420000D03*
X88535000Y-58420000D03*
%TD*%
D18*
%TO.C,R503*%
X116205000Y-108585000D03*
X118205000Y-108585000D03*
%TD*%
D15*
%TO.C,R803*%
X124460000Y-131715000D03*
X124460000Y-133715000D03*
%TD*%
D13*
%TO.C,D1101*%
X130175000Y-86750000D03*
X130175000Y-84700000D03*
%TD*%
D29*
%TO.C,U801*%
X94955000Y-125407500D03*
X94305000Y-125407500D03*
X93655000Y-125407500D03*
X93005000Y-125407500D03*
X93005000Y-131132500D03*
X93655000Y-131132500D03*
X94305000Y-131132500D03*
X94955000Y-131132500D03*
%TD*%
D15*
%TO.C,R515*%
X132715000Y-118015000D03*
X132715000Y-120015000D03*
%TD*%
D13*
%TO.C,D1113*%
X140970000Y-86750000D03*
X140970000Y-84700000D03*
%TD*%
D20*
%TO.C,C301*%
X159617500Y-67945000D03*
X161692500Y-67945000D03*
%TD*%
D18*
%TO.C,R510*%
X128540000Y-99060000D03*
X130540000Y-99060000D03*
%TD*%
D42*
%TO.C,U301*%
X153610000Y-57825000D03*
X153110000Y-57825000D03*
X152610000Y-57825000D03*
X152110000Y-57825000D03*
X151610000Y-57825000D03*
X151110000Y-57825000D03*
X150610000Y-57825000D03*
X150110000Y-57825000D03*
X149610000Y-57825000D03*
X149110000Y-57825000D03*
X148610000Y-57825000D03*
X148110000Y-57825000D03*
X147610000Y-57825000D03*
X147110000Y-57825000D03*
X146610000Y-57825000D03*
X146110000Y-57825000D03*
D43*
X144185000Y-59750000D03*
X144185000Y-60250000D03*
X144185000Y-60750000D03*
X144185000Y-61250000D03*
X144185000Y-61750000D03*
X144185000Y-62250000D03*
X144185000Y-62750000D03*
X144185000Y-63250000D03*
X144185000Y-63750000D03*
X144185000Y-64250000D03*
X144185000Y-64750000D03*
X144185000Y-65250000D03*
X144185000Y-65750000D03*
X144185000Y-66250000D03*
X144185000Y-66750000D03*
X144185000Y-67250000D03*
D42*
X146110000Y-69175000D03*
X146610000Y-69175000D03*
X147110000Y-69175000D03*
X147610000Y-69175000D03*
X148110000Y-69175000D03*
X148610000Y-69175000D03*
X149110000Y-69175000D03*
X149610000Y-69175000D03*
X150110000Y-69175000D03*
X150610000Y-69175000D03*
X151110000Y-69175000D03*
X151610000Y-69175000D03*
X152110000Y-69175000D03*
X152610000Y-69175000D03*
X153110000Y-69175000D03*
X153610000Y-69175000D03*
D43*
X155535000Y-67250000D03*
X155535000Y-66750000D03*
X155535000Y-66250000D03*
X155535000Y-65750000D03*
X155535000Y-65250000D03*
X155535000Y-64750000D03*
X155535000Y-64250000D03*
X155535000Y-63750000D03*
X155535000Y-63250000D03*
X155535000Y-62750000D03*
X155535000Y-62250000D03*
X155535000Y-61750000D03*
X155535000Y-61250000D03*
X155535000Y-60750000D03*
X155535000Y-60250000D03*
X155535000Y-59750000D03*
%TD*%
D15*
%TO.C,R509*%
X128270000Y-94885000D03*
X128270000Y-96885000D03*
%TD*%
D17*
%TO.C,D805*%
X92345000Y-134605000D03*
X92345000Y-135905000D03*
X94345000Y-135255000D03*
%TD*%
D30*
%TO.C,Q702*%
X103172500Y-75245000D03*
X103172500Y-73345000D03*
X101297500Y-74295000D03*
%TD*%
D15*
%TO.C,R805*%
X115570000Y-135525000D03*
X115570000Y-137525000D03*
%TD*%
D44*
%TO.C,C509*%
X125730000Y-121285000D03*
X123655000Y-121285000D03*
%TD*%
D24*
%TO.C,Q904*%
X74615000Y-113332500D03*
X76515000Y-113332500D03*
X75565000Y-111457500D03*
%TD*%
D18*
%TO.C,R809*%
X94520000Y-123190000D03*
X96520000Y-123190000D03*
%TD*%
D44*
%TO.C,C706*%
X92477500Y-69215000D03*
X90402500Y-69215000D03*
%TD*%
D45*
%TO.C,J302*%
X164185000Y-45060000D03*
X163535000Y-45060000D03*
X162885000Y-45060000D03*
X162235000Y-45060000D03*
X161585000Y-45060000D03*
D46*
X165735000Y-45160000D03*
D47*
X160155000Y-42180000D03*
D48*
X165305000Y-45180000D03*
D49*
X160135000Y-43110000D03*
D50*
X159885000Y-43860000D03*
D49*
X165615000Y-43110000D03*
D48*
X160465000Y-45180000D03*
D51*
X161925000Y-41910000D03*
D46*
X159985000Y-45180000D03*
D51*
X163845000Y-41910000D03*
D50*
X165835000Y-43860000D03*
D47*
X165615000Y-42180000D03*
%TD*%
D16*
%TO.C,R601*%
X86995000Y-117205000D03*
X86995000Y-115205000D03*
%TD*%
D36*
%TO.C,D1105*%
X147565000Y-104140000D03*
X149615000Y-104140000D03*
%TD*%
D14*
%TO.C,Q704*%
X99695000Y-66675000D03*
X97795000Y-66675000D03*
X98745000Y-68550000D03*
%TD*%
D31*
%TO.C,C603*%
X102870000Y-115802500D03*
X102870000Y-117877500D03*
%TD*%
D14*
%TO.C,Q807*%
X117155000Y-124157500D03*
X115255000Y-124157500D03*
X116205000Y-126032500D03*
%TD*%
D23*
%TO.C,F501*%
X78835000Y-100965000D03*
X76835000Y-100965000D03*
%TD*%
D16*
%TO.C,R603*%
X107950000Y-119745000D03*
X107950000Y-117745000D03*
%TD*%
D31*
%TO.C,C511*%
X142875000Y-106680000D03*
X142875000Y-108755000D03*
%TD*%
D15*
%TO.C,R712*%
X101600000Y-66580000D03*
X101600000Y-68580000D03*
%TD*%
D38*
%TO.C,Q504*%
X125427500Y-108905000D03*
X125427500Y-110805000D03*
X127302500Y-109855000D03*
%TD*%
D12*
%TO.C,C705*%
X90170000Y-75332500D03*
X90170000Y-73257500D03*
%TD*%
D23*
%TO.C,R720*%
X83550000Y-64135000D03*
X81550000Y-64135000D03*
%TD*%
D52*
%TO.C,J401*%
X85234780Y-68519040D03*
X85234780Y-72468740D03*
X85234780Y-76418440D03*
X85234780Y-80368140D03*
X85234780Y-84315300D03*
X85234780Y-88265000D03*
X85234780Y-92214700D03*
X85234780Y-96166940D03*
X76835000Y-68519040D03*
X76835000Y-72468740D03*
X76835000Y-76418440D03*
X76835000Y-80368140D03*
X76835000Y-84315300D03*
X76835000Y-88265000D03*
X76835000Y-92214700D03*
X76835000Y-96166940D03*
%TD*%
D15*
%TO.C,R516*%
X139065000Y-118110000D03*
X139065000Y-120110000D03*
%TD*%
D36*
%TO.C,D1109*%
X147565000Y-91440000D03*
X149615000Y-91440000D03*
%TD*%
D15*
%TO.C,R306*%
X167005000Y-59055000D03*
X167005000Y-61055000D03*
%TD*%
D16*
%TO.C,R717*%
X86995000Y-46085000D03*
X86995000Y-44085000D03*
%TD*%
D12*
%TO.C,C701*%
X107315000Y-89937500D03*
X107315000Y-87862500D03*
%TD*%
D29*
%TO.C,U901*%
X84160000Y-108897500D03*
X83510000Y-108897500D03*
X82860000Y-108897500D03*
X82210000Y-108897500D03*
X82210000Y-114622500D03*
X82860000Y-114622500D03*
X83510000Y-114622500D03*
X84160000Y-114622500D03*
%TD*%
D23*
%TO.C,R711*%
X99695000Y-64135000D03*
X97695000Y-64135000D03*
%TD*%
D33*
%TO.C,D804*%
X122555000Y-128270000D03*
X125855000Y-128270000D03*
%TD*%
D25*
%TO.C,U701*%
X99340000Y-89240000D03*
X99340000Y-88590000D03*
X99340000Y-87940000D03*
X99340000Y-87290000D03*
X96240000Y-87290000D03*
X96240000Y-87940000D03*
X96240000Y-88590000D03*
X96240000Y-89240000D03*
D26*
X97790000Y-88265000D03*
%TD*%
D23*
%TO.C,R705*%
X93440000Y-89535000D03*
X91440000Y-89535000D03*
%TD*%
D24*
%TO.C,Q805*%
X105730000Y-132382500D03*
X107630000Y-132382500D03*
X106680000Y-130507500D03*
%TD*%
D16*
%TO.C,R706*%
X93980000Y-87360000D03*
X93980000Y-85360000D03*
%TD*%
D53*
%TO.C,SW201*%
X147245000Y-43470000D03*
X153745000Y-43470000D03*
X147245000Y-47970000D03*
X153745000Y-47970000D03*
%TD*%
D33*
%TO.C,D503*%
X94615000Y-107315000D03*
X91315000Y-107315000D03*
%TD*%
D15*
%TO.C,R602*%
X89535000Y-115205000D03*
X89535000Y-117205000D03*
%TD*%
%TO.C,R812*%
X119380000Y-124095000D03*
X119380000Y-126095000D03*
%TD*%
D13*
%TO.C,D1111*%
X137160000Y-86750000D03*
X137160000Y-84700000D03*
%TD*%
D18*
%TO.C,R815*%
X86630000Y-137160000D03*
X88630000Y-137160000D03*
%TD*%
D31*
%TO.C,C512*%
X132715000Y-106680000D03*
X132715000Y-108755000D03*
%TD*%
D18*
%TO.C,R907*%
X74565000Y-115570000D03*
X76565000Y-115570000D03*
%TD*%
D19*
%TO.C,D602*%
X102870000Y-112967500D03*
X102870000Y-111822500D03*
%TD*%
D15*
%TO.C,R718*%
X84455000Y-44085000D03*
X84455000Y-46085000D03*
%TD*%
D54*
%TO.C,C501*%
X109855000Y-108585000D03*
X109855000Y-114985000D03*
%TD*%
D55*
%TO.C,D801*%
X113030000Y-136905000D03*
X113030000Y-133605000D03*
%TD*%
D16*
%TO.C,R708*%
X94615000Y-71120000D03*
X94615000Y-69120000D03*
%TD*%
D56*
%TO.C,U202*%
X128098550Y-44447501D03*
X128098550Y-43497500D03*
X128098550Y-42547499D03*
X125507750Y-42547499D03*
X125507750Y-43497500D03*
X125507750Y-44447501D03*
%TD*%
D40*
%TO.C,U704*%
X103182500Y-50430000D03*
X103182500Y-51080000D03*
X103182500Y-51730000D03*
X103182500Y-52380000D03*
X103182500Y-53030000D03*
X103182500Y-53680000D03*
X103182500Y-54330000D03*
X103182500Y-54980000D03*
X108907500Y-54980000D03*
X108907500Y-54330000D03*
X108907500Y-53680000D03*
X108907500Y-53030000D03*
X108907500Y-52380000D03*
X108907500Y-51730000D03*
X108907500Y-51080000D03*
X108907500Y-50430000D03*
%TD*%
D23*
%TO.C,R814*%
X88630000Y-133985000D03*
X86630000Y-133985000D03*
%TD*%
D38*
%TO.C,Q706*%
X93677500Y-77155000D03*
X93677500Y-79055000D03*
X95552500Y-78105000D03*
%TD*%
D57*
%TO.C,J301*%
X138800000Y-73095000D03*
X138800000Y-74195000D03*
X138800000Y-75295000D03*
X138800000Y-76395000D03*
X138800000Y-77495000D03*
X138800000Y-78595000D03*
X138800000Y-79695000D03*
D58*
X138800000Y-80745000D03*
D59*
X132650000Y-70460000D03*
X128950000Y-70460000D03*
D60*
X138675000Y-70635000D03*
D61*
X127975000Y-79930000D03*
X127975000Y-73960000D03*
D62*
X138450000Y-81955000D03*
%TD*%
D15*
%TO.C,R710*%
X99060000Y-83455000D03*
X99060000Y-85455000D03*
%TD*%
D23*
%TO.C,R502*%
X99425000Y-104775000D03*
X97425000Y-104775000D03*
%TD*%
D63*
%TO.C,U503*%
X140045000Y-106805000D03*
X138545000Y-106805000D03*
X137045000Y-106805000D03*
X135545000Y-106805000D03*
D64*
X137795000Y-113105000D03*
%TD*%
D65*
%TO.C,U501*%
X117475000Y-92544900D03*
X118745000Y-92544900D03*
X120015000Y-92544900D03*
X121285000Y-92544900D03*
X122555000Y-92544900D03*
X123825000Y-92544900D03*
X125095000Y-92544900D03*
D66*
X121285000Y-84302600D03*
%TD*%
D23*
%TO.C,R302*%
X161655000Y-53340000D03*
X159655000Y-53340000D03*
%TD*%
D15*
%TO.C,R304*%
X164465000Y-59055000D03*
X164465000Y-61055000D03*
%TD*%
D24*
%TO.C,Q502*%
X102555000Y-104442500D03*
X104455000Y-104442500D03*
X103505000Y-102567500D03*
%TD*%
D31*
%TO.C,C707*%
X100330000Y-44682500D03*
X100330000Y-46757500D03*
%TD*%
%TO.C,C504*%
X112395000Y-98657500D03*
X112395000Y-100732500D03*
%TD*%
D44*
%TO.C,C704*%
X93747500Y-83185000D03*
X91672500Y-83185000D03*
%TD*%
D24*
%TO.C,Q701*%
X100650000Y-94585000D03*
X102550000Y-94585000D03*
X101600000Y-92710000D03*
%TD*%
D15*
%TO.C,R511*%
X118745000Y-96155000D03*
X118745000Y-98155000D03*
%TD*%
D18*
%TO.C,R305*%
X144050000Y-73025000D03*
X146050000Y-73025000D03*
%TD*%
D67*
%TO.C,J304*%
X141889480Y-47914560D03*
X141889480Y-49413160D03*
X141889480Y-50914300D03*
X141889480Y-52412900D03*
%TD*%
D40*
%TO.C,U703*%
X92387500Y-47875000D03*
X92387500Y-48525000D03*
X92387500Y-49175000D03*
X92387500Y-49825000D03*
X92387500Y-50475000D03*
X92387500Y-51125000D03*
X92387500Y-51775000D03*
X92387500Y-52425000D03*
X92387500Y-53075000D03*
X92387500Y-53725000D03*
X98112500Y-53725000D03*
X98112500Y-53075000D03*
X98112500Y-52425000D03*
X98112500Y-51775000D03*
X98112500Y-51125000D03*
X98112500Y-50475000D03*
X98112500Y-49825000D03*
X98112500Y-49175000D03*
X98112500Y-48525000D03*
X98112500Y-47875000D03*
%TD*%
D14*
%TO.C,Q903*%
X75880000Y-105107500D03*
X73980000Y-105107500D03*
X74930000Y-106982500D03*
%TD*%
D68*
%TO.C,RN701*%
X95240000Y-59055000D03*
D69*
X97780000Y-59055000D03*
X100320000Y-59055000D03*
X102860000Y-59055000D03*
X105400000Y-59055000D03*
X107940000Y-59055000D03*
X110480000Y-59055000D03*
X113020000Y-59055000D03*
%TD*%
D23*
%TO.C,R901*%
X79470000Y-102870000D03*
X77470000Y-102870000D03*
%TD*%
D36*
%TO.C,D1103*%
X147565000Y-111125000D03*
X149615000Y-111125000D03*
%TD*%
D37*
%TO.C,D501*%
X90995000Y-102235000D03*
X86995000Y-102235000D03*
%TD*%
D36*
%TO.C,D1110*%
X147565000Y-88265000D03*
X149615000Y-88265000D03*
%TD*%
D31*
%TO.C,C703*%
X88900000Y-87630000D03*
X88900000Y-89705000D03*
%TD*%
D18*
%TO.C,R301*%
X125000000Y-67945000D03*
X127000000Y-67945000D03*
%TD*%
D13*
%TO.C,D1112*%
X144780000Y-86480000D03*
X144780000Y-84430000D03*
%TD*%
D14*
%TO.C,Q902*%
X79690000Y-106377500D03*
X77790000Y-106377500D03*
X78740000Y-108252500D03*
%TD*%
D23*
%TO.C,R804*%
X108045000Y-125095000D03*
X106045000Y-125095000D03*
%TD*%
D70*
%TO.C,X201*%
X138430000Y-41815000D03*
X133350000Y-41815000D03*
X133350000Y-45815000D03*
X138430000Y-45815000D03*
%TD*%
D15*
%TO.C,R715*%
X90805000Y-77105000D03*
X90805000Y-79105000D03*
%TD*%
D23*
%TO.C,R808*%
X88630000Y-130810000D03*
X86630000Y-130810000D03*
%TD*%
%TO.C,R810*%
X120650000Y-128270000D03*
X118650000Y-128270000D03*
%TD*%
D33*
%TO.C,D802*%
X103380000Y-136525000D03*
X106680000Y-136525000D03*
%TD*%
D36*
%TO.C,D1107*%
X147565000Y-97790000D03*
X149615000Y-97790000D03*
%TD*%
D71*
%TO.C,U502*%
X127230000Y-115825000D03*
D72*
X125730000Y-115912500D03*
D71*
X124230000Y-115825000D03*
%TD*%
D15*
%TO.C,R517*%
X132715000Y-122555000D03*
X132715000Y-124555000D03*
%TD*%
M02*
